%TF.GenerationSoftware,KiCad,Pcbnew,9.0.3*%
%TF.CreationDate,2025-08-01T10:01:51-04:00*%
%TF.ProjectId,ECG,4543472e-6b69-4636-9164-5f7063625858,rev?*%
%TF.SameCoordinates,Original*%
%TF.FileFunction,Legend,Top*%
%TF.FilePolarity,Positive*%
%FSLAX46Y46*%
G04 Gerber Fmt 4.6, Leading zero omitted, Abs format (unit mm)*
G04 Created by KiCad (PCBNEW 9.0.3) date 2025-08-01 10:01:51*
%MOMM*%
%LPD*%
G01*
G04 APERTURE LIST*
%ADD10C,0.150000*%
%ADD11C,0.300000*%
%ADD12C,0.200000*%
%ADD13C,0.120000*%
%ADD14C,0.400000*%
%ADD15C,0.127000*%
%ADD16C,0.152400*%
G04 APERTURE END LIST*
D10*
X135496541Y-99834819D02*
X136115588Y-99834819D01*
X136115588Y-99834819D02*
X135782255Y-100215771D01*
X135782255Y-100215771D02*
X135925112Y-100215771D01*
X135925112Y-100215771D02*
X136020350Y-100263390D01*
X136020350Y-100263390D02*
X136067969Y-100311009D01*
X136067969Y-100311009D02*
X136115588Y-100406247D01*
X136115588Y-100406247D02*
X136115588Y-100644342D01*
X136115588Y-100644342D02*
X136067969Y-100739580D01*
X136067969Y-100739580D02*
X136020350Y-100787200D01*
X136020350Y-100787200D02*
X135925112Y-100834819D01*
X135925112Y-100834819D02*
X135639398Y-100834819D01*
X135639398Y-100834819D02*
X135544160Y-100787200D01*
X135544160Y-100787200D02*
X135496541Y-100739580D01*
X136544160Y-100453866D02*
X137306065Y-100453866D01*
X137687017Y-99834819D02*
X137925112Y-100834819D01*
X137925112Y-100834819D02*
X138115588Y-100120533D01*
X138115588Y-100120533D02*
X138306064Y-100834819D01*
X138306064Y-100834819D02*
X138544160Y-99834819D01*
X138925112Y-100834819D02*
X138925112Y-99834819D01*
X139972730Y-100834819D02*
X139639397Y-100358628D01*
X139401302Y-100834819D02*
X139401302Y-99834819D01*
X139401302Y-99834819D02*
X139782254Y-99834819D01*
X139782254Y-99834819D02*
X139877492Y-99882438D01*
X139877492Y-99882438D02*
X139925111Y-99930057D01*
X139925111Y-99930057D02*
X139972730Y-100025295D01*
X139972730Y-100025295D02*
X139972730Y-100168152D01*
X139972730Y-100168152D02*
X139925111Y-100263390D01*
X139925111Y-100263390D02*
X139877492Y-100311009D01*
X139877492Y-100311009D02*
X139782254Y-100358628D01*
X139782254Y-100358628D02*
X139401302Y-100358628D01*
X140401302Y-100311009D02*
X140734635Y-100311009D01*
X140877492Y-100834819D02*
X140401302Y-100834819D01*
X140401302Y-100834819D02*
X140401302Y-99834819D01*
X140401302Y-99834819D02*
X140877492Y-99834819D01*
X106334160Y-40982272D02*
X106810350Y-40982272D01*
X106238922Y-41267987D02*
X106572255Y-40267987D01*
X106572255Y-40267987D02*
X106905588Y-41267987D01*
X107238922Y-41267987D02*
X107238922Y-40267987D01*
X107238922Y-40267987D02*
X107477017Y-40267987D01*
X107477017Y-40267987D02*
X107619874Y-40315606D01*
X107619874Y-40315606D02*
X107715112Y-40410844D01*
X107715112Y-40410844D02*
X107762731Y-40506082D01*
X107762731Y-40506082D02*
X107810350Y-40696558D01*
X107810350Y-40696558D02*
X107810350Y-40839415D01*
X107810350Y-40839415D02*
X107762731Y-41029891D01*
X107762731Y-41029891D02*
X107715112Y-41125129D01*
X107715112Y-41125129D02*
X107619874Y-41220368D01*
X107619874Y-41220368D02*
X107477017Y-41267987D01*
X107477017Y-41267987D02*
X107238922Y-41267987D01*
X108381779Y-40696558D02*
X108286541Y-40648939D01*
X108286541Y-40648939D02*
X108238922Y-40601320D01*
X108238922Y-40601320D02*
X108191303Y-40506082D01*
X108191303Y-40506082D02*
X108191303Y-40458463D01*
X108191303Y-40458463D02*
X108238922Y-40363225D01*
X108238922Y-40363225D02*
X108286541Y-40315606D01*
X108286541Y-40315606D02*
X108381779Y-40267987D01*
X108381779Y-40267987D02*
X108572255Y-40267987D01*
X108572255Y-40267987D02*
X108667493Y-40315606D01*
X108667493Y-40315606D02*
X108715112Y-40363225D01*
X108715112Y-40363225D02*
X108762731Y-40458463D01*
X108762731Y-40458463D02*
X108762731Y-40506082D01*
X108762731Y-40506082D02*
X108715112Y-40601320D01*
X108715112Y-40601320D02*
X108667493Y-40648939D01*
X108667493Y-40648939D02*
X108572255Y-40696558D01*
X108572255Y-40696558D02*
X108381779Y-40696558D01*
X108381779Y-40696558D02*
X108286541Y-40744177D01*
X108286541Y-40744177D02*
X108238922Y-40791796D01*
X108238922Y-40791796D02*
X108191303Y-40887034D01*
X108191303Y-40887034D02*
X108191303Y-41077510D01*
X108191303Y-41077510D02*
X108238922Y-41172748D01*
X108238922Y-41172748D02*
X108286541Y-41220368D01*
X108286541Y-41220368D02*
X108381779Y-41267987D01*
X108381779Y-41267987D02*
X108572255Y-41267987D01*
X108572255Y-41267987D02*
X108667493Y-41220368D01*
X108667493Y-41220368D02*
X108715112Y-41172748D01*
X108715112Y-41172748D02*
X108762731Y-41077510D01*
X108762731Y-41077510D02*
X108762731Y-40887034D01*
X108762731Y-40887034D02*
X108715112Y-40791796D01*
X108715112Y-40791796D02*
X108667493Y-40744177D01*
X108667493Y-40744177D02*
X108572255Y-40696558D01*
X109143684Y-40363225D02*
X109191303Y-40315606D01*
X109191303Y-40315606D02*
X109286541Y-40267987D01*
X109286541Y-40267987D02*
X109524636Y-40267987D01*
X109524636Y-40267987D02*
X109619874Y-40315606D01*
X109619874Y-40315606D02*
X109667493Y-40363225D01*
X109667493Y-40363225D02*
X109715112Y-40458463D01*
X109715112Y-40458463D02*
X109715112Y-40553701D01*
X109715112Y-40553701D02*
X109667493Y-40696558D01*
X109667493Y-40696558D02*
X109096065Y-41267987D01*
X109096065Y-41267987D02*
X109715112Y-41267987D01*
X110048446Y-40267987D02*
X110667493Y-40267987D01*
X110667493Y-40267987D02*
X110334160Y-40648939D01*
X110334160Y-40648939D02*
X110477017Y-40648939D01*
X110477017Y-40648939D02*
X110572255Y-40696558D01*
X110572255Y-40696558D02*
X110619874Y-40744177D01*
X110619874Y-40744177D02*
X110667493Y-40839415D01*
X110667493Y-40839415D02*
X110667493Y-41077510D01*
X110667493Y-41077510D02*
X110619874Y-41172748D01*
X110619874Y-41172748D02*
X110572255Y-41220368D01*
X110572255Y-41220368D02*
X110477017Y-41267987D01*
X110477017Y-41267987D02*
X110191303Y-41267987D01*
X110191303Y-41267987D02*
X110096065Y-41220368D01*
X110096065Y-41220368D02*
X110048446Y-41172748D01*
X111048446Y-40363225D02*
X111096065Y-40315606D01*
X111096065Y-40315606D02*
X111191303Y-40267987D01*
X111191303Y-40267987D02*
X111429398Y-40267987D01*
X111429398Y-40267987D02*
X111524636Y-40315606D01*
X111524636Y-40315606D02*
X111572255Y-40363225D01*
X111572255Y-40363225D02*
X111619874Y-40458463D01*
X111619874Y-40458463D02*
X111619874Y-40553701D01*
X111619874Y-40553701D02*
X111572255Y-40696558D01*
X111572255Y-40696558D02*
X111000827Y-41267987D01*
X111000827Y-41267987D02*
X111619874Y-41267987D01*
X112810351Y-40744177D02*
X113143684Y-40744177D01*
X113286541Y-41267987D02*
X112810351Y-41267987D01*
X112810351Y-41267987D02*
X112810351Y-40267987D01*
X112810351Y-40267987D02*
X113286541Y-40267987D01*
X114286541Y-41172748D02*
X114238922Y-41220368D01*
X114238922Y-41220368D02*
X114096065Y-41267987D01*
X114096065Y-41267987D02*
X114000827Y-41267987D01*
X114000827Y-41267987D02*
X113857970Y-41220368D01*
X113857970Y-41220368D02*
X113762732Y-41125129D01*
X113762732Y-41125129D02*
X113715113Y-41029891D01*
X113715113Y-41029891D02*
X113667494Y-40839415D01*
X113667494Y-40839415D02*
X113667494Y-40696558D01*
X113667494Y-40696558D02*
X113715113Y-40506082D01*
X113715113Y-40506082D02*
X113762732Y-40410844D01*
X113762732Y-40410844D02*
X113857970Y-40315606D01*
X113857970Y-40315606D02*
X114000827Y-40267987D01*
X114000827Y-40267987D02*
X114096065Y-40267987D01*
X114096065Y-40267987D02*
X114238922Y-40315606D01*
X114238922Y-40315606D02*
X114286541Y-40363225D01*
X115238922Y-40315606D02*
X115143684Y-40267987D01*
X115143684Y-40267987D02*
X115000827Y-40267987D01*
X115000827Y-40267987D02*
X114857970Y-40315606D01*
X114857970Y-40315606D02*
X114762732Y-40410844D01*
X114762732Y-40410844D02*
X114715113Y-40506082D01*
X114715113Y-40506082D02*
X114667494Y-40696558D01*
X114667494Y-40696558D02*
X114667494Y-40839415D01*
X114667494Y-40839415D02*
X114715113Y-41029891D01*
X114715113Y-41029891D02*
X114762732Y-41125129D01*
X114762732Y-41125129D02*
X114857970Y-41220368D01*
X114857970Y-41220368D02*
X115000827Y-41267987D01*
X115000827Y-41267987D02*
X115096065Y-41267987D01*
X115096065Y-41267987D02*
X115238922Y-41220368D01*
X115238922Y-41220368D02*
X115286541Y-41172748D01*
X115286541Y-41172748D02*
X115286541Y-40839415D01*
X115286541Y-40839415D02*
X115096065Y-40839415D01*
X116477018Y-41267987D02*
X116477018Y-40267987D01*
X116477018Y-40267987D02*
X116715113Y-40267987D01*
X116715113Y-40267987D02*
X116857970Y-40315606D01*
X116857970Y-40315606D02*
X116953208Y-40410844D01*
X116953208Y-40410844D02*
X117000827Y-40506082D01*
X117000827Y-40506082D02*
X117048446Y-40696558D01*
X117048446Y-40696558D02*
X117048446Y-40839415D01*
X117048446Y-40839415D02*
X117000827Y-41029891D01*
X117000827Y-41029891D02*
X116953208Y-41125129D01*
X116953208Y-41125129D02*
X116857970Y-41220368D01*
X116857970Y-41220368D02*
X116715113Y-41267987D01*
X116715113Y-41267987D02*
X116477018Y-41267987D01*
X117857970Y-41220368D02*
X117762732Y-41267987D01*
X117762732Y-41267987D02*
X117572256Y-41267987D01*
X117572256Y-41267987D02*
X117477018Y-41220368D01*
X117477018Y-41220368D02*
X117429399Y-41125129D01*
X117429399Y-41125129D02*
X117429399Y-40744177D01*
X117429399Y-40744177D02*
X117477018Y-40648939D01*
X117477018Y-40648939D02*
X117572256Y-40601320D01*
X117572256Y-40601320D02*
X117762732Y-40601320D01*
X117762732Y-40601320D02*
X117857970Y-40648939D01*
X117857970Y-40648939D02*
X117905589Y-40744177D01*
X117905589Y-40744177D02*
X117905589Y-40839415D01*
X117905589Y-40839415D02*
X117429399Y-40934653D01*
X118334161Y-41267987D02*
X118334161Y-40601320D01*
X118334161Y-40696558D02*
X118381780Y-40648939D01*
X118381780Y-40648939D02*
X118477018Y-40601320D01*
X118477018Y-40601320D02*
X118619875Y-40601320D01*
X118619875Y-40601320D02*
X118715113Y-40648939D01*
X118715113Y-40648939D02*
X118762732Y-40744177D01*
X118762732Y-40744177D02*
X118762732Y-41267987D01*
X118762732Y-40744177D02*
X118810351Y-40648939D01*
X118810351Y-40648939D02*
X118905589Y-40601320D01*
X118905589Y-40601320D02*
X119048446Y-40601320D01*
X119048446Y-40601320D02*
X119143685Y-40648939D01*
X119143685Y-40648939D02*
X119191304Y-40744177D01*
X119191304Y-40744177D02*
X119191304Y-41267987D01*
X119810351Y-41267987D02*
X119715113Y-41220368D01*
X119715113Y-41220368D02*
X119667494Y-41172748D01*
X119667494Y-41172748D02*
X119619875Y-41077510D01*
X119619875Y-41077510D02*
X119619875Y-40791796D01*
X119619875Y-40791796D02*
X119667494Y-40696558D01*
X119667494Y-40696558D02*
X119715113Y-40648939D01*
X119715113Y-40648939D02*
X119810351Y-40601320D01*
X119810351Y-40601320D02*
X119953208Y-40601320D01*
X119953208Y-40601320D02*
X120048446Y-40648939D01*
X120048446Y-40648939D02*
X120096065Y-40696558D01*
X120096065Y-40696558D02*
X120143684Y-40791796D01*
X120143684Y-40791796D02*
X120143684Y-41077510D01*
X120143684Y-41077510D02*
X120096065Y-41172748D01*
X120096065Y-41172748D02*
X120048446Y-41220368D01*
X120048446Y-41220368D02*
X119953208Y-41267987D01*
X119953208Y-41267987D02*
X119810351Y-41267987D01*
X121667494Y-40744177D02*
X121810351Y-40791796D01*
X121810351Y-40791796D02*
X121857970Y-40839415D01*
X121857970Y-40839415D02*
X121905589Y-40934653D01*
X121905589Y-40934653D02*
X121905589Y-41077510D01*
X121905589Y-41077510D02*
X121857970Y-41172748D01*
X121857970Y-41172748D02*
X121810351Y-41220368D01*
X121810351Y-41220368D02*
X121715113Y-41267987D01*
X121715113Y-41267987D02*
X121334161Y-41267987D01*
X121334161Y-41267987D02*
X121334161Y-40267987D01*
X121334161Y-40267987D02*
X121667494Y-40267987D01*
X121667494Y-40267987D02*
X121762732Y-40315606D01*
X121762732Y-40315606D02*
X121810351Y-40363225D01*
X121810351Y-40363225D02*
X121857970Y-40458463D01*
X121857970Y-40458463D02*
X121857970Y-40553701D01*
X121857970Y-40553701D02*
X121810351Y-40648939D01*
X121810351Y-40648939D02*
X121762732Y-40696558D01*
X121762732Y-40696558D02*
X121667494Y-40744177D01*
X121667494Y-40744177D02*
X121334161Y-40744177D01*
X122477018Y-41267987D02*
X122381780Y-41220368D01*
X122381780Y-41220368D02*
X122334161Y-41172748D01*
X122334161Y-41172748D02*
X122286542Y-41077510D01*
X122286542Y-41077510D02*
X122286542Y-40791796D01*
X122286542Y-40791796D02*
X122334161Y-40696558D01*
X122334161Y-40696558D02*
X122381780Y-40648939D01*
X122381780Y-40648939D02*
X122477018Y-40601320D01*
X122477018Y-40601320D02*
X122619875Y-40601320D01*
X122619875Y-40601320D02*
X122715113Y-40648939D01*
X122715113Y-40648939D02*
X122762732Y-40696558D01*
X122762732Y-40696558D02*
X122810351Y-40791796D01*
X122810351Y-40791796D02*
X122810351Y-41077510D01*
X122810351Y-41077510D02*
X122762732Y-41172748D01*
X122762732Y-41172748D02*
X122715113Y-41220368D01*
X122715113Y-41220368D02*
X122619875Y-41267987D01*
X122619875Y-41267987D02*
X122477018Y-41267987D01*
X123667494Y-41267987D02*
X123667494Y-40744177D01*
X123667494Y-40744177D02*
X123619875Y-40648939D01*
X123619875Y-40648939D02*
X123524637Y-40601320D01*
X123524637Y-40601320D02*
X123334161Y-40601320D01*
X123334161Y-40601320D02*
X123238923Y-40648939D01*
X123667494Y-41220368D02*
X123572256Y-41267987D01*
X123572256Y-41267987D02*
X123334161Y-41267987D01*
X123334161Y-41267987D02*
X123238923Y-41220368D01*
X123238923Y-41220368D02*
X123191304Y-41125129D01*
X123191304Y-41125129D02*
X123191304Y-41029891D01*
X123191304Y-41029891D02*
X123238923Y-40934653D01*
X123238923Y-40934653D02*
X123334161Y-40887034D01*
X123334161Y-40887034D02*
X123572256Y-40887034D01*
X123572256Y-40887034D02*
X123667494Y-40839415D01*
X124143685Y-41267987D02*
X124143685Y-40601320D01*
X124143685Y-40791796D02*
X124191304Y-40696558D01*
X124191304Y-40696558D02*
X124238923Y-40648939D01*
X124238923Y-40648939D02*
X124334161Y-40601320D01*
X124334161Y-40601320D02*
X124429399Y-40601320D01*
X125191304Y-41267987D02*
X125191304Y-40267987D01*
X125191304Y-41220368D02*
X125096066Y-41267987D01*
X125096066Y-41267987D02*
X124905590Y-41267987D01*
X124905590Y-41267987D02*
X124810352Y-41220368D01*
X124810352Y-41220368D02*
X124762733Y-41172748D01*
X124762733Y-41172748D02*
X124715114Y-41077510D01*
X124715114Y-41077510D02*
X124715114Y-40791796D01*
X124715114Y-40791796D02*
X124762733Y-40696558D01*
X124762733Y-40696558D02*
X124810352Y-40648939D01*
X124810352Y-40648939D02*
X124905590Y-40601320D01*
X124905590Y-40601320D02*
X125096066Y-40601320D01*
X125096066Y-40601320D02*
X125191304Y-40648939D01*
X106953207Y-42877931D02*
X106619874Y-42401740D01*
X106381779Y-42877931D02*
X106381779Y-41877931D01*
X106381779Y-41877931D02*
X106762731Y-41877931D01*
X106762731Y-41877931D02*
X106857969Y-41925550D01*
X106857969Y-41925550D02*
X106905588Y-41973169D01*
X106905588Y-41973169D02*
X106953207Y-42068407D01*
X106953207Y-42068407D02*
X106953207Y-42211264D01*
X106953207Y-42211264D02*
X106905588Y-42306502D01*
X106905588Y-42306502D02*
X106857969Y-42354121D01*
X106857969Y-42354121D02*
X106762731Y-42401740D01*
X106762731Y-42401740D02*
X106381779Y-42401740D01*
X107762731Y-42830312D02*
X107667493Y-42877931D01*
X107667493Y-42877931D02*
X107477017Y-42877931D01*
X107477017Y-42877931D02*
X107381779Y-42830312D01*
X107381779Y-42830312D02*
X107334160Y-42735073D01*
X107334160Y-42735073D02*
X107334160Y-42354121D01*
X107334160Y-42354121D02*
X107381779Y-42258883D01*
X107381779Y-42258883D02*
X107477017Y-42211264D01*
X107477017Y-42211264D02*
X107667493Y-42211264D01*
X107667493Y-42211264D02*
X107762731Y-42258883D01*
X107762731Y-42258883D02*
X107810350Y-42354121D01*
X107810350Y-42354121D02*
X107810350Y-42449359D01*
X107810350Y-42449359D02*
X107334160Y-42544597D01*
X108143684Y-42211264D02*
X108381779Y-42877931D01*
X108381779Y-42877931D02*
X108619874Y-42211264D01*
X110286541Y-42877931D02*
X109715113Y-42877931D01*
X110000827Y-42877931D02*
X110000827Y-41877931D01*
X110000827Y-41877931D02*
X109905589Y-42020788D01*
X109905589Y-42020788D02*
X109810351Y-42116026D01*
X109810351Y-42116026D02*
X109715113Y-42163645D01*
X110715113Y-42782692D02*
X110762732Y-42830312D01*
X110762732Y-42830312D02*
X110715113Y-42877931D01*
X110715113Y-42877931D02*
X110667494Y-42830312D01*
X110667494Y-42830312D02*
X110715113Y-42782692D01*
X110715113Y-42782692D02*
X110715113Y-42877931D01*
X111381779Y-41877931D02*
X111477017Y-41877931D01*
X111477017Y-41877931D02*
X111572255Y-41925550D01*
X111572255Y-41925550D02*
X111619874Y-41973169D01*
X111619874Y-41973169D02*
X111667493Y-42068407D01*
X111667493Y-42068407D02*
X111715112Y-42258883D01*
X111715112Y-42258883D02*
X111715112Y-42496978D01*
X111715112Y-42496978D02*
X111667493Y-42687454D01*
X111667493Y-42687454D02*
X111619874Y-42782692D01*
X111619874Y-42782692D02*
X111572255Y-42830312D01*
X111572255Y-42830312D02*
X111477017Y-42877931D01*
X111477017Y-42877931D02*
X111381779Y-42877931D01*
X111381779Y-42877931D02*
X111286541Y-42830312D01*
X111286541Y-42830312D02*
X111238922Y-42782692D01*
X111238922Y-42782692D02*
X111191303Y-42687454D01*
X111191303Y-42687454D02*
X111143684Y-42496978D01*
X111143684Y-42496978D02*
X111143684Y-42258883D01*
X111143684Y-42258883D02*
X111191303Y-42068407D01*
X111191303Y-42068407D02*
X111238922Y-41973169D01*
X111238922Y-41973169D02*
X111286541Y-41925550D01*
X111286541Y-41925550D02*
X111381779Y-41877931D01*
X106572255Y-43487875D02*
X106762731Y-43487875D01*
X106762731Y-43487875D02*
X106857969Y-43535494D01*
X106857969Y-43535494D02*
X106953207Y-43630732D01*
X106953207Y-43630732D02*
X107000826Y-43821208D01*
X107000826Y-43821208D02*
X107000826Y-44154541D01*
X107000826Y-44154541D02*
X106953207Y-44345017D01*
X106953207Y-44345017D02*
X106857969Y-44440256D01*
X106857969Y-44440256D02*
X106762731Y-44487875D01*
X106762731Y-44487875D02*
X106572255Y-44487875D01*
X106572255Y-44487875D02*
X106477017Y-44440256D01*
X106477017Y-44440256D02*
X106381779Y-44345017D01*
X106381779Y-44345017D02*
X106334160Y-44154541D01*
X106334160Y-44154541D02*
X106334160Y-43821208D01*
X106334160Y-43821208D02*
X106381779Y-43630732D01*
X106381779Y-43630732D02*
X106477017Y-43535494D01*
X106477017Y-43535494D02*
X106572255Y-43487875D01*
X107857969Y-44487875D02*
X107857969Y-43487875D01*
X107857969Y-44440256D02*
X107762731Y-44487875D01*
X107762731Y-44487875D02*
X107572255Y-44487875D01*
X107572255Y-44487875D02*
X107477017Y-44440256D01*
X107477017Y-44440256D02*
X107429398Y-44392636D01*
X107429398Y-44392636D02*
X107381779Y-44297398D01*
X107381779Y-44297398D02*
X107381779Y-44011684D01*
X107381779Y-44011684D02*
X107429398Y-43916446D01*
X107429398Y-43916446D02*
X107477017Y-43868827D01*
X107477017Y-43868827D02*
X107572255Y-43821208D01*
X107572255Y-43821208D02*
X107762731Y-43821208D01*
X107762731Y-43821208D02*
X107857969Y-43868827D01*
X108762731Y-44487875D02*
X108762731Y-43964065D01*
X108762731Y-43964065D02*
X108715112Y-43868827D01*
X108715112Y-43868827D02*
X108619874Y-43821208D01*
X108619874Y-43821208D02*
X108429398Y-43821208D01*
X108429398Y-43821208D02*
X108334160Y-43868827D01*
X108762731Y-44440256D02*
X108667493Y-44487875D01*
X108667493Y-44487875D02*
X108429398Y-44487875D01*
X108429398Y-44487875D02*
X108334160Y-44440256D01*
X108334160Y-44440256D02*
X108286541Y-44345017D01*
X108286541Y-44345017D02*
X108286541Y-44249779D01*
X108286541Y-44249779D02*
X108334160Y-44154541D01*
X108334160Y-44154541D02*
X108429398Y-44106922D01*
X108429398Y-44106922D02*
X108667493Y-44106922D01*
X108667493Y-44106922D02*
X108762731Y-44059303D01*
X109238922Y-44487875D02*
X109238922Y-43821208D01*
X109238922Y-43916446D02*
X109286541Y-43868827D01*
X109286541Y-43868827D02*
X109381779Y-43821208D01*
X109381779Y-43821208D02*
X109524636Y-43821208D01*
X109524636Y-43821208D02*
X109619874Y-43868827D01*
X109619874Y-43868827D02*
X109667493Y-43964065D01*
X109667493Y-43964065D02*
X109667493Y-44487875D01*
X109667493Y-43964065D02*
X109715112Y-43868827D01*
X109715112Y-43868827D02*
X109810350Y-43821208D01*
X109810350Y-43821208D02*
X109953207Y-43821208D01*
X109953207Y-43821208D02*
X110048446Y-43868827D01*
X110048446Y-43868827D02*
X110096065Y-43964065D01*
X110096065Y-43964065D02*
X110096065Y-44487875D01*
X110953207Y-44440256D02*
X110857969Y-44487875D01*
X110857969Y-44487875D02*
X110667493Y-44487875D01*
X110667493Y-44487875D02*
X110572255Y-44440256D01*
X110572255Y-44440256D02*
X110524636Y-44345017D01*
X110524636Y-44345017D02*
X110524636Y-43964065D01*
X110524636Y-43964065D02*
X110572255Y-43868827D01*
X110572255Y-43868827D02*
X110667493Y-43821208D01*
X110667493Y-43821208D02*
X110857969Y-43821208D01*
X110857969Y-43821208D02*
X110953207Y-43868827D01*
X110953207Y-43868827D02*
X111000826Y-43964065D01*
X111000826Y-43964065D02*
X111000826Y-44059303D01*
X111000826Y-44059303D02*
X110524636Y-44154541D01*
X112143683Y-43440256D02*
X111286541Y-44725970D01*
X112334160Y-43487875D02*
X112905588Y-43487875D01*
X112619874Y-44487875D02*
X112619874Y-43487875D01*
X113238922Y-44487875D02*
X113238922Y-43821208D01*
X113238922Y-44011684D02*
X113286541Y-43916446D01*
X113286541Y-43916446D02*
X113334160Y-43868827D01*
X113334160Y-43868827D02*
X113429398Y-43821208D01*
X113429398Y-43821208D02*
X113524636Y-43821208D01*
X114286541Y-43821208D02*
X114286541Y-44487875D01*
X113857970Y-43821208D02*
X113857970Y-44345017D01*
X113857970Y-44345017D02*
X113905589Y-44440256D01*
X113905589Y-44440256D02*
X114000827Y-44487875D01*
X114000827Y-44487875D02*
X114143684Y-44487875D01*
X114143684Y-44487875D02*
X114238922Y-44440256D01*
X114238922Y-44440256D02*
X114286541Y-44392636D01*
X115143684Y-44440256D02*
X115048446Y-44487875D01*
X115048446Y-44487875D02*
X114857970Y-44487875D01*
X114857970Y-44487875D02*
X114762732Y-44440256D01*
X114762732Y-44440256D02*
X114715113Y-44345017D01*
X114715113Y-44345017D02*
X114715113Y-43964065D01*
X114715113Y-43964065D02*
X114762732Y-43868827D01*
X114762732Y-43868827D02*
X114857970Y-43821208D01*
X114857970Y-43821208D02*
X115048446Y-43821208D01*
X115048446Y-43821208D02*
X115143684Y-43868827D01*
X115143684Y-43868827D02*
X115191303Y-43964065D01*
X115191303Y-43964065D02*
X115191303Y-44059303D01*
X115191303Y-44059303D02*
X114715113Y-44154541D01*
X115524637Y-44487875D02*
X116048446Y-43821208D01*
X115524637Y-43821208D02*
X116048446Y-44487875D01*
X117143684Y-43440256D02*
X116286542Y-44725970D01*
X117810351Y-43964065D02*
X117953208Y-44011684D01*
X117953208Y-44011684D02*
X118000827Y-44059303D01*
X118000827Y-44059303D02*
X118048446Y-44154541D01*
X118048446Y-44154541D02*
X118048446Y-44297398D01*
X118048446Y-44297398D02*
X118000827Y-44392636D01*
X118000827Y-44392636D02*
X117953208Y-44440256D01*
X117953208Y-44440256D02*
X117857970Y-44487875D01*
X117857970Y-44487875D02*
X117477018Y-44487875D01*
X117477018Y-44487875D02*
X117477018Y-43487875D01*
X117477018Y-43487875D02*
X117810351Y-43487875D01*
X117810351Y-43487875D02*
X117905589Y-43535494D01*
X117905589Y-43535494D02*
X117953208Y-43583113D01*
X117953208Y-43583113D02*
X118000827Y-43678351D01*
X118000827Y-43678351D02*
X118000827Y-43773589D01*
X118000827Y-43773589D02*
X117953208Y-43868827D01*
X117953208Y-43868827D02*
X117905589Y-43916446D01*
X117905589Y-43916446D02*
X117810351Y-43964065D01*
X117810351Y-43964065D02*
X117477018Y-43964065D01*
X118905589Y-44487875D02*
X118905589Y-43964065D01*
X118905589Y-43964065D02*
X118857970Y-43868827D01*
X118857970Y-43868827D02*
X118762732Y-43821208D01*
X118762732Y-43821208D02*
X118572256Y-43821208D01*
X118572256Y-43821208D02*
X118477018Y-43868827D01*
X118905589Y-44440256D02*
X118810351Y-44487875D01*
X118810351Y-44487875D02*
X118572256Y-44487875D01*
X118572256Y-44487875D02*
X118477018Y-44440256D01*
X118477018Y-44440256D02*
X118429399Y-44345017D01*
X118429399Y-44345017D02*
X118429399Y-44249779D01*
X118429399Y-44249779D02*
X118477018Y-44154541D01*
X118477018Y-44154541D02*
X118572256Y-44106922D01*
X118572256Y-44106922D02*
X118810351Y-44106922D01*
X118810351Y-44106922D02*
X118905589Y-44059303D01*
X119381780Y-44487875D02*
X119381780Y-43821208D01*
X119381780Y-44011684D02*
X119429399Y-43916446D01*
X119429399Y-43916446D02*
X119477018Y-43868827D01*
X119477018Y-43868827D02*
X119572256Y-43821208D01*
X119572256Y-43821208D02*
X119667494Y-43821208D01*
X120000828Y-44487875D02*
X120000828Y-43821208D01*
X120000828Y-44011684D02*
X120048447Y-43916446D01*
X120048447Y-43916446D02*
X120096066Y-43868827D01*
X120096066Y-43868827D02*
X120191304Y-43821208D01*
X120191304Y-43821208D02*
X120286542Y-43821208D01*
X120524638Y-43821208D02*
X120762733Y-44487875D01*
X121000828Y-43821208D02*
X120762733Y-44487875D01*
X120762733Y-44487875D02*
X120667495Y-44725970D01*
X120667495Y-44725970D02*
X120619876Y-44773589D01*
X120619876Y-44773589D02*
X120524638Y-44821208D01*
X106953207Y-46002580D02*
X106905588Y-46050200D01*
X106905588Y-46050200D02*
X106762731Y-46097819D01*
X106762731Y-46097819D02*
X106667493Y-46097819D01*
X106667493Y-46097819D02*
X106524636Y-46050200D01*
X106524636Y-46050200D02*
X106429398Y-45954961D01*
X106429398Y-45954961D02*
X106381779Y-45859723D01*
X106381779Y-45859723D02*
X106334160Y-45669247D01*
X106334160Y-45669247D02*
X106334160Y-45526390D01*
X106334160Y-45526390D02*
X106381779Y-45335914D01*
X106381779Y-45335914D02*
X106429398Y-45240676D01*
X106429398Y-45240676D02*
X106524636Y-45145438D01*
X106524636Y-45145438D02*
X106667493Y-45097819D01*
X106667493Y-45097819D02*
X106762731Y-45097819D01*
X106762731Y-45097819D02*
X106905588Y-45145438D01*
X106905588Y-45145438D02*
X106953207Y-45193057D01*
X107524636Y-46097819D02*
X107429398Y-46050200D01*
X107429398Y-46050200D02*
X107381779Y-46002580D01*
X107381779Y-46002580D02*
X107334160Y-45907342D01*
X107334160Y-45907342D02*
X107334160Y-45621628D01*
X107334160Y-45621628D02*
X107381779Y-45526390D01*
X107381779Y-45526390D02*
X107429398Y-45478771D01*
X107429398Y-45478771D02*
X107524636Y-45431152D01*
X107524636Y-45431152D02*
X107667493Y-45431152D01*
X107667493Y-45431152D02*
X107762731Y-45478771D01*
X107762731Y-45478771D02*
X107810350Y-45526390D01*
X107810350Y-45526390D02*
X107857969Y-45621628D01*
X107857969Y-45621628D02*
X107857969Y-45907342D01*
X107857969Y-45907342D02*
X107810350Y-46002580D01*
X107810350Y-46002580D02*
X107762731Y-46050200D01*
X107762731Y-46050200D02*
X107667493Y-46097819D01*
X107667493Y-46097819D02*
X107524636Y-46097819D01*
X108286541Y-45431152D02*
X108286541Y-46431152D01*
X108286541Y-45478771D02*
X108381779Y-45431152D01*
X108381779Y-45431152D02*
X108572255Y-45431152D01*
X108572255Y-45431152D02*
X108667493Y-45478771D01*
X108667493Y-45478771D02*
X108715112Y-45526390D01*
X108715112Y-45526390D02*
X108762731Y-45621628D01*
X108762731Y-45621628D02*
X108762731Y-45907342D01*
X108762731Y-45907342D02*
X108715112Y-46002580D01*
X108715112Y-46002580D02*
X108667493Y-46050200D01*
X108667493Y-46050200D02*
X108572255Y-46097819D01*
X108572255Y-46097819D02*
X108381779Y-46097819D01*
X108381779Y-46097819D02*
X108286541Y-46050200D01*
X109096065Y-45431152D02*
X109334160Y-46097819D01*
X109572255Y-45431152D02*
X109334160Y-46097819D01*
X109334160Y-46097819D02*
X109238922Y-46335914D01*
X109238922Y-46335914D02*
X109191303Y-46383533D01*
X109191303Y-46383533D02*
X109096065Y-46431152D01*
X109953208Y-46097819D02*
X109953208Y-45431152D01*
X109953208Y-45621628D02*
X110000827Y-45526390D01*
X110000827Y-45526390D02*
X110048446Y-45478771D01*
X110048446Y-45478771D02*
X110143684Y-45431152D01*
X110143684Y-45431152D02*
X110238922Y-45431152D01*
X110572256Y-46097819D02*
X110572256Y-45431152D01*
X110572256Y-45097819D02*
X110524637Y-45145438D01*
X110524637Y-45145438D02*
X110572256Y-45193057D01*
X110572256Y-45193057D02*
X110619875Y-45145438D01*
X110619875Y-45145438D02*
X110572256Y-45097819D01*
X110572256Y-45097819D02*
X110572256Y-45193057D01*
X111477017Y-45431152D02*
X111477017Y-46240676D01*
X111477017Y-46240676D02*
X111429398Y-46335914D01*
X111429398Y-46335914D02*
X111381779Y-46383533D01*
X111381779Y-46383533D02*
X111286541Y-46431152D01*
X111286541Y-46431152D02*
X111143684Y-46431152D01*
X111143684Y-46431152D02*
X111048446Y-46383533D01*
X111477017Y-46050200D02*
X111381779Y-46097819D01*
X111381779Y-46097819D02*
X111191303Y-46097819D01*
X111191303Y-46097819D02*
X111096065Y-46050200D01*
X111096065Y-46050200D02*
X111048446Y-46002580D01*
X111048446Y-46002580D02*
X111000827Y-45907342D01*
X111000827Y-45907342D02*
X111000827Y-45621628D01*
X111000827Y-45621628D02*
X111048446Y-45526390D01*
X111048446Y-45526390D02*
X111096065Y-45478771D01*
X111096065Y-45478771D02*
X111191303Y-45431152D01*
X111191303Y-45431152D02*
X111381779Y-45431152D01*
X111381779Y-45431152D02*
X111477017Y-45478771D01*
X111953208Y-46097819D02*
X111953208Y-45097819D01*
X112381779Y-46097819D02*
X112381779Y-45574009D01*
X112381779Y-45574009D02*
X112334160Y-45478771D01*
X112334160Y-45478771D02*
X112238922Y-45431152D01*
X112238922Y-45431152D02*
X112096065Y-45431152D01*
X112096065Y-45431152D02*
X112000827Y-45478771D01*
X112000827Y-45478771D02*
X111953208Y-45526390D01*
X112715113Y-45431152D02*
X113096065Y-45431152D01*
X112857970Y-45097819D02*
X112857970Y-45954961D01*
X112857970Y-45954961D02*
X112905589Y-46050200D01*
X112905589Y-46050200D02*
X113000827Y-46097819D01*
X113000827Y-46097819D02*
X113096065Y-46097819D01*
X114143685Y-45193057D02*
X114191304Y-45145438D01*
X114191304Y-45145438D02*
X114286542Y-45097819D01*
X114286542Y-45097819D02*
X114524637Y-45097819D01*
X114524637Y-45097819D02*
X114619875Y-45145438D01*
X114619875Y-45145438D02*
X114667494Y-45193057D01*
X114667494Y-45193057D02*
X114715113Y-45288295D01*
X114715113Y-45288295D02*
X114715113Y-45383533D01*
X114715113Y-45383533D02*
X114667494Y-45526390D01*
X114667494Y-45526390D02*
X114096066Y-46097819D01*
X114096066Y-46097819D02*
X114715113Y-46097819D01*
X115334161Y-45097819D02*
X115429399Y-45097819D01*
X115429399Y-45097819D02*
X115524637Y-45145438D01*
X115524637Y-45145438D02*
X115572256Y-45193057D01*
X115572256Y-45193057D02*
X115619875Y-45288295D01*
X115619875Y-45288295D02*
X115667494Y-45478771D01*
X115667494Y-45478771D02*
X115667494Y-45716866D01*
X115667494Y-45716866D02*
X115619875Y-45907342D01*
X115619875Y-45907342D02*
X115572256Y-46002580D01*
X115572256Y-46002580D02*
X115524637Y-46050200D01*
X115524637Y-46050200D02*
X115429399Y-46097819D01*
X115429399Y-46097819D02*
X115334161Y-46097819D01*
X115334161Y-46097819D02*
X115238923Y-46050200D01*
X115238923Y-46050200D02*
X115191304Y-46002580D01*
X115191304Y-46002580D02*
X115143685Y-45907342D01*
X115143685Y-45907342D02*
X115096066Y-45716866D01*
X115096066Y-45716866D02*
X115096066Y-45478771D01*
X115096066Y-45478771D02*
X115143685Y-45288295D01*
X115143685Y-45288295D02*
X115191304Y-45193057D01*
X115191304Y-45193057D02*
X115238923Y-45145438D01*
X115238923Y-45145438D02*
X115334161Y-45097819D01*
X116048447Y-45193057D02*
X116096066Y-45145438D01*
X116096066Y-45145438D02*
X116191304Y-45097819D01*
X116191304Y-45097819D02*
X116429399Y-45097819D01*
X116429399Y-45097819D02*
X116524637Y-45145438D01*
X116524637Y-45145438D02*
X116572256Y-45193057D01*
X116572256Y-45193057D02*
X116619875Y-45288295D01*
X116619875Y-45288295D02*
X116619875Y-45383533D01*
X116619875Y-45383533D02*
X116572256Y-45526390D01*
X116572256Y-45526390D02*
X116000828Y-46097819D01*
X116000828Y-46097819D02*
X116619875Y-46097819D01*
X117524637Y-45097819D02*
X117048447Y-45097819D01*
X117048447Y-45097819D02*
X117000828Y-45574009D01*
X117000828Y-45574009D02*
X117048447Y-45526390D01*
X117048447Y-45526390D02*
X117143685Y-45478771D01*
X117143685Y-45478771D02*
X117381780Y-45478771D01*
X117381780Y-45478771D02*
X117477018Y-45526390D01*
X117477018Y-45526390D02*
X117524637Y-45574009D01*
X117524637Y-45574009D02*
X117572256Y-45669247D01*
X117572256Y-45669247D02*
X117572256Y-45907342D01*
X117572256Y-45907342D02*
X117524637Y-46002580D01*
X117524637Y-46002580D02*
X117477018Y-46050200D01*
X117477018Y-46050200D02*
X117381780Y-46097819D01*
X117381780Y-46097819D02*
X117143685Y-46097819D01*
X117143685Y-46097819D02*
X117048447Y-46050200D01*
X117048447Y-46050200D02*
X117000828Y-46002580D01*
X143959820Y-77350029D02*
X143959820Y-77826219D01*
X143959820Y-77826219D02*
X142959820Y-77826219D01*
X143959820Y-77016695D02*
X142959820Y-77016695D01*
X142959820Y-77016695D02*
X142959820Y-76635743D01*
X142959820Y-76635743D02*
X143007439Y-76540505D01*
X143007439Y-76540505D02*
X143055058Y-76492886D01*
X143055058Y-76492886D02*
X143150296Y-76445267D01*
X143150296Y-76445267D02*
X143293153Y-76445267D01*
X143293153Y-76445267D02*
X143388391Y-76492886D01*
X143388391Y-76492886D02*
X143436010Y-76540505D01*
X143436010Y-76540505D02*
X143483629Y-76635743D01*
X143483629Y-76635743D02*
X143483629Y-77016695D01*
X143436010Y-75683362D02*
X143436010Y-76016695D01*
X143959820Y-76016695D02*
X142959820Y-76016695D01*
X142959820Y-76016695D02*
X142959820Y-75540505D01*
X143055058Y-75207171D02*
X143007439Y-75159552D01*
X143007439Y-75159552D02*
X142959820Y-75064314D01*
X142959820Y-75064314D02*
X142959820Y-74826219D01*
X142959820Y-74826219D02*
X143007439Y-74730981D01*
X143007439Y-74730981D02*
X143055058Y-74683362D01*
X143055058Y-74683362D02*
X143150296Y-74635743D01*
X143150296Y-74635743D02*
X143245534Y-74635743D01*
X143245534Y-74635743D02*
X143388391Y-74683362D01*
X143388391Y-74683362D02*
X143959820Y-75254790D01*
X143959820Y-75254790D02*
X143959820Y-74635743D01*
D11*
X157899415Y-132581638D02*
X157232748Y-131629257D01*
X156756558Y-132581638D02*
X156756558Y-130581638D01*
X156756558Y-130581638D02*
X157518463Y-130581638D01*
X157518463Y-130581638D02*
X157708939Y-130676876D01*
X157708939Y-130676876D02*
X157804177Y-130772114D01*
X157804177Y-130772114D02*
X157899415Y-130962590D01*
X157899415Y-130962590D02*
X157899415Y-131248304D01*
X157899415Y-131248304D02*
X157804177Y-131438780D01*
X157804177Y-131438780D02*
X157708939Y-131534019D01*
X157708939Y-131534019D02*
X157518463Y-131629257D01*
X157518463Y-131629257D02*
X156756558Y-131629257D01*
X159708939Y-132581638D02*
X158756558Y-132581638D01*
X158756558Y-132581638D02*
X158756558Y-130581638D01*
X160375606Y-132581638D02*
X160375606Y-130581638D01*
X160375606Y-130581638D02*
X160851796Y-130581638D01*
X160851796Y-130581638D02*
X161137511Y-130676876D01*
X161137511Y-130676876D02*
X161327987Y-130867352D01*
X161327987Y-130867352D02*
X161423225Y-131057828D01*
X161423225Y-131057828D02*
X161518463Y-131438780D01*
X161518463Y-131438780D02*
X161518463Y-131724495D01*
X161518463Y-131724495D02*
X161423225Y-132105447D01*
X161423225Y-132105447D02*
X161327987Y-132295923D01*
X161327987Y-132295923D02*
X161137511Y-132486400D01*
X161137511Y-132486400D02*
X160851796Y-132581638D01*
X160851796Y-132581638D02*
X160375606Y-132581638D01*
D10*
X120021542Y-74282818D02*
X120640589Y-74282818D01*
X120640589Y-74282818D02*
X120307256Y-74663770D01*
X120307256Y-74663770D02*
X120450113Y-74663770D01*
X120450113Y-74663770D02*
X120545351Y-74711389D01*
X120545351Y-74711389D02*
X120592970Y-74759008D01*
X120592970Y-74759008D02*
X120640589Y-74854246D01*
X120640589Y-74854246D02*
X120640589Y-75092341D01*
X120640589Y-75092341D02*
X120592970Y-75187579D01*
X120592970Y-75187579D02*
X120545351Y-75235199D01*
X120545351Y-75235199D02*
X120450113Y-75282818D01*
X120450113Y-75282818D02*
X120164399Y-75282818D01*
X120164399Y-75282818D02*
X120069161Y-75235199D01*
X120069161Y-75235199D02*
X120021542Y-75187579D01*
X121069161Y-74901865D02*
X121831066Y-74901865D01*
X122212018Y-74282818D02*
X122450113Y-75282818D01*
X122450113Y-75282818D02*
X122640589Y-74568532D01*
X122640589Y-74568532D02*
X122831065Y-75282818D01*
X122831065Y-75282818D02*
X123069161Y-74282818D01*
X123450113Y-75282818D02*
X123450113Y-74282818D01*
X124497731Y-75282818D02*
X124164398Y-74806627D01*
X123926303Y-75282818D02*
X123926303Y-74282818D01*
X123926303Y-74282818D02*
X124307255Y-74282818D01*
X124307255Y-74282818D02*
X124402493Y-74330437D01*
X124402493Y-74330437D02*
X124450112Y-74378056D01*
X124450112Y-74378056D02*
X124497731Y-74473294D01*
X124497731Y-74473294D02*
X124497731Y-74616151D01*
X124497731Y-74616151D02*
X124450112Y-74711389D01*
X124450112Y-74711389D02*
X124402493Y-74759008D01*
X124402493Y-74759008D02*
X124307255Y-74806627D01*
X124307255Y-74806627D02*
X123926303Y-74806627D01*
X124926303Y-74759008D02*
X125259636Y-74759008D01*
X125402493Y-75282818D02*
X124926303Y-75282818D01*
X124926303Y-75282818D02*
X124926303Y-74282818D01*
X124926303Y-74282818D02*
X125402493Y-74282818D01*
X137889160Y-71574160D02*
X138365350Y-71574160D01*
X137793922Y-71859875D02*
X138127255Y-70859875D01*
X138127255Y-70859875D02*
X138460588Y-71859875D01*
X138793922Y-71859875D02*
X138793922Y-70859875D01*
X138793922Y-70859875D02*
X139365350Y-71859875D01*
X139365350Y-71859875D02*
X139365350Y-70859875D01*
X139793922Y-71574160D02*
X140270112Y-71574160D01*
X139698684Y-71859875D02*
X140032017Y-70859875D01*
X140032017Y-70859875D02*
X140365350Y-71859875D01*
X141174874Y-71859875D02*
X140698684Y-71859875D01*
X140698684Y-71859875D02*
X140698684Y-70859875D01*
X141698684Y-70859875D02*
X141889160Y-70859875D01*
X141889160Y-70859875D02*
X141984398Y-70907494D01*
X141984398Y-70907494D02*
X142079636Y-71002732D01*
X142079636Y-71002732D02*
X142127255Y-71193208D01*
X142127255Y-71193208D02*
X142127255Y-71526541D01*
X142127255Y-71526541D02*
X142079636Y-71717017D01*
X142079636Y-71717017D02*
X141984398Y-71812256D01*
X141984398Y-71812256D02*
X141889160Y-71859875D01*
X141889160Y-71859875D02*
X141698684Y-71859875D01*
X141698684Y-71859875D02*
X141603446Y-71812256D01*
X141603446Y-71812256D02*
X141508208Y-71717017D01*
X141508208Y-71717017D02*
X141460589Y-71526541D01*
X141460589Y-71526541D02*
X141460589Y-71193208D01*
X141460589Y-71193208D02*
X141508208Y-71002732D01*
X141508208Y-71002732D02*
X141603446Y-70907494D01*
X141603446Y-70907494D02*
X141698684Y-70859875D01*
X143079636Y-70907494D02*
X142984398Y-70859875D01*
X142984398Y-70859875D02*
X142841541Y-70859875D01*
X142841541Y-70859875D02*
X142698684Y-70907494D01*
X142698684Y-70907494D02*
X142603446Y-71002732D01*
X142603446Y-71002732D02*
X142555827Y-71097970D01*
X142555827Y-71097970D02*
X142508208Y-71288446D01*
X142508208Y-71288446D02*
X142508208Y-71431303D01*
X142508208Y-71431303D02*
X142555827Y-71621779D01*
X142555827Y-71621779D02*
X142603446Y-71717017D01*
X142603446Y-71717017D02*
X142698684Y-71812256D01*
X142698684Y-71812256D02*
X142841541Y-71859875D01*
X142841541Y-71859875D02*
X142936779Y-71859875D01*
X142936779Y-71859875D02*
X143079636Y-71812256D01*
X143079636Y-71812256D02*
X143127255Y-71764636D01*
X143127255Y-71764636D02*
X143127255Y-71431303D01*
X143127255Y-71431303D02*
X142936779Y-71431303D01*
X138127255Y-72469819D02*
X138317731Y-72469819D01*
X138317731Y-72469819D02*
X138412969Y-72517438D01*
X138412969Y-72517438D02*
X138508207Y-72612676D01*
X138508207Y-72612676D02*
X138555826Y-72803152D01*
X138555826Y-72803152D02*
X138555826Y-73136485D01*
X138555826Y-73136485D02*
X138508207Y-73326961D01*
X138508207Y-73326961D02*
X138412969Y-73422200D01*
X138412969Y-73422200D02*
X138317731Y-73469819D01*
X138317731Y-73469819D02*
X138127255Y-73469819D01*
X138127255Y-73469819D02*
X138032017Y-73422200D01*
X138032017Y-73422200D02*
X137936779Y-73326961D01*
X137936779Y-73326961D02*
X137889160Y-73136485D01*
X137889160Y-73136485D02*
X137889160Y-72803152D01*
X137889160Y-72803152D02*
X137936779Y-72612676D01*
X137936779Y-72612676D02*
X138032017Y-72517438D01*
X138032017Y-72517438D02*
X138127255Y-72469819D01*
X138984398Y-72469819D02*
X138984398Y-73279342D01*
X138984398Y-73279342D02*
X139032017Y-73374580D01*
X139032017Y-73374580D02*
X139079636Y-73422200D01*
X139079636Y-73422200D02*
X139174874Y-73469819D01*
X139174874Y-73469819D02*
X139365350Y-73469819D01*
X139365350Y-73469819D02*
X139460588Y-73422200D01*
X139460588Y-73422200D02*
X139508207Y-73374580D01*
X139508207Y-73374580D02*
X139555826Y-73279342D01*
X139555826Y-73279342D02*
X139555826Y-72469819D01*
X139889160Y-72469819D02*
X140460588Y-72469819D01*
X140174874Y-73469819D02*
X140174874Y-72469819D01*
X140793922Y-73469819D02*
X140793922Y-72469819D01*
X140793922Y-72469819D02*
X141174874Y-72469819D01*
X141174874Y-72469819D02*
X141270112Y-72517438D01*
X141270112Y-72517438D02*
X141317731Y-72565057D01*
X141317731Y-72565057D02*
X141365350Y-72660295D01*
X141365350Y-72660295D02*
X141365350Y-72803152D01*
X141365350Y-72803152D02*
X141317731Y-72898390D01*
X141317731Y-72898390D02*
X141270112Y-72946009D01*
X141270112Y-72946009D02*
X141174874Y-72993628D01*
X141174874Y-72993628D02*
X140793922Y-72993628D01*
X141793922Y-72469819D02*
X141793922Y-73279342D01*
X141793922Y-73279342D02*
X141841541Y-73374580D01*
X141841541Y-73374580D02*
X141889160Y-73422200D01*
X141889160Y-73422200D02*
X141984398Y-73469819D01*
X141984398Y-73469819D02*
X142174874Y-73469819D01*
X142174874Y-73469819D02*
X142270112Y-73422200D01*
X142270112Y-73422200D02*
X142317731Y-73374580D01*
X142317731Y-73374580D02*
X142365350Y-73279342D01*
X142365350Y-73279342D02*
X142365350Y-72469819D01*
X142698684Y-72469819D02*
X143270112Y-72469819D01*
X142984398Y-73469819D02*
X142984398Y-72469819D01*
D11*
X104622939Y-132708638D02*
X103670558Y-132708638D01*
X103670558Y-132708638D02*
X103670558Y-130708638D01*
X105289606Y-131661019D02*
X105956273Y-131661019D01*
X106241987Y-132708638D02*
X105289606Y-132708638D01*
X105289606Y-132708638D02*
X105289606Y-130708638D01*
X105289606Y-130708638D02*
X106241987Y-130708638D01*
X107765797Y-131661019D02*
X107099130Y-131661019D01*
X107099130Y-132708638D02*
X107099130Y-130708638D01*
X107099130Y-130708638D02*
X108051511Y-130708638D01*
X108527702Y-130708638D02*
X109670559Y-130708638D01*
X109099130Y-132708638D02*
X109099130Y-130708638D01*
D10*
X165071588Y-93405438D02*
X164976350Y-93357819D01*
X164976350Y-93357819D02*
X164833493Y-93357819D01*
X164833493Y-93357819D02*
X164690636Y-93405438D01*
X164690636Y-93405438D02*
X164595398Y-93500676D01*
X164595398Y-93500676D02*
X164547779Y-93595914D01*
X164547779Y-93595914D02*
X164500160Y-93786390D01*
X164500160Y-93786390D02*
X164500160Y-93929247D01*
X164500160Y-93929247D02*
X164547779Y-94119723D01*
X164547779Y-94119723D02*
X164595398Y-94214961D01*
X164595398Y-94214961D02*
X164690636Y-94310200D01*
X164690636Y-94310200D02*
X164833493Y-94357819D01*
X164833493Y-94357819D02*
X164928731Y-94357819D01*
X164928731Y-94357819D02*
X165071588Y-94310200D01*
X165071588Y-94310200D02*
X165119207Y-94262580D01*
X165119207Y-94262580D02*
X165119207Y-93929247D01*
X165119207Y-93929247D02*
X164928731Y-93929247D01*
X165547779Y-94357819D02*
X165547779Y-93357819D01*
X165547779Y-93357819D02*
X166119207Y-94357819D01*
X166119207Y-94357819D02*
X166119207Y-93357819D01*
X166595398Y-94357819D02*
X166595398Y-93357819D01*
X166595398Y-93357819D02*
X166833493Y-93357819D01*
X166833493Y-93357819D02*
X166976350Y-93405438D01*
X166976350Y-93405438D02*
X167071588Y-93500676D01*
X167071588Y-93500676D02*
X167119207Y-93595914D01*
X167119207Y-93595914D02*
X167166826Y-93786390D01*
X167166826Y-93786390D02*
X167166826Y-93929247D01*
X167166826Y-93929247D02*
X167119207Y-94119723D01*
X167119207Y-94119723D02*
X167071588Y-94214961D01*
X167071588Y-94214961D02*
X166976350Y-94310200D01*
X166976350Y-94310200D02*
X166833493Y-94357819D01*
X166833493Y-94357819D02*
X166595398Y-94357819D01*
X115764107Y-78568657D02*
X115811726Y-78521038D01*
X115811726Y-78521038D02*
X115906964Y-78473419D01*
X115906964Y-78473419D02*
X116145059Y-78473419D01*
X116145059Y-78473419D02*
X116240297Y-78521038D01*
X116240297Y-78521038D02*
X116287916Y-78568657D01*
X116287916Y-78568657D02*
X116335535Y-78663895D01*
X116335535Y-78663895D02*
X116335535Y-78759133D01*
X116335535Y-78759133D02*
X116287916Y-78901990D01*
X116287916Y-78901990D02*
X115716488Y-79473419D01*
X115716488Y-79473419D02*
X116335535Y-79473419D01*
X116764107Y-79092466D02*
X117526012Y-79092466D01*
X117906964Y-78473419D02*
X118145059Y-79473419D01*
X118145059Y-79473419D02*
X118335535Y-78759133D01*
X118335535Y-78759133D02*
X118526011Y-79473419D01*
X118526011Y-79473419D02*
X118764107Y-78473419D01*
X119145059Y-79473419D02*
X119145059Y-78473419D01*
X120192677Y-79473419D02*
X119859344Y-78997228D01*
X119621249Y-79473419D02*
X119621249Y-78473419D01*
X119621249Y-78473419D02*
X120002201Y-78473419D01*
X120002201Y-78473419D02*
X120097439Y-78521038D01*
X120097439Y-78521038D02*
X120145058Y-78568657D01*
X120145058Y-78568657D02*
X120192677Y-78663895D01*
X120192677Y-78663895D02*
X120192677Y-78806752D01*
X120192677Y-78806752D02*
X120145058Y-78901990D01*
X120145058Y-78901990D02*
X120097439Y-78949609D01*
X120097439Y-78949609D02*
X120002201Y-78997228D01*
X120002201Y-78997228D02*
X119621249Y-78997228D01*
X120621249Y-78949609D02*
X120954582Y-78949609D01*
X121097439Y-79473419D02*
X120621249Y-79473419D01*
X120621249Y-79473419D02*
X120621249Y-78473419D01*
X120621249Y-78473419D02*
X121097439Y-78473419D01*
X133312969Y-79869819D02*
X132836779Y-79869819D01*
X132836779Y-79869819D02*
X132836779Y-78869819D01*
X133836779Y-78869819D02*
X134027255Y-78869819D01*
X134027255Y-78869819D02*
X134122493Y-78917438D01*
X134122493Y-78917438D02*
X134217731Y-79012676D01*
X134217731Y-79012676D02*
X134265350Y-79203152D01*
X134265350Y-79203152D02*
X134265350Y-79536485D01*
X134265350Y-79536485D02*
X134217731Y-79726961D01*
X134217731Y-79726961D02*
X134122493Y-79822200D01*
X134122493Y-79822200D02*
X134027255Y-79869819D01*
X134027255Y-79869819D02*
X133836779Y-79869819D01*
X133836779Y-79869819D02*
X133741541Y-79822200D01*
X133741541Y-79822200D02*
X133646303Y-79726961D01*
X133646303Y-79726961D02*
X133598684Y-79536485D01*
X133598684Y-79536485D02*
X133598684Y-79203152D01*
X133598684Y-79203152D02*
X133646303Y-79012676D01*
X133646303Y-79012676D02*
X133741541Y-78917438D01*
X133741541Y-78917438D02*
X133836779Y-78869819D01*
X134693922Y-79869819D02*
X134693922Y-78869819D01*
X134693922Y-78869819D02*
X134932017Y-78869819D01*
X134932017Y-78869819D02*
X135074874Y-78917438D01*
X135074874Y-78917438D02*
X135170112Y-79012676D01*
X135170112Y-79012676D02*
X135217731Y-79107914D01*
X135217731Y-79107914D02*
X135265350Y-79298390D01*
X135265350Y-79298390D02*
X135265350Y-79441247D01*
X135265350Y-79441247D02*
X135217731Y-79631723D01*
X135217731Y-79631723D02*
X135170112Y-79726961D01*
X135170112Y-79726961D02*
X135074874Y-79822200D01*
X135074874Y-79822200D02*
X134932017Y-79869819D01*
X134932017Y-79869819D02*
X134693922Y-79869819D01*
X135693922Y-79488866D02*
X136455827Y-79488866D01*
X127289160Y-93167200D02*
X127432017Y-93214819D01*
X127432017Y-93214819D02*
X127670112Y-93214819D01*
X127670112Y-93214819D02*
X127765350Y-93167200D01*
X127765350Y-93167200D02*
X127812969Y-93119580D01*
X127812969Y-93119580D02*
X127860588Y-93024342D01*
X127860588Y-93024342D02*
X127860588Y-92929104D01*
X127860588Y-92929104D02*
X127812969Y-92833866D01*
X127812969Y-92833866D02*
X127765350Y-92786247D01*
X127765350Y-92786247D02*
X127670112Y-92738628D01*
X127670112Y-92738628D02*
X127479636Y-92691009D01*
X127479636Y-92691009D02*
X127384398Y-92643390D01*
X127384398Y-92643390D02*
X127336779Y-92595771D01*
X127336779Y-92595771D02*
X127289160Y-92500533D01*
X127289160Y-92500533D02*
X127289160Y-92405295D01*
X127289160Y-92405295D02*
X127336779Y-92310057D01*
X127336779Y-92310057D02*
X127384398Y-92262438D01*
X127384398Y-92262438D02*
X127479636Y-92214819D01*
X127479636Y-92214819D02*
X127717731Y-92214819D01*
X127717731Y-92214819D02*
X127860588Y-92262438D01*
X128193922Y-92214819D02*
X128432017Y-93214819D01*
X128432017Y-93214819D02*
X128622493Y-92500533D01*
X128622493Y-92500533D02*
X128812969Y-93214819D01*
X128812969Y-93214819D02*
X129051065Y-92214819D01*
X156054588Y-77657438D02*
X155959350Y-77609819D01*
X155959350Y-77609819D02*
X155816493Y-77609819D01*
X155816493Y-77609819D02*
X155673636Y-77657438D01*
X155673636Y-77657438D02*
X155578398Y-77752676D01*
X155578398Y-77752676D02*
X155530779Y-77847914D01*
X155530779Y-77847914D02*
X155483160Y-78038390D01*
X155483160Y-78038390D02*
X155483160Y-78181247D01*
X155483160Y-78181247D02*
X155530779Y-78371723D01*
X155530779Y-78371723D02*
X155578398Y-78466961D01*
X155578398Y-78466961D02*
X155673636Y-78562200D01*
X155673636Y-78562200D02*
X155816493Y-78609819D01*
X155816493Y-78609819D02*
X155911731Y-78609819D01*
X155911731Y-78609819D02*
X156054588Y-78562200D01*
X156054588Y-78562200D02*
X156102207Y-78514580D01*
X156102207Y-78514580D02*
X156102207Y-78181247D01*
X156102207Y-78181247D02*
X155911731Y-78181247D01*
X156530779Y-78609819D02*
X156530779Y-77609819D01*
X156530779Y-77609819D02*
X157102207Y-78609819D01*
X157102207Y-78609819D02*
X157102207Y-77609819D01*
X157578398Y-78609819D02*
X157578398Y-77609819D01*
X157578398Y-77609819D02*
X157816493Y-77609819D01*
X157816493Y-77609819D02*
X157959350Y-77657438D01*
X157959350Y-77657438D02*
X158054588Y-77752676D01*
X158054588Y-77752676D02*
X158102207Y-77847914D01*
X158102207Y-77847914D02*
X158149826Y-78038390D01*
X158149826Y-78038390D02*
X158149826Y-78181247D01*
X158149826Y-78181247D02*
X158102207Y-78371723D01*
X158102207Y-78371723D02*
X158054588Y-78466961D01*
X158054588Y-78466961D02*
X157959350Y-78562200D01*
X157959350Y-78562200D02*
X157816493Y-78609819D01*
X157816493Y-78609819D02*
X157578398Y-78609819D01*
D11*
X129705415Y-132708638D02*
X129038748Y-131756257D01*
X128562558Y-132708638D02*
X128562558Y-130708638D01*
X128562558Y-130708638D02*
X129324463Y-130708638D01*
X129324463Y-130708638D02*
X129514939Y-130803876D01*
X129514939Y-130803876D02*
X129610177Y-130899114D01*
X129610177Y-130899114D02*
X129705415Y-131089590D01*
X129705415Y-131089590D02*
X129705415Y-131375304D01*
X129705415Y-131375304D02*
X129610177Y-131565780D01*
X129610177Y-131565780D02*
X129514939Y-131661019D01*
X129514939Y-131661019D02*
X129324463Y-131756257D01*
X129324463Y-131756257D02*
X128562558Y-131756257D01*
X130562558Y-132708638D02*
X130562558Y-130708638D01*
X132562558Y-130803876D02*
X132372082Y-130708638D01*
X132372082Y-130708638D02*
X132086368Y-130708638D01*
X132086368Y-130708638D02*
X131800653Y-130803876D01*
X131800653Y-130803876D02*
X131610177Y-130994352D01*
X131610177Y-130994352D02*
X131514939Y-131184828D01*
X131514939Y-131184828D02*
X131419701Y-131565780D01*
X131419701Y-131565780D02*
X131419701Y-131851495D01*
X131419701Y-131851495D02*
X131514939Y-132232447D01*
X131514939Y-132232447D02*
X131610177Y-132422923D01*
X131610177Y-132422923D02*
X131800653Y-132613400D01*
X131800653Y-132613400D02*
X132086368Y-132708638D01*
X132086368Y-132708638D02*
X132276844Y-132708638D01*
X132276844Y-132708638D02*
X132562558Y-132613400D01*
X132562558Y-132613400D02*
X132657796Y-132518161D01*
X132657796Y-132518161D02*
X132657796Y-131851495D01*
X132657796Y-131851495D02*
X132276844Y-131851495D01*
X133514939Y-132708638D02*
X133514939Y-130708638D01*
X133514939Y-131661019D02*
X134657796Y-131661019D01*
X134657796Y-132708638D02*
X134657796Y-130708638D01*
X135324463Y-130708638D02*
X136467320Y-130708638D01*
X135895891Y-132708638D02*
X135895891Y-130708638D01*
D10*
X144322969Y-96135819D02*
X143846779Y-96135819D01*
X143846779Y-96135819D02*
X143846779Y-95135819D01*
X144656303Y-96135819D02*
X144656303Y-95135819D01*
X144656303Y-95135819D02*
X145037255Y-95135819D01*
X145037255Y-95135819D02*
X145132493Y-95183438D01*
X145132493Y-95183438D02*
X145180112Y-95231057D01*
X145180112Y-95231057D02*
X145227731Y-95326295D01*
X145227731Y-95326295D02*
X145227731Y-95469152D01*
X145227731Y-95469152D02*
X145180112Y-95564390D01*
X145180112Y-95564390D02*
X145132493Y-95612009D01*
X145132493Y-95612009D02*
X145037255Y-95659628D01*
X145037255Y-95659628D02*
X144656303Y-95659628D01*
X145989636Y-95612009D02*
X145656303Y-95612009D01*
X145656303Y-96135819D02*
X145656303Y-95135819D01*
X145656303Y-95135819D02*
X146132493Y-95135819D01*
X147037255Y-96135819D02*
X146465827Y-96135819D01*
X146751541Y-96135819D02*
X146751541Y-95135819D01*
X146751541Y-95135819D02*
X146656303Y-95278676D01*
X146656303Y-95278676D02*
X146561065Y-95373914D01*
X146561065Y-95373914D02*
X146465827Y-95421533D01*
X128012969Y-79869819D02*
X127536779Y-79869819D01*
X127536779Y-79869819D02*
X127536779Y-78869819D01*
X128536779Y-78869819D02*
X128727255Y-78869819D01*
X128727255Y-78869819D02*
X128822493Y-78917438D01*
X128822493Y-78917438D02*
X128917731Y-79012676D01*
X128917731Y-79012676D02*
X128965350Y-79203152D01*
X128965350Y-79203152D02*
X128965350Y-79536485D01*
X128965350Y-79536485D02*
X128917731Y-79726961D01*
X128917731Y-79726961D02*
X128822493Y-79822200D01*
X128822493Y-79822200D02*
X128727255Y-79869819D01*
X128727255Y-79869819D02*
X128536779Y-79869819D01*
X128536779Y-79869819D02*
X128441541Y-79822200D01*
X128441541Y-79822200D02*
X128346303Y-79726961D01*
X128346303Y-79726961D02*
X128298684Y-79536485D01*
X128298684Y-79536485D02*
X128298684Y-79203152D01*
X128298684Y-79203152D02*
X128346303Y-79012676D01*
X128346303Y-79012676D02*
X128441541Y-78917438D01*
X128441541Y-78917438D02*
X128536779Y-78869819D01*
X129393922Y-79869819D02*
X129393922Y-78869819D01*
X129393922Y-78869819D02*
X129632017Y-78869819D01*
X129632017Y-78869819D02*
X129774874Y-78917438D01*
X129774874Y-78917438D02*
X129870112Y-79012676D01*
X129870112Y-79012676D02*
X129917731Y-79107914D01*
X129917731Y-79107914D02*
X129965350Y-79298390D01*
X129965350Y-79298390D02*
X129965350Y-79441247D01*
X129965350Y-79441247D02*
X129917731Y-79631723D01*
X129917731Y-79631723D02*
X129870112Y-79726961D01*
X129870112Y-79726961D02*
X129774874Y-79822200D01*
X129774874Y-79822200D02*
X129632017Y-79869819D01*
X129632017Y-79869819D02*
X129393922Y-79869819D01*
X130393922Y-79488866D02*
X131155827Y-79488866D01*
X130774874Y-79869819D02*
X130774874Y-79107914D01*
D11*
X95910638Y-45681441D02*
X97529685Y-45681441D01*
X97529685Y-45681441D02*
X97720161Y-45586203D01*
X97720161Y-45586203D02*
X97815400Y-45490965D01*
X97815400Y-45490965D02*
X97910638Y-45300489D01*
X97910638Y-45300489D02*
X97910638Y-44919536D01*
X97910638Y-44919536D02*
X97815400Y-44729060D01*
X97815400Y-44729060D02*
X97720161Y-44633822D01*
X97720161Y-44633822D02*
X97529685Y-44538584D01*
X97529685Y-44538584D02*
X95910638Y-44538584D01*
X97815400Y-43681441D02*
X97910638Y-43395727D01*
X97910638Y-43395727D02*
X97910638Y-42919536D01*
X97910638Y-42919536D02*
X97815400Y-42729060D01*
X97815400Y-42729060D02*
X97720161Y-42633822D01*
X97720161Y-42633822D02*
X97529685Y-42538584D01*
X97529685Y-42538584D02*
X97339209Y-42538584D01*
X97339209Y-42538584D02*
X97148733Y-42633822D01*
X97148733Y-42633822D02*
X97053495Y-42729060D01*
X97053495Y-42729060D02*
X96958257Y-42919536D01*
X96958257Y-42919536D02*
X96863019Y-43300489D01*
X96863019Y-43300489D02*
X96767780Y-43490965D01*
X96767780Y-43490965D02*
X96672542Y-43586203D01*
X96672542Y-43586203D02*
X96482066Y-43681441D01*
X96482066Y-43681441D02*
X96291590Y-43681441D01*
X96291590Y-43681441D02*
X96101114Y-43586203D01*
X96101114Y-43586203D02*
X96005876Y-43490965D01*
X96005876Y-43490965D02*
X95910638Y-43300489D01*
X95910638Y-43300489D02*
X95910638Y-42824298D01*
X95910638Y-42824298D02*
X96005876Y-42538584D01*
X96863019Y-41014774D02*
X96958257Y-40729060D01*
X96958257Y-40729060D02*
X97053495Y-40633822D01*
X97053495Y-40633822D02*
X97243971Y-40538584D01*
X97243971Y-40538584D02*
X97529685Y-40538584D01*
X97529685Y-40538584D02*
X97720161Y-40633822D01*
X97720161Y-40633822D02*
X97815400Y-40729060D01*
X97815400Y-40729060D02*
X97910638Y-40919536D01*
X97910638Y-40919536D02*
X97910638Y-41681441D01*
X97910638Y-41681441D02*
X95910638Y-41681441D01*
X95910638Y-41681441D02*
X95910638Y-41014774D01*
X95910638Y-41014774D02*
X96005876Y-40824298D01*
X96005876Y-40824298D02*
X96101114Y-40729060D01*
X96101114Y-40729060D02*
X96291590Y-40633822D01*
X96291590Y-40633822D02*
X96482066Y-40633822D01*
X96482066Y-40633822D02*
X96672542Y-40729060D01*
X96672542Y-40729060D02*
X96767780Y-40824298D01*
X96767780Y-40824298D02*
X96863019Y-41014774D01*
X96863019Y-41014774D02*
X96863019Y-41681441D01*
D10*
X104936779Y-99759875D02*
X104936779Y-98759875D01*
X104936779Y-99236065D02*
X105508207Y-99236065D01*
X105508207Y-99759875D02*
X105508207Y-98759875D01*
X105984398Y-99759875D02*
X105984398Y-98759875D01*
X105984398Y-98759875D02*
X106365350Y-98759875D01*
X106365350Y-98759875D02*
X106460588Y-98807494D01*
X106460588Y-98807494D02*
X106508207Y-98855113D01*
X106508207Y-98855113D02*
X106555826Y-98950351D01*
X106555826Y-98950351D02*
X106555826Y-99093208D01*
X106555826Y-99093208D02*
X106508207Y-99188446D01*
X106508207Y-99188446D02*
X106460588Y-99236065D01*
X106460588Y-99236065D02*
X106365350Y-99283684D01*
X106365350Y-99283684D02*
X105984398Y-99283684D01*
X107317731Y-99236065D02*
X106984398Y-99236065D01*
X106984398Y-99759875D02*
X106984398Y-98759875D01*
X106984398Y-98759875D02*
X107460588Y-98759875D01*
X104841541Y-101369819D02*
X105365350Y-100703152D01*
X104841541Y-100703152D02*
X105365350Y-101369819D01*
X106270112Y-101369819D02*
X105698684Y-101369819D01*
X105984398Y-101369819D02*
X105984398Y-100369819D01*
X105984398Y-100369819D02*
X105889160Y-100512676D01*
X105889160Y-100512676D02*
X105793922Y-100607914D01*
X105793922Y-100607914D02*
X105698684Y-100655533D01*
X106889160Y-100369819D02*
X106984398Y-100369819D01*
X106984398Y-100369819D02*
X107079636Y-100417438D01*
X107079636Y-100417438D02*
X107127255Y-100465057D01*
X107127255Y-100465057D02*
X107174874Y-100560295D01*
X107174874Y-100560295D02*
X107222493Y-100750771D01*
X107222493Y-100750771D02*
X107222493Y-100988866D01*
X107222493Y-100988866D02*
X107174874Y-101179342D01*
X107174874Y-101179342D02*
X107127255Y-101274580D01*
X107127255Y-101274580D02*
X107079636Y-101322200D01*
X107079636Y-101322200D02*
X106984398Y-101369819D01*
X106984398Y-101369819D02*
X106889160Y-101369819D01*
X106889160Y-101369819D02*
X106793922Y-101322200D01*
X106793922Y-101322200D02*
X106746303Y-101274580D01*
X106746303Y-101274580D02*
X106698684Y-101179342D01*
X106698684Y-101179342D02*
X106651065Y-100988866D01*
X106651065Y-100988866D02*
X106651065Y-100750771D01*
X106651065Y-100750771D02*
X106698684Y-100560295D01*
X106698684Y-100560295D02*
X106746303Y-100465057D01*
X106746303Y-100465057D02*
X106793922Y-100417438D01*
X106793922Y-100417438D02*
X106889160Y-100369819D01*
X107841541Y-100369819D02*
X107936779Y-100369819D01*
X107936779Y-100369819D02*
X108032017Y-100417438D01*
X108032017Y-100417438D02*
X108079636Y-100465057D01*
X108079636Y-100465057D02*
X108127255Y-100560295D01*
X108127255Y-100560295D02*
X108174874Y-100750771D01*
X108174874Y-100750771D02*
X108174874Y-100988866D01*
X108174874Y-100988866D02*
X108127255Y-101179342D01*
X108127255Y-101179342D02*
X108079636Y-101274580D01*
X108079636Y-101274580D02*
X108032017Y-101322200D01*
X108032017Y-101322200D02*
X107936779Y-101369819D01*
X107936779Y-101369819D02*
X107841541Y-101369819D01*
X107841541Y-101369819D02*
X107746303Y-101322200D01*
X107746303Y-101322200D02*
X107698684Y-101274580D01*
X107698684Y-101274580D02*
X107651065Y-101179342D01*
X107651065Y-101179342D02*
X107603446Y-100988866D01*
X107603446Y-100988866D02*
X107603446Y-100750771D01*
X107603446Y-100750771D02*
X107651065Y-100560295D01*
X107651065Y-100560295D02*
X107698684Y-100465057D01*
X107698684Y-100465057D02*
X107746303Y-100417438D01*
X107746303Y-100417438D02*
X107841541Y-100369819D01*
X155133922Y-89547819D02*
X155467255Y-90547819D01*
X155467255Y-90547819D02*
X155800588Y-89547819D01*
X156133922Y-90547819D02*
X156133922Y-89881152D01*
X156133922Y-90071628D02*
X156181541Y-89976390D01*
X156181541Y-89976390D02*
X156229160Y-89928771D01*
X156229160Y-89928771D02*
X156324398Y-89881152D01*
X156324398Y-89881152D02*
X156419636Y-89881152D01*
X157133922Y-90500200D02*
X157038684Y-90547819D01*
X157038684Y-90547819D02*
X156848208Y-90547819D01*
X156848208Y-90547819D02*
X156752970Y-90500200D01*
X156752970Y-90500200D02*
X156705351Y-90404961D01*
X156705351Y-90404961D02*
X156705351Y-90024009D01*
X156705351Y-90024009D02*
X156752970Y-89928771D01*
X156752970Y-89928771D02*
X156848208Y-89881152D01*
X156848208Y-89881152D02*
X157038684Y-89881152D01*
X157038684Y-89881152D02*
X157133922Y-89928771D01*
X157133922Y-89928771D02*
X157181541Y-90024009D01*
X157181541Y-90024009D02*
X157181541Y-90119247D01*
X157181541Y-90119247D02*
X156705351Y-90214485D01*
X157467256Y-89881152D02*
X157848208Y-89881152D01*
X157610113Y-90547819D02*
X157610113Y-89690676D01*
X157610113Y-89690676D02*
X157657732Y-89595438D01*
X157657732Y-89595438D02*
X157752970Y-89547819D01*
X157752970Y-89547819D02*
X157848208Y-89547819D01*
X110715588Y-79031875D02*
X110144160Y-79031875D01*
X110429874Y-79031875D02*
X110429874Y-78031875D01*
X110429874Y-78031875D02*
X110334636Y-78174732D01*
X110334636Y-78174732D02*
X110239398Y-78269970D01*
X110239398Y-78269970D02*
X110144160Y-78317589D01*
X111144160Y-78936636D02*
X111191779Y-78984256D01*
X111191779Y-78984256D02*
X111144160Y-79031875D01*
X111144160Y-79031875D02*
X111096541Y-78984256D01*
X111096541Y-78984256D02*
X111144160Y-78936636D01*
X111144160Y-78936636D02*
X111144160Y-79031875D01*
X112144159Y-79031875D02*
X111572731Y-79031875D01*
X111858445Y-79031875D02*
X111858445Y-78031875D01*
X111858445Y-78031875D02*
X111763207Y-78174732D01*
X111763207Y-78174732D02*
X111667969Y-78269970D01*
X111667969Y-78269970D02*
X111572731Y-78317589D01*
X112477493Y-78365208D02*
X112715588Y-79031875D01*
X112715588Y-79031875D02*
X112953683Y-78365208D01*
X110048922Y-79641819D02*
X110382255Y-80641819D01*
X110382255Y-80641819D02*
X110715588Y-79641819D01*
X111048922Y-80641819D02*
X111048922Y-79975152D01*
X111048922Y-80165628D02*
X111096541Y-80070390D01*
X111096541Y-80070390D02*
X111144160Y-80022771D01*
X111144160Y-80022771D02*
X111239398Y-79975152D01*
X111239398Y-79975152D02*
X111334636Y-79975152D01*
X112048922Y-80594200D02*
X111953684Y-80641819D01*
X111953684Y-80641819D02*
X111763208Y-80641819D01*
X111763208Y-80641819D02*
X111667970Y-80594200D01*
X111667970Y-80594200D02*
X111620351Y-80498961D01*
X111620351Y-80498961D02*
X111620351Y-80118009D01*
X111620351Y-80118009D02*
X111667970Y-80022771D01*
X111667970Y-80022771D02*
X111763208Y-79975152D01*
X111763208Y-79975152D02*
X111953684Y-79975152D01*
X111953684Y-79975152D02*
X112048922Y-80022771D01*
X112048922Y-80022771D02*
X112096541Y-80118009D01*
X112096541Y-80118009D02*
X112096541Y-80213247D01*
X112096541Y-80213247D02*
X111620351Y-80308485D01*
X112382256Y-79975152D02*
X112763208Y-79975152D01*
X112525113Y-80641819D02*
X112525113Y-79784676D01*
X112525113Y-79784676D02*
X112572732Y-79689438D01*
X112572732Y-79689438D02*
X112667970Y-79641819D01*
X112667970Y-79641819D02*
X112763208Y-79641819D01*
X100528762Y-70237160D02*
X101004952Y-70237160D01*
X100433524Y-70522875D02*
X100766857Y-69522875D01*
X100766857Y-69522875D02*
X101100190Y-70522875D01*
X101433524Y-70522875D02*
X101433524Y-69856208D01*
X101433524Y-70046684D02*
X101481143Y-69951446D01*
X101481143Y-69951446D02*
X101528762Y-69903827D01*
X101528762Y-69903827D02*
X101624000Y-69856208D01*
X101624000Y-69856208D02*
X101719238Y-69856208D01*
X102481143Y-70522875D02*
X102481143Y-69522875D01*
X102481143Y-70475256D02*
X102385905Y-70522875D01*
X102385905Y-70522875D02*
X102195429Y-70522875D01*
X102195429Y-70522875D02*
X102100191Y-70475256D01*
X102100191Y-70475256D02*
X102052572Y-70427636D01*
X102052572Y-70427636D02*
X102004953Y-70332398D01*
X102004953Y-70332398D02*
X102004953Y-70046684D01*
X102004953Y-70046684D02*
X102052572Y-69951446D01*
X102052572Y-69951446D02*
X102100191Y-69903827D01*
X102100191Y-69903827D02*
X102195429Y-69856208D01*
X102195429Y-69856208D02*
X102385905Y-69856208D01*
X102385905Y-69856208D02*
X102481143Y-69903827D01*
X103385905Y-69856208D02*
X103385905Y-70522875D01*
X102957334Y-69856208D02*
X102957334Y-70380017D01*
X102957334Y-70380017D02*
X103004953Y-70475256D01*
X103004953Y-70475256D02*
X103100191Y-70522875D01*
X103100191Y-70522875D02*
X103243048Y-70522875D01*
X103243048Y-70522875D02*
X103338286Y-70475256D01*
X103338286Y-70475256D02*
X103385905Y-70427636D01*
X103862096Y-70522875D02*
X103862096Y-69856208D01*
X103862096Y-69522875D02*
X103814477Y-69570494D01*
X103814477Y-69570494D02*
X103862096Y-69618113D01*
X103862096Y-69618113D02*
X103909715Y-69570494D01*
X103909715Y-69570494D02*
X103862096Y-69522875D01*
X103862096Y-69522875D02*
X103862096Y-69618113D01*
X104338286Y-69856208D02*
X104338286Y-70522875D01*
X104338286Y-69951446D02*
X104385905Y-69903827D01*
X104385905Y-69903827D02*
X104481143Y-69856208D01*
X104481143Y-69856208D02*
X104624000Y-69856208D01*
X104624000Y-69856208D02*
X104719238Y-69903827D01*
X104719238Y-69903827D02*
X104766857Y-69999065D01*
X104766857Y-69999065D02*
X104766857Y-70522875D01*
X105385905Y-70522875D02*
X105290667Y-70475256D01*
X105290667Y-70475256D02*
X105243048Y-70427636D01*
X105243048Y-70427636D02*
X105195429Y-70332398D01*
X105195429Y-70332398D02*
X105195429Y-70046684D01*
X105195429Y-70046684D02*
X105243048Y-69951446D01*
X105243048Y-69951446D02*
X105290667Y-69903827D01*
X105290667Y-69903827D02*
X105385905Y-69856208D01*
X105385905Y-69856208D02*
X105528762Y-69856208D01*
X105528762Y-69856208D02*
X105624000Y-69903827D01*
X105624000Y-69903827D02*
X105671619Y-69951446D01*
X105671619Y-69951446D02*
X105719238Y-70046684D01*
X105719238Y-70046684D02*
X105719238Y-70332398D01*
X105719238Y-70332398D02*
X105671619Y-70427636D01*
X105671619Y-70427636D02*
X105624000Y-70475256D01*
X105624000Y-70475256D02*
X105528762Y-70522875D01*
X105528762Y-70522875D02*
X105385905Y-70522875D01*
X100219237Y-71132819D02*
X100409713Y-71132819D01*
X100409713Y-71132819D02*
X100504951Y-71180438D01*
X100504951Y-71180438D02*
X100600189Y-71275676D01*
X100600189Y-71275676D02*
X100647808Y-71466152D01*
X100647808Y-71466152D02*
X100647808Y-71799485D01*
X100647808Y-71799485D02*
X100600189Y-71989961D01*
X100600189Y-71989961D02*
X100504951Y-72085200D01*
X100504951Y-72085200D02*
X100409713Y-72132819D01*
X100409713Y-72132819D02*
X100219237Y-72132819D01*
X100219237Y-72132819D02*
X100123999Y-72085200D01*
X100123999Y-72085200D02*
X100028761Y-71989961D01*
X100028761Y-71989961D02*
X99981142Y-71799485D01*
X99981142Y-71799485D02*
X99981142Y-71466152D01*
X99981142Y-71466152D02*
X100028761Y-71275676D01*
X100028761Y-71275676D02*
X100123999Y-71180438D01*
X100123999Y-71180438D02*
X100219237Y-71132819D01*
X101409713Y-71609009D02*
X101076380Y-71609009D01*
X101076380Y-72132819D02*
X101076380Y-71132819D01*
X101076380Y-71132819D02*
X101552570Y-71132819D01*
X102266856Y-71609009D02*
X101933523Y-71609009D01*
X101933523Y-72132819D02*
X101933523Y-71132819D01*
X101933523Y-71132819D02*
X102409713Y-71132819D01*
X103838285Y-72513771D02*
X103790666Y-72466152D01*
X103790666Y-72466152D02*
X103695428Y-72323295D01*
X103695428Y-72323295D02*
X103647809Y-72228057D01*
X103647809Y-72228057D02*
X103600190Y-72085200D01*
X103600190Y-72085200D02*
X103552571Y-71847104D01*
X103552571Y-71847104D02*
X103552571Y-71656628D01*
X103552571Y-71656628D02*
X103600190Y-71418533D01*
X103600190Y-71418533D02*
X103647809Y-71275676D01*
X103647809Y-71275676D02*
X103695428Y-71180438D01*
X103695428Y-71180438D02*
X103790666Y-71037580D01*
X103790666Y-71037580D02*
X103838285Y-70989961D01*
X104266857Y-72132819D02*
X104457333Y-72132819D01*
X104457333Y-72132819D02*
X104552571Y-72085200D01*
X104552571Y-72085200D02*
X104600190Y-72037580D01*
X104600190Y-72037580D02*
X104695428Y-71894723D01*
X104695428Y-71894723D02*
X104743047Y-71704247D01*
X104743047Y-71704247D02*
X104743047Y-71323295D01*
X104743047Y-71323295D02*
X104695428Y-71228057D01*
X104695428Y-71228057D02*
X104647809Y-71180438D01*
X104647809Y-71180438D02*
X104552571Y-71132819D01*
X104552571Y-71132819D02*
X104362095Y-71132819D01*
X104362095Y-71132819D02*
X104266857Y-71180438D01*
X104266857Y-71180438D02*
X104219238Y-71228057D01*
X104219238Y-71228057D02*
X104171619Y-71323295D01*
X104171619Y-71323295D02*
X104171619Y-71561390D01*
X104171619Y-71561390D02*
X104219238Y-71656628D01*
X104219238Y-71656628D02*
X104266857Y-71704247D01*
X104266857Y-71704247D02*
X104362095Y-71751866D01*
X104362095Y-71751866D02*
X104552571Y-71751866D01*
X104552571Y-71751866D02*
X104647809Y-71704247D01*
X104647809Y-71704247D02*
X104695428Y-71656628D01*
X104695428Y-71656628D02*
X104743047Y-71561390D01*
X105028762Y-71132819D02*
X105362095Y-72132819D01*
X105362095Y-72132819D02*
X105695428Y-71132819D01*
X105933524Y-72513771D02*
X105981143Y-72466152D01*
X105981143Y-72466152D02*
X106076381Y-72323295D01*
X106076381Y-72323295D02*
X106124000Y-72228057D01*
X106124000Y-72228057D02*
X106171619Y-72085200D01*
X106171619Y-72085200D02*
X106219238Y-71847104D01*
X106219238Y-71847104D02*
X106219238Y-71656628D01*
X106219238Y-71656628D02*
X106171619Y-71418533D01*
X106171619Y-71418533D02*
X106124000Y-71275676D01*
X106124000Y-71275676D02*
X106076381Y-71180438D01*
X106076381Y-71180438D02*
X105981143Y-71037580D01*
X105981143Y-71037580D02*
X105933524Y-70989961D01*
X131099160Y-94850057D02*
X131146779Y-94802438D01*
X131146779Y-94802438D02*
X131242017Y-94754819D01*
X131242017Y-94754819D02*
X131480112Y-94754819D01*
X131480112Y-94754819D02*
X131575350Y-94802438D01*
X131575350Y-94802438D02*
X131622969Y-94850057D01*
X131622969Y-94850057D02*
X131670588Y-94945295D01*
X131670588Y-94945295D02*
X131670588Y-95040533D01*
X131670588Y-95040533D02*
X131622969Y-95183390D01*
X131622969Y-95183390D02*
X131051541Y-95754819D01*
X131051541Y-95754819D02*
X131670588Y-95754819D01*
X132099160Y-95373866D02*
X132861065Y-95373866D01*
X133242017Y-94754819D02*
X133480112Y-95754819D01*
X133480112Y-95754819D02*
X133670588Y-95040533D01*
X133670588Y-95040533D02*
X133861064Y-95754819D01*
X133861064Y-95754819D02*
X134099160Y-94754819D01*
X134480112Y-95754819D02*
X134480112Y-94754819D01*
X135527730Y-95754819D02*
X135194397Y-95278628D01*
X134956302Y-95754819D02*
X134956302Y-94754819D01*
X134956302Y-94754819D02*
X135337254Y-94754819D01*
X135337254Y-94754819D02*
X135432492Y-94802438D01*
X135432492Y-94802438D02*
X135480111Y-94850057D01*
X135480111Y-94850057D02*
X135527730Y-94945295D01*
X135527730Y-94945295D02*
X135527730Y-95088152D01*
X135527730Y-95088152D02*
X135480111Y-95183390D01*
X135480111Y-95183390D02*
X135432492Y-95231009D01*
X135432492Y-95231009D02*
X135337254Y-95278628D01*
X135337254Y-95278628D02*
X134956302Y-95278628D01*
X135956302Y-95231009D02*
X136289635Y-95231009D01*
X136432492Y-95754819D02*
X135956302Y-95754819D01*
X135956302Y-95754819D02*
X135956302Y-94754819D01*
X135956302Y-94754819D02*
X136432492Y-94754819D01*
D11*
X163876510Y-74667400D02*
X165019368Y-74667400D01*
X164447939Y-75238828D02*
X164447939Y-74095971D01*
X165805082Y-75238828D02*
X166090796Y-75238828D01*
X166090796Y-75238828D02*
X166233653Y-75167400D01*
X166233653Y-75167400D02*
X166305082Y-75095971D01*
X166305082Y-75095971D02*
X166447939Y-74881685D01*
X166447939Y-74881685D02*
X166519368Y-74595971D01*
X166519368Y-74595971D02*
X166519368Y-74024542D01*
X166519368Y-74024542D02*
X166447939Y-73881685D01*
X166447939Y-73881685D02*
X166376511Y-73810257D01*
X166376511Y-73810257D02*
X166233653Y-73738828D01*
X166233653Y-73738828D02*
X165947939Y-73738828D01*
X165947939Y-73738828D02*
X165805082Y-73810257D01*
X165805082Y-73810257D02*
X165733653Y-73881685D01*
X165733653Y-73881685D02*
X165662225Y-74024542D01*
X165662225Y-74024542D02*
X165662225Y-74381685D01*
X165662225Y-74381685D02*
X165733653Y-74524542D01*
X165733653Y-74524542D02*
X165805082Y-74595971D01*
X165805082Y-74595971D02*
X165947939Y-74667400D01*
X165947939Y-74667400D02*
X166233653Y-74667400D01*
X166233653Y-74667400D02*
X166376511Y-74595971D01*
X166376511Y-74595971D02*
X166447939Y-74524542D01*
X166447939Y-74524542D02*
X166519368Y-74381685D01*
X166947939Y-73738828D02*
X167447939Y-75238828D01*
X167447939Y-75238828D02*
X167947939Y-73738828D01*
D10*
X132224820Y-102959665D02*
X131748629Y-103292998D01*
X132224820Y-103531093D02*
X131224820Y-103531093D01*
X131224820Y-103531093D02*
X131224820Y-103150141D01*
X131224820Y-103150141D02*
X131272439Y-103054903D01*
X131272439Y-103054903D02*
X131320058Y-103007284D01*
X131320058Y-103007284D02*
X131415296Y-102959665D01*
X131415296Y-102959665D02*
X131558153Y-102959665D01*
X131558153Y-102959665D02*
X131653391Y-103007284D01*
X131653391Y-103007284D02*
X131701010Y-103054903D01*
X131701010Y-103054903D02*
X131748629Y-103150141D01*
X131748629Y-103150141D02*
X131748629Y-103531093D01*
X131653391Y-102388236D02*
X131605772Y-102483474D01*
X131605772Y-102483474D02*
X131558153Y-102531093D01*
X131558153Y-102531093D02*
X131462915Y-102578712D01*
X131462915Y-102578712D02*
X131415296Y-102578712D01*
X131415296Y-102578712D02*
X131320058Y-102531093D01*
X131320058Y-102531093D02*
X131272439Y-102483474D01*
X131272439Y-102483474D02*
X131224820Y-102388236D01*
X131224820Y-102388236D02*
X131224820Y-102197760D01*
X131224820Y-102197760D02*
X131272439Y-102102522D01*
X131272439Y-102102522D02*
X131320058Y-102054903D01*
X131320058Y-102054903D02*
X131415296Y-102007284D01*
X131415296Y-102007284D02*
X131462915Y-102007284D01*
X131462915Y-102007284D02*
X131558153Y-102054903D01*
X131558153Y-102054903D02*
X131605772Y-102102522D01*
X131605772Y-102102522D02*
X131653391Y-102197760D01*
X131653391Y-102197760D02*
X131653391Y-102388236D01*
X131653391Y-102388236D02*
X131701010Y-102483474D01*
X131701010Y-102483474D02*
X131748629Y-102531093D01*
X131748629Y-102531093D02*
X131843867Y-102578712D01*
X131843867Y-102578712D02*
X132034343Y-102578712D01*
X132034343Y-102578712D02*
X132129581Y-102531093D01*
X132129581Y-102531093D02*
X132177201Y-102483474D01*
X132177201Y-102483474D02*
X132224820Y-102388236D01*
X132224820Y-102388236D02*
X132224820Y-102197760D01*
X132224820Y-102197760D02*
X132177201Y-102102522D01*
X132177201Y-102102522D02*
X132129581Y-102054903D01*
X132129581Y-102054903D02*
X132034343Y-102007284D01*
X132034343Y-102007284D02*
X131843867Y-102007284D01*
X131843867Y-102007284D02*
X131748629Y-102054903D01*
X131748629Y-102054903D02*
X131701010Y-102102522D01*
X131701010Y-102102522D02*
X131653391Y-102197760D01*
X108023334Y-85152579D02*
X107975715Y-85200199D01*
X107975715Y-85200199D02*
X107832858Y-85247818D01*
X107832858Y-85247818D02*
X107737620Y-85247818D01*
X107737620Y-85247818D02*
X107594763Y-85200199D01*
X107594763Y-85200199D02*
X107499525Y-85104960D01*
X107499525Y-85104960D02*
X107451906Y-85009722D01*
X107451906Y-85009722D02*
X107404287Y-84819246D01*
X107404287Y-84819246D02*
X107404287Y-84676389D01*
X107404287Y-84676389D02*
X107451906Y-84485913D01*
X107451906Y-84485913D02*
X107499525Y-84390675D01*
X107499525Y-84390675D02*
X107594763Y-84295437D01*
X107594763Y-84295437D02*
X107737620Y-84247818D01*
X107737620Y-84247818D02*
X107832858Y-84247818D01*
X107832858Y-84247818D02*
X107975715Y-84295437D01*
X107975715Y-84295437D02*
X108023334Y-84343056D01*
X108880477Y-84581151D02*
X108880477Y-85247818D01*
X108642382Y-84200199D02*
X108404287Y-84914484D01*
X108404287Y-84914484D02*
X109023334Y-84914484D01*
X137954819Y-57133333D02*
X138669104Y-57133333D01*
X138669104Y-57133333D02*
X138811961Y-57180952D01*
X138811961Y-57180952D02*
X138907200Y-57276190D01*
X138907200Y-57276190D02*
X138954819Y-57419047D01*
X138954819Y-57419047D02*
X138954819Y-57514285D01*
X137954819Y-56752380D02*
X137954819Y-56133333D01*
X137954819Y-56133333D02*
X138335771Y-56466666D01*
X138335771Y-56466666D02*
X138335771Y-56323809D01*
X138335771Y-56323809D02*
X138383390Y-56228571D01*
X138383390Y-56228571D02*
X138431009Y-56180952D01*
X138431009Y-56180952D02*
X138526247Y-56133333D01*
X138526247Y-56133333D02*
X138764342Y-56133333D01*
X138764342Y-56133333D02*
X138859580Y-56180952D01*
X138859580Y-56180952D02*
X138907200Y-56228571D01*
X138907200Y-56228571D02*
X138954819Y-56323809D01*
X138954819Y-56323809D02*
X138954819Y-56609523D01*
X138954819Y-56609523D02*
X138907200Y-56704761D01*
X138907200Y-56704761D02*
X138859580Y-56752380D01*
X115044820Y-88709665D02*
X114568629Y-89042998D01*
X115044820Y-89281093D02*
X114044820Y-89281093D01*
X114044820Y-89281093D02*
X114044820Y-88900141D01*
X114044820Y-88900141D02*
X114092439Y-88804903D01*
X114092439Y-88804903D02*
X114140058Y-88757284D01*
X114140058Y-88757284D02*
X114235296Y-88709665D01*
X114235296Y-88709665D02*
X114378153Y-88709665D01*
X114378153Y-88709665D02*
X114473391Y-88757284D01*
X114473391Y-88757284D02*
X114521010Y-88804903D01*
X114521010Y-88804903D02*
X114568629Y-88900141D01*
X114568629Y-88900141D02*
X114568629Y-89281093D01*
X114044820Y-88376331D02*
X114044820Y-87709665D01*
X114044820Y-87709665D02*
X115044820Y-88138236D01*
X97160142Y-62205580D02*
X97112523Y-62253200D01*
X97112523Y-62253200D02*
X96969666Y-62300819D01*
X96969666Y-62300819D02*
X96874428Y-62300819D01*
X96874428Y-62300819D02*
X96731571Y-62253200D01*
X96731571Y-62253200D02*
X96636333Y-62157961D01*
X96636333Y-62157961D02*
X96588714Y-62062723D01*
X96588714Y-62062723D02*
X96541095Y-61872247D01*
X96541095Y-61872247D02*
X96541095Y-61729390D01*
X96541095Y-61729390D02*
X96588714Y-61538914D01*
X96588714Y-61538914D02*
X96636333Y-61443676D01*
X96636333Y-61443676D02*
X96731571Y-61348438D01*
X96731571Y-61348438D02*
X96874428Y-61300819D01*
X96874428Y-61300819D02*
X96969666Y-61300819D01*
X96969666Y-61300819D02*
X97112523Y-61348438D01*
X97112523Y-61348438D02*
X97160142Y-61396057D01*
X98112523Y-62300819D02*
X97541095Y-62300819D01*
X97826809Y-62300819D02*
X97826809Y-61300819D01*
X97826809Y-61300819D02*
X97731571Y-61443676D01*
X97731571Y-61443676D02*
X97636333Y-61538914D01*
X97636333Y-61538914D02*
X97541095Y-61586533D01*
X98445857Y-61300819D02*
X99064904Y-61300819D01*
X99064904Y-61300819D02*
X98731571Y-61681771D01*
X98731571Y-61681771D02*
X98874428Y-61681771D01*
X98874428Y-61681771D02*
X98969666Y-61729390D01*
X98969666Y-61729390D02*
X99017285Y-61777009D01*
X99017285Y-61777009D02*
X99064904Y-61872247D01*
X99064904Y-61872247D02*
X99064904Y-62110342D01*
X99064904Y-62110342D02*
X99017285Y-62205580D01*
X99017285Y-62205580D02*
X98969666Y-62253200D01*
X98969666Y-62253200D02*
X98874428Y-62300819D01*
X98874428Y-62300819D02*
X98588714Y-62300819D01*
X98588714Y-62300819D02*
X98493476Y-62253200D01*
X98493476Y-62253200D02*
X98445857Y-62205580D01*
X105949581Y-94459665D02*
X105997201Y-94507284D01*
X105997201Y-94507284D02*
X106044820Y-94650141D01*
X106044820Y-94650141D02*
X106044820Y-94745379D01*
X106044820Y-94745379D02*
X105997201Y-94888236D01*
X105997201Y-94888236D02*
X105901962Y-94983474D01*
X105901962Y-94983474D02*
X105806724Y-95031093D01*
X105806724Y-95031093D02*
X105616248Y-95078712D01*
X105616248Y-95078712D02*
X105473391Y-95078712D01*
X105473391Y-95078712D02*
X105282915Y-95031093D01*
X105282915Y-95031093D02*
X105187677Y-94983474D01*
X105187677Y-94983474D02*
X105092439Y-94888236D01*
X105092439Y-94888236D02*
X105044820Y-94745379D01*
X105044820Y-94745379D02*
X105044820Y-94650141D01*
X105044820Y-94650141D02*
X105092439Y-94507284D01*
X105092439Y-94507284D02*
X105140058Y-94459665D01*
X105140058Y-94078712D02*
X105092439Y-94031093D01*
X105092439Y-94031093D02*
X105044820Y-93935855D01*
X105044820Y-93935855D02*
X105044820Y-93697760D01*
X105044820Y-93697760D02*
X105092439Y-93602522D01*
X105092439Y-93602522D02*
X105140058Y-93554903D01*
X105140058Y-93554903D02*
X105235296Y-93507284D01*
X105235296Y-93507284D02*
X105330534Y-93507284D01*
X105330534Y-93507284D02*
X105473391Y-93554903D01*
X105473391Y-93554903D02*
X106044820Y-94126331D01*
X106044820Y-94126331D02*
X106044820Y-93507284D01*
X114387333Y-106117580D02*
X114339714Y-106165200D01*
X114339714Y-106165200D02*
X114196857Y-106212819D01*
X114196857Y-106212819D02*
X114101619Y-106212819D01*
X114101619Y-106212819D02*
X113958762Y-106165200D01*
X113958762Y-106165200D02*
X113863524Y-106069961D01*
X113863524Y-106069961D02*
X113815905Y-105974723D01*
X113815905Y-105974723D02*
X113768286Y-105784247D01*
X113768286Y-105784247D02*
X113768286Y-105641390D01*
X113768286Y-105641390D02*
X113815905Y-105450914D01*
X113815905Y-105450914D02*
X113863524Y-105355676D01*
X113863524Y-105355676D02*
X113958762Y-105260438D01*
X113958762Y-105260438D02*
X114101619Y-105212819D01*
X114101619Y-105212819D02*
X114196857Y-105212819D01*
X114196857Y-105212819D02*
X114339714Y-105260438D01*
X114339714Y-105260438D02*
X114387333Y-105308057D01*
X114863524Y-106212819D02*
X115054000Y-106212819D01*
X115054000Y-106212819D02*
X115149238Y-106165200D01*
X115149238Y-106165200D02*
X115196857Y-106117580D01*
X115196857Y-106117580D02*
X115292095Y-105974723D01*
X115292095Y-105974723D02*
X115339714Y-105784247D01*
X115339714Y-105784247D02*
X115339714Y-105403295D01*
X115339714Y-105403295D02*
X115292095Y-105308057D01*
X115292095Y-105308057D02*
X115244476Y-105260438D01*
X115244476Y-105260438D02*
X115149238Y-105212819D01*
X115149238Y-105212819D02*
X114958762Y-105212819D01*
X114958762Y-105212819D02*
X114863524Y-105260438D01*
X114863524Y-105260438D02*
X114815905Y-105308057D01*
X114815905Y-105308057D02*
X114768286Y-105403295D01*
X114768286Y-105403295D02*
X114768286Y-105641390D01*
X114768286Y-105641390D02*
X114815905Y-105736628D01*
X114815905Y-105736628D02*
X114863524Y-105784247D01*
X114863524Y-105784247D02*
X114958762Y-105831866D01*
X114958762Y-105831866D02*
X115149238Y-105831866D01*
X115149238Y-105831866D02*
X115244476Y-105784247D01*
X115244476Y-105784247D02*
X115292095Y-105736628D01*
X115292095Y-105736628D02*
X115339714Y-105641390D01*
X110909819Y-73980115D02*
X110433628Y-74313448D01*
X110909819Y-74551543D02*
X109909819Y-74551543D01*
X109909819Y-74551543D02*
X109909819Y-74170591D01*
X109909819Y-74170591D02*
X109957438Y-74075353D01*
X109957438Y-74075353D02*
X110005057Y-74027734D01*
X110005057Y-74027734D02*
X110100295Y-73980115D01*
X110100295Y-73980115D02*
X110243152Y-73980115D01*
X110243152Y-73980115D02*
X110338390Y-74027734D01*
X110338390Y-74027734D02*
X110386009Y-74075353D01*
X110386009Y-74075353D02*
X110433628Y-74170591D01*
X110433628Y-74170591D02*
X110433628Y-74551543D01*
X110909819Y-73027734D02*
X110909819Y-73599162D01*
X110909819Y-73313448D02*
X109909819Y-73313448D01*
X109909819Y-73313448D02*
X110052676Y-73408686D01*
X110052676Y-73408686D02*
X110147914Y-73503924D01*
X110147914Y-73503924D02*
X110195533Y-73599162D01*
X109909819Y-72122972D02*
X109909819Y-72599162D01*
X109909819Y-72599162D02*
X110386009Y-72646781D01*
X110386009Y-72646781D02*
X110338390Y-72599162D01*
X110338390Y-72599162D02*
X110290771Y-72503924D01*
X110290771Y-72503924D02*
X110290771Y-72265829D01*
X110290771Y-72265829D02*
X110338390Y-72170591D01*
X110338390Y-72170591D02*
X110386009Y-72122972D01*
X110386009Y-72122972D02*
X110481247Y-72075353D01*
X110481247Y-72075353D02*
X110719342Y-72075353D01*
X110719342Y-72075353D02*
X110814580Y-72122972D01*
X110814580Y-72122972D02*
X110862200Y-72170591D01*
X110862200Y-72170591D02*
X110909819Y-72265829D01*
X110909819Y-72265829D02*
X110909819Y-72503924D01*
X110909819Y-72503924D02*
X110862200Y-72599162D01*
X110862200Y-72599162D02*
X110814580Y-72646781D01*
X130334820Y-98376332D02*
X131049105Y-98376332D01*
X131049105Y-98376332D02*
X131191962Y-98423951D01*
X131191962Y-98423951D02*
X131287201Y-98519189D01*
X131287201Y-98519189D02*
X131334820Y-98662046D01*
X131334820Y-98662046D02*
X131334820Y-98757284D01*
X130430058Y-97947760D02*
X130382439Y-97900141D01*
X130382439Y-97900141D02*
X130334820Y-97804903D01*
X130334820Y-97804903D02*
X130334820Y-97566808D01*
X130334820Y-97566808D02*
X130382439Y-97471570D01*
X130382439Y-97471570D02*
X130430058Y-97423951D01*
X130430058Y-97423951D02*
X130525296Y-97376332D01*
X130525296Y-97376332D02*
X130620534Y-97376332D01*
X130620534Y-97376332D02*
X130763391Y-97423951D01*
X130763391Y-97423951D02*
X131334820Y-97995379D01*
X131334820Y-97995379D02*
X131334820Y-97376332D01*
X163970819Y-77970333D02*
X164685104Y-77970333D01*
X164685104Y-77970333D02*
X164827961Y-78017952D01*
X164827961Y-78017952D02*
X164923200Y-78113190D01*
X164923200Y-78113190D02*
X164970819Y-78256047D01*
X164970819Y-78256047D02*
X164970819Y-78351285D01*
X163970819Y-77017952D02*
X163970819Y-77494142D01*
X163970819Y-77494142D02*
X164447009Y-77541761D01*
X164447009Y-77541761D02*
X164399390Y-77494142D01*
X164399390Y-77494142D02*
X164351771Y-77398904D01*
X164351771Y-77398904D02*
X164351771Y-77160809D01*
X164351771Y-77160809D02*
X164399390Y-77065571D01*
X164399390Y-77065571D02*
X164447009Y-77017952D01*
X164447009Y-77017952D02*
X164542247Y-76970333D01*
X164542247Y-76970333D02*
X164780342Y-76970333D01*
X164780342Y-76970333D02*
X164875580Y-77017952D01*
X164875580Y-77017952D02*
X164923200Y-77065571D01*
X164923200Y-77065571D02*
X164970819Y-77160809D01*
X164970819Y-77160809D02*
X164970819Y-77398904D01*
X164970819Y-77398904D02*
X164923200Y-77494142D01*
X164923200Y-77494142D02*
X164875580Y-77541761D01*
X135252619Y-91143057D02*
X134776428Y-91476390D01*
X135252619Y-91714485D02*
X134252619Y-91714485D01*
X134252619Y-91714485D02*
X134252619Y-91333533D01*
X134252619Y-91333533D02*
X134300238Y-91238295D01*
X134300238Y-91238295D02*
X134347857Y-91190676D01*
X134347857Y-91190676D02*
X134443095Y-91143057D01*
X134443095Y-91143057D02*
X134585952Y-91143057D01*
X134585952Y-91143057D02*
X134681190Y-91190676D01*
X134681190Y-91190676D02*
X134728809Y-91238295D01*
X134728809Y-91238295D02*
X134776428Y-91333533D01*
X134776428Y-91333533D02*
X134776428Y-91714485D01*
X134347857Y-90762104D02*
X134300238Y-90714485D01*
X134300238Y-90714485D02*
X134252619Y-90619247D01*
X134252619Y-90619247D02*
X134252619Y-90381152D01*
X134252619Y-90381152D02*
X134300238Y-90285914D01*
X134300238Y-90285914D02*
X134347857Y-90238295D01*
X134347857Y-90238295D02*
X134443095Y-90190676D01*
X134443095Y-90190676D02*
X134538333Y-90190676D01*
X134538333Y-90190676D02*
X134681190Y-90238295D01*
X134681190Y-90238295D02*
X135252619Y-90809723D01*
X135252619Y-90809723D02*
X135252619Y-90190676D01*
X134347857Y-89809723D02*
X134300238Y-89762104D01*
X134300238Y-89762104D02*
X134252619Y-89666866D01*
X134252619Y-89666866D02*
X134252619Y-89428771D01*
X134252619Y-89428771D02*
X134300238Y-89333533D01*
X134300238Y-89333533D02*
X134347857Y-89285914D01*
X134347857Y-89285914D02*
X134443095Y-89238295D01*
X134443095Y-89238295D02*
X134538333Y-89238295D01*
X134538333Y-89238295D02*
X134681190Y-89285914D01*
X134681190Y-89285914D02*
X135252619Y-89857342D01*
X135252619Y-89857342D02*
X135252619Y-89238295D01*
X107447143Y-82497818D02*
X107113810Y-82021627D01*
X106875715Y-82497818D02*
X106875715Y-81497818D01*
X106875715Y-81497818D02*
X107256667Y-81497818D01*
X107256667Y-81497818D02*
X107351905Y-81545437D01*
X107351905Y-81545437D02*
X107399524Y-81593056D01*
X107399524Y-81593056D02*
X107447143Y-81688294D01*
X107447143Y-81688294D02*
X107447143Y-81831151D01*
X107447143Y-81831151D02*
X107399524Y-81926389D01*
X107399524Y-81926389D02*
X107351905Y-81974008D01*
X107351905Y-81974008D02*
X107256667Y-82021627D01*
X107256667Y-82021627D02*
X106875715Y-82021627D01*
X108399524Y-82497818D02*
X107828096Y-82497818D01*
X108113810Y-82497818D02*
X108113810Y-81497818D01*
X108113810Y-81497818D02*
X108018572Y-81640675D01*
X108018572Y-81640675D02*
X107923334Y-81735913D01*
X107923334Y-81735913D02*
X107828096Y-81783532D01*
X108732858Y-81497818D02*
X109399524Y-81497818D01*
X109399524Y-81497818D02*
X108970953Y-82497818D01*
X122114820Y-98784665D02*
X121638629Y-99117998D01*
X122114820Y-99356093D02*
X121114820Y-99356093D01*
X121114820Y-99356093D02*
X121114820Y-98975141D01*
X121114820Y-98975141D02*
X121162439Y-98879903D01*
X121162439Y-98879903D02*
X121210058Y-98832284D01*
X121210058Y-98832284D02*
X121305296Y-98784665D01*
X121305296Y-98784665D02*
X121448153Y-98784665D01*
X121448153Y-98784665D02*
X121543391Y-98832284D01*
X121543391Y-98832284D02*
X121591010Y-98879903D01*
X121591010Y-98879903D02*
X121638629Y-98975141D01*
X121638629Y-98975141D02*
X121638629Y-99356093D01*
X121448153Y-97927522D02*
X122114820Y-97927522D01*
X121067201Y-98165617D02*
X121781486Y-98403712D01*
X121781486Y-98403712D02*
X121781486Y-97784665D01*
X138449581Y-89959665D02*
X138497201Y-90007284D01*
X138497201Y-90007284D02*
X138544820Y-90150141D01*
X138544820Y-90150141D02*
X138544820Y-90245379D01*
X138544820Y-90245379D02*
X138497201Y-90388236D01*
X138497201Y-90388236D02*
X138401962Y-90483474D01*
X138401962Y-90483474D02*
X138306724Y-90531093D01*
X138306724Y-90531093D02*
X138116248Y-90578712D01*
X138116248Y-90578712D02*
X137973391Y-90578712D01*
X137973391Y-90578712D02*
X137782915Y-90531093D01*
X137782915Y-90531093D02*
X137687677Y-90483474D01*
X137687677Y-90483474D02*
X137592439Y-90388236D01*
X137592439Y-90388236D02*
X137544820Y-90245379D01*
X137544820Y-90245379D02*
X137544820Y-90150141D01*
X137544820Y-90150141D02*
X137592439Y-90007284D01*
X137592439Y-90007284D02*
X137640058Y-89959665D01*
X137544820Y-89102522D02*
X137544820Y-89292998D01*
X137544820Y-89292998D02*
X137592439Y-89388236D01*
X137592439Y-89388236D02*
X137640058Y-89435855D01*
X137640058Y-89435855D02*
X137782915Y-89531093D01*
X137782915Y-89531093D02*
X137973391Y-89578712D01*
X137973391Y-89578712D02*
X138354343Y-89578712D01*
X138354343Y-89578712D02*
X138449581Y-89531093D01*
X138449581Y-89531093D02*
X138497201Y-89483474D01*
X138497201Y-89483474D02*
X138544820Y-89388236D01*
X138544820Y-89388236D02*
X138544820Y-89197760D01*
X138544820Y-89197760D02*
X138497201Y-89102522D01*
X138497201Y-89102522D02*
X138449581Y-89054903D01*
X138449581Y-89054903D02*
X138354343Y-89007284D01*
X138354343Y-89007284D02*
X138116248Y-89007284D01*
X138116248Y-89007284D02*
X138021010Y-89054903D01*
X138021010Y-89054903D02*
X137973391Y-89102522D01*
X137973391Y-89102522D02*
X137925772Y-89197760D01*
X137925772Y-89197760D02*
X137925772Y-89388236D01*
X137925772Y-89388236D02*
X137973391Y-89483474D01*
X137973391Y-89483474D02*
X138021010Y-89531093D01*
X138021010Y-89531093D02*
X138116248Y-89578712D01*
X141104761Y-63090057D02*
X141009523Y-63042438D01*
X141009523Y-63042438D02*
X140914285Y-62947200D01*
X140914285Y-62947200D02*
X140771428Y-62804342D01*
X140771428Y-62804342D02*
X140676190Y-62756723D01*
X140676190Y-62756723D02*
X140580952Y-62756723D01*
X140628571Y-62994819D02*
X140533333Y-62947200D01*
X140533333Y-62947200D02*
X140438095Y-62851961D01*
X140438095Y-62851961D02*
X140390476Y-62661485D01*
X140390476Y-62661485D02*
X140390476Y-62328152D01*
X140390476Y-62328152D02*
X140438095Y-62137676D01*
X140438095Y-62137676D02*
X140533333Y-62042438D01*
X140533333Y-62042438D02*
X140628571Y-61994819D01*
X140628571Y-61994819D02*
X140819047Y-61994819D01*
X140819047Y-61994819D02*
X140914285Y-62042438D01*
X140914285Y-62042438D02*
X141009523Y-62137676D01*
X141009523Y-62137676D02*
X141057142Y-62328152D01*
X141057142Y-62328152D02*
X141057142Y-62661485D01*
X141057142Y-62661485D02*
X141009523Y-62851961D01*
X141009523Y-62851961D02*
X140914285Y-62947200D01*
X140914285Y-62947200D02*
X140819047Y-62994819D01*
X140819047Y-62994819D02*
X140628571Y-62994819D01*
X142009523Y-62994819D02*
X141438095Y-62994819D01*
X141723809Y-62994819D02*
X141723809Y-61994819D01*
X141723809Y-61994819D02*
X141628571Y-62137676D01*
X141628571Y-62137676D02*
X141533333Y-62232914D01*
X141533333Y-62232914D02*
X141438095Y-62280533D01*
X143851333Y-39061580D02*
X143803714Y-39109200D01*
X143803714Y-39109200D02*
X143660857Y-39156819D01*
X143660857Y-39156819D02*
X143565619Y-39156819D01*
X143565619Y-39156819D02*
X143422762Y-39109200D01*
X143422762Y-39109200D02*
X143327524Y-39013961D01*
X143327524Y-39013961D02*
X143279905Y-38918723D01*
X143279905Y-38918723D02*
X143232286Y-38728247D01*
X143232286Y-38728247D02*
X143232286Y-38585390D01*
X143232286Y-38585390D02*
X143279905Y-38394914D01*
X143279905Y-38394914D02*
X143327524Y-38299676D01*
X143327524Y-38299676D02*
X143422762Y-38204438D01*
X143422762Y-38204438D02*
X143565619Y-38156819D01*
X143565619Y-38156819D02*
X143660857Y-38156819D01*
X143660857Y-38156819D02*
X143803714Y-38204438D01*
X143803714Y-38204438D02*
X143851333Y-38252057D01*
X144803714Y-39156819D02*
X144232286Y-39156819D01*
X144518000Y-39156819D02*
X144518000Y-38156819D01*
X144518000Y-38156819D02*
X144422762Y-38299676D01*
X144422762Y-38299676D02*
X144327524Y-38394914D01*
X144327524Y-38394914D02*
X144232286Y-38442533D01*
X145848334Y-80817818D02*
X145515001Y-80341627D01*
X145276906Y-80817818D02*
X145276906Y-79817818D01*
X145276906Y-79817818D02*
X145657858Y-79817818D01*
X145657858Y-79817818D02*
X145753096Y-79865437D01*
X145753096Y-79865437D02*
X145800715Y-79913056D01*
X145800715Y-79913056D02*
X145848334Y-80008294D01*
X145848334Y-80008294D02*
X145848334Y-80151151D01*
X145848334Y-80151151D02*
X145800715Y-80246389D01*
X145800715Y-80246389D02*
X145753096Y-80294008D01*
X145753096Y-80294008D02*
X145657858Y-80341627D01*
X145657858Y-80341627D02*
X145276906Y-80341627D01*
X146800715Y-80817818D02*
X146229287Y-80817818D01*
X146515001Y-80817818D02*
X146515001Y-79817818D01*
X146515001Y-79817818D02*
X146419763Y-79960675D01*
X146419763Y-79960675D02*
X146324525Y-80055913D01*
X146324525Y-80055913D02*
X146229287Y-80103532D01*
X97160142Y-67923580D02*
X97112523Y-67971200D01*
X97112523Y-67971200D02*
X96969666Y-68018819D01*
X96969666Y-68018819D02*
X96874428Y-68018819D01*
X96874428Y-68018819D02*
X96731571Y-67971200D01*
X96731571Y-67971200D02*
X96636333Y-67875961D01*
X96636333Y-67875961D02*
X96588714Y-67780723D01*
X96588714Y-67780723D02*
X96541095Y-67590247D01*
X96541095Y-67590247D02*
X96541095Y-67447390D01*
X96541095Y-67447390D02*
X96588714Y-67256914D01*
X96588714Y-67256914D02*
X96636333Y-67161676D01*
X96636333Y-67161676D02*
X96731571Y-67066438D01*
X96731571Y-67066438D02*
X96874428Y-67018819D01*
X96874428Y-67018819D02*
X96969666Y-67018819D01*
X96969666Y-67018819D02*
X97112523Y-67066438D01*
X97112523Y-67066438D02*
X97160142Y-67114057D01*
X98112523Y-68018819D02*
X97541095Y-68018819D01*
X97826809Y-68018819D02*
X97826809Y-67018819D01*
X97826809Y-67018819D02*
X97731571Y-67161676D01*
X97731571Y-67161676D02*
X97636333Y-67256914D01*
X97636333Y-67256914D02*
X97541095Y-67304533D01*
X98969666Y-67352152D02*
X98969666Y-68018819D01*
X98731571Y-66971200D02*
X98493476Y-67685485D01*
X98493476Y-67685485D02*
X99112523Y-67685485D01*
X127114820Y-85435856D02*
X126638629Y-85769189D01*
X127114820Y-86007284D02*
X126114820Y-86007284D01*
X126114820Y-86007284D02*
X126114820Y-85626332D01*
X126114820Y-85626332D02*
X126162439Y-85531094D01*
X126162439Y-85531094D02*
X126210058Y-85483475D01*
X126210058Y-85483475D02*
X126305296Y-85435856D01*
X126305296Y-85435856D02*
X126448153Y-85435856D01*
X126448153Y-85435856D02*
X126543391Y-85483475D01*
X126543391Y-85483475D02*
X126591010Y-85531094D01*
X126591010Y-85531094D02*
X126638629Y-85626332D01*
X126638629Y-85626332D02*
X126638629Y-86007284D01*
X127114820Y-84483475D02*
X127114820Y-85054903D01*
X127114820Y-84769189D02*
X126114820Y-84769189D01*
X126114820Y-84769189D02*
X126257677Y-84864427D01*
X126257677Y-84864427D02*
X126352915Y-84959665D01*
X126352915Y-84959665D02*
X126400534Y-85054903D01*
X126114820Y-84150141D02*
X126114820Y-83531094D01*
X126114820Y-83531094D02*
X126495772Y-83864427D01*
X126495772Y-83864427D02*
X126495772Y-83721570D01*
X126495772Y-83721570D02*
X126543391Y-83626332D01*
X126543391Y-83626332D02*
X126591010Y-83578713D01*
X126591010Y-83578713D02*
X126686248Y-83531094D01*
X126686248Y-83531094D02*
X126924343Y-83531094D01*
X126924343Y-83531094D02*
X127019581Y-83578713D01*
X127019581Y-83578713D02*
X127067201Y-83626332D01*
X127067201Y-83626332D02*
X127114820Y-83721570D01*
X127114820Y-83721570D02*
X127114820Y-84007284D01*
X127114820Y-84007284D02*
X127067201Y-84102522D01*
X127067201Y-84102522D02*
X127019581Y-84150141D01*
X143375142Y-42236580D02*
X143327523Y-42284200D01*
X143327523Y-42284200D02*
X143184666Y-42331819D01*
X143184666Y-42331819D02*
X143089428Y-42331819D01*
X143089428Y-42331819D02*
X142946571Y-42284200D01*
X142946571Y-42284200D02*
X142851333Y-42188961D01*
X142851333Y-42188961D02*
X142803714Y-42093723D01*
X142803714Y-42093723D02*
X142756095Y-41903247D01*
X142756095Y-41903247D02*
X142756095Y-41760390D01*
X142756095Y-41760390D02*
X142803714Y-41569914D01*
X142803714Y-41569914D02*
X142851333Y-41474676D01*
X142851333Y-41474676D02*
X142946571Y-41379438D01*
X142946571Y-41379438D02*
X143089428Y-41331819D01*
X143089428Y-41331819D02*
X143184666Y-41331819D01*
X143184666Y-41331819D02*
X143327523Y-41379438D01*
X143327523Y-41379438D02*
X143375142Y-41427057D01*
X144327523Y-42331819D02*
X143756095Y-42331819D01*
X144041809Y-42331819D02*
X144041809Y-41331819D01*
X144041809Y-41331819D02*
X143946571Y-41474676D01*
X143946571Y-41474676D02*
X143851333Y-41569914D01*
X143851333Y-41569914D02*
X143756095Y-41617533D01*
X144708476Y-41427057D02*
X144756095Y-41379438D01*
X144756095Y-41379438D02*
X144851333Y-41331819D01*
X144851333Y-41331819D02*
X145089428Y-41331819D01*
X145089428Y-41331819D02*
X145184666Y-41379438D01*
X145184666Y-41379438D02*
X145232285Y-41427057D01*
X145232285Y-41427057D02*
X145279904Y-41522295D01*
X145279904Y-41522295D02*
X145279904Y-41617533D01*
X145279904Y-41617533D02*
X145232285Y-41760390D01*
X145232285Y-41760390D02*
X144660857Y-42331819D01*
X144660857Y-42331819D02*
X145279904Y-42331819D01*
X119904761Y-67250057D02*
X119809523Y-67202438D01*
X119809523Y-67202438D02*
X119714285Y-67107200D01*
X119714285Y-67107200D02*
X119571428Y-66964342D01*
X119571428Y-66964342D02*
X119476190Y-66916723D01*
X119476190Y-66916723D02*
X119380952Y-66916723D01*
X119428571Y-67154819D02*
X119333333Y-67107200D01*
X119333333Y-67107200D02*
X119238095Y-67011961D01*
X119238095Y-67011961D02*
X119190476Y-66821485D01*
X119190476Y-66821485D02*
X119190476Y-66488152D01*
X119190476Y-66488152D02*
X119238095Y-66297676D01*
X119238095Y-66297676D02*
X119333333Y-66202438D01*
X119333333Y-66202438D02*
X119428571Y-66154819D01*
X119428571Y-66154819D02*
X119619047Y-66154819D01*
X119619047Y-66154819D02*
X119714285Y-66202438D01*
X119714285Y-66202438D02*
X119809523Y-66297676D01*
X119809523Y-66297676D02*
X119857142Y-66488152D01*
X119857142Y-66488152D02*
X119857142Y-66821485D01*
X119857142Y-66821485D02*
X119809523Y-67011961D01*
X119809523Y-67011961D02*
X119714285Y-67107200D01*
X119714285Y-67107200D02*
X119619047Y-67154819D01*
X119619047Y-67154819D02*
X119428571Y-67154819D01*
X120761904Y-66154819D02*
X120285714Y-66154819D01*
X120285714Y-66154819D02*
X120238095Y-66631009D01*
X120238095Y-66631009D02*
X120285714Y-66583390D01*
X120285714Y-66583390D02*
X120380952Y-66535771D01*
X120380952Y-66535771D02*
X120619047Y-66535771D01*
X120619047Y-66535771D02*
X120714285Y-66583390D01*
X120714285Y-66583390D02*
X120761904Y-66631009D01*
X120761904Y-66631009D02*
X120809523Y-66726247D01*
X120809523Y-66726247D02*
X120809523Y-66964342D01*
X120809523Y-66964342D02*
X120761904Y-67059580D01*
X120761904Y-67059580D02*
X120714285Y-67107200D01*
X120714285Y-67107200D02*
X120619047Y-67154819D01*
X120619047Y-67154819D02*
X120380952Y-67154819D01*
X120380952Y-67154819D02*
X120285714Y-67107200D01*
X120285714Y-67107200D02*
X120238095Y-67059580D01*
X102536666Y-62093819D02*
X102536666Y-62808104D01*
X102536666Y-62808104D02*
X102489047Y-62950961D01*
X102489047Y-62950961D02*
X102393809Y-63046200D01*
X102393809Y-63046200D02*
X102250952Y-63093819D01*
X102250952Y-63093819D02*
X102155714Y-63093819D01*
X103155714Y-62522390D02*
X103060476Y-62474771D01*
X103060476Y-62474771D02*
X103012857Y-62427152D01*
X103012857Y-62427152D02*
X102965238Y-62331914D01*
X102965238Y-62331914D02*
X102965238Y-62284295D01*
X102965238Y-62284295D02*
X103012857Y-62189057D01*
X103012857Y-62189057D02*
X103060476Y-62141438D01*
X103060476Y-62141438D02*
X103155714Y-62093819D01*
X103155714Y-62093819D02*
X103346190Y-62093819D01*
X103346190Y-62093819D02*
X103441428Y-62141438D01*
X103441428Y-62141438D02*
X103489047Y-62189057D01*
X103489047Y-62189057D02*
X103536666Y-62284295D01*
X103536666Y-62284295D02*
X103536666Y-62331914D01*
X103536666Y-62331914D02*
X103489047Y-62427152D01*
X103489047Y-62427152D02*
X103441428Y-62474771D01*
X103441428Y-62474771D02*
X103346190Y-62522390D01*
X103346190Y-62522390D02*
X103155714Y-62522390D01*
X103155714Y-62522390D02*
X103060476Y-62570009D01*
X103060476Y-62570009D02*
X103012857Y-62617628D01*
X103012857Y-62617628D02*
X102965238Y-62712866D01*
X102965238Y-62712866D02*
X102965238Y-62903342D01*
X102965238Y-62903342D02*
X103012857Y-62998580D01*
X103012857Y-62998580D02*
X103060476Y-63046200D01*
X103060476Y-63046200D02*
X103155714Y-63093819D01*
X103155714Y-63093819D02*
X103346190Y-63093819D01*
X103346190Y-63093819D02*
X103441428Y-63046200D01*
X103441428Y-63046200D02*
X103489047Y-62998580D01*
X103489047Y-62998580D02*
X103536666Y-62903342D01*
X103536666Y-62903342D02*
X103536666Y-62712866D01*
X103536666Y-62712866D02*
X103489047Y-62617628D01*
X103489047Y-62617628D02*
X103441428Y-62570009D01*
X103441428Y-62570009D02*
X103346190Y-62522390D01*
X125364820Y-99185856D02*
X124888629Y-99519189D01*
X125364820Y-99757284D02*
X124364820Y-99757284D01*
X124364820Y-99757284D02*
X124364820Y-99376332D01*
X124364820Y-99376332D02*
X124412439Y-99281094D01*
X124412439Y-99281094D02*
X124460058Y-99233475D01*
X124460058Y-99233475D02*
X124555296Y-99185856D01*
X124555296Y-99185856D02*
X124698153Y-99185856D01*
X124698153Y-99185856D02*
X124793391Y-99233475D01*
X124793391Y-99233475D02*
X124841010Y-99281094D01*
X124841010Y-99281094D02*
X124888629Y-99376332D01*
X124888629Y-99376332D02*
X124888629Y-99757284D01*
X125364820Y-98233475D02*
X125364820Y-98804903D01*
X125364820Y-98519189D02*
X124364820Y-98519189D01*
X124364820Y-98519189D02*
X124507677Y-98614427D01*
X124507677Y-98614427D02*
X124602915Y-98709665D01*
X124602915Y-98709665D02*
X124650534Y-98804903D01*
X124364820Y-97614427D02*
X124364820Y-97519189D01*
X124364820Y-97519189D02*
X124412439Y-97423951D01*
X124412439Y-97423951D02*
X124460058Y-97376332D01*
X124460058Y-97376332D02*
X124555296Y-97328713D01*
X124555296Y-97328713D02*
X124745772Y-97281094D01*
X124745772Y-97281094D02*
X124983867Y-97281094D01*
X124983867Y-97281094D02*
X125174343Y-97328713D01*
X125174343Y-97328713D02*
X125269581Y-97376332D01*
X125269581Y-97376332D02*
X125317201Y-97423951D01*
X125317201Y-97423951D02*
X125364820Y-97519189D01*
X125364820Y-97519189D02*
X125364820Y-97614427D01*
X125364820Y-97614427D02*
X125317201Y-97709665D01*
X125317201Y-97709665D02*
X125269581Y-97757284D01*
X125269581Y-97757284D02*
X125174343Y-97804903D01*
X125174343Y-97804903D02*
X124983867Y-97852522D01*
X124983867Y-97852522D02*
X124745772Y-97852522D01*
X124745772Y-97852522D02*
X124555296Y-97804903D01*
X124555296Y-97804903D02*
X124460058Y-97757284D01*
X124460058Y-97757284D02*
X124412439Y-97709665D01*
X124412439Y-97709665D02*
X124364820Y-97614427D01*
X115584820Y-77126332D02*
X116299105Y-77126332D01*
X116299105Y-77126332D02*
X116441962Y-77173951D01*
X116441962Y-77173951D02*
X116537201Y-77269189D01*
X116537201Y-77269189D02*
X116584820Y-77412046D01*
X116584820Y-77412046D02*
X116584820Y-77507284D01*
X116584820Y-76126332D02*
X116584820Y-76697760D01*
X116584820Y-76412046D02*
X115584820Y-76412046D01*
X115584820Y-76412046D02*
X115727677Y-76507284D01*
X115727677Y-76507284D02*
X115822915Y-76602522D01*
X115822915Y-76602522D02*
X115870534Y-76697760D01*
X110242261Y-66400057D02*
X110147023Y-66352438D01*
X110147023Y-66352438D02*
X110051785Y-66257200D01*
X110051785Y-66257200D02*
X109908928Y-66114342D01*
X109908928Y-66114342D02*
X109813690Y-66066723D01*
X109813690Y-66066723D02*
X109718452Y-66066723D01*
X109766071Y-66304819D02*
X109670833Y-66257200D01*
X109670833Y-66257200D02*
X109575595Y-66161961D01*
X109575595Y-66161961D02*
X109527976Y-65971485D01*
X109527976Y-65971485D02*
X109527976Y-65638152D01*
X109527976Y-65638152D02*
X109575595Y-65447676D01*
X109575595Y-65447676D02*
X109670833Y-65352438D01*
X109670833Y-65352438D02*
X109766071Y-65304819D01*
X109766071Y-65304819D02*
X109956547Y-65304819D01*
X109956547Y-65304819D02*
X110051785Y-65352438D01*
X110051785Y-65352438D02*
X110147023Y-65447676D01*
X110147023Y-65447676D02*
X110194642Y-65638152D01*
X110194642Y-65638152D02*
X110194642Y-65971485D01*
X110194642Y-65971485D02*
X110147023Y-66161961D01*
X110147023Y-66161961D02*
X110051785Y-66257200D01*
X110051785Y-66257200D02*
X109956547Y-66304819D01*
X109956547Y-66304819D02*
X109766071Y-66304819D01*
X110527976Y-65304819D02*
X111147023Y-65304819D01*
X111147023Y-65304819D02*
X110813690Y-65685771D01*
X110813690Y-65685771D02*
X110956547Y-65685771D01*
X110956547Y-65685771D02*
X111051785Y-65733390D01*
X111051785Y-65733390D02*
X111099404Y-65781009D01*
X111099404Y-65781009D02*
X111147023Y-65876247D01*
X111147023Y-65876247D02*
X111147023Y-66114342D01*
X111147023Y-66114342D02*
X111099404Y-66209580D01*
X111099404Y-66209580D02*
X111051785Y-66257200D01*
X111051785Y-66257200D02*
X110956547Y-66304819D01*
X110956547Y-66304819D02*
X110670833Y-66304819D01*
X110670833Y-66304819D02*
X110575595Y-66257200D01*
X110575595Y-66257200D02*
X110527976Y-66209580D01*
X122769333Y-107801580D02*
X122721714Y-107849200D01*
X122721714Y-107849200D02*
X122578857Y-107896819D01*
X122578857Y-107896819D02*
X122483619Y-107896819D01*
X122483619Y-107896819D02*
X122340762Y-107849200D01*
X122340762Y-107849200D02*
X122245524Y-107753961D01*
X122245524Y-107753961D02*
X122197905Y-107658723D01*
X122197905Y-107658723D02*
X122150286Y-107468247D01*
X122150286Y-107468247D02*
X122150286Y-107325390D01*
X122150286Y-107325390D02*
X122197905Y-107134914D01*
X122197905Y-107134914D02*
X122245524Y-107039676D01*
X122245524Y-107039676D02*
X122340762Y-106944438D01*
X122340762Y-106944438D02*
X122483619Y-106896819D01*
X122483619Y-106896819D02*
X122578857Y-106896819D01*
X122578857Y-106896819D02*
X122721714Y-106944438D01*
X122721714Y-106944438D02*
X122769333Y-106992057D01*
X123340762Y-107325390D02*
X123245524Y-107277771D01*
X123245524Y-107277771D02*
X123197905Y-107230152D01*
X123197905Y-107230152D02*
X123150286Y-107134914D01*
X123150286Y-107134914D02*
X123150286Y-107087295D01*
X123150286Y-107087295D02*
X123197905Y-106992057D01*
X123197905Y-106992057D02*
X123245524Y-106944438D01*
X123245524Y-106944438D02*
X123340762Y-106896819D01*
X123340762Y-106896819D02*
X123531238Y-106896819D01*
X123531238Y-106896819D02*
X123626476Y-106944438D01*
X123626476Y-106944438D02*
X123674095Y-106992057D01*
X123674095Y-106992057D02*
X123721714Y-107087295D01*
X123721714Y-107087295D02*
X123721714Y-107134914D01*
X123721714Y-107134914D02*
X123674095Y-107230152D01*
X123674095Y-107230152D02*
X123626476Y-107277771D01*
X123626476Y-107277771D02*
X123531238Y-107325390D01*
X123531238Y-107325390D02*
X123340762Y-107325390D01*
X123340762Y-107325390D02*
X123245524Y-107373009D01*
X123245524Y-107373009D02*
X123197905Y-107420628D01*
X123197905Y-107420628D02*
X123150286Y-107515866D01*
X123150286Y-107515866D02*
X123150286Y-107706342D01*
X123150286Y-107706342D02*
X123197905Y-107801580D01*
X123197905Y-107801580D02*
X123245524Y-107849200D01*
X123245524Y-107849200D02*
X123340762Y-107896819D01*
X123340762Y-107896819D02*
X123531238Y-107896819D01*
X123531238Y-107896819D02*
X123626476Y-107849200D01*
X123626476Y-107849200D02*
X123674095Y-107801580D01*
X123674095Y-107801580D02*
X123721714Y-107706342D01*
X123721714Y-107706342D02*
X123721714Y-107515866D01*
X123721714Y-107515866D02*
X123674095Y-107420628D01*
X123674095Y-107420628D02*
X123626476Y-107373009D01*
X123626476Y-107373009D02*
X123531238Y-107325390D01*
X117371905Y-70685819D02*
X117371905Y-69685819D01*
X117371905Y-69685819D02*
X117610000Y-69685819D01*
X117610000Y-69685819D02*
X117752857Y-69733438D01*
X117752857Y-69733438D02*
X117848095Y-69828676D01*
X117848095Y-69828676D02*
X117895714Y-69923914D01*
X117895714Y-69923914D02*
X117943333Y-70114390D01*
X117943333Y-70114390D02*
X117943333Y-70257247D01*
X117943333Y-70257247D02*
X117895714Y-70447723D01*
X117895714Y-70447723D02*
X117848095Y-70542961D01*
X117848095Y-70542961D02*
X117752857Y-70638200D01*
X117752857Y-70638200D02*
X117610000Y-70685819D01*
X117610000Y-70685819D02*
X117371905Y-70685819D01*
X118324286Y-69781057D02*
X118371905Y-69733438D01*
X118371905Y-69733438D02*
X118467143Y-69685819D01*
X118467143Y-69685819D02*
X118705238Y-69685819D01*
X118705238Y-69685819D02*
X118800476Y-69733438D01*
X118800476Y-69733438D02*
X118848095Y-69781057D01*
X118848095Y-69781057D02*
X118895714Y-69876295D01*
X118895714Y-69876295D02*
X118895714Y-69971533D01*
X118895714Y-69971533D02*
X118848095Y-70114390D01*
X118848095Y-70114390D02*
X118276667Y-70685819D01*
X118276667Y-70685819D02*
X118895714Y-70685819D01*
X98949581Y-94935856D02*
X98997201Y-94983475D01*
X98997201Y-94983475D02*
X99044820Y-95126332D01*
X99044820Y-95126332D02*
X99044820Y-95221570D01*
X99044820Y-95221570D02*
X98997201Y-95364427D01*
X98997201Y-95364427D02*
X98901962Y-95459665D01*
X98901962Y-95459665D02*
X98806724Y-95507284D01*
X98806724Y-95507284D02*
X98616248Y-95554903D01*
X98616248Y-95554903D02*
X98473391Y-95554903D01*
X98473391Y-95554903D02*
X98282915Y-95507284D01*
X98282915Y-95507284D02*
X98187677Y-95459665D01*
X98187677Y-95459665D02*
X98092439Y-95364427D01*
X98092439Y-95364427D02*
X98044820Y-95221570D01*
X98044820Y-95221570D02*
X98044820Y-95126332D01*
X98044820Y-95126332D02*
X98092439Y-94983475D01*
X98092439Y-94983475D02*
X98140058Y-94935856D01*
X98140058Y-94554903D02*
X98092439Y-94507284D01*
X98092439Y-94507284D02*
X98044820Y-94412046D01*
X98044820Y-94412046D02*
X98044820Y-94173951D01*
X98044820Y-94173951D02*
X98092439Y-94078713D01*
X98092439Y-94078713D02*
X98140058Y-94031094D01*
X98140058Y-94031094D02*
X98235296Y-93983475D01*
X98235296Y-93983475D02*
X98330534Y-93983475D01*
X98330534Y-93983475D02*
X98473391Y-94031094D01*
X98473391Y-94031094D02*
X99044820Y-94602522D01*
X99044820Y-94602522D02*
X99044820Y-93983475D01*
X98140058Y-93602522D02*
X98092439Y-93554903D01*
X98092439Y-93554903D02*
X98044820Y-93459665D01*
X98044820Y-93459665D02*
X98044820Y-93221570D01*
X98044820Y-93221570D02*
X98092439Y-93126332D01*
X98092439Y-93126332D02*
X98140058Y-93078713D01*
X98140058Y-93078713D02*
X98235296Y-93031094D01*
X98235296Y-93031094D02*
X98330534Y-93031094D01*
X98330534Y-93031094D02*
X98473391Y-93078713D01*
X98473391Y-93078713D02*
X99044820Y-93650141D01*
X99044820Y-93650141D02*
X99044820Y-93031094D01*
X166036666Y-101402819D02*
X166036666Y-102117104D01*
X166036666Y-102117104D02*
X165989047Y-102259961D01*
X165989047Y-102259961D02*
X165893809Y-102355200D01*
X165893809Y-102355200D02*
X165750952Y-102402819D01*
X165750952Y-102402819D02*
X165655714Y-102402819D01*
X166417619Y-101402819D02*
X167084285Y-101402819D01*
X167084285Y-101402819D02*
X166655714Y-102402819D01*
X125423334Y-93722579D02*
X125375715Y-93770199D01*
X125375715Y-93770199D02*
X125232858Y-93817818D01*
X125232858Y-93817818D02*
X125137620Y-93817818D01*
X125137620Y-93817818D02*
X124994763Y-93770199D01*
X124994763Y-93770199D02*
X124899525Y-93674960D01*
X124899525Y-93674960D02*
X124851906Y-93579722D01*
X124851906Y-93579722D02*
X124804287Y-93389246D01*
X124804287Y-93389246D02*
X124804287Y-93246389D01*
X124804287Y-93246389D02*
X124851906Y-93055913D01*
X124851906Y-93055913D02*
X124899525Y-92960675D01*
X124899525Y-92960675D02*
X124994763Y-92865437D01*
X124994763Y-92865437D02*
X125137620Y-92817818D01*
X125137620Y-92817818D02*
X125232858Y-92817818D01*
X125232858Y-92817818D02*
X125375715Y-92865437D01*
X125375715Y-92865437D02*
X125423334Y-92913056D01*
X126328096Y-92817818D02*
X125851906Y-92817818D01*
X125851906Y-92817818D02*
X125804287Y-93294008D01*
X125804287Y-93294008D02*
X125851906Y-93246389D01*
X125851906Y-93246389D02*
X125947144Y-93198770D01*
X125947144Y-93198770D02*
X126185239Y-93198770D01*
X126185239Y-93198770D02*
X126280477Y-93246389D01*
X126280477Y-93246389D02*
X126328096Y-93294008D01*
X126328096Y-93294008D02*
X126375715Y-93389246D01*
X126375715Y-93389246D02*
X126375715Y-93627341D01*
X126375715Y-93627341D02*
X126328096Y-93722579D01*
X126328096Y-93722579D02*
X126280477Y-93770199D01*
X126280477Y-93770199D02*
X126185239Y-93817818D01*
X126185239Y-93817818D02*
X125947144Y-93817818D01*
X125947144Y-93817818D02*
X125851906Y-93770199D01*
X125851906Y-93770199D02*
X125804287Y-93722579D01*
X116474820Y-91134665D02*
X115998629Y-91467998D01*
X116474820Y-91706093D02*
X115474820Y-91706093D01*
X115474820Y-91706093D02*
X115474820Y-91325141D01*
X115474820Y-91325141D02*
X115522439Y-91229903D01*
X115522439Y-91229903D02*
X115570058Y-91182284D01*
X115570058Y-91182284D02*
X115665296Y-91134665D01*
X115665296Y-91134665D02*
X115808153Y-91134665D01*
X115808153Y-91134665D02*
X115903391Y-91182284D01*
X115903391Y-91182284D02*
X115951010Y-91229903D01*
X115951010Y-91229903D02*
X115998629Y-91325141D01*
X115998629Y-91325141D02*
X115998629Y-91706093D01*
X115474820Y-90229903D02*
X115474820Y-90706093D01*
X115474820Y-90706093D02*
X115951010Y-90753712D01*
X115951010Y-90753712D02*
X115903391Y-90706093D01*
X115903391Y-90706093D02*
X115855772Y-90610855D01*
X115855772Y-90610855D02*
X115855772Y-90372760D01*
X115855772Y-90372760D02*
X115903391Y-90277522D01*
X115903391Y-90277522D02*
X115951010Y-90229903D01*
X115951010Y-90229903D02*
X116046248Y-90182284D01*
X116046248Y-90182284D02*
X116284343Y-90182284D01*
X116284343Y-90182284D02*
X116379581Y-90229903D01*
X116379581Y-90229903D02*
X116427201Y-90277522D01*
X116427201Y-90277522D02*
X116474820Y-90372760D01*
X116474820Y-90372760D02*
X116474820Y-90610855D01*
X116474820Y-90610855D02*
X116427201Y-90706093D01*
X116427201Y-90706093D02*
X116379581Y-90753712D01*
X99547142Y-106117580D02*
X99499523Y-106165200D01*
X99499523Y-106165200D02*
X99356666Y-106212819D01*
X99356666Y-106212819D02*
X99261428Y-106212819D01*
X99261428Y-106212819D02*
X99118571Y-106165200D01*
X99118571Y-106165200D02*
X99023333Y-106069961D01*
X99023333Y-106069961D02*
X98975714Y-105974723D01*
X98975714Y-105974723D02*
X98928095Y-105784247D01*
X98928095Y-105784247D02*
X98928095Y-105641390D01*
X98928095Y-105641390D02*
X98975714Y-105450914D01*
X98975714Y-105450914D02*
X99023333Y-105355676D01*
X99023333Y-105355676D02*
X99118571Y-105260438D01*
X99118571Y-105260438D02*
X99261428Y-105212819D01*
X99261428Y-105212819D02*
X99356666Y-105212819D01*
X99356666Y-105212819D02*
X99499523Y-105260438D01*
X99499523Y-105260438D02*
X99547142Y-105308057D01*
X100499523Y-106212819D02*
X99928095Y-106212819D01*
X100213809Y-106212819D02*
X100213809Y-105212819D01*
X100213809Y-105212819D02*
X100118571Y-105355676D01*
X100118571Y-105355676D02*
X100023333Y-105450914D01*
X100023333Y-105450914D02*
X99928095Y-105498533D01*
X101451904Y-106212819D02*
X100880476Y-106212819D01*
X101166190Y-106212819D02*
X101166190Y-105212819D01*
X101166190Y-105212819D02*
X101070952Y-105355676D01*
X101070952Y-105355676D02*
X100975714Y-105450914D01*
X100975714Y-105450914D02*
X100880476Y-105498533D01*
X125998334Y-105427818D02*
X125665001Y-104951627D01*
X125426906Y-105427818D02*
X125426906Y-104427818D01*
X125426906Y-104427818D02*
X125807858Y-104427818D01*
X125807858Y-104427818D02*
X125903096Y-104475437D01*
X125903096Y-104475437D02*
X125950715Y-104523056D01*
X125950715Y-104523056D02*
X125998334Y-104618294D01*
X125998334Y-104618294D02*
X125998334Y-104761151D01*
X125998334Y-104761151D02*
X125950715Y-104856389D01*
X125950715Y-104856389D02*
X125903096Y-104904008D01*
X125903096Y-104904008D02*
X125807858Y-104951627D01*
X125807858Y-104951627D02*
X125426906Y-104951627D01*
X126474525Y-105427818D02*
X126665001Y-105427818D01*
X126665001Y-105427818D02*
X126760239Y-105380199D01*
X126760239Y-105380199D02*
X126807858Y-105332579D01*
X126807858Y-105332579D02*
X126903096Y-105189722D01*
X126903096Y-105189722D02*
X126950715Y-104999246D01*
X126950715Y-104999246D02*
X126950715Y-104618294D01*
X126950715Y-104618294D02*
X126903096Y-104523056D01*
X126903096Y-104523056D02*
X126855477Y-104475437D01*
X126855477Y-104475437D02*
X126760239Y-104427818D01*
X126760239Y-104427818D02*
X126569763Y-104427818D01*
X126569763Y-104427818D02*
X126474525Y-104475437D01*
X126474525Y-104475437D02*
X126426906Y-104523056D01*
X126426906Y-104523056D02*
X126379287Y-104618294D01*
X126379287Y-104618294D02*
X126379287Y-104856389D01*
X126379287Y-104856389D02*
X126426906Y-104951627D01*
X126426906Y-104951627D02*
X126474525Y-104999246D01*
X126474525Y-104999246D02*
X126569763Y-105046865D01*
X126569763Y-105046865D02*
X126760239Y-105046865D01*
X126760239Y-105046865D02*
X126855477Y-104999246D01*
X126855477Y-104999246D02*
X126903096Y-104951627D01*
X126903096Y-104951627D02*
X126950715Y-104856389D01*
X140866905Y-83799819D02*
X140866905Y-82799819D01*
X140866905Y-82799819D02*
X141105000Y-82799819D01*
X141105000Y-82799819D02*
X141247857Y-82847438D01*
X141247857Y-82847438D02*
X141343095Y-82942676D01*
X141343095Y-82942676D02*
X141390714Y-83037914D01*
X141390714Y-83037914D02*
X141438333Y-83228390D01*
X141438333Y-83228390D02*
X141438333Y-83371247D01*
X141438333Y-83371247D02*
X141390714Y-83561723D01*
X141390714Y-83561723D02*
X141343095Y-83656961D01*
X141343095Y-83656961D02*
X141247857Y-83752200D01*
X141247857Y-83752200D02*
X141105000Y-83799819D01*
X141105000Y-83799819D02*
X140866905Y-83799819D01*
X142390714Y-83799819D02*
X141819286Y-83799819D01*
X142105000Y-83799819D02*
X142105000Y-82799819D01*
X142105000Y-82799819D02*
X142009762Y-82942676D01*
X142009762Y-82942676D02*
X141914524Y-83037914D01*
X141914524Y-83037914D02*
X141819286Y-83085533D01*
X148423334Y-79652579D02*
X148375715Y-79700199D01*
X148375715Y-79700199D02*
X148232858Y-79747818D01*
X148232858Y-79747818D02*
X148137620Y-79747818D01*
X148137620Y-79747818D02*
X147994763Y-79700199D01*
X147994763Y-79700199D02*
X147899525Y-79604960D01*
X147899525Y-79604960D02*
X147851906Y-79509722D01*
X147851906Y-79509722D02*
X147804287Y-79319246D01*
X147804287Y-79319246D02*
X147804287Y-79176389D01*
X147804287Y-79176389D02*
X147851906Y-78985913D01*
X147851906Y-78985913D02*
X147899525Y-78890675D01*
X147899525Y-78890675D02*
X147994763Y-78795437D01*
X147994763Y-78795437D02*
X148137620Y-78747818D01*
X148137620Y-78747818D02*
X148232858Y-78747818D01*
X148232858Y-78747818D02*
X148375715Y-78795437D01*
X148375715Y-78795437D02*
X148423334Y-78843056D01*
X148756668Y-78747818D02*
X149423334Y-78747818D01*
X149423334Y-78747818D02*
X148994763Y-79747818D01*
X143559405Y-27472819D02*
X143559405Y-26472819D01*
X143559405Y-26472819D02*
X143797500Y-26472819D01*
X143797500Y-26472819D02*
X143940357Y-26520438D01*
X143940357Y-26520438D02*
X144035595Y-26615676D01*
X144035595Y-26615676D02*
X144083214Y-26710914D01*
X144083214Y-26710914D02*
X144130833Y-26901390D01*
X144130833Y-26901390D02*
X144130833Y-27044247D01*
X144130833Y-27044247D02*
X144083214Y-27234723D01*
X144083214Y-27234723D02*
X144035595Y-27329961D01*
X144035595Y-27329961D02*
X143940357Y-27425200D01*
X143940357Y-27425200D02*
X143797500Y-27472819D01*
X143797500Y-27472819D02*
X143559405Y-27472819D01*
X144987976Y-26806152D02*
X144987976Y-27472819D01*
X144749881Y-26425200D02*
X144511786Y-27139485D01*
X144511786Y-27139485D02*
X145130833Y-27139485D01*
X136394761Y-67287557D02*
X136299523Y-67239938D01*
X136299523Y-67239938D02*
X136204285Y-67144700D01*
X136204285Y-67144700D02*
X136061428Y-67001842D01*
X136061428Y-67001842D02*
X135966190Y-66954223D01*
X135966190Y-66954223D02*
X135870952Y-66954223D01*
X135918571Y-67192319D02*
X135823333Y-67144700D01*
X135823333Y-67144700D02*
X135728095Y-67049461D01*
X135728095Y-67049461D02*
X135680476Y-66858985D01*
X135680476Y-66858985D02*
X135680476Y-66525652D01*
X135680476Y-66525652D02*
X135728095Y-66335176D01*
X135728095Y-66335176D02*
X135823333Y-66239938D01*
X135823333Y-66239938D02*
X135918571Y-66192319D01*
X135918571Y-66192319D02*
X136109047Y-66192319D01*
X136109047Y-66192319D02*
X136204285Y-66239938D01*
X136204285Y-66239938D02*
X136299523Y-66335176D01*
X136299523Y-66335176D02*
X136347142Y-66525652D01*
X136347142Y-66525652D02*
X136347142Y-66858985D01*
X136347142Y-66858985D02*
X136299523Y-67049461D01*
X136299523Y-67049461D02*
X136204285Y-67144700D01*
X136204285Y-67144700D02*
X136109047Y-67192319D01*
X136109047Y-67192319D02*
X135918571Y-67192319D01*
X137204285Y-66525652D02*
X137204285Y-67192319D01*
X136966190Y-66144700D02*
X136728095Y-66858985D01*
X136728095Y-66858985D02*
X137347142Y-66858985D01*
X138430095Y-33617819D02*
X138430095Y-34427342D01*
X138430095Y-34427342D02*
X138477714Y-34522580D01*
X138477714Y-34522580D02*
X138525333Y-34570200D01*
X138525333Y-34570200D02*
X138620571Y-34617819D01*
X138620571Y-34617819D02*
X138811047Y-34617819D01*
X138811047Y-34617819D02*
X138906285Y-34570200D01*
X138906285Y-34570200D02*
X138953904Y-34522580D01*
X138953904Y-34522580D02*
X139001523Y-34427342D01*
X139001523Y-34427342D02*
X139001523Y-33617819D01*
X139382476Y-33617819D02*
X140001523Y-33617819D01*
X140001523Y-33617819D02*
X139668190Y-33998771D01*
X139668190Y-33998771D02*
X139811047Y-33998771D01*
X139811047Y-33998771D02*
X139906285Y-34046390D01*
X139906285Y-34046390D02*
X139953904Y-34094009D01*
X139953904Y-34094009D02*
X140001523Y-34189247D01*
X140001523Y-34189247D02*
X140001523Y-34427342D01*
X140001523Y-34427342D02*
X139953904Y-34522580D01*
X139953904Y-34522580D02*
X139906285Y-34570200D01*
X139906285Y-34570200D02*
X139811047Y-34617819D01*
X139811047Y-34617819D02*
X139525333Y-34617819D01*
X139525333Y-34617819D02*
X139430095Y-34570200D01*
X139430095Y-34570200D02*
X139382476Y-34522580D01*
D12*
X99832219Y-53335469D02*
X100070314Y-53335469D01*
X99975076Y-53573564D02*
X100070314Y-53335469D01*
X100070314Y-53335469D02*
X99975076Y-53097374D01*
X100260790Y-53478326D02*
X100070314Y-53335469D01*
X100070314Y-53335469D02*
X100260790Y-53192612D01*
D10*
X107998334Y-87747818D02*
X107665001Y-87271627D01*
X107426906Y-87747818D02*
X107426906Y-86747818D01*
X107426906Y-86747818D02*
X107807858Y-86747818D01*
X107807858Y-86747818D02*
X107903096Y-86795437D01*
X107903096Y-86795437D02*
X107950715Y-86843056D01*
X107950715Y-86843056D02*
X107998334Y-86938294D01*
X107998334Y-86938294D02*
X107998334Y-87081151D01*
X107998334Y-87081151D02*
X107950715Y-87176389D01*
X107950715Y-87176389D02*
X107903096Y-87224008D01*
X107903096Y-87224008D02*
X107807858Y-87271627D01*
X107807858Y-87271627D02*
X107426906Y-87271627D01*
X108855477Y-86747818D02*
X108665001Y-86747818D01*
X108665001Y-86747818D02*
X108569763Y-86795437D01*
X108569763Y-86795437D02*
X108522144Y-86843056D01*
X108522144Y-86843056D02*
X108426906Y-86985913D01*
X108426906Y-86985913D02*
X108379287Y-87176389D01*
X108379287Y-87176389D02*
X108379287Y-87557341D01*
X108379287Y-87557341D02*
X108426906Y-87652579D01*
X108426906Y-87652579D02*
X108474525Y-87700199D01*
X108474525Y-87700199D02*
X108569763Y-87747818D01*
X108569763Y-87747818D02*
X108760239Y-87747818D01*
X108760239Y-87747818D02*
X108855477Y-87700199D01*
X108855477Y-87700199D02*
X108903096Y-87652579D01*
X108903096Y-87652579D02*
X108950715Y-87557341D01*
X108950715Y-87557341D02*
X108950715Y-87319246D01*
X108950715Y-87319246D02*
X108903096Y-87224008D01*
X108903096Y-87224008D02*
X108855477Y-87176389D01*
X108855477Y-87176389D02*
X108760239Y-87128770D01*
X108760239Y-87128770D02*
X108569763Y-87128770D01*
X108569763Y-87128770D02*
X108474525Y-87176389D01*
X108474525Y-87176389D02*
X108426906Y-87224008D01*
X108426906Y-87224008D02*
X108379287Y-87319246D01*
X143566666Y-52109819D02*
X143566666Y-52824104D01*
X143566666Y-52824104D02*
X143519047Y-52966961D01*
X143519047Y-52966961D02*
X143423809Y-53062200D01*
X143423809Y-53062200D02*
X143280952Y-53109819D01*
X143280952Y-53109819D02*
X143185714Y-53109819D01*
X144471428Y-52109819D02*
X144280952Y-52109819D01*
X144280952Y-52109819D02*
X144185714Y-52157438D01*
X144185714Y-52157438D02*
X144138095Y-52205057D01*
X144138095Y-52205057D02*
X144042857Y-52347914D01*
X144042857Y-52347914D02*
X143995238Y-52538390D01*
X143995238Y-52538390D02*
X143995238Y-52919342D01*
X143995238Y-52919342D02*
X144042857Y-53014580D01*
X144042857Y-53014580D02*
X144090476Y-53062200D01*
X144090476Y-53062200D02*
X144185714Y-53109819D01*
X144185714Y-53109819D02*
X144376190Y-53109819D01*
X144376190Y-53109819D02*
X144471428Y-53062200D01*
X144471428Y-53062200D02*
X144519047Y-53014580D01*
X144519047Y-53014580D02*
X144566666Y-52919342D01*
X144566666Y-52919342D02*
X144566666Y-52681247D01*
X144566666Y-52681247D02*
X144519047Y-52586009D01*
X144519047Y-52586009D02*
X144471428Y-52538390D01*
X144471428Y-52538390D02*
X144376190Y-52490771D01*
X144376190Y-52490771D02*
X144185714Y-52490771D01*
X144185714Y-52490771D02*
X144090476Y-52538390D01*
X144090476Y-52538390D02*
X144042857Y-52586009D01*
X144042857Y-52586009D02*
X143995238Y-52681247D01*
X118614820Y-98784665D02*
X118138629Y-99117998D01*
X118614820Y-99356093D02*
X117614820Y-99356093D01*
X117614820Y-99356093D02*
X117614820Y-98975141D01*
X117614820Y-98975141D02*
X117662439Y-98879903D01*
X117662439Y-98879903D02*
X117710058Y-98832284D01*
X117710058Y-98832284D02*
X117805296Y-98784665D01*
X117805296Y-98784665D02*
X117948153Y-98784665D01*
X117948153Y-98784665D02*
X118043391Y-98832284D01*
X118043391Y-98832284D02*
X118091010Y-98879903D01*
X118091010Y-98879903D02*
X118138629Y-98975141D01*
X118138629Y-98975141D02*
X118138629Y-99356093D01*
X117614820Y-98451331D02*
X117614820Y-97832284D01*
X117614820Y-97832284D02*
X117995772Y-98165617D01*
X117995772Y-98165617D02*
X117995772Y-98022760D01*
X117995772Y-98022760D02*
X118043391Y-97927522D01*
X118043391Y-97927522D02*
X118091010Y-97879903D01*
X118091010Y-97879903D02*
X118186248Y-97832284D01*
X118186248Y-97832284D02*
X118424343Y-97832284D01*
X118424343Y-97832284D02*
X118519581Y-97879903D01*
X118519581Y-97879903D02*
X118567201Y-97927522D01*
X118567201Y-97927522D02*
X118614820Y-98022760D01*
X118614820Y-98022760D02*
X118614820Y-98308474D01*
X118614820Y-98308474D02*
X118567201Y-98403712D01*
X118567201Y-98403712D02*
X118519581Y-98451331D01*
X143692142Y-31282819D02*
X143358809Y-30806628D01*
X143120714Y-31282819D02*
X143120714Y-30282819D01*
X143120714Y-30282819D02*
X143501666Y-30282819D01*
X143501666Y-30282819D02*
X143596904Y-30330438D01*
X143596904Y-30330438D02*
X143644523Y-30378057D01*
X143644523Y-30378057D02*
X143692142Y-30473295D01*
X143692142Y-30473295D02*
X143692142Y-30616152D01*
X143692142Y-30616152D02*
X143644523Y-30711390D01*
X143644523Y-30711390D02*
X143596904Y-30759009D01*
X143596904Y-30759009D02*
X143501666Y-30806628D01*
X143501666Y-30806628D02*
X143120714Y-30806628D01*
X144644523Y-31282819D02*
X144073095Y-31282819D01*
X144358809Y-31282819D02*
X144358809Y-30282819D01*
X144358809Y-30282819D02*
X144263571Y-30425676D01*
X144263571Y-30425676D02*
X144168333Y-30520914D01*
X144168333Y-30520914D02*
X144073095Y-30568533D01*
X145215952Y-30711390D02*
X145120714Y-30663771D01*
X145120714Y-30663771D02*
X145073095Y-30616152D01*
X145073095Y-30616152D02*
X145025476Y-30520914D01*
X145025476Y-30520914D02*
X145025476Y-30473295D01*
X145025476Y-30473295D02*
X145073095Y-30378057D01*
X145073095Y-30378057D02*
X145120714Y-30330438D01*
X145120714Y-30330438D02*
X145215952Y-30282819D01*
X145215952Y-30282819D02*
X145406428Y-30282819D01*
X145406428Y-30282819D02*
X145501666Y-30330438D01*
X145501666Y-30330438D02*
X145549285Y-30378057D01*
X145549285Y-30378057D02*
X145596904Y-30473295D01*
X145596904Y-30473295D02*
X145596904Y-30520914D01*
X145596904Y-30520914D02*
X145549285Y-30616152D01*
X145549285Y-30616152D02*
X145501666Y-30663771D01*
X145501666Y-30663771D02*
X145406428Y-30711390D01*
X145406428Y-30711390D02*
X145215952Y-30711390D01*
X145215952Y-30711390D02*
X145120714Y-30759009D01*
X145120714Y-30759009D02*
X145073095Y-30806628D01*
X145073095Y-30806628D02*
X145025476Y-30901866D01*
X145025476Y-30901866D02*
X145025476Y-31092342D01*
X145025476Y-31092342D02*
X145073095Y-31187580D01*
X145073095Y-31187580D02*
X145120714Y-31235200D01*
X145120714Y-31235200D02*
X145215952Y-31282819D01*
X145215952Y-31282819D02*
X145406428Y-31282819D01*
X145406428Y-31282819D02*
X145501666Y-31235200D01*
X145501666Y-31235200D02*
X145549285Y-31187580D01*
X145549285Y-31187580D02*
X145596904Y-31092342D01*
X145596904Y-31092342D02*
X145596904Y-30901866D01*
X145596904Y-30901866D02*
X145549285Y-30806628D01*
X145549285Y-30806628D02*
X145501666Y-30759009D01*
X145501666Y-30759009D02*
X145406428Y-30711390D01*
X150245000Y-39201283D02*
X150445000Y-39267950D01*
X150445000Y-39267950D02*
X150511666Y-39334616D01*
X150511666Y-39334616D02*
X150578333Y-39467950D01*
X150578333Y-39467950D02*
X150578333Y-39667950D01*
X150578333Y-39667950D02*
X150511666Y-39801283D01*
X150511666Y-39801283D02*
X150445000Y-39867950D01*
X150445000Y-39867950D02*
X150311666Y-39934616D01*
X150311666Y-39934616D02*
X149778333Y-39934616D01*
X149778333Y-39934616D02*
X149778333Y-38534616D01*
X149778333Y-38534616D02*
X150245000Y-38534616D01*
X150245000Y-38534616D02*
X150378333Y-38601283D01*
X150378333Y-38601283D02*
X150445000Y-38667950D01*
X150445000Y-38667950D02*
X150511666Y-38801283D01*
X150511666Y-38801283D02*
X150511666Y-38934616D01*
X150511666Y-38934616D02*
X150445000Y-39067950D01*
X150445000Y-39067950D02*
X150378333Y-39134616D01*
X150378333Y-39134616D02*
X150245000Y-39201283D01*
X150245000Y-39201283D02*
X149778333Y-39201283D01*
X150978333Y-38534616D02*
X151778333Y-38534616D01*
X151378333Y-39934616D02*
X151378333Y-38534616D01*
X152978333Y-39934616D02*
X152178333Y-39934616D01*
X152578333Y-39934616D02*
X152578333Y-38534616D01*
X152578333Y-38534616D02*
X152445000Y-38734616D01*
X152445000Y-38734616D02*
X152311667Y-38867950D01*
X152311667Y-38867950D02*
X152178333Y-38934616D01*
X119209580Y-83116666D02*
X119257200Y-83164285D01*
X119257200Y-83164285D02*
X119304819Y-83307142D01*
X119304819Y-83307142D02*
X119304819Y-83402380D01*
X119304819Y-83402380D02*
X119257200Y-83545237D01*
X119257200Y-83545237D02*
X119161961Y-83640475D01*
X119161961Y-83640475D02*
X119066723Y-83688094D01*
X119066723Y-83688094D02*
X118876247Y-83735713D01*
X118876247Y-83735713D02*
X118733390Y-83735713D01*
X118733390Y-83735713D02*
X118542914Y-83688094D01*
X118542914Y-83688094D02*
X118447676Y-83640475D01*
X118447676Y-83640475D02*
X118352438Y-83545237D01*
X118352438Y-83545237D02*
X118304819Y-83402380D01*
X118304819Y-83402380D02*
X118304819Y-83307142D01*
X118304819Y-83307142D02*
X118352438Y-83164285D01*
X118352438Y-83164285D02*
X118400057Y-83116666D01*
X118304819Y-82783332D02*
X118304819Y-82164285D01*
X118304819Y-82164285D02*
X118685771Y-82497618D01*
X118685771Y-82497618D02*
X118685771Y-82354761D01*
X118685771Y-82354761D02*
X118733390Y-82259523D01*
X118733390Y-82259523D02*
X118781009Y-82211904D01*
X118781009Y-82211904D02*
X118876247Y-82164285D01*
X118876247Y-82164285D02*
X119114342Y-82164285D01*
X119114342Y-82164285D02*
X119209580Y-82211904D01*
X119209580Y-82211904D02*
X119257200Y-82259523D01*
X119257200Y-82259523D02*
X119304819Y-82354761D01*
X119304819Y-82354761D02*
X119304819Y-82640475D01*
X119304819Y-82640475D02*
X119257200Y-82735713D01*
X119257200Y-82735713D02*
X119209580Y-82783332D01*
X131595019Y-91016057D02*
X131118828Y-91349390D01*
X131595019Y-91587485D02*
X130595019Y-91587485D01*
X130595019Y-91587485D02*
X130595019Y-91206533D01*
X130595019Y-91206533D02*
X130642638Y-91111295D01*
X130642638Y-91111295D02*
X130690257Y-91063676D01*
X130690257Y-91063676D02*
X130785495Y-91016057D01*
X130785495Y-91016057D02*
X130928352Y-91016057D01*
X130928352Y-91016057D02*
X131023590Y-91063676D01*
X131023590Y-91063676D02*
X131071209Y-91111295D01*
X131071209Y-91111295D02*
X131118828Y-91206533D01*
X131118828Y-91206533D02*
X131118828Y-91587485D01*
X131595019Y-90063676D02*
X131595019Y-90635104D01*
X131595019Y-90349390D02*
X130595019Y-90349390D01*
X130595019Y-90349390D02*
X130737876Y-90444628D01*
X130737876Y-90444628D02*
X130833114Y-90539866D01*
X130833114Y-90539866D02*
X130880733Y-90635104D01*
X131595019Y-89111295D02*
X131595019Y-89682723D01*
X131595019Y-89397009D02*
X130595019Y-89397009D01*
X130595019Y-89397009D02*
X130737876Y-89492247D01*
X130737876Y-89492247D02*
X130833114Y-89587485D01*
X130833114Y-89587485D02*
X130880733Y-89682723D01*
X164107905Y-35887819D02*
X164107905Y-34887819D01*
X164107905Y-34887819D02*
X164346000Y-34887819D01*
X164346000Y-34887819D02*
X164488857Y-34935438D01*
X164488857Y-34935438D02*
X164584095Y-35030676D01*
X164584095Y-35030676D02*
X164631714Y-35125914D01*
X164631714Y-35125914D02*
X164679333Y-35316390D01*
X164679333Y-35316390D02*
X164679333Y-35459247D01*
X164679333Y-35459247D02*
X164631714Y-35649723D01*
X164631714Y-35649723D02*
X164584095Y-35744961D01*
X164584095Y-35744961D02*
X164488857Y-35840200D01*
X164488857Y-35840200D02*
X164346000Y-35887819D01*
X164346000Y-35887819D02*
X164107905Y-35887819D01*
X165012667Y-34887819D02*
X165631714Y-34887819D01*
X165631714Y-34887819D02*
X165298381Y-35268771D01*
X165298381Y-35268771D02*
X165441238Y-35268771D01*
X165441238Y-35268771D02*
X165536476Y-35316390D01*
X165536476Y-35316390D02*
X165584095Y-35364009D01*
X165584095Y-35364009D02*
X165631714Y-35459247D01*
X165631714Y-35459247D02*
X165631714Y-35697342D01*
X165631714Y-35697342D02*
X165584095Y-35792580D01*
X165584095Y-35792580D02*
X165536476Y-35840200D01*
X165536476Y-35840200D02*
X165441238Y-35887819D01*
X165441238Y-35887819D02*
X165155524Y-35887819D01*
X165155524Y-35887819D02*
X165060286Y-35840200D01*
X165060286Y-35840200D02*
X165012667Y-35792580D01*
X114404761Y-67250057D02*
X114309523Y-67202438D01*
X114309523Y-67202438D02*
X114214285Y-67107200D01*
X114214285Y-67107200D02*
X114071428Y-66964342D01*
X114071428Y-66964342D02*
X113976190Y-66916723D01*
X113976190Y-66916723D02*
X113880952Y-66916723D01*
X113928571Y-67154819D02*
X113833333Y-67107200D01*
X113833333Y-67107200D02*
X113738095Y-67011961D01*
X113738095Y-67011961D02*
X113690476Y-66821485D01*
X113690476Y-66821485D02*
X113690476Y-66488152D01*
X113690476Y-66488152D02*
X113738095Y-66297676D01*
X113738095Y-66297676D02*
X113833333Y-66202438D01*
X113833333Y-66202438D02*
X113928571Y-66154819D01*
X113928571Y-66154819D02*
X114119047Y-66154819D01*
X114119047Y-66154819D02*
X114214285Y-66202438D01*
X114214285Y-66202438D02*
X114309523Y-66297676D01*
X114309523Y-66297676D02*
X114357142Y-66488152D01*
X114357142Y-66488152D02*
X114357142Y-66821485D01*
X114357142Y-66821485D02*
X114309523Y-67011961D01*
X114309523Y-67011961D02*
X114214285Y-67107200D01*
X114214285Y-67107200D02*
X114119047Y-67154819D01*
X114119047Y-67154819D02*
X113928571Y-67154819D01*
X114738095Y-66250057D02*
X114785714Y-66202438D01*
X114785714Y-66202438D02*
X114880952Y-66154819D01*
X114880952Y-66154819D02*
X115119047Y-66154819D01*
X115119047Y-66154819D02*
X115214285Y-66202438D01*
X115214285Y-66202438D02*
X115261904Y-66250057D01*
X115261904Y-66250057D02*
X115309523Y-66345295D01*
X115309523Y-66345295D02*
X115309523Y-66440533D01*
X115309523Y-66440533D02*
X115261904Y-66583390D01*
X115261904Y-66583390D02*
X114690476Y-67154819D01*
X114690476Y-67154819D02*
X115309523Y-67154819D01*
X145949581Y-90435856D02*
X145997201Y-90483475D01*
X145997201Y-90483475D02*
X146044820Y-90626332D01*
X146044820Y-90626332D02*
X146044820Y-90721570D01*
X146044820Y-90721570D02*
X145997201Y-90864427D01*
X145997201Y-90864427D02*
X145901962Y-90959665D01*
X145901962Y-90959665D02*
X145806724Y-91007284D01*
X145806724Y-91007284D02*
X145616248Y-91054903D01*
X145616248Y-91054903D02*
X145473391Y-91054903D01*
X145473391Y-91054903D02*
X145282915Y-91007284D01*
X145282915Y-91007284D02*
X145187677Y-90959665D01*
X145187677Y-90959665D02*
X145092439Y-90864427D01*
X145092439Y-90864427D02*
X145044820Y-90721570D01*
X145044820Y-90721570D02*
X145044820Y-90626332D01*
X145044820Y-90626332D02*
X145092439Y-90483475D01*
X145092439Y-90483475D02*
X145140058Y-90435856D01*
X145140058Y-90054903D02*
X145092439Y-90007284D01*
X145092439Y-90007284D02*
X145044820Y-89912046D01*
X145044820Y-89912046D02*
X145044820Y-89673951D01*
X145044820Y-89673951D02*
X145092439Y-89578713D01*
X145092439Y-89578713D02*
X145140058Y-89531094D01*
X145140058Y-89531094D02*
X145235296Y-89483475D01*
X145235296Y-89483475D02*
X145330534Y-89483475D01*
X145330534Y-89483475D02*
X145473391Y-89531094D01*
X145473391Y-89531094D02*
X146044820Y-90102522D01*
X146044820Y-90102522D02*
X146044820Y-89483475D01*
X146044820Y-88531094D02*
X146044820Y-89102522D01*
X146044820Y-88816808D02*
X145044820Y-88816808D01*
X145044820Y-88816808D02*
X145187677Y-88912046D01*
X145187677Y-88912046D02*
X145282915Y-89007284D01*
X145282915Y-89007284D02*
X145330534Y-89102522D01*
X140557142Y-66784819D02*
X140223809Y-66308628D01*
X139985714Y-66784819D02*
X139985714Y-65784819D01*
X139985714Y-65784819D02*
X140366666Y-65784819D01*
X140366666Y-65784819D02*
X140461904Y-65832438D01*
X140461904Y-65832438D02*
X140509523Y-65880057D01*
X140509523Y-65880057D02*
X140557142Y-65975295D01*
X140557142Y-65975295D02*
X140557142Y-66118152D01*
X140557142Y-66118152D02*
X140509523Y-66213390D01*
X140509523Y-66213390D02*
X140461904Y-66261009D01*
X140461904Y-66261009D02*
X140366666Y-66308628D01*
X140366666Y-66308628D02*
X139985714Y-66308628D01*
X141509523Y-66784819D02*
X140938095Y-66784819D01*
X141223809Y-66784819D02*
X141223809Y-65784819D01*
X141223809Y-65784819D02*
X141128571Y-65927676D01*
X141128571Y-65927676D02*
X141033333Y-66022914D01*
X141033333Y-66022914D02*
X140938095Y-66070533D01*
X142366666Y-65784819D02*
X142176190Y-65784819D01*
X142176190Y-65784819D02*
X142080952Y-65832438D01*
X142080952Y-65832438D02*
X142033333Y-65880057D01*
X142033333Y-65880057D02*
X141938095Y-66022914D01*
X141938095Y-66022914D02*
X141890476Y-66213390D01*
X141890476Y-66213390D02*
X141890476Y-66594342D01*
X141890476Y-66594342D02*
X141938095Y-66689580D01*
X141938095Y-66689580D02*
X141985714Y-66737200D01*
X141985714Y-66737200D02*
X142080952Y-66784819D01*
X142080952Y-66784819D02*
X142271428Y-66784819D01*
X142271428Y-66784819D02*
X142366666Y-66737200D01*
X142366666Y-66737200D02*
X142414285Y-66689580D01*
X142414285Y-66689580D02*
X142461904Y-66594342D01*
X142461904Y-66594342D02*
X142461904Y-66356247D01*
X142461904Y-66356247D02*
X142414285Y-66261009D01*
X142414285Y-66261009D02*
X142366666Y-66213390D01*
X142366666Y-66213390D02*
X142271428Y-66165771D01*
X142271428Y-66165771D02*
X142080952Y-66165771D01*
X142080952Y-66165771D02*
X141985714Y-66213390D01*
X141985714Y-66213390D02*
X141938095Y-66261009D01*
X141938095Y-66261009D02*
X141890476Y-66356247D01*
X133009819Y-87085856D02*
X132533628Y-87419189D01*
X133009819Y-87657284D02*
X132009819Y-87657284D01*
X132009819Y-87657284D02*
X132009819Y-87276332D01*
X132009819Y-87276332D02*
X132057438Y-87181094D01*
X132057438Y-87181094D02*
X132105057Y-87133475D01*
X132105057Y-87133475D02*
X132200295Y-87085856D01*
X132200295Y-87085856D02*
X132343152Y-87085856D01*
X132343152Y-87085856D02*
X132438390Y-87133475D01*
X132438390Y-87133475D02*
X132486009Y-87181094D01*
X132486009Y-87181094D02*
X132533628Y-87276332D01*
X132533628Y-87276332D02*
X132533628Y-87657284D01*
X133009819Y-86133475D02*
X133009819Y-86704903D01*
X133009819Y-86419189D02*
X132009819Y-86419189D01*
X132009819Y-86419189D02*
X132152676Y-86514427D01*
X132152676Y-86514427D02*
X132247914Y-86609665D01*
X132247914Y-86609665D02*
X132295533Y-86704903D01*
X132105057Y-85752522D02*
X132057438Y-85704903D01*
X132057438Y-85704903D02*
X132009819Y-85609665D01*
X132009819Y-85609665D02*
X132009819Y-85371570D01*
X132009819Y-85371570D02*
X132057438Y-85276332D01*
X132057438Y-85276332D02*
X132105057Y-85228713D01*
X132105057Y-85228713D02*
X132200295Y-85181094D01*
X132200295Y-85181094D02*
X132295533Y-85181094D01*
X132295533Y-85181094D02*
X132438390Y-85228713D01*
X132438390Y-85228713D02*
X133009819Y-85800141D01*
X133009819Y-85800141D02*
X133009819Y-85181094D01*
X138924820Y-77210856D02*
X138448629Y-77544189D01*
X138924820Y-77782284D02*
X137924820Y-77782284D01*
X137924820Y-77782284D02*
X137924820Y-77401332D01*
X137924820Y-77401332D02*
X137972439Y-77306094D01*
X137972439Y-77306094D02*
X138020058Y-77258475D01*
X138020058Y-77258475D02*
X138115296Y-77210856D01*
X138115296Y-77210856D02*
X138258153Y-77210856D01*
X138258153Y-77210856D02*
X138353391Y-77258475D01*
X138353391Y-77258475D02*
X138401010Y-77306094D01*
X138401010Y-77306094D02*
X138448629Y-77401332D01*
X138448629Y-77401332D02*
X138448629Y-77782284D01*
X138924820Y-76258475D02*
X138924820Y-76829903D01*
X138924820Y-76544189D02*
X137924820Y-76544189D01*
X137924820Y-76544189D02*
X138067677Y-76639427D01*
X138067677Y-76639427D02*
X138162915Y-76734665D01*
X138162915Y-76734665D02*
X138210534Y-76829903D01*
X138258153Y-75401332D02*
X138924820Y-75401332D01*
X137877201Y-75639427D02*
X138591486Y-75877522D01*
X138591486Y-75877522D02*
X138591486Y-75258475D01*
X137674819Y-28146333D02*
X138389104Y-28146333D01*
X138389104Y-28146333D02*
X138531961Y-28193952D01*
X138531961Y-28193952D02*
X138627200Y-28289190D01*
X138627200Y-28289190D02*
X138674819Y-28432047D01*
X138674819Y-28432047D02*
X138674819Y-28527285D01*
X138008152Y-27241571D02*
X138674819Y-27241571D01*
X137627200Y-27479666D02*
X138341485Y-27717761D01*
X138341485Y-27717761D02*
X138341485Y-27098714D01*
X120637602Y-89843219D02*
X120637602Y-90081314D01*
X120399507Y-89986076D02*
X120637602Y-90081314D01*
X120637602Y-90081314D02*
X120875697Y-89986076D01*
X120494745Y-90271790D02*
X120637602Y-90081314D01*
X120637602Y-90081314D02*
X120780459Y-90271790D01*
X120637601Y-90933580D02*
X120637601Y-90695485D01*
X120875696Y-90790723D02*
X120637601Y-90695485D01*
X120637601Y-90695485D02*
X120399506Y-90790723D01*
X120780458Y-90505009D02*
X120637601Y-90695485D01*
X120637601Y-90695485D02*
X120494744Y-90505009D01*
X138557142Y-106117580D02*
X138509523Y-106165200D01*
X138509523Y-106165200D02*
X138366666Y-106212819D01*
X138366666Y-106212819D02*
X138271428Y-106212819D01*
X138271428Y-106212819D02*
X138128571Y-106165200D01*
X138128571Y-106165200D02*
X138033333Y-106069961D01*
X138033333Y-106069961D02*
X137985714Y-105974723D01*
X137985714Y-105974723D02*
X137938095Y-105784247D01*
X137938095Y-105784247D02*
X137938095Y-105641390D01*
X137938095Y-105641390D02*
X137985714Y-105450914D01*
X137985714Y-105450914D02*
X138033333Y-105355676D01*
X138033333Y-105355676D02*
X138128571Y-105260438D01*
X138128571Y-105260438D02*
X138271428Y-105212819D01*
X138271428Y-105212819D02*
X138366666Y-105212819D01*
X138366666Y-105212819D02*
X138509523Y-105260438D01*
X138509523Y-105260438D02*
X138557142Y-105308057D01*
X139509523Y-106212819D02*
X138938095Y-106212819D01*
X139223809Y-106212819D02*
X139223809Y-105212819D01*
X139223809Y-105212819D02*
X139128571Y-105355676D01*
X139128571Y-105355676D02*
X139033333Y-105450914D01*
X139033333Y-105450914D02*
X138938095Y-105498533D01*
X140128571Y-105212819D02*
X140223809Y-105212819D01*
X140223809Y-105212819D02*
X140319047Y-105260438D01*
X140319047Y-105260438D02*
X140366666Y-105308057D01*
X140366666Y-105308057D02*
X140414285Y-105403295D01*
X140414285Y-105403295D02*
X140461904Y-105593771D01*
X140461904Y-105593771D02*
X140461904Y-105831866D01*
X140461904Y-105831866D02*
X140414285Y-106022342D01*
X140414285Y-106022342D02*
X140366666Y-106117580D01*
X140366666Y-106117580D02*
X140319047Y-106165200D01*
X140319047Y-106165200D02*
X140223809Y-106212819D01*
X140223809Y-106212819D02*
X140128571Y-106212819D01*
X140128571Y-106212819D02*
X140033333Y-106165200D01*
X140033333Y-106165200D02*
X139985714Y-106117580D01*
X139985714Y-106117580D02*
X139938095Y-106022342D01*
X139938095Y-106022342D02*
X139890476Y-105831866D01*
X139890476Y-105831866D02*
X139890476Y-105593771D01*
X139890476Y-105593771D02*
X139938095Y-105403295D01*
X139938095Y-105403295D02*
X139985714Y-105308057D01*
X139985714Y-105308057D02*
X140033333Y-105260438D01*
X140033333Y-105260438D02*
X140128571Y-105212819D01*
X154433095Y-27330200D02*
X154575952Y-27377819D01*
X154575952Y-27377819D02*
X154814047Y-27377819D01*
X154814047Y-27377819D02*
X154909285Y-27330200D01*
X154909285Y-27330200D02*
X154956904Y-27282580D01*
X154956904Y-27282580D02*
X155004523Y-27187342D01*
X155004523Y-27187342D02*
X155004523Y-27092104D01*
X155004523Y-27092104D02*
X154956904Y-26996866D01*
X154956904Y-26996866D02*
X154909285Y-26949247D01*
X154909285Y-26949247D02*
X154814047Y-26901628D01*
X154814047Y-26901628D02*
X154623571Y-26854009D01*
X154623571Y-26854009D02*
X154528333Y-26806390D01*
X154528333Y-26806390D02*
X154480714Y-26758771D01*
X154480714Y-26758771D02*
X154433095Y-26663533D01*
X154433095Y-26663533D02*
X154433095Y-26568295D01*
X154433095Y-26568295D02*
X154480714Y-26473057D01*
X154480714Y-26473057D02*
X154528333Y-26425438D01*
X154528333Y-26425438D02*
X154623571Y-26377819D01*
X154623571Y-26377819D02*
X154861666Y-26377819D01*
X154861666Y-26377819D02*
X155004523Y-26425438D01*
X155956904Y-27377819D02*
X155385476Y-27377819D01*
X155671190Y-27377819D02*
X155671190Y-26377819D01*
X155671190Y-26377819D02*
X155575952Y-26520676D01*
X155575952Y-26520676D02*
X155480714Y-26615914D01*
X155480714Y-26615914D02*
X155385476Y-26663533D01*
D13*
%TO.C,R8*%
X129817501Y-102555741D02*
X129817501Y-103030257D01*
X130862501Y-102555741D02*
X130862501Y-103030257D01*
%TO.C,TP5*%
X160490001Y-105156000D02*
G75*
G02*
X157690001Y-105156000I-1400000J0D01*
G01*
X157690001Y-105156000D02*
G75*
G02*
X160490001Y-105156000I1400000J0D01*
G01*
%TO.C,C4*%
X111505581Y-84282999D02*
X111224421Y-84282999D01*
X111505581Y-85302999D02*
X111224421Y-85302999D01*
%TO.C,J3*%
X98950000Y-59038000D02*
X98950000Y-57658000D01*
X100330000Y-59038000D02*
X98950000Y-59038000D01*
X101600000Y-56278000D02*
X137270000Y-56278000D01*
X101600000Y-59038000D02*
X101600000Y-56278000D01*
X101600000Y-59038000D02*
X137270000Y-59038000D01*
X137270000Y-59038000D02*
X137270000Y-56278000D01*
%TO.C,R7*%
X114067501Y-86055741D02*
X114067501Y-86530257D01*
X115112501Y-86055741D02*
X115112501Y-86530257D01*
%TO.C,C13*%
X97662420Y-62766000D02*
X97943580Y-62766000D01*
X97662420Y-63786000D02*
X97943580Y-63786000D01*
%TO.C,C2*%
X106720001Y-90572999D02*
X112460001Y-90572999D01*
X106720001Y-98012999D02*
X106720001Y-90572999D01*
X112460001Y-90572999D02*
X112460001Y-98012999D01*
X112460001Y-98012999D02*
X106720001Y-98012999D01*
%TO.C,C9*%
X114413420Y-106678000D02*
X114694580Y-106678000D01*
X114413420Y-107698000D02*
X114694580Y-107698000D01*
%TO.C,R15*%
X111677500Y-73337258D02*
X111677500Y-72862742D01*
X112722500Y-73337258D02*
X112722500Y-72862742D01*
%TO.C,J2*%
X131880001Y-99422999D02*
X131880001Y-98042999D01*
X133260001Y-99422999D02*
X131880001Y-99422999D01*
X134530001Y-96662999D02*
X139720001Y-96662999D01*
X134530001Y-99422999D02*
X134530001Y-96662999D01*
X134530001Y-99422999D02*
X139720001Y-99422999D01*
X139720001Y-99422999D02*
X139720001Y-96662999D01*
D12*
%TO.C,J5*%
X155281000Y-72537000D02*
X162981000Y-72537000D01*
X155281000Y-82737000D02*
X155281000Y-72537000D01*
X162981000Y-72537000D02*
X162981000Y-82737000D01*
X162981000Y-82737000D02*
X155281000Y-82737000D01*
D14*
X160881000Y-74237000D02*
G75*
G02*
X160681000Y-74237000I-100000J0D01*
G01*
X160681000Y-74237000D02*
G75*
G02*
X160881000Y-74237000I100000J0D01*
G01*
D13*
%TO.C,R22*%
X136590001Y-91462999D02*
X136590001Y-91392999D01*
X137960001Y-92832999D02*
G75*
G02*
X135220001Y-92832999I-1370000J0D01*
G01*
X135220001Y-92832999D02*
G75*
G02*
X137960001Y-92832999I1370000J0D01*
G01*
%TO.C,R17*%
X111577259Y-81520499D02*
X111102743Y-81520499D01*
X111577259Y-82565499D02*
X111102743Y-82565499D01*
%TO.C,R4*%
X122567501Y-98855257D02*
X122567501Y-98380741D01*
X123612501Y-98855257D02*
X123612501Y-98380741D01*
%TO.C,C6*%
X139220001Y-86072999D02*
X144960001Y-86072999D01*
X139220001Y-93512999D02*
X139220001Y-86072999D01*
X144960001Y-86072999D02*
X144960001Y-93512999D01*
X144960001Y-93512999D02*
X139220001Y-93512999D01*
%TO.C,TP3*%
X134990001Y-105156000D02*
G75*
G02*
X132190001Y-105156000I-1400000J0D01*
G01*
X132190001Y-105156000D02*
G75*
G02*
X134990001Y-105156000I1400000J0D01*
G01*
%TO.C,Q1*%
X139640000Y-60000000D02*
X139640000Y-59350000D01*
X139640000Y-60000000D02*
X139640000Y-60650000D01*
X142760000Y-60000000D02*
X142760000Y-59350000D01*
X142760000Y-60000000D02*
X142760000Y-60650000D01*
X139690000Y-61162500D02*
X139360000Y-61402500D01*
X139360000Y-60922500D01*
X139690000Y-61162500D01*
G36*
X139690000Y-61162500D02*
G01*
X139360000Y-61402500D01*
X139360000Y-60922500D01*
X139690000Y-61162500D01*
G37*
%TO.C,C1*%
X143877420Y-39622000D02*
X144158580Y-39622000D01*
X143877420Y-40642000D02*
X144158580Y-40642000D01*
%TO.C,R1*%
X145777743Y-81270499D02*
X146252259Y-81270499D01*
X145777743Y-82315499D02*
X146252259Y-82315499D01*
%TO.C,C14*%
X97662420Y-65276000D02*
X97943580Y-65276000D01*
X97662420Y-66296000D02*
X97943580Y-66296000D01*
%TO.C,TP2*%
X130490001Y-76792999D02*
G75*
G02*
X127690001Y-76792999I-1400000J0D01*
G01*
X127690001Y-76792999D02*
G75*
G02*
X130490001Y-76792999I1400000J0D01*
G01*
%TO.C,R13*%
X127567501Y-85030257D02*
X127567501Y-84555741D01*
X128612501Y-85030257D02*
X128612501Y-84555741D01*
%TO.C,TP8*%
X165611000Y-87249000D02*
G75*
G02*
X162811000Y-87249000I-1400000J0D01*
G01*
X162811000Y-87249000D02*
G75*
G02*
X165611000Y-87249000I1400000J0D01*
G01*
%TO.C,C12*%
X143877420Y-42797000D02*
X144158580Y-42797000D01*
X143877420Y-43817000D02*
X144158580Y-43817000D01*
%TO.C,Q5*%
X122062500Y-66590000D02*
X121412500Y-66590000D01*
X122062500Y-66590000D02*
X122712500Y-66590000D01*
X122062500Y-69710000D02*
X121412500Y-69710000D01*
X122062500Y-69710000D02*
X122712500Y-69710000D01*
X123465000Y-69990000D02*
X122985000Y-69990000D01*
X123225000Y-69660000D01*
X123465000Y-69990000D01*
G36*
X123465000Y-69990000D02*
G01*
X122985000Y-69990000D01*
X123225000Y-69660000D01*
X123465000Y-69990000D01*
G37*
%TO.C,J8*%
X101490000Y-63639000D02*
X102870000Y-63639000D01*
X101490000Y-65019000D02*
X101490000Y-63639000D01*
X101490000Y-66289000D02*
X101490000Y-68939000D01*
X101490000Y-66289000D02*
X104250000Y-66289000D01*
X101490000Y-68939000D02*
X104250000Y-68939000D01*
X104250000Y-66289000D02*
X104250000Y-68939000D01*
%TO.C,R10*%
X125817501Y-98780257D02*
X125817501Y-98305741D01*
X126862501Y-98780257D02*
X126862501Y-98305741D01*
%TO.C,J1*%
X117130001Y-78172999D02*
X117130001Y-76792999D01*
X118510001Y-78172999D02*
X117130001Y-78172999D01*
X119780001Y-75412999D02*
X124970001Y-75412999D01*
X119780001Y-78172999D02*
X119780001Y-75412999D01*
X119780001Y-78172999D02*
X124970001Y-78172999D01*
X124970001Y-78172999D02*
X124970001Y-75412999D01*
%TO.C,Q3*%
X110337500Y-66690000D02*
X109687500Y-66690000D01*
X110337500Y-66690000D02*
X110987500Y-66690000D01*
X110337500Y-69810000D02*
X109687500Y-69810000D01*
X110337500Y-69810000D02*
X110987500Y-69810000D01*
X109175000Y-66740000D02*
X108935000Y-66410000D01*
X109415000Y-66410000D01*
X109175000Y-66740000D01*
G36*
X109175000Y-66740000D02*
G01*
X108935000Y-66410000D01*
X109415000Y-66410000D01*
X109175000Y-66740000D01*
G37*
%TO.C,C8*%
X125589420Y-106678000D02*
X125870580Y-106678000D01*
X125589420Y-107698000D02*
X125870580Y-107698000D01*
%TO.C,D2*%
X116027000Y-71136000D02*
X116027000Y-73136000D01*
X116027000Y-71136000D02*
X119887000Y-71136000D01*
X116027000Y-73136000D02*
X119887000Y-73136000D01*
%TO.C,C22*%
X99720001Y-90572999D02*
X105460001Y-90572999D01*
X99720001Y-98012999D02*
X99720001Y-90572999D01*
X105460001Y-90572999D02*
X105460001Y-98012999D01*
X105460001Y-98012999D02*
X99720001Y-98012999D01*
%TO.C,J7*%
X164990000Y-98298000D02*
X164990000Y-95648000D01*
X167750000Y-95648000D02*
X164990000Y-95648000D01*
X167750000Y-98298000D02*
X164990000Y-98298000D01*
X167750000Y-98298000D02*
X167750000Y-95648000D01*
X167750000Y-99568000D02*
X167750000Y-100948000D01*
X167750000Y-100948000D02*
X166370000Y-100948000D01*
%TO.C,TP6*%
X129490001Y-90292999D02*
G75*
G02*
X126690001Y-90292999I-1400000J0D01*
G01*
X126690001Y-90292999D02*
G75*
G02*
X129490001Y-90292999I1400000J0D01*
G01*
%TO.C,C5*%
X125449421Y-94282999D02*
X125730581Y-94282999D01*
X125449421Y-95302999D02*
X125730581Y-95302999D01*
%TO.C,R5*%
X114067501Y-90730741D02*
X114067501Y-91205257D01*
X115112501Y-90730741D02*
X115112501Y-91205257D01*
%TO.C,C11*%
X100049420Y-106678000D02*
X100330580Y-106678000D01*
X100049420Y-107698000D02*
X100330580Y-107698000D01*
%TO.C,R9*%
X126402259Y-103020499D02*
X125927743Y-103020499D01*
X126402259Y-104065499D02*
X125927743Y-104065499D01*
%TO.C,D1*%
X140805000Y-82650000D02*
X143090000Y-82650000D01*
X143090000Y-81180000D02*
X140805000Y-81180000D01*
X143090000Y-82650000D02*
X143090000Y-81180000D01*
%TO.C,C7*%
X144870001Y-72422999D02*
X152310001Y-72422999D01*
X144870001Y-78162999D02*
X144870001Y-72422999D01*
X152310001Y-72422999D02*
X152310001Y-78162999D01*
X152310001Y-78162999D02*
X144870001Y-78162999D01*
%TO.C,D4*%
X142812500Y-27713000D02*
X142812500Y-29183000D01*
X142812500Y-29183000D02*
X145097500Y-29183000D01*
X145097500Y-27713000D02*
X142812500Y-27713000D01*
%TO.C,Q4*%
X133340000Y-64500000D02*
X133340000Y-63850000D01*
X133340000Y-64500000D02*
X133340000Y-65150000D01*
X136460000Y-64500000D02*
X136460000Y-63850000D01*
X136460000Y-64500000D02*
X136460000Y-65150000D01*
X136740000Y-63577500D02*
X136410000Y-63337500D01*
X136740000Y-63097500D01*
X136740000Y-63577500D01*
G36*
X136740000Y-63577500D02*
G01*
X136410000Y-63337500D01*
X136740000Y-63097500D01*
X136740000Y-63577500D01*
G37*
%TO.C,U3*%
X99060000Y-33528000D02*
X99060000Y-37973000D01*
X99060000Y-37973000D02*
X100330000Y-38608000D01*
X99060000Y-47498000D02*
X100330000Y-46863000D01*
X99060000Y-52578000D02*
X99060000Y-47498000D01*
X99060000Y-52578000D02*
X137160000Y-52578000D01*
X100330000Y-38608000D02*
X100330000Y-46863000D01*
X137160000Y-33528000D02*
X99060000Y-33528000D01*
X137160000Y-52578000D02*
X137160000Y-33528000D01*
%TO.C,R6*%
X111577259Y-86770499D02*
X111102743Y-86770499D01*
X111577259Y-87815499D02*
X111102743Y-87815499D01*
%TO.C,J6*%
X142520000Y-49005000D02*
X142520000Y-46355000D01*
X145280000Y-46355000D02*
X142520000Y-46355000D01*
X145280000Y-49005000D02*
X142520000Y-49005000D01*
X145280000Y-49005000D02*
X145280000Y-46355000D01*
X145280000Y-50275000D02*
X145280000Y-51655000D01*
X145280000Y-51655000D02*
X143900000Y-51655000D01*
%TO.C,TP7*%
X158240001Y-87292999D02*
G75*
G02*
X155440001Y-87292999I-1400000J0D01*
G01*
X155440001Y-87292999D02*
G75*
G02*
X158240001Y-87292999I1400000J0D01*
G01*
%TO.C,R3*%
X119067501Y-98855257D02*
X119067501Y-98380741D01*
X120112501Y-98855257D02*
X120112501Y-98380741D01*
%TO.C,R18*%
X144097742Y-31735500D02*
X144572258Y-31735500D01*
X144097742Y-32780500D02*
X144572258Y-32780500D01*
D15*
%TO.C,BT1*%
X144900000Y-45683750D02*
X145900000Y-45683750D01*
X144900000Y-65683750D02*
X145900000Y-65683750D01*
X145400000Y-65183750D02*
X145400000Y-66183750D01*
X155905000Y-63283750D02*
X155905000Y-68243750D01*
X155905000Y-68243750D02*
X161895000Y-68243750D01*
X161895000Y-68243750D02*
X161895000Y-63283750D01*
X155905000Y-63283750D02*
G75*
G02*
X161895000Y-63283750I2995000J11103816D01*
G01*
D13*
%TO.C,C3*%
X116590000Y-83559420D02*
X116590000Y-83840580D01*
X117610000Y-83559420D02*
X117610000Y-83840580D01*
%TO.C,TP1*%
X134990001Y-76792999D02*
G75*
G02*
X132190001Y-76792999I-1400000J0D01*
G01*
X132190001Y-76792999D02*
G75*
G02*
X134990001Y-76792999I1400000J0D01*
G01*
%TO.C,R11*%
X132590001Y-91462999D02*
X132590001Y-91392999D01*
X133960001Y-92832999D02*
G75*
G02*
X131220001Y-92832999I-1370000J0D01*
G01*
X131220001Y-92832999D02*
G75*
G02*
X133960001Y-92832999I1370000J0D01*
G01*
%TO.C,TP4*%
X111128000Y-105156000D02*
G75*
G02*
X108328000Y-105156000I-1400000J0D01*
G01*
X108328000Y-105156000D02*
G75*
G02*
X111128000Y-105156000I1400000J0D01*
G01*
%TO.C,R2*%
X129652500Y-85010258D02*
X129652500Y-84535742D01*
X130697500Y-85010258D02*
X130697500Y-84535742D01*
%TO.C,D3*%
X162763000Y-36338000D02*
X162763000Y-38338000D01*
X162763000Y-36338000D02*
X166623000Y-36338000D01*
X162763000Y-38338000D02*
X166623000Y-38338000D01*
%TO.C,Q2*%
X116500000Y-66640000D02*
X115850000Y-66640000D01*
X116500000Y-66640000D02*
X117150000Y-66640000D01*
X116500000Y-69760000D02*
X115850000Y-69760000D01*
X116500000Y-69760000D02*
X117150000Y-69760000D01*
X117902500Y-70040000D02*
X117422500Y-70040000D01*
X117662500Y-69710000D01*
X117902500Y-70040000D01*
G36*
X117902500Y-70040000D02*
G01*
X117422500Y-70040000D01*
X117662500Y-69710000D01*
X117902500Y-70040000D01*
G37*
%TO.C,C21*%
X146720001Y-86072999D02*
X152460001Y-86072999D01*
X146720001Y-93512999D02*
X146720001Y-86072999D01*
X152460001Y-86072999D02*
X152460001Y-93512999D01*
X152460001Y-93512999D02*
X146720001Y-93512999D01*
%TO.C,R16*%
X141437258Y-64377500D02*
X140962742Y-64377500D01*
X141437258Y-65422500D02*
X140962742Y-65422500D01*
%TO.C,R12*%
X133462500Y-86680257D02*
X133462500Y-86205741D01*
X134507500Y-86680257D02*
X134507500Y-86205741D01*
%TO.C,R14*%
X140840001Y-76467999D02*
X140840001Y-76397999D01*
X142210001Y-77837999D02*
G75*
G02*
X139470001Y-77837999I-1370000J0D01*
G01*
X139470001Y-77837999D02*
G75*
G02*
X142210001Y-77837999I1370000J0D01*
G01*
%TO.C,J4*%
X98950000Y-26433000D02*
X98950000Y-29193000D01*
X134620000Y-26433000D02*
X98950000Y-26433000D01*
X134620000Y-26433000D02*
X134620000Y-29193000D01*
X134620000Y-29193000D02*
X98950000Y-29193000D01*
X135890000Y-26433000D02*
X137270000Y-26433000D01*
X137270000Y-26433000D02*
X137270000Y-27813000D01*
D16*
%TO.C,U1*%
X119460602Y-85116000D02*
X119460602Y-85822959D01*
X119460602Y-88763041D02*
X119460602Y-89470000D01*
X119460602Y-89470000D02*
X120167561Y-89470000D01*
X120167561Y-85116000D02*
X119460602Y-85116000D01*
X123107643Y-89470000D02*
X123814602Y-89470000D01*
X123814602Y-85116000D02*
X123107643Y-85116000D01*
X123814602Y-85822959D02*
X123814602Y-85116000D01*
X123814602Y-89470000D02*
X123814602Y-88763041D01*
D13*
%TO.C,C10*%
X139059420Y-106678000D02*
X139340580Y-106678000D01*
X139059420Y-107698000D02*
X139340580Y-107698000D01*
D15*
%TO.C,S1*%
X151970000Y-27958000D02*
X163070000Y-27958000D01*
X151970000Y-29758000D02*
X151970000Y-27958000D01*
X151970000Y-34158000D02*
X151970000Y-32358000D01*
X163070000Y-27958000D02*
X163070000Y-29758000D01*
X163070000Y-34158000D02*
X151970000Y-34158000D01*
X163070000Y-34158000D02*
X163070000Y-32358000D01*
D12*
X155120000Y-34758000D02*
G75*
G02*
X154920000Y-34758000I-100000J0D01*
G01*
X154920000Y-34758000D02*
G75*
G02*
X155120000Y-34758000I100000J0D01*
G01*
%TD*%
M02*
