%TF.GenerationSoftware,KiCad,Pcbnew,9.0.3*%
%TF.CreationDate,2025-08-01T09:54:24-04:00*%
%TF.ProjectId,ECG,4543472e-6b69-4636-9164-5f7063625858,rev?*%
%TF.SameCoordinates,Original*%
%TF.FileFunction,Legend,Bot*%
%TF.FilePolarity,Positive*%
%FSLAX46Y46*%
G04 Gerber Fmt 4.6, Leading zero omitted, Abs format (unit mm)*
G04 Created by KiCad (PCBNEW 9.0.3) date 2025-08-01 09:54:24*
%MOMM*%
%LPD*%
G01*
G04 APERTURE LIST*
%ADD10C,0.150000*%
%ADD11C,0.000000*%
%ADD12C,0.120000*%
G04 APERTURE END LIST*
D10*
X151023334Y-79447818D02*
X151023334Y-80162103D01*
X151023334Y-80162103D02*
X151070953Y-80304960D01*
X151070953Y-80304960D02*
X151166191Y-80400199D01*
X151166191Y-80400199D02*
X151309048Y-80447818D01*
X151309048Y-80447818D02*
X151404286Y-80447818D01*
X150547143Y-80447818D02*
X150547143Y-79447818D01*
X150547143Y-79447818D02*
X150166191Y-79447818D01*
X150166191Y-79447818D02*
X150070953Y-79495437D01*
X150070953Y-79495437D02*
X150023334Y-79543056D01*
X150023334Y-79543056D02*
X149975715Y-79638294D01*
X149975715Y-79638294D02*
X149975715Y-79781151D01*
X149975715Y-79781151D02*
X150023334Y-79876389D01*
X150023334Y-79876389D02*
X150070953Y-79924008D01*
X150070953Y-79924008D02*
X150166191Y-79971627D01*
X150166191Y-79971627D02*
X150547143Y-79971627D01*
X149023334Y-80447818D02*
X149594762Y-80447818D01*
X149309048Y-80447818D02*
X149309048Y-79447818D01*
X149309048Y-79447818D02*
X149404286Y-79590675D01*
X149404286Y-79590675D02*
X149499524Y-79685913D01*
X149499524Y-79685913D02*
X149594762Y-79733532D01*
X144998333Y-36687819D02*
X144998333Y-37402104D01*
X144998333Y-37402104D02*
X145045952Y-37544961D01*
X145045952Y-37544961D02*
X145141190Y-37640200D01*
X145141190Y-37640200D02*
X145284047Y-37687819D01*
X145284047Y-37687819D02*
X145379285Y-37687819D01*
X144522142Y-37687819D02*
X144522142Y-36687819D01*
X144522142Y-36687819D02*
X144141190Y-36687819D01*
X144141190Y-36687819D02*
X144045952Y-36735438D01*
X144045952Y-36735438D02*
X143998333Y-36783057D01*
X143998333Y-36783057D02*
X143950714Y-36878295D01*
X143950714Y-36878295D02*
X143950714Y-37021152D01*
X143950714Y-37021152D02*
X143998333Y-37116390D01*
X143998333Y-37116390D02*
X144045952Y-37164009D01*
X144045952Y-37164009D02*
X144141190Y-37211628D01*
X144141190Y-37211628D02*
X144522142Y-37211628D01*
X143569761Y-36783057D02*
X143522142Y-36735438D01*
X143522142Y-36735438D02*
X143426904Y-36687819D01*
X143426904Y-36687819D02*
X143188809Y-36687819D01*
X143188809Y-36687819D02*
X143093571Y-36735438D01*
X143093571Y-36735438D02*
X143045952Y-36783057D01*
X143045952Y-36783057D02*
X142998333Y-36878295D01*
X142998333Y-36878295D02*
X142998333Y-36973533D01*
X142998333Y-36973533D02*
X143045952Y-37116390D01*
X143045952Y-37116390D02*
X143617380Y-37687819D01*
X143617380Y-37687819D02*
X142998333Y-37687819D01*
D11*
%TO.C,G\u002A\u002A\u002A*%
G36*
X154189771Y-52255334D02*
G01*
X154189771Y-52458063D01*
X153987042Y-52458063D01*
X153784313Y-52458063D01*
X153784313Y-52255334D01*
X153784313Y-52052605D01*
X153987042Y-52052605D01*
X154189771Y-52052605D01*
X154189771Y-52255334D01*
G37*
G36*
X154595230Y-60769958D02*
G01*
X154595230Y-61378145D01*
X153987042Y-61378145D01*
X153378855Y-61378145D01*
X153378855Y-60769958D01*
X153378855Y-60161770D01*
X153987042Y-60161770D01*
X154595230Y-60161770D01*
X154595230Y-60769958D01*
G37*
G36*
X154595230Y-50228042D02*
G01*
X154595230Y-50836230D01*
X153987042Y-50836230D01*
X153378855Y-50836230D01*
X153378855Y-50228042D01*
X153378855Y-49619855D01*
X153987042Y-49619855D01*
X154595230Y-49619855D01*
X154595230Y-50228042D01*
G37*
G36*
X155406146Y-52255334D02*
G01*
X155406146Y-52458063D01*
X155203417Y-52458063D01*
X155000688Y-52458063D01*
X155000688Y-52255334D01*
X155000688Y-52052605D01*
X155203417Y-52052605D01*
X155406146Y-52052605D01*
X155406146Y-52255334D01*
G37*
G36*
X157433438Y-53877167D02*
G01*
X157433438Y-54079896D01*
X157230708Y-54079896D01*
X157027979Y-54079896D01*
X157027979Y-53877167D01*
X157027979Y-53674438D01*
X157230708Y-53674438D01*
X157433438Y-53674438D01*
X157433438Y-53877167D01*
G37*
G36*
X158244354Y-49417126D02*
G01*
X158244354Y-49619855D01*
X158041625Y-49619855D01*
X157838896Y-49619855D01*
X157838896Y-49417126D01*
X157838896Y-49214397D01*
X158041625Y-49214397D01*
X158244354Y-49214397D01*
X158244354Y-49417126D01*
G37*
G36*
X158649812Y-59350854D02*
G01*
X158649812Y-59756312D01*
X158447083Y-59756312D01*
X158244354Y-59756312D01*
X158244354Y-59350854D01*
X158244354Y-58945396D01*
X158447083Y-58945396D01*
X158649812Y-58945396D01*
X158649812Y-59350854D01*
G37*
G36*
X160677104Y-61175416D02*
G01*
X160677104Y-61378145D01*
X160474375Y-61378145D01*
X160271646Y-61378145D01*
X160271646Y-61175416D01*
X160271646Y-60972687D01*
X160474375Y-60972687D01*
X160677104Y-60972687D01*
X160677104Y-61175416D01*
G37*
G36*
X160677104Y-52660792D02*
G01*
X160677104Y-52863521D01*
X160474375Y-52863521D01*
X160271646Y-52863521D01*
X160271646Y-52660792D01*
X160271646Y-52458063D01*
X160474375Y-52458063D01*
X160677104Y-52458063D01*
X160677104Y-52660792D01*
G37*
G36*
X161893479Y-52255334D02*
G01*
X161893479Y-52458063D01*
X161690750Y-52458063D01*
X161488020Y-52458063D01*
X161488020Y-52255334D01*
X161488020Y-52052605D01*
X161690750Y-52052605D01*
X161893479Y-52052605D01*
X161893479Y-52255334D01*
G37*
G36*
X163515312Y-51444417D02*
G01*
X163515312Y-51647146D01*
X163312583Y-51647146D01*
X163109854Y-51647146D01*
X163109854Y-51444417D01*
X163109854Y-51241688D01*
X163312583Y-51241688D01*
X163515312Y-51241688D01*
X163515312Y-51444417D01*
G37*
G36*
X165137145Y-60769958D02*
G01*
X165137145Y-61378145D01*
X164528958Y-61378145D01*
X163920770Y-61378145D01*
X163920770Y-60769958D01*
X163920770Y-60161770D01*
X164528958Y-60161770D01*
X165137145Y-60161770D01*
X165137145Y-60769958D01*
G37*
G36*
X165137145Y-49011667D02*
G01*
X165137145Y-49214397D01*
X164934416Y-49214397D01*
X164731687Y-49214397D01*
X164731687Y-49011667D01*
X164731687Y-48808938D01*
X164934416Y-48808938D01*
X165137145Y-48808938D01*
X165137145Y-49011667D01*
G37*
G36*
X165948062Y-51849876D02*
G01*
X165948062Y-52052605D01*
X165745333Y-52052605D01*
X165542603Y-52052605D01*
X165542603Y-51849876D01*
X165542603Y-51647146D01*
X165745333Y-51647146D01*
X165948062Y-51647146D01*
X165948062Y-51849876D01*
G37*
G36*
X165948062Y-50228042D02*
G01*
X165948062Y-50430771D01*
X165745333Y-50430771D01*
X165542603Y-50430771D01*
X165542603Y-50228042D01*
X165542603Y-50025313D01*
X165745333Y-50025313D01*
X165948062Y-50025313D01*
X165948062Y-50228042D01*
G37*
G36*
X165948062Y-49417126D02*
G01*
X165948062Y-49619855D01*
X165745333Y-49619855D01*
X165542603Y-49619855D01*
X165542603Y-49417126D01*
X165542603Y-49214397D01*
X165745333Y-49214397D01*
X165948062Y-49214397D01*
X165948062Y-49417126D01*
G37*
G36*
X156217063Y-61580874D02*
G01*
X156217063Y-61783604D01*
X156419792Y-61783604D01*
X156622521Y-61783604D01*
X156622521Y-61986333D01*
X156622521Y-62189062D01*
X156217063Y-62189062D01*
X155811604Y-62189062D01*
X155811604Y-61783604D01*
X155811604Y-61378145D01*
X156014334Y-61378145D01*
X156217063Y-61378145D01*
X156217063Y-61580874D01*
G37*
G36*
X158649812Y-54282625D02*
G01*
X158649812Y-54485354D01*
X158244354Y-54485354D01*
X157838896Y-54485354D01*
X157838896Y-54688084D01*
X157838896Y-54890813D01*
X157636167Y-54890813D01*
X157433438Y-54890813D01*
X157433438Y-54485354D01*
X157433438Y-54079896D01*
X158041625Y-54079896D01*
X158649812Y-54079896D01*
X158649812Y-54282625D01*
G37*
G36*
X165948062Y-57729021D02*
G01*
X165948062Y-58134479D01*
X165542603Y-58134479D01*
X165137145Y-58134479D01*
X165137145Y-57931750D01*
X165137145Y-57729021D01*
X165339874Y-57729021D01*
X165542603Y-57729021D01*
X165542603Y-57526292D01*
X165542603Y-57323562D01*
X165745333Y-57323562D01*
X165948062Y-57323562D01*
X165948062Y-57729021D01*
G37*
G36*
X153176126Y-52458063D02*
G01*
X153378855Y-52458063D01*
X153378855Y-52660792D01*
X153378855Y-52863521D01*
X153176126Y-52863521D01*
X152973396Y-52863521D01*
X152973396Y-52660792D01*
X152973396Y-52458063D01*
X153176126Y-52458063D01*
G37*
G36*
X152973396Y-52255334D02*
G01*
X152973396Y-52458063D01*
X152770667Y-52458063D01*
X152567938Y-52458063D01*
X152567938Y-52255334D01*
X152567938Y-52052605D01*
X152770667Y-52052605D01*
X152973396Y-52052605D01*
X152973396Y-52255334D01*
G37*
G36*
X160677104Y-49214397D02*
G01*
X160677104Y-49619855D01*
X160474375Y-49619855D01*
X160271646Y-49619855D01*
X160271646Y-49417126D01*
X160271646Y-49214397D01*
X160068916Y-49214397D01*
X159866187Y-49214397D01*
X159866187Y-49417126D01*
X159866187Y-49619855D01*
X159258000Y-49619855D01*
X158649812Y-49619855D01*
X158649812Y-49214397D01*
X158649812Y-48808938D01*
X159663458Y-48808938D01*
X160677104Y-48808938D01*
X160677104Y-49214397D01*
G37*
G36*
X155406146Y-60769958D02*
G01*
X155406146Y-62189062D01*
X153987042Y-62189062D01*
X152567938Y-62189062D01*
X152567938Y-61757445D01*
X152999555Y-61757445D01*
X153987042Y-61757445D01*
X154974529Y-61757445D01*
X154974529Y-60769958D01*
X154974529Y-59782471D01*
X153987042Y-59782471D01*
X152999555Y-59782471D01*
X152999555Y-60769958D01*
X152999555Y-61757445D01*
X152567938Y-61757445D01*
X152567938Y-60769958D01*
X152567938Y-59350854D01*
X153987042Y-59350854D01*
X155406146Y-59350854D01*
X155406146Y-60769958D01*
G37*
G36*
X155406146Y-50228042D02*
G01*
X155406146Y-51647146D01*
X153987042Y-51647146D01*
X152567938Y-51647146D01*
X152567938Y-51215529D01*
X152999555Y-51215529D01*
X153987042Y-51215529D01*
X154974529Y-51215529D01*
X154974529Y-50228042D01*
X154974529Y-49240555D01*
X153987042Y-49240555D01*
X152999555Y-49240555D01*
X152999555Y-50228042D01*
X152999555Y-51215529D01*
X152567938Y-51215529D01*
X152567938Y-50228042D01*
X152567938Y-48808938D01*
X153987042Y-48808938D01*
X155406146Y-48808938D01*
X155406146Y-50228042D01*
G37*
G36*
X165948062Y-60769958D02*
G01*
X165948062Y-62189062D01*
X164528958Y-62189062D01*
X163109854Y-62189062D01*
X163109854Y-61757445D01*
X163541471Y-61757445D01*
X164528958Y-61757445D01*
X165516445Y-61757445D01*
X165516445Y-60769958D01*
X165516445Y-59782471D01*
X164528958Y-59782471D01*
X163541471Y-59782471D01*
X163541471Y-60769958D01*
X163541471Y-61757445D01*
X163109854Y-61757445D01*
X163109854Y-60769958D01*
X163109854Y-59350854D01*
X164528958Y-59350854D01*
X165948062Y-59350854D01*
X165948062Y-60769958D01*
G37*
G36*
X153176126Y-54079896D02*
G01*
X153378855Y-54079896D01*
X153378855Y-54282625D01*
X153378855Y-54485354D01*
X153176126Y-54485354D01*
X152973396Y-54485354D01*
X152973396Y-54282625D01*
X152973396Y-54079896D01*
X153176126Y-54079896D01*
G37*
G36*
X153378855Y-53471709D02*
G01*
X153378855Y-53674438D01*
X153176126Y-53674438D01*
X152973396Y-53674438D01*
X152973396Y-53877167D01*
X152973396Y-54079896D01*
X152770667Y-54079896D01*
X152567938Y-54079896D01*
X152567938Y-53674438D01*
X152567938Y-53268980D01*
X152973396Y-53268980D01*
X153378855Y-53268980D01*
X153378855Y-53471709D01*
G37*
G36*
X157838896Y-53066250D02*
G01*
X157838896Y-53268980D01*
X158041625Y-53268980D01*
X158244354Y-53268980D01*
X158244354Y-53066250D01*
X158244354Y-52863521D01*
X158447083Y-52863521D01*
X158649812Y-52863521D01*
X158649812Y-53066250D01*
X158649812Y-53268980D01*
X158852542Y-53268980D01*
X159055271Y-53268980D01*
X159055271Y-53471709D01*
X159055271Y-53674438D01*
X158244354Y-53674438D01*
X157433438Y-53674438D01*
X157433438Y-53268980D01*
X157433438Y-52863521D01*
X157636167Y-52863521D01*
X157838896Y-52863521D01*
X157838896Y-53066250D01*
G37*
G36*
X160474375Y-54079896D02*
G01*
X160677104Y-54079896D01*
X160677104Y-54282625D01*
X160677104Y-54485354D01*
X160474375Y-54485354D01*
X160271646Y-54485354D01*
X160271646Y-54282625D01*
X160271646Y-54079896D01*
X160474375Y-54079896D01*
G37*
G36*
X159460729Y-52660792D02*
G01*
X159460729Y-52863521D01*
X159866187Y-52863521D01*
X160271646Y-52863521D01*
X160271646Y-53066250D01*
X160271646Y-53268980D01*
X160474375Y-53268980D01*
X160677104Y-53268980D01*
X160677104Y-53471709D01*
X160677104Y-53674438D01*
X160474375Y-53674438D01*
X160271646Y-53674438D01*
X160271646Y-53877167D01*
X160271646Y-54079896D01*
X160068916Y-54079896D01*
X159866187Y-54079896D01*
X159866187Y-53674438D01*
X159866187Y-53268980D01*
X159460729Y-53268980D01*
X159055271Y-53268980D01*
X159055271Y-52863521D01*
X159055271Y-52458063D01*
X159258000Y-52458063D01*
X159460729Y-52458063D01*
X159460729Y-52660792D01*
G37*
G36*
X161893479Y-60972687D02*
G01*
X161893479Y-61378145D01*
X162096208Y-61378145D01*
X162298937Y-61378145D01*
X162298937Y-61175416D01*
X162298937Y-60972687D01*
X162501666Y-60972687D01*
X162704395Y-60972687D01*
X162704395Y-61378145D01*
X162704395Y-61783604D01*
X162501666Y-61783604D01*
X162298937Y-61783604D01*
X162298937Y-61986333D01*
X162298937Y-62189062D01*
X162096208Y-62189062D01*
X161893479Y-62189062D01*
X161893479Y-61986333D01*
X161893479Y-61783604D01*
X161690750Y-61783604D01*
X161488020Y-61783604D01*
X161488020Y-61986333D01*
X161488020Y-62189062D01*
X160271646Y-62189062D01*
X159055271Y-62189062D01*
X159055271Y-61783604D01*
X159055271Y-61580874D01*
X159055271Y-61378145D01*
X159258000Y-61378145D01*
X159460729Y-61378145D01*
X159460729Y-61175416D01*
X159460729Y-60972687D01*
X159663458Y-60972687D01*
X159866187Y-60972687D01*
X159866187Y-61175416D01*
X159866187Y-61378145D01*
X159663458Y-61378145D01*
X159460729Y-61378145D01*
X159460729Y-61580874D01*
X159460729Y-61783604D01*
X159663458Y-61783604D01*
X159866187Y-61783604D01*
X159866187Y-61580874D01*
X159866187Y-61378145D01*
X160068916Y-61378145D01*
X160271646Y-61378145D01*
X160271646Y-61580874D01*
X160271646Y-61783604D01*
X160879833Y-61783604D01*
X161488020Y-61783604D01*
X161488020Y-61175416D01*
X161488020Y-60567229D01*
X161690750Y-60567229D01*
X161893479Y-60567229D01*
X161893479Y-60972687D01*
G37*
G36*
X158649812Y-60364500D02*
G01*
X158649812Y-60567229D01*
X159055271Y-60567229D01*
X159460729Y-60567229D01*
X159460729Y-60769958D01*
X159460729Y-60972687D01*
X158852542Y-60972687D01*
X158244354Y-60972687D01*
X158244354Y-60567229D01*
X158244354Y-60161770D01*
X158447083Y-60161770D01*
X158649812Y-60161770D01*
X158649812Y-60364500D01*
G37*
G36*
X165542603Y-54079896D02*
G01*
X165948062Y-54079896D01*
X165948062Y-54282625D01*
X165948062Y-54485354D01*
X165745333Y-54485354D01*
X165542603Y-54485354D01*
X165542603Y-54890813D01*
X165542603Y-55296271D01*
X165339874Y-55296271D01*
X165137145Y-55296271D01*
X165137145Y-55093542D01*
X165137145Y-54890813D01*
X164934416Y-54890813D01*
X164731687Y-54890813D01*
X164731687Y-54688084D01*
X164731687Y-54485354D01*
X164934416Y-54485354D01*
X165137145Y-54485354D01*
X165137145Y-54282625D01*
X165137145Y-54079896D01*
X165542603Y-54079896D01*
G37*
G36*
X163515312Y-49011667D02*
G01*
X163515312Y-49214397D01*
X163718041Y-49214397D01*
X163920770Y-49214397D01*
X163920770Y-49011667D01*
X163920770Y-48808938D01*
X164123499Y-48808938D01*
X164326229Y-48808938D01*
X164326229Y-49214397D01*
X164326229Y-49619855D01*
X164123499Y-49619855D01*
X163920770Y-49619855D01*
X163920770Y-50025313D01*
X163920770Y-50430771D01*
X164123499Y-50430771D01*
X164326229Y-50430771D01*
X164326229Y-50633501D01*
X164326229Y-50836230D01*
X164528958Y-50836230D01*
X164731687Y-50836230D01*
X164731687Y-50633501D01*
X164731687Y-50430771D01*
X165137145Y-50430771D01*
X165542603Y-50430771D01*
X165542603Y-50633501D01*
X165542603Y-50836230D01*
X165745333Y-50836230D01*
X165948062Y-50836230D01*
X165948062Y-51038959D01*
X165948062Y-51241688D01*
X165137145Y-51241688D01*
X164326229Y-51241688D01*
X164326229Y-51444417D01*
X164326229Y-51647146D01*
X164528958Y-51647146D01*
X164731687Y-51647146D01*
X164731687Y-52255334D01*
X164731687Y-52863521D01*
X164934416Y-52863521D01*
X165137145Y-52863521D01*
X165137145Y-52458063D01*
X165137145Y-52052605D01*
X165339874Y-52052605D01*
X165542603Y-52052605D01*
X165542603Y-52458063D01*
X165542603Y-52863521D01*
X165745333Y-52863521D01*
X165948062Y-52863521D01*
X165948062Y-53268980D01*
X165948062Y-53674438D01*
X165745333Y-53674438D01*
X165542603Y-53674438D01*
X165542603Y-53471709D01*
X165542603Y-53268980D01*
X165137145Y-53268980D01*
X164731687Y-53268980D01*
X164731687Y-53471709D01*
X164731687Y-53674438D01*
X164934416Y-53674438D01*
X165137145Y-53674438D01*
X165137145Y-53877167D01*
X165137145Y-54079896D01*
X164731687Y-54079896D01*
X164326229Y-54079896D01*
X164326229Y-53674438D01*
X164326229Y-53268980D01*
X164528958Y-53268980D01*
X164731687Y-53268980D01*
X164731687Y-53066250D01*
X164731687Y-52863521D01*
X164326229Y-52863521D01*
X163920770Y-52863521D01*
X163920770Y-53066250D01*
X163920770Y-53268980D01*
X163718041Y-53268980D01*
X163515312Y-53268980D01*
X163515312Y-53471709D01*
X163515312Y-53674438D01*
X163109854Y-53674438D01*
X162704395Y-53674438D01*
X162704395Y-53471709D01*
X162704395Y-53268980D01*
X162501666Y-53268980D01*
X162298937Y-53268980D01*
X162298937Y-53471709D01*
X162298937Y-53674438D01*
X162096208Y-53674438D01*
X161893479Y-53674438D01*
X161893479Y-53268980D01*
X161893479Y-52863521D01*
X162096208Y-52863521D01*
X162298937Y-52863521D01*
X162704395Y-52863521D01*
X162907124Y-52863521D01*
X163109854Y-52863521D01*
X163109854Y-52660792D01*
X163109854Y-52458063D01*
X162907124Y-52458063D01*
X162704395Y-52458063D01*
X162704395Y-52660792D01*
X162704395Y-52863521D01*
X162298937Y-52863521D01*
X162298937Y-52660792D01*
X162298937Y-52255334D01*
X162298937Y-52052605D01*
X162704395Y-52052605D01*
X163312583Y-52052605D01*
X163920770Y-52052605D01*
X163920770Y-51444417D01*
X163920770Y-50836230D01*
X163312583Y-50836230D01*
X162704395Y-50836230D01*
X162704395Y-51444417D01*
X162704395Y-52052605D01*
X162298937Y-52052605D01*
X162298937Y-51647146D01*
X162096208Y-51647146D01*
X161893479Y-51647146D01*
X161893479Y-51444417D01*
X161893479Y-51241688D01*
X161690750Y-51241688D01*
X161488020Y-51241688D01*
X161488020Y-51647146D01*
X161488020Y-52052605D01*
X160271646Y-52052605D01*
X159055271Y-52052605D01*
X159055271Y-52255334D01*
X159055271Y-52458063D01*
X158852542Y-52458063D01*
X158649812Y-52458063D01*
X158649812Y-52052605D01*
X158649812Y-51647146D01*
X158447083Y-51647146D01*
X158244354Y-51647146D01*
X158244354Y-52255334D01*
X158244354Y-52863521D01*
X158041625Y-52863521D01*
X157838896Y-52863521D01*
X157838896Y-52660792D01*
X157838896Y-52458063D01*
X157636167Y-52458063D01*
X157433438Y-52458063D01*
X157433438Y-52255334D01*
X157433438Y-52052605D01*
X157230708Y-52052605D01*
X157027979Y-52052605D01*
X157027979Y-52458063D01*
X157027979Y-52863521D01*
X156825250Y-52863521D01*
X156622521Y-52863521D01*
X156622521Y-52660792D01*
X156622521Y-52458063D01*
X156419792Y-52458063D01*
X156217063Y-52458063D01*
X156217063Y-52660792D01*
X156217063Y-52863521D01*
X156014334Y-52863521D01*
X155811604Y-52863521D01*
X155811604Y-52660792D01*
X155811604Y-52458063D01*
X156014334Y-52458063D01*
X156217063Y-52458063D01*
X156217063Y-52255334D01*
X156217063Y-52052605D01*
X156014334Y-52052605D01*
X155811604Y-52052605D01*
X155811604Y-51444417D01*
X155811604Y-50836230D01*
X156014334Y-50836230D01*
X156217063Y-50836230D01*
X156217063Y-51241688D01*
X156217063Y-51647146D01*
X156419792Y-51647146D01*
X156622521Y-51647146D01*
X156622521Y-51444417D01*
X156622521Y-51241688D01*
X156825250Y-51241688D01*
X157027979Y-51241688D01*
X157027979Y-51444417D01*
X157027979Y-51647146D01*
X157230708Y-51647146D01*
X157433438Y-51647146D01*
X157433438Y-51444417D01*
X157433438Y-51241688D01*
X157230708Y-51241688D01*
X157027979Y-51241688D01*
X157027979Y-50633501D01*
X157027979Y-50025313D01*
X156622521Y-50025313D01*
X156217063Y-50025313D01*
X156217063Y-50228042D01*
X156217063Y-50430771D01*
X156014334Y-50430771D01*
X155811604Y-50430771D01*
X155811604Y-50025313D01*
X155811604Y-49822584D01*
X155811604Y-49619855D01*
X156014334Y-49619855D01*
X156217063Y-49619855D01*
X156217063Y-49417126D01*
X156217063Y-49214397D01*
X156014334Y-49214397D01*
X155811604Y-49214397D01*
X155811604Y-49011667D01*
X155811604Y-48808938D01*
X156419792Y-48808938D01*
X157027979Y-48808938D01*
X157027979Y-49011667D01*
X157027979Y-49214397D01*
X157230708Y-49214397D01*
X157433438Y-49214397D01*
X157433438Y-49417126D01*
X157433438Y-49619855D01*
X157230708Y-49619855D01*
X157027979Y-49619855D01*
X157027979Y-49822584D01*
X157027979Y-50025313D01*
X157230708Y-50025313D01*
X157433438Y-50025313D01*
X157433438Y-49822584D01*
X157433438Y-49619855D01*
X157636167Y-49619855D01*
X157838896Y-49619855D01*
X157838896Y-50025313D01*
X157838896Y-50430771D01*
X157636167Y-50430771D01*
X157433438Y-50430771D01*
X157433438Y-50633501D01*
X157433438Y-50836230D01*
X157636167Y-50836230D01*
X157838896Y-50836230D01*
X157838896Y-50633501D01*
X157838896Y-50430771D01*
X158041625Y-50430771D01*
X158244354Y-50430771D01*
X158244354Y-50836230D01*
X158244354Y-51241688D01*
X158447083Y-51241688D01*
X158649812Y-51241688D01*
X158649812Y-50836230D01*
X158649812Y-50430771D01*
X158852542Y-50430771D01*
X159055271Y-50430771D01*
X159055271Y-50836230D01*
X159055271Y-51241688D01*
X158852542Y-51241688D01*
X158649812Y-51241688D01*
X158649812Y-51444417D01*
X158649812Y-51647146D01*
X158852542Y-51647146D01*
X159055271Y-51647146D01*
X159055271Y-51444417D01*
X159055271Y-51241688D01*
X159258000Y-51241688D01*
X159460729Y-51241688D01*
X159460729Y-51444417D01*
X159460729Y-51647146D01*
X159866187Y-51647146D01*
X160271646Y-51647146D01*
X160271646Y-51444417D01*
X160271646Y-51241688D01*
X160474375Y-51241688D01*
X160677104Y-51241688D01*
X160677104Y-51038959D01*
X160677104Y-50836230D01*
X160474375Y-50836230D01*
X160271646Y-50836230D01*
X160271646Y-50633501D01*
X160271646Y-50430771D01*
X160474375Y-50430771D01*
X160677104Y-50430771D01*
X160677104Y-50633501D01*
X160677104Y-50836230D01*
X161082562Y-50836230D01*
X161488020Y-50836230D01*
X161488020Y-50633501D01*
X161488020Y-50430771D01*
X161285291Y-50430771D01*
X161082562Y-50430771D01*
X161082562Y-50228042D01*
X161082562Y-50025313D01*
X161285291Y-50025313D01*
X161488020Y-50025313D01*
X161488020Y-49619855D01*
X161488020Y-49214397D01*
X161285291Y-49214397D01*
X161082562Y-49214397D01*
X161082562Y-49011667D01*
X161082562Y-48808938D01*
X161285291Y-48808938D01*
X161488020Y-48808938D01*
X161488020Y-49011667D01*
X161488020Y-49214397D01*
X161690750Y-49214397D01*
X161893479Y-49214397D01*
X161893479Y-49011667D01*
X161893479Y-48808938D01*
X162096208Y-48808938D01*
X162298937Y-48808938D01*
X162298937Y-49011667D01*
X162298937Y-49214397D01*
X162501666Y-49214397D01*
X162704395Y-49214397D01*
X162704395Y-49417126D01*
X162704395Y-49619855D01*
X162298937Y-49619855D01*
X161893479Y-49619855D01*
X161893479Y-49822584D01*
X161893479Y-50025313D01*
X161690750Y-50025313D01*
X161488020Y-50025313D01*
X161488020Y-50228042D01*
X161488020Y-50430771D01*
X161690750Y-50430771D01*
X161893479Y-50430771D01*
X161893479Y-50228042D01*
X161893479Y-50025313D01*
X162096208Y-50025313D01*
X162298937Y-50025313D01*
X162298937Y-50228042D01*
X162298937Y-50430771D01*
X162907124Y-50430771D01*
X163515312Y-50430771D01*
X163515312Y-50228042D01*
X163515312Y-50025313D01*
X163312583Y-50025313D01*
X163109854Y-50025313D01*
X163109854Y-49417126D01*
X163109854Y-48808938D01*
X163312583Y-48808938D01*
X163515312Y-48808938D01*
X163515312Y-49011667D01*
G37*
G36*
X156419792Y-50430771D02*
G01*
X156622521Y-50430771D01*
X156622521Y-50633501D01*
X156622521Y-50836230D01*
X156419792Y-50836230D01*
X156217063Y-50836230D01*
X156217063Y-50633501D01*
X156217063Y-50430771D01*
X156419792Y-50430771D01*
G37*
G36*
X160271646Y-50228042D02*
G01*
X160271646Y-50430771D01*
X160068916Y-50430771D01*
X159866187Y-50430771D01*
X159866187Y-50633501D01*
X159866187Y-50836230D01*
X159663458Y-50836230D01*
X159460729Y-50836230D01*
X159460729Y-50633501D01*
X159460729Y-50430771D01*
X159663458Y-50430771D01*
X159866187Y-50430771D01*
X159866187Y-50228042D01*
X159866187Y-50025313D01*
X160068916Y-50025313D01*
X160271646Y-50025313D01*
X160271646Y-50228042D01*
G37*
G36*
X158041625Y-57323562D02*
G01*
X158649812Y-57323562D01*
X158649812Y-57729021D01*
X158649812Y-58134479D01*
X158447083Y-58134479D01*
X158244354Y-58134479D01*
X158244354Y-57931750D01*
X158244354Y-57729021D01*
X158041625Y-57729021D01*
X157838896Y-57729021D01*
X157838896Y-59148125D01*
X157838896Y-60567229D01*
X157636167Y-60567229D01*
X157433438Y-60567229D01*
X157433438Y-60364500D01*
X157433438Y-60161770D01*
X157230708Y-60161770D01*
X157027979Y-60161770D01*
X157027979Y-60364500D01*
X157027979Y-60567229D01*
X157230708Y-60567229D01*
X157433438Y-60567229D01*
X157433438Y-60972687D01*
X157433438Y-61378145D01*
X157838896Y-61378145D01*
X158244354Y-61378145D01*
X158244354Y-61580874D01*
X158244354Y-61783604D01*
X158447083Y-61783604D01*
X158649812Y-61783604D01*
X158649812Y-61986333D01*
X158649812Y-62189062D01*
X157838896Y-62189062D01*
X157027979Y-62189062D01*
X157027979Y-61580874D01*
X157027979Y-60972687D01*
X156825250Y-60972687D01*
X156622521Y-60972687D01*
X156622521Y-61175416D01*
X156622521Y-61378145D01*
X156419792Y-61378145D01*
X156217063Y-61378145D01*
X156217063Y-61175416D01*
X156217063Y-60972687D01*
X156014334Y-60972687D01*
X155811604Y-60972687D01*
X155811604Y-60769958D01*
X155811604Y-60567229D01*
X156014334Y-60567229D01*
X156217063Y-60567229D01*
X156217063Y-60364500D01*
X156217063Y-60161770D01*
X156622521Y-60161770D01*
X157027979Y-60161770D01*
X157027979Y-59959041D01*
X157027979Y-59756312D01*
X157230708Y-59756312D01*
X157433438Y-59756312D01*
X157433438Y-59148125D01*
X157433438Y-58539937D01*
X157230708Y-58539937D01*
X157027979Y-58539937D01*
X157027979Y-59148125D01*
X157027979Y-59756312D01*
X156825250Y-59756312D01*
X156622521Y-59756312D01*
X156622521Y-59350854D01*
X156622521Y-59148125D01*
X156622521Y-58945396D01*
X156419792Y-58945396D01*
X156217063Y-58945396D01*
X156217063Y-59350854D01*
X156217063Y-59756312D01*
X156014334Y-59756312D01*
X155811604Y-59756312D01*
X155811604Y-59350854D01*
X155811604Y-58945396D01*
X155203417Y-58945396D01*
X154595230Y-58945396D01*
X154595230Y-58742666D01*
X154595230Y-58539937D01*
X154392500Y-58539937D01*
X154189771Y-58539937D01*
X154189771Y-58742666D01*
X154189771Y-58945396D01*
X153784313Y-58945396D01*
X153378855Y-58945396D01*
X153378855Y-58742666D01*
X153378855Y-58539937D01*
X153176126Y-58539937D01*
X152973396Y-58539937D01*
X152973396Y-58742666D01*
X152973396Y-58945396D01*
X152770667Y-58945396D01*
X152567938Y-58945396D01*
X152567938Y-58742666D01*
X152567938Y-58539937D01*
X152770667Y-58539937D01*
X152973396Y-58539937D01*
X152973396Y-58337208D01*
X152973396Y-58134479D01*
X153176126Y-58134479D01*
X153378855Y-58134479D01*
X153378855Y-58337208D01*
X153378855Y-58539937D01*
X153784313Y-58539937D01*
X154189771Y-58539937D01*
X154189771Y-58337208D01*
X154189771Y-58134479D01*
X154595230Y-58134479D01*
X155000688Y-58134479D01*
X155000688Y-57931750D01*
X155000688Y-57729021D01*
X155203417Y-57729021D01*
X155406146Y-57729021D01*
X155406146Y-57931750D01*
X155406146Y-58134479D01*
X155203417Y-58134479D01*
X155000688Y-58134479D01*
X155000688Y-58337208D01*
X155000688Y-58539937D01*
X155203417Y-58539937D01*
X155406146Y-58539937D01*
X155406146Y-58337208D01*
X155406146Y-58134479D01*
X155608875Y-58134479D01*
X155811604Y-58134479D01*
X155811604Y-58539937D01*
X155811604Y-58945396D01*
X156014334Y-58945396D01*
X156217063Y-58945396D01*
X156217063Y-58539937D01*
X156217063Y-58134479D01*
X156419792Y-58134479D01*
X156622521Y-58134479D01*
X156622521Y-58337208D01*
X156622521Y-58539937D01*
X156825250Y-58539937D01*
X157027979Y-58539937D01*
X157027979Y-58134479D01*
X157027979Y-57729021D01*
X157230708Y-57729021D01*
X157433438Y-57729021D01*
X157433438Y-57526292D01*
X157433438Y-57323562D01*
X158041625Y-57323562D01*
G37*
G36*
X161488020Y-53268980D02*
G01*
X161488020Y-53674438D01*
X161690750Y-53674438D01*
X161893479Y-53674438D01*
X161893479Y-53877167D01*
X161893479Y-54079896D01*
X162096208Y-54079896D01*
X162298937Y-54079896D01*
X162298937Y-53877167D01*
X162298937Y-53674438D01*
X162501666Y-53674438D01*
X162704395Y-53674438D01*
X162704395Y-53877167D01*
X162704395Y-54079896D01*
X163109854Y-54079896D01*
X163515312Y-54079896D01*
X163515312Y-54282625D01*
X163515312Y-54485354D01*
X163718041Y-54485354D01*
X163920770Y-54485354D01*
X163920770Y-54282625D01*
X163920770Y-54079896D01*
X164123499Y-54079896D01*
X164326229Y-54079896D01*
X164326229Y-54485354D01*
X164326229Y-54890813D01*
X164528958Y-54890813D01*
X164731687Y-54890813D01*
X164731687Y-55093542D01*
X164731687Y-55296271D01*
X164934416Y-55296271D01*
X165137145Y-55296271D01*
X165137145Y-55904458D01*
X165137145Y-56512646D01*
X164528958Y-56512646D01*
X163920770Y-56512646D01*
X163920770Y-56715375D01*
X163920770Y-56918104D01*
X164326229Y-56918104D01*
X164731687Y-56918104D01*
X164731687Y-57526292D01*
X164731687Y-58134479D01*
X164934416Y-58134479D01*
X165137145Y-58134479D01*
X165137145Y-58337208D01*
X165137145Y-58539937D01*
X164934416Y-58539937D01*
X164731687Y-58539937D01*
X164731687Y-58742666D01*
X164731687Y-58945396D01*
X164528958Y-58945396D01*
X164326229Y-58945396D01*
X164326229Y-58539937D01*
X164326229Y-58134479D01*
X164123499Y-58134479D01*
X163920770Y-58134479D01*
X163920770Y-58337208D01*
X163920770Y-58539937D01*
X163718041Y-58539937D01*
X163515312Y-58539937D01*
X163515312Y-58742666D01*
X163515312Y-58945396D01*
X163312583Y-58945396D01*
X163109854Y-58945396D01*
X163109854Y-58539937D01*
X163109854Y-58134479D01*
X162907124Y-58134479D01*
X162704395Y-58134479D01*
X162704395Y-57931750D01*
X162704395Y-57729021D01*
X163109854Y-57729021D01*
X163515312Y-57729021D01*
X163920770Y-57729021D01*
X164123499Y-57729021D01*
X164326229Y-57729021D01*
X164326229Y-57526292D01*
X164326229Y-57323562D01*
X164123499Y-57323562D01*
X163920770Y-57323562D01*
X163920770Y-57526292D01*
X163920770Y-57729021D01*
X163515312Y-57729021D01*
X163515312Y-57526292D01*
X163515312Y-57120833D01*
X163515312Y-56512646D01*
X163312583Y-56512646D01*
X163109854Y-56512646D01*
X163109854Y-56309917D01*
X163109854Y-56107188D01*
X162907124Y-56107188D01*
X162704395Y-56107188D01*
X162704395Y-56309917D01*
X162704395Y-56512646D01*
X162501666Y-56512646D01*
X162298937Y-56512646D01*
X162298937Y-56309917D01*
X162298937Y-56107188D01*
X162096208Y-56107188D01*
X161893479Y-56107188D01*
X161893479Y-55904458D01*
X161893479Y-55701729D01*
X162298937Y-55701729D01*
X162501666Y-55701729D01*
X162704395Y-55701729D01*
X163515312Y-55701729D01*
X163515312Y-56512646D01*
X163718041Y-56512646D01*
X163920770Y-56512646D01*
X163920770Y-56107188D01*
X164326229Y-56107188D01*
X164528958Y-56107188D01*
X164731687Y-56107188D01*
X164731687Y-55904458D01*
X164731687Y-55701729D01*
X164528958Y-55701729D01*
X164326229Y-55701729D01*
X164326229Y-55904458D01*
X164326229Y-56107188D01*
X163920770Y-56107188D01*
X163920770Y-55904458D01*
X163920770Y-55701729D01*
X163920770Y-54890813D01*
X163718041Y-54890813D01*
X163515312Y-54890813D01*
X163515312Y-55701729D01*
X162704395Y-55701729D01*
X162704395Y-55499000D01*
X162704395Y-55296271D01*
X162501666Y-55296271D01*
X162298937Y-55296271D01*
X162298937Y-55499000D01*
X162298937Y-55701729D01*
X161893479Y-55701729D01*
X161690750Y-55701729D01*
X161488020Y-55701729D01*
X161488020Y-56309917D01*
X161488020Y-56918104D01*
X161285291Y-56918104D01*
X161082562Y-56918104D01*
X161082562Y-57526292D01*
X161082562Y-58134479D01*
X161285291Y-58134479D01*
X161488020Y-58134479D01*
X161488020Y-58337208D01*
X161488020Y-58539937D01*
X161690750Y-58539937D01*
X161893479Y-58539937D01*
X161893479Y-58134479D01*
X161893479Y-57729021D01*
X162096208Y-57729021D01*
X162298937Y-57729021D01*
X162298937Y-58134479D01*
X162298937Y-58539937D01*
X162501666Y-58539937D01*
X162704395Y-58539937D01*
X162704395Y-59553583D01*
X162704395Y-60567229D01*
X162501666Y-60567229D01*
X162298937Y-60567229D01*
X162298937Y-59756312D01*
X162298937Y-58945396D01*
X161690750Y-58945396D01*
X161082562Y-58945396D01*
X161082562Y-59350854D01*
X161082562Y-59756312D01*
X161285291Y-59756312D01*
X161488020Y-59756312D01*
X161488020Y-59553583D01*
X161488020Y-59350854D01*
X161690750Y-59350854D01*
X161893479Y-59350854D01*
X161893479Y-59756312D01*
X161893479Y-60161770D01*
X161488020Y-60161770D01*
X161082562Y-60161770D01*
X161082562Y-59959041D01*
X161082562Y-59756312D01*
X160879833Y-59756312D01*
X160677104Y-59756312D01*
X160677104Y-59959041D01*
X160677104Y-60161770D01*
X160271646Y-60161770D01*
X159866187Y-60161770D01*
X159866187Y-60364500D01*
X159866187Y-60567229D01*
X159663458Y-60567229D01*
X159460729Y-60567229D01*
X159460729Y-60364500D01*
X159460729Y-60161770D01*
X159663458Y-60161770D01*
X159866187Y-60161770D01*
X159866187Y-59756312D01*
X159866187Y-59350854D01*
X160068916Y-59350854D01*
X160271646Y-59350854D01*
X160271646Y-59553583D01*
X160271646Y-59756312D01*
X160474375Y-59756312D01*
X160677104Y-59756312D01*
X160677104Y-59350854D01*
X160677104Y-58945396D01*
X160879833Y-58945396D01*
X161082562Y-58945396D01*
X161082562Y-58742666D01*
X161082562Y-58539937D01*
X160879833Y-58539937D01*
X160677104Y-58539937D01*
X160677104Y-58742666D01*
X160677104Y-58945396D01*
X160271646Y-58945396D01*
X159866187Y-58945396D01*
X159866187Y-59148125D01*
X159866187Y-59350854D01*
X159663458Y-59350854D01*
X159460729Y-59350854D01*
X159460729Y-59553583D01*
X159460729Y-59756312D01*
X159258000Y-59756312D01*
X159055271Y-59756312D01*
X159055271Y-59553583D01*
X159055271Y-59350854D01*
X159258000Y-59350854D01*
X159460729Y-59350854D01*
X159460729Y-59148125D01*
X159460729Y-58945396D01*
X159663458Y-58945396D01*
X159866187Y-58945396D01*
X159866187Y-58742666D01*
X159866187Y-58539937D01*
X159866187Y-58134479D01*
X160271646Y-58134479D01*
X160677104Y-58134479D01*
X160677104Y-57931750D01*
X160677104Y-57729021D01*
X160271646Y-57729021D01*
X159866187Y-57729021D01*
X159866187Y-57931750D01*
X159866187Y-58134479D01*
X159663458Y-58134479D01*
X159460729Y-58134479D01*
X159460729Y-58539937D01*
X159460729Y-58945396D01*
X159258000Y-58945396D01*
X159055271Y-58945396D01*
X159055271Y-58134479D01*
X159055271Y-57931750D01*
X159055271Y-57323562D01*
X159258000Y-57323562D01*
X159460729Y-57323562D01*
X159460729Y-57526292D01*
X159460729Y-57729021D01*
X159663458Y-57729021D01*
X159866187Y-57729021D01*
X159866187Y-57323562D01*
X160271646Y-57323562D01*
X160474375Y-57323562D01*
X160677104Y-57323562D01*
X160677104Y-57120833D01*
X160677104Y-56918104D01*
X160474375Y-56918104D01*
X160271646Y-56918104D01*
X160271646Y-57120833D01*
X160271646Y-57323562D01*
X159866187Y-57323562D01*
X159866187Y-57120833D01*
X159866187Y-56918104D01*
X159460729Y-56918104D01*
X159055271Y-56918104D01*
X159055271Y-56715375D01*
X159055271Y-56512646D01*
X158852542Y-56512646D01*
X158649812Y-56512646D01*
X158649812Y-56309917D01*
X158649812Y-56107188D01*
X158852542Y-56107188D01*
X159055271Y-56107188D01*
X159055271Y-55904458D01*
X159460729Y-55904458D01*
X159460729Y-56512646D01*
X159866187Y-56512646D01*
X160271646Y-56512646D01*
X160677104Y-56512646D01*
X160879833Y-56512646D01*
X161082562Y-56512646D01*
X161082562Y-56309917D01*
X161082562Y-56107188D01*
X160879833Y-56107188D01*
X160677104Y-56107188D01*
X160677104Y-56309917D01*
X160677104Y-56512646D01*
X160271646Y-56512646D01*
X160271646Y-56309917D01*
X160271646Y-56107188D01*
X160271646Y-55701729D01*
X160677104Y-55701729D01*
X160879833Y-55701729D01*
X161082562Y-55701729D01*
X161082562Y-55499000D01*
X161082562Y-55296271D01*
X160879833Y-55296271D01*
X160677104Y-55296271D01*
X160677104Y-55499000D01*
X160677104Y-55701729D01*
X160271646Y-55701729D01*
X160068916Y-55701729D01*
X159866187Y-55701729D01*
X159866187Y-55499000D01*
X159866187Y-55296271D01*
X159663458Y-55296271D01*
X159460729Y-55296271D01*
X159460729Y-55904458D01*
X159055271Y-55904458D01*
X159055271Y-55701729D01*
X158852542Y-55701729D01*
X158649812Y-55701729D01*
X158649812Y-55904458D01*
X158649812Y-56107188D01*
X158447083Y-56107188D01*
X158244354Y-56107188D01*
X158244354Y-56309917D01*
X158244354Y-56512646D01*
X158041625Y-56512646D01*
X157838896Y-56512646D01*
X157838896Y-56107188D01*
X157838896Y-55904458D01*
X157838896Y-55701729D01*
X157636167Y-55701729D01*
X157433438Y-55701729D01*
X157433438Y-55904458D01*
X157433438Y-56107188D01*
X157230708Y-56107188D01*
X157027979Y-56107188D01*
X157027979Y-55904458D01*
X157027979Y-55701729D01*
X156825250Y-55701729D01*
X156622521Y-55701729D01*
X156622521Y-55499000D01*
X156622521Y-55296271D01*
X157636167Y-55296271D01*
X158649812Y-55296271D01*
X158649812Y-54890813D01*
X159055271Y-54890813D01*
X159055271Y-55093542D01*
X159055271Y-55296271D01*
X159258000Y-55296271D01*
X159460729Y-55296271D01*
X159460729Y-55093542D01*
X159460729Y-54890813D01*
X159258000Y-54890813D01*
X159055271Y-54890813D01*
X158649812Y-54890813D01*
X158649812Y-54485354D01*
X159258000Y-54485354D01*
X159866187Y-54485354D01*
X159866187Y-54688084D01*
X159866187Y-54890813D01*
X160271646Y-54890813D01*
X160677104Y-54890813D01*
X160677104Y-54688084D01*
X160677104Y-54485354D01*
X160879833Y-54485354D01*
X161082562Y-54485354D01*
X161082562Y-54890813D01*
X161082562Y-55296271D01*
X161285291Y-55296271D01*
X161488020Y-55296271D01*
X161488020Y-54890813D01*
X161893479Y-54890813D01*
X162096208Y-54890813D01*
X162298937Y-54890813D01*
X162298937Y-54688084D01*
X162298937Y-54485354D01*
X162704395Y-54485354D01*
X162704395Y-54688084D01*
X162704395Y-54890813D01*
X163109854Y-54890813D01*
X163515312Y-54890813D01*
X163515312Y-54688084D01*
X163515312Y-54485354D01*
X163109854Y-54485354D01*
X162704395Y-54485354D01*
X162298937Y-54485354D01*
X162096208Y-54485354D01*
X161893479Y-54485354D01*
X161893479Y-54688084D01*
X161893479Y-54890813D01*
X161488020Y-54890813D01*
X161488020Y-54688084D01*
X161488020Y-54079896D01*
X161285291Y-54079896D01*
X161082562Y-54079896D01*
X161082562Y-53471709D01*
X161082562Y-52863521D01*
X161285291Y-52863521D01*
X161488020Y-52863521D01*
X161488020Y-53268980D01*
G37*
G36*
X160879833Y-60161770D02*
G01*
X161082562Y-60161770D01*
X161082562Y-60364500D01*
X161082562Y-60567229D01*
X160879833Y-60567229D01*
X160677104Y-60567229D01*
X160677104Y-60364500D01*
X160677104Y-60161770D01*
X160879833Y-60161770D01*
G37*
G36*
X165542603Y-58539937D02*
G01*
X165948062Y-58539937D01*
X165948062Y-58742666D01*
X165948062Y-58945396D01*
X165542603Y-58945396D01*
X165137145Y-58945396D01*
X165137145Y-58742666D01*
X165137145Y-58539937D01*
X165542603Y-58539937D01*
G37*
G36*
X152973396Y-57729021D02*
G01*
X152973396Y-58134479D01*
X152770667Y-58134479D01*
X152567938Y-58134479D01*
X152567938Y-57729021D01*
X152567938Y-57323562D01*
X152770667Y-57323562D01*
X152973396Y-57323562D01*
X152973396Y-57729021D01*
G37*
G36*
X154392500Y-55296271D02*
G01*
X154595230Y-55296271D01*
X154595230Y-55904458D01*
X154595230Y-56512646D01*
X154392500Y-56512646D01*
X154189771Y-56512646D01*
X154189771Y-56715375D01*
X154189771Y-56918104D01*
X153987042Y-56918104D01*
X153784313Y-56918104D01*
X153784313Y-57120833D01*
X153784313Y-57323562D01*
X153987042Y-57323562D01*
X154189771Y-57323562D01*
X154189771Y-57526292D01*
X154189771Y-57729021D01*
X153784313Y-57729021D01*
X153378855Y-57729021D01*
X153378855Y-56918104D01*
X153378855Y-56107188D01*
X153176126Y-56107188D01*
X152973396Y-56107188D01*
X152973396Y-56309917D01*
X152973396Y-56512646D01*
X152770667Y-56512646D01*
X152567938Y-56512646D01*
X152567938Y-56107188D01*
X152567938Y-55701729D01*
X152973396Y-55701729D01*
X153378855Y-55701729D01*
X153378855Y-55904458D01*
X153378855Y-56107188D01*
X153581584Y-56107188D01*
X153784313Y-56107188D01*
X153784313Y-55904458D01*
X153784313Y-55701729D01*
X153987042Y-55701729D01*
X154189771Y-55701729D01*
X154189771Y-55499000D01*
X154189771Y-55296271D01*
X154392500Y-55296271D01*
G37*
G36*
X157027979Y-56512646D02*
G01*
X157433438Y-56512646D01*
X157433438Y-56918104D01*
X157433438Y-57323562D01*
X157230708Y-57323562D01*
X157027979Y-57323562D01*
X157027979Y-57120833D01*
X157027979Y-56918104D01*
X156825250Y-56918104D01*
X156622521Y-56918104D01*
X156622521Y-57323562D01*
X156622521Y-57729021D01*
X156419792Y-57729021D01*
X156217063Y-57729021D01*
X156217063Y-57526292D01*
X156217063Y-57323562D01*
X156014334Y-57323562D01*
X155811604Y-57323562D01*
X155811604Y-57120833D01*
X155811604Y-56918104D01*
X155608875Y-56918104D01*
X155406146Y-56918104D01*
X155406146Y-57120833D01*
X155406146Y-57323562D01*
X155203417Y-57323562D01*
X155000688Y-57323562D01*
X155000688Y-57120833D01*
X155000688Y-56918104D01*
X155203417Y-56918104D01*
X155406146Y-56918104D01*
X155406146Y-56715375D01*
X155406146Y-56512646D01*
X155203417Y-56512646D01*
X155000688Y-56512646D01*
X155000688Y-56309917D01*
X155000688Y-56107188D01*
X155203417Y-56107188D01*
X155406146Y-56107188D01*
X155406146Y-56309917D01*
X155406146Y-56512646D01*
X155608875Y-56512646D01*
X155811604Y-56512646D01*
X155811604Y-56107188D01*
X155811604Y-55701729D01*
X156014334Y-55701729D01*
X156217063Y-55701729D01*
X156217063Y-55904458D01*
X156217063Y-56107188D01*
X156419792Y-56107188D01*
X156622521Y-56107188D01*
X156622521Y-56309917D01*
X156622521Y-56512646D01*
X156217063Y-56512646D01*
X155811604Y-56512646D01*
X155811604Y-56715375D01*
X155811604Y-56918104D01*
X156217063Y-56918104D01*
X156622521Y-56918104D01*
X156622521Y-56715375D01*
X156622521Y-56512646D01*
X157027979Y-56512646D01*
G37*
G36*
X162298937Y-56918104D02*
G01*
X163109854Y-56918104D01*
X163109854Y-57120833D01*
X163109854Y-57323562D01*
X162298937Y-57323562D01*
X161488020Y-57323562D01*
X161488020Y-57120833D01*
X161488020Y-56918104D01*
X162298937Y-56918104D01*
G37*
G36*
X165339874Y-56512646D02*
G01*
X165542603Y-56512646D01*
X165542603Y-56715375D01*
X165542603Y-56918104D01*
X165339874Y-56918104D01*
X165137145Y-56918104D01*
X165137145Y-56715375D01*
X165137145Y-56512646D01*
X165339874Y-56512646D01*
G37*
G36*
X155406146Y-53066250D02*
G01*
X155406146Y-53268980D01*
X155000688Y-53268980D01*
X154595230Y-53268980D01*
X154595230Y-53471709D01*
X154595230Y-53674438D01*
X155203417Y-53674438D01*
X155811604Y-53674438D01*
X155811604Y-53471709D01*
X155811604Y-53268980D01*
X156217063Y-53268980D01*
X156622521Y-53268980D01*
X156622521Y-53471709D01*
X156622521Y-53674438D01*
X156419792Y-53674438D01*
X156217063Y-53674438D01*
X156217063Y-53877167D01*
X156217063Y-54079896D01*
X156622521Y-54079896D01*
X157027979Y-54079896D01*
X157027979Y-54485354D01*
X157027979Y-54890813D01*
X156825250Y-54890813D01*
X156622521Y-54890813D01*
X156622521Y-55093542D01*
X156622521Y-55296271D01*
X156217063Y-55296271D01*
X155811604Y-55296271D01*
X155811604Y-55499000D01*
X155811604Y-55701729D01*
X155406146Y-55701729D01*
X155000688Y-55701729D01*
X155000688Y-55499000D01*
X155000688Y-55296271D01*
X155406146Y-55296271D01*
X155811604Y-55296271D01*
X155811604Y-55093542D01*
X155811604Y-54890813D01*
X156014334Y-54890813D01*
X156217063Y-54890813D01*
X156217063Y-54688084D01*
X156217063Y-54485354D01*
X156014334Y-54485354D01*
X155811604Y-54485354D01*
X155811604Y-54688084D01*
X155811604Y-54890813D01*
X155406146Y-54890813D01*
X155000688Y-54890813D01*
X155000688Y-54688084D01*
X155000688Y-54485354D01*
X155406146Y-54485354D01*
X155811604Y-54485354D01*
X155811604Y-54282625D01*
X155811604Y-54079896D01*
X155203417Y-54079896D01*
X154595230Y-54079896D01*
X154595230Y-53877167D01*
X154595230Y-53674438D01*
X154392500Y-53674438D01*
X154189771Y-53674438D01*
X154189771Y-54485354D01*
X154189771Y-55296271D01*
X153784313Y-55296271D01*
X153378855Y-55296271D01*
X153378855Y-55093542D01*
X153378855Y-54890813D01*
X153581584Y-54890813D01*
X153784313Y-54890813D01*
X153784313Y-54079896D01*
X153784313Y-53268980D01*
X153987042Y-53268980D01*
X154189771Y-53268980D01*
X154189771Y-53066250D01*
X154189771Y-52863521D01*
X154797959Y-52863521D01*
X155406146Y-52863521D01*
X155406146Y-53066250D01*
G37*
D12*
%TO.C,JP1*%
X148790001Y-81492999D02*
X148790001Y-82092999D01*
X149490001Y-82792999D02*
X150890001Y-82792999D01*
X150890001Y-80792999D02*
X149490001Y-80792999D01*
X151590001Y-82092999D02*
X151590001Y-81492999D01*
X148790001Y-81492999D02*
G75*
G02*
X149490001Y-80792999I700000J0D01*
G01*
X149490001Y-82792999D02*
G75*
G02*
X148790001Y-82092999I0J700000D01*
G01*
X150890001Y-80792999D02*
G75*
G02*
X151590001Y-81492999I1J-699999D01*
G01*
X151590001Y-82092999D02*
G75*
G02*
X150890001Y-82792999I-699999J-1D01*
G01*
%TO.C,JP2*%
X142765000Y-35133000D02*
X142765000Y-35733000D01*
X143465000Y-36433000D02*
X144865000Y-36433000D01*
X144865000Y-34433000D02*
X143465000Y-34433000D01*
X145565000Y-35733000D02*
X145565000Y-35133000D01*
X142765000Y-35133000D02*
G75*
G02*
X143465000Y-34433000I699999J1D01*
G01*
X143465000Y-36433000D02*
G75*
G02*
X142765000Y-35733000I-1J699999D01*
G01*
X144865000Y-34433000D02*
G75*
G02*
X145565000Y-35133000I0J-700000D01*
G01*
X145565000Y-35733000D02*
G75*
G02*
X144865000Y-36433000I-700000J0D01*
G01*
%TD*%
M02*
