%TF.GenerationSoftware,KiCad,Pcbnew,9.0.3*%
%TF.CreationDate,2025-08-01T09:31:50-04:00*%
%TF.ProjectId,ECG,4543472e-6b69-4636-9164-5f7063625858,rev?*%
%TF.SameCoordinates,Original*%
%TF.FileFunction,Soldermask,Bot*%
%TF.FilePolarity,Negative*%
%FSLAX46Y46*%
G04 Gerber Fmt 4.6, Leading zero omitted, Abs format (unit mm)*
G04 Created by KiCad (PCBNEW 9.0.3) date 2025-08-01 09:31:50*
%MOMM*%
%LPD*%
G01*
G04 APERTURE LIST*
G04 Aperture macros list*
%AMRoundRect*
0 Rectangle with rounded corners*
0 $1 Rounding radius*
0 $2 $3 $4 $5 $6 $7 $8 $9 X,Y pos of 4 corners*
0 Add a 4 corners polygon primitive as box body*
4,1,4,$2,$3,$4,$5,$6,$7,$8,$9,$2,$3,0*
0 Add four circle primitives for the rounded corners*
1,1,$1+$1,$2,$3*
1,1,$1+$1,$4,$5*
1,1,$1+$1,$6,$7*
1,1,$1+$1,$8,$9*
0 Add four rect primitives between the rounded corners*
20,1,$1+$1,$2,$3,$4,$5,0*
20,1,$1+$1,$4,$5,$6,$7,0*
20,1,$1+$1,$6,$7,$8,$9,0*
20,1,$1+$1,$8,$9,$2,$3,0*%
%AMFreePoly0*
4,1,23,0.500000,-0.750000,0.000000,-0.750000,0.000000,-0.745722,-0.065263,-0.745722,-0.191342,-0.711940,-0.304381,-0.646677,-0.396677,-0.554381,-0.461940,-0.441342,-0.495722,-0.315263,-0.495722,-0.250000,-0.500000,-0.250000,-0.500000,0.250000,-0.495722,0.250000,-0.495722,0.315263,-0.461940,0.441342,-0.396677,0.554381,-0.304381,0.646677,-0.191342,0.711940,-0.065263,0.745722,0.000000,0.745722,
0.000000,0.750000,0.500000,0.750000,0.500000,-0.750000,0.500000,-0.750000,$1*%
%AMFreePoly1*
4,1,23,0.000000,0.745722,0.065263,0.745722,0.191342,0.711940,0.304381,0.646677,0.396677,0.554381,0.461940,0.441342,0.495722,0.315263,0.495722,0.250000,0.500000,0.250000,0.500000,-0.250000,0.495722,-0.250000,0.495722,-0.315263,0.461940,-0.441342,0.396677,-0.554381,0.304381,-0.646677,0.191342,-0.711940,0.065263,-0.745722,0.000000,-0.745722,0.000000,-0.750000,-0.500000,-0.750000,
-0.500000,0.750000,0.000000,0.750000,0.000000,0.745722,0.000000,0.745722,$1*%
G04 Aperture macros list end*
%ADD10C,2.000000*%
%ADD11R,1.700000X1.700000*%
%ADD12C,1.700000*%
%ADD13C,1.600000*%
%ADD14C,2.154000*%
%ADD15C,2.200000*%
%ADD16RoundRect,0.255000X-0.595000X1.015000X-0.595000X-1.015000X0.595000X-1.015000X0.595000X1.015000X0*%
%ADD17C,2.379000*%
%ADD18RoundRect,0.102000X-0.654000X-0.654000X0.654000X-0.654000X0.654000X0.654000X-0.654000X0.654000X0*%
%ADD19C,1.512000*%
%ADD20FreePoly0,180.000000*%
%ADD21FreePoly1,180.000000*%
%ADD22FreePoly0,0.000000*%
%ADD23FreePoly1,0.000000*%
G04 APERTURE END LIST*
%TO.C,JP1*%
G36*
X150340001Y-81042999D02*
G01*
X150040001Y-81042999D01*
X150040001Y-82542999D01*
X150340001Y-82542999D01*
X150340001Y-81042999D01*
G37*
%TO.C,JP2*%
G36*
X144015000Y-36183000D02*
G01*
X144315000Y-36183000D01*
X144315000Y-34683000D01*
X144015000Y-34683000D01*
X144015000Y-36183000D01*
G37*
%TD*%
D10*
%TO.C,TP5*%
X159090001Y-105156000D03*
%TD*%
D11*
%TO.C,J3*%
X100330000Y-57658000D03*
D12*
X102870000Y-57658000D03*
X105410000Y-57658000D03*
X107950000Y-57658000D03*
X110490000Y-57658000D03*
X113030000Y-57658000D03*
X115570000Y-57658000D03*
X118110000Y-57658000D03*
X120650000Y-57658000D03*
X123190000Y-57658000D03*
X125730000Y-57658000D03*
X128270000Y-57658000D03*
X130810000Y-57658000D03*
X133350000Y-57658000D03*
X135890000Y-57658000D03*
%TD*%
D13*
%TO.C,C2*%
X109590001Y-96792999D03*
X109590001Y-91792999D03*
%TD*%
D11*
%TO.C,J2*%
X133260001Y-98042999D03*
D12*
X135800001Y-98042999D03*
X138340001Y-98042999D03*
%TD*%
D14*
%TO.C,J5*%
X159381000Y-75137000D03*
X159381000Y-80137000D03*
%TD*%
D13*
%TO.C,R22*%
X136590001Y-92832999D03*
X136590001Y-90292999D03*
%TD*%
%TO.C,C6*%
X142090001Y-92292999D03*
X142090001Y-87292999D03*
%TD*%
D10*
%TO.C,TP3*%
X133590001Y-105156000D03*
%TD*%
%TO.C,TP2*%
X129090001Y-76792999D03*
%TD*%
%TO.C,TP8*%
X164211000Y-87249000D03*
%TD*%
D11*
%TO.C,J8*%
X102870000Y-65019000D03*
D12*
X102870000Y-67559000D03*
%TD*%
D11*
%TO.C,J1*%
X118510001Y-76792999D03*
D12*
X121050001Y-76792999D03*
X123590001Y-76792999D03*
%TD*%
D13*
%TO.C,C22*%
X102590001Y-96792999D03*
X102590001Y-91792999D03*
%TD*%
D11*
%TO.C,J7*%
X166370000Y-99568000D03*
D12*
X166370000Y-97028000D03*
%TD*%
D10*
%TO.C,TP6*%
X128090001Y-90292999D03*
%TD*%
D15*
%TO.C,H1*%
X168783000Y-77978000D03*
%TD*%
D13*
%TO.C,C7*%
X151090001Y-75292999D03*
X146090001Y-75292999D03*
%TD*%
D16*
%TO.C,U3*%
X100330000Y-50673000D03*
D12*
X102870000Y-50673000D03*
X105410000Y-50673000D03*
X107950000Y-50673000D03*
X110490000Y-50673000D03*
X113030000Y-50673000D03*
X115570000Y-50673000D03*
X118110000Y-50673000D03*
X120650000Y-50673000D03*
X123190000Y-50673000D03*
X125730000Y-50673000D03*
X128270000Y-50673000D03*
X130810000Y-50673000D03*
X133350000Y-50673000D03*
X135890000Y-50673000D03*
X135890000Y-35433000D03*
X133350000Y-35433000D03*
X130810000Y-35433000D03*
X128270000Y-35433000D03*
X125730000Y-35433000D03*
X123190000Y-35433000D03*
X120650000Y-35433000D03*
X118110000Y-35433000D03*
X115570000Y-35433000D03*
X113030000Y-35433000D03*
X110490000Y-35433000D03*
X107950000Y-35433000D03*
X105410000Y-35433000D03*
X102870000Y-35433000D03*
X100330000Y-35433000D03*
%TD*%
D11*
%TO.C,J6*%
X143900000Y-50275000D03*
D12*
X143900000Y-47735000D03*
%TD*%
D10*
%TO.C,TP7*%
X156840001Y-87292999D03*
%TD*%
D17*
%TO.C,BT1*%
X158900000Y-65683750D03*
X158900000Y-45683750D03*
%TD*%
D10*
%TO.C,TP1*%
X133590001Y-76792999D03*
%TD*%
D13*
%TO.C,R11*%
X132590001Y-92832999D03*
X132590001Y-90292999D03*
%TD*%
D10*
%TO.C,TP4*%
X109728000Y-105156000D03*
%TD*%
D13*
%TO.C,C21*%
X149590001Y-92292999D03*
X149590001Y-87292999D03*
%TD*%
%TO.C,R14*%
X140840001Y-77837999D03*
X140840001Y-75297999D03*
%TD*%
D11*
%TO.C,J4*%
X135890000Y-27813000D03*
D12*
X133350000Y-27813000D03*
X130810000Y-27813000D03*
X128270000Y-27813000D03*
X125730000Y-27813000D03*
X123190000Y-27813000D03*
X120650000Y-27813000D03*
X118110000Y-27813000D03*
X115570000Y-27813000D03*
X113030000Y-27813000D03*
X110490000Y-27813000D03*
X107950000Y-27813000D03*
X105410000Y-27813000D03*
X102870000Y-27813000D03*
X100330000Y-27813000D03*
%TD*%
D18*
%TO.C,S1*%
X155020000Y-32258000D03*
D19*
X157520000Y-32258000D03*
X160020000Y-32258000D03*
X155020000Y-29858000D03*
X157520000Y-29858000D03*
X160020000Y-29858000D03*
D14*
X152220000Y-31058000D03*
X162820000Y-31058000D03*
%TD*%
D20*
%TO.C,JP1*%
X150840001Y-81792999D03*
D21*
X149540001Y-81792999D03*
%TD*%
D22*
%TO.C,JP2*%
X143515000Y-35433000D03*
D23*
X144815000Y-35433000D03*
%TD*%
M02*
