%TF.GenerationSoftware,KiCad,Pcbnew,9.0.3*%
%TF.CreationDate,2025-08-01T09:54:24-04:00*%
%TF.ProjectId,ECG,4543472e-6b69-4636-9164-5f7063625858,rev?*%
%TF.SameCoordinates,Original*%
%TF.FileFunction,Soldermask,Top*%
%TF.FilePolarity,Negative*%
%FSLAX46Y46*%
G04 Gerber Fmt 4.6, Leading zero omitted, Abs format (unit mm)*
G04 Created by KiCad (PCBNEW 9.0.3) date 2025-08-01 09:54:24*
%MOMM*%
%LPD*%
G01*
G04 APERTURE LIST*
G04 Aperture macros list*
%AMRoundRect*
0 Rectangle with rounded corners*
0 $1 Rounding radius*
0 $2 $3 $4 $5 $6 $7 $8 $9 X,Y pos of 4 corners*
0 Add a 4 corners polygon primitive as box body*
4,1,4,$2,$3,$4,$5,$6,$7,$8,$9,$2,$3,0*
0 Add four circle primitives for the rounded corners*
1,1,$1+$1,$2,$3*
1,1,$1+$1,$4,$5*
1,1,$1+$1,$6,$7*
1,1,$1+$1,$8,$9*
0 Add four rect primitives between the rounded corners*
20,1,$1+$1,$2,$3,$4,$5,0*
20,1,$1+$1,$4,$5,$6,$7,0*
20,1,$1+$1,$6,$7,$8,$9,0*
20,1,$1+$1,$8,$9,$2,$3,0*%
G04 Aperture macros list end*
%ADD10RoundRect,0.200000X-0.275000X0.200000X-0.275000X-0.200000X0.275000X-0.200000X0.275000X0.200000X0*%
%ADD11C,2.000000*%
%ADD12RoundRect,0.225000X0.225000X0.250000X-0.225000X0.250000X-0.225000X-0.250000X0.225000X-0.250000X0*%
%ADD13R,1.700000X1.700000*%
%ADD14C,1.700000*%
%ADD15RoundRect,0.225000X-0.225000X-0.250000X0.225000X-0.250000X0.225000X0.250000X-0.225000X0.250000X0*%
%ADD16C,1.600000*%
%ADD17RoundRect,3.048000X7.112000X7.112000X-7.112000X7.112000X-7.112000X-7.112000X7.112000X-7.112000X0*%
%ADD18RoundRect,0.200000X0.275000X-0.200000X0.275000X0.200000X-0.275000X0.200000X-0.275000X-0.200000X0*%
%ADD19C,2.154000*%
%ADD20RoundRect,0.200000X0.200000X0.275000X-0.200000X0.275000X-0.200000X-0.275000X0.200000X-0.275000X0*%
%ADD21RoundRect,1.905000X8.255000X4.445000X-8.255000X4.445000X-8.255000X-4.445000X8.255000X-4.445000X0*%
%ADD22RoundRect,0.150000X0.150000X-0.587500X0.150000X0.587500X-0.150000X0.587500X-0.150000X-0.587500X0*%
%ADD23RoundRect,0.200000X-0.200000X-0.275000X0.200000X-0.275000X0.200000X0.275000X-0.200000X0.275000X0*%
%ADD24RoundRect,0.150000X0.587500X0.150000X-0.587500X0.150000X-0.587500X-0.150000X0.587500X-0.150000X0*%
%ADD25RoundRect,0.150000X-0.587500X-0.150000X0.587500X-0.150000X0.587500X0.150000X-0.587500X0.150000X0*%
%ADD26RoundRect,0.250000X-0.300000X-0.300000X0.300000X-0.300000X0.300000X0.300000X-0.300000X0.300000X0*%
%ADD27C,2.200000*%
%ADD28RoundRect,0.218750X0.218750X0.256250X-0.218750X0.256250X-0.218750X-0.256250X0.218750X-0.256250X0*%
%ADD29RoundRect,0.218750X-0.218750X-0.256250X0.218750X-0.256250X0.218750X0.256250X-0.218750X0.256250X0*%
%ADD30RoundRect,0.150000X-0.150000X0.587500X-0.150000X-0.587500X0.150000X-0.587500X0.150000X0.587500X0*%
%ADD31RoundRect,0.255000X-0.595000X1.015000X-0.595000X-1.015000X0.595000X-1.015000X0.595000X1.015000X0*%
%ADD32C,2.379000*%
%ADD33RoundRect,0.225000X-0.250000X0.225000X-0.250000X-0.225000X0.250000X-0.225000X0.250000X0.225000X0*%
%ADD34R,0.274600X0.804800*%
%ADD35R,0.804800X0.274600*%
%ADD36R,2.650000X2.650000*%
%ADD37RoundRect,0.102000X-0.654000X-0.654000X0.654000X-0.654000X0.654000X0.654000X-0.654000X0.654000X0*%
%ADD38C,1.512000*%
G04 APERTURE END LIST*
D10*
%TO.C,R8*%
X130340001Y-101967999D03*
X130340001Y-103617999D03*
%TD*%
D11*
%TO.C,TP5*%
X159090001Y-105156000D03*
%TD*%
D12*
%TO.C,C4*%
X112140001Y-84792999D03*
X110590001Y-84792999D03*
%TD*%
D13*
%TO.C,J3*%
X100330000Y-57658000D03*
D14*
X102870000Y-57658000D03*
X105410000Y-57658000D03*
X107950000Y-57658000D03*
X110490000Y-57658000D03*
X113030000Y-57658000D03*
X115570000Y-57658000D03*
X118110000Y-57658000D03*
X120650000Y-57658000D03*
X123190000Y-57658000D03*
X125730000Y-57658000D03*
X128270000Y-57658000D03*
X130810000Y-57658000D03*
X133350000Y-57658000D03*
X135890000Y-57658000D03*
%TD*%
D10*
%TO.C,R7*%
X114590001Y-85467999D03*
X114590001Y-87117999D03*
%TD*%
D15*
%TO.C,C13*%
X97028000Y-63276000D03*
X98578000Y-63276000D03*
%TD*%
D16*
%TO.C,C2*%
X109590001Y-96792999D03*
X109590001Y-91792999D03*
%TD*%
D17*
%TO.C,TP11*%
X106680000Y-119380000D03*
%TD*%
D15*
%TO.C,C9*%
X113779000Y-107188000D03*
X115329000Y-107188000D03*
%TD*%
D18*
%TO.C,R15*%
X112200000Y-73925000D03*
X112200000Y-72275000D03*
%TD*%
D13*
%TO.C,J2*%
X133260001Y-98042999D03*
D14*
X135800001Y-98042999D03*
X138340001Y-98042999D03*
%TD*%
D19*
%TO.C,J5*%
X159381000Y-75137000D03*
X159381000Y-80137000D03*
%TD*%
D16*
%TO.C,R22*%
X136590001Y-92832999D03*
X136590001Y-90292999D03*
%TD*%
D20*
%TO.C,R17*%
X112165001Y-82042999D03*
X110515001Y-82042999D03*
%TD*%
D18*
%TO.C,R4*%
X123090001Y-99442999D03*
X123090001Y-97792999D03*
%TD*%
D16*
%TO.C,C6*%
X142090001Y-92292999D03*
X142090001Y-87292999D03*
%TD*%
D21*
%TO.C,TP9*%
X160020000Y-123190000D03*
%TD*%
D11*
%TO.C,TP3*%
X133590001Y-105156000D03*
%TD*%
D22*
%TO.C,Q1*%
X140250000Y-60937500D03*
X142150000Y-60937500D03*
X141200000Y-59062500D03*
%TD*%
D15*
%TO.C,C1*%
X143243000Y-40132000D03*
X144793000Y-40132000D03*
%TD*%
D23*
%TO.C,R1*%
X145190001Y-81792999D03*
X146840001Y-81792999D03*
%TD*%
D15*
%TO.C,C14*%
X97028000Y-65786000D03*
X98578000Y-65786000D03*
%TD*%
D11*
%TO.C,TP2*%
X129090001Y-76792999D03*
%TD*%
D18*
%TO.C,R13*%
X128090001Y-85617999D03*
X128090001Y-83967999D03*
%TD*%
D11*
%TO.C,TP8*%
X164211000Y-87249000D03*
%TD*%
D15*
%TO.C,C12*%
X143243000Y-43307000D03*
X144793000Y-43307000D03*
%TD*%
D24*
%TO.C,Q5*%
X123000000Y-69100000D03*
X123000000Y-67200000D03*
X121125000Y-68150000D03*
%TD*%
D13*
%TO.C,J8*%
X102870000Y-65019000D03*
D14*
X102870000Y-67559000D03*
%TD*%
D18*
%TO.C,R10*%
X126340001Y-99367999D03*
X126340001Y-97717999D03*
%TD*%
D13*
%TO.C,J1*%
X118510001Y-76792999D03*
D14*
X121050001Y-76792999D03*
X123590001Y-76792999D03*
%TD*%
D17*
%TO.C,TP10*%
X132715000Y-119380000D03*
%TD*%
D25*
%TO.C,Q3*%
X109400000Y-67300000D03*
X109400000Y-69200000D03*
X111275000Y-68250000D03*
%TD*%
D15*
%TO.C,C8*%
X124955000Y-107188000D03*
X126505000Y-107188000D03*
%TD*%
D26*
%TO.C,D2*%
X116837000Y-72136000D03*
X119637000Y-72136000D03*
%TD*%
D16*
%TO.C,C22*%
X102590001Y-96792999D03*
X102590001Y-91792999D03*
%TD*%
D13*
%TO.C,J7*%
X166370000Y-99568000D03*
D14*
X166370000Y-97028000D03*
%TD*%
D11*
%TO.C,TP6*%
X128090001Y-90292999D03*
%TD*%
D15*
%TO.C,C5*%
X124815001Y-94792999D03*
X126365001Y-94792999D03*
%TD*%
D27*
%TO.C,H1*%
X168783000Y-77978000D03*
%TD*%
D10*
%TO.C,R5*%
X114590001Y-90142999D03*
X114590001Y-91792999D03*
%TD*%
D15*
%TO.C,C11*%
X99415000Y-107188000D03*
X100965000Y-107188000D03*
%TD*%
D20*
%TO.C,R9*%
X126990001Y-103542999D03*
X125340001Y-103542999D03*
%TD*%
D28*
%TO.C,D1*%
X142392500Y-81915000D03*
X140817500Y-81915000D03*
%TD*%
D16*
%TO.C,C7*%
X151090001Y-75292999D03*
X146090001Y-75292999D03*
%TD*%
D29*
%TO.C,D4*%
X143510000Y-28448000D03*
X145085000Y-28448000D03*
%TD*%
D30*
%TO.C,Q4*%
X135850000Y-63562500D03*
X133950000Y-63562500D03*
X134900000Y-65437500D03*
%TD*%
D31*
%TO.C,U3*%
X100330000Y-50673000D03*
D14*
X102870000Y-50673000D03*
X105410000Y-50673000D03*
X107950000Y-50673000D03*
X110490000Y-50673000D03*
X113030000Y-50673000D03*
X115570000Y-50673000D03*
X118110000Y-50673000D03*
X120650000Y-50673000D03*
X123190000Y-50673000D03*
X125730000Y-50673000D03*
X128270000Y-50673000D03*
X130810000Y-50673000D03*
X133350000Y-50673000D03*
X135890000Y-50673000D03*
X135890000Y-35433000D03*
X133350000Y-35433000D03*
X130810000Y-35433000D03*
X128270000Y-35433000D03*
X125730000Y-35433000D03*
X123190000Y-35433000D03*
X120650000Y-35433000D03*
X118110000Y-35433000D03*
X115570000Y-35433000D03*
X113030000Y-35433000D03*
X110490000Y-35433000D03*
X107950000Y-35433000D03*
X105410000Y-35433000D03*
X102870000Y-35433000D03*
X100330000Y-35433000D03*
%TD*%
D20*
%TO.C,R6*%
X112165001Y-87292999D03*
X110515001Y-87292999D03*
%TD*%
D13*
%TO.C,J6*%
X143900000Y-50275000D03*
D14*
X143900000Y-47735000D03*
%TD*%
D11*
%TO.C,TP7*%
X156840001Y-87292999D03*
%TD*%
D18*
%TO.C,R3*%
X119590001Y-99442999D03*
X119590001Y-97792999D03*
%TD*%
D23*
%TO.C,R18*%
X143510000Y-32258000D03*
X145160000Y-32258000D03*
%TD*%
D32*
%TO.C,BT1*%
X158900000Y-65683750D03*
X158900000Y-45683750D03*
%TD*%
D33*
%TO.C,C3*%
X117100000Y-82925000D03*
X117100000Y-84475000D03*
%TD*%
D11*
%TO.C,TP1*%
X133590001Y-76792999D03*
%TD*%
D16*
%TO.C,R11*%
X132590001Y-92832999D03*
X132590001Y-90292999D03*
%TD*%
D11*
%TO.C,TP4*%
X109728000Y-105156000D03*
%TD*%
D18*
%TO.C,R2*%
X130175000Y-85598000D03*
X130175000Y-83948000D03*
%TD*%
D26*
%TO.C,D3*%
X163573000Y-37338000D03*
X166373000Y-37338000D03*
%TD*%
D24*
%TO.C,Q2*%
X117437500Y-69150000D03*
X117437500Y-67250000D03*
X115562500Y-68200000D03*
%TD*%
D16*
%TO.C,C21*%
X149590001Y-92292999D03*
X149590001Y-87292999D03*
%TD*%
D20*
%TO.C,R16*%
X142025000Y-64900000D03*
X140375000Y-64900000D03*
%TD*%
D18*
%TO.C,R12*%
X133985000Y-87267999D03*
X133985000Y-85617999D03*
%TD*%
D16*
%TO.C,R14*%
X140840001Y-77837999D03*
X140840001Y-75297999D03*
%TD*%
D13*
%TO.C,J4*%
X135890000Y-27813000D03*
D14*
X133350000Y-27813000D03*
X130810000Y-27813000D03*
X128270000Y-27813000D03*
X125730000Y-27813000D03*
X123190000Y-27813000D03*
X120650000Y-27813000D03*
X118110000Y-27813000D03*
X115570000Y-27813000D03*
X113030000Y-27813000D03*
X110490000Y-27813000D03*
X107950000Y-27813000D03*
X105410000Y-27813000D03*
X102870000Y-27813000D03*
X100330000Y-27813000D03*
%TD*%
D34*
%TO.C,U1*%
X120637601Y-89245399D03*
X121137603Y-89245399D03*
X121637602Y-89245399D03*
X122137601Y-89245399D03*
X122637603Y-89245399D03*
D35*
X123590001Y-88293001D03*
X123590001Y-87792999D03*
X123590001Y-87293000D03*
X123590001Y-86793001D03*
X123590001Y-86292999D03*
D34*
X122637603Y-85340601D03*
X122137601Y-85340601D03*
X121637602Y-85340601D03*
X121137603Y-85340601D03*
X120637601Y-85340601D03*
D35*
X119685203Y-86292999D03*
X119685203Y-86793001D03*
X119685203Y-87293000D03*
X119685203Y-87792999D03*
X119685203Y-88293001D03*
D36*
X121637602Y-87293000D03*
%TD*%
D15*
%TO.C,C10*%
X138425000Y-107188000D03*
X139975000Y-107188000D03*
%TD*%
D37*
%TO.C,S1*%
X155020000Y-32258000D03*
D38*
X157520000Y-32258000D03*
X160020000Y-32258000D03*
X155020000Y-29858000D03*
X157520000Y-29858000D03*
X160020000Y-29858000D03*
D19*
X152220000Y-31058000D03*
X162820000Y-31058000D03*
%TD*%
M02*
