M48
; DRILL file {KiCad 9.0.3} date 2025-08-01T10:02:49-0400
; FORMAT={-:-/ absolute / inch / decimal}
; #@! TF.CreationDate,2025-08-01T10:02:49-04:00
; #@! TF.GenerationSoftware,Kicad,Pcbnew,9.0.3
; #@! TF.FileFunction,Plated,1,4,PTH
FMAT,2
INCH
; #@! TA.AperFunction,Plated,PTH,ViaDrill
T1C0.0138
; #@! TA.AperFunction,Plated,PTH,ComponentDrill
T2C0.0315
; #@! TA.AperFunction,Plated,PTH,ComponentDrill
T3C0.0394
; #@! TA.AperFunction,Plated,PTH,ComponentDrill
T4C0.0512
; #@! TA.AperFunction,Plated,PTH,ComponentDrill
T5C0.0571
%
G90
G05
T1
X3.6915Y-4.5839
X3.6915Y-4.643
X3.6915Y-4.7021
X3.6915Y-4.7611
X3.6915Y-4.8202
X3.6915Y-4.8792
X3.6915Y-4.9383
X3.6915Y-4.9973
X3.6915Y-5.0564
X3.6915Y-5.1154
X3.721Y-4.5839
X3.721Y-4.643
X3.721Y-4.7021
X3.721Y-4.7611
X3.721Y-4.8202
X3.721Y-4.8792
X3.721Y-4.9383
X3.721Y-4.9973
X3.721Y-5.0564
X3.721Y-5.1154
X3.885Y-2.42
X3.885Y-2.645
X4.0245Y-4.22
X4.575Y-3.377
X4.575Y-3.4065
X4.6Y-4.22
X4.6045Y-3.377
X4.6045Y-3.4065
X4.6689Y-3.5745
X4.6689Y-4.0076
X4.6965Y-4.5839
X4.6965Y-4.643
X4.6965Y-4.7021
X4.6965Y-4.7611
X4.6965Y-4.8202
X4.6965Y-4.8792
X4.6965Y-4.9383
X4.6965Y-4.9973
X4.6965Y-5.0564
X4.6965Y-5.1154
X4.715Y-2.745
X4.726Y-4.5839
X4.726Y-4.643
X4.726Y-4.7021
X4.726Y-4.7611
X4.726Y-4.8202
X4.726Y-4.8792
X4.726Y-4.9383
X4.726Y-4.9973
X4.726Y-5.0564
X4.726Y-5.1154
X4.728Y-3.1808
X4.7638Y-3.4134
X4.7638Y-3.4567
X4.8067Y-3.1808
X4.811Y-3.4134
X4.811Y-3.4567
X4.9248Y-3.5745
X4.9248Y-4.0076
X5.045Y-4.22
X5.085Y-3.73
X5.085Y-3.77
X5.1102Y-2.748
X5.1102Y-2.7874
X5.1102Y-2.8268
X5.125Y-3.73
X5.125Y-3.77
X5.1496Y-2.748
X5.1496Y-2.7874
X5.1496Y-2.8268
X5.1811Y-2.6378
X5.189Y-2.748
X5.189Y-2.7874
X5.189Y-2.8268
X5.2283Y-2.748
X5.2283Y-2.7874
X5.2283Y-2.8268
X5.2677Y-2.748
X5.2677Y-2.7874
X5.2677Y-2.8268
X5.3484Y-2.375
X5.3484Y-2.405
X5.3484Y-2.435
X5.4606Y-2.5551
X5.5848Y-4.22
X5.6063Y-2.2913
X5.6339Y-2.2638
X5.6614Y-2.2362
X5.705Y-1.75
X5.71Y-1.515
X5.715Y-1.33
X5.7515Y-4.5839
X5.7515Y-4.643
X5.7515Y-4.7021
X5.7515Y-4.7611
X5.7515Y-4.8202
X5.7515Y-4.8792
X5.7515Y-4.9383
X5.7515Y-4.9973
X5.7515Y-5.0564
X5.7515Y-5.1154
X5.781Y-4.5839
X5.781Y-4.643
X5.781Y-4.7021
X5.781Y-4.7611
X5.781Y-4.8202
X5.781Y-4.8792
X5.781Y-4.9383
X5.781Y-4.9973
X5.781Y-5.0564
X5.781Y-5.1154
X5.8Y-1.12
X5.825Y-3.22
X6.635Y-1.47
X6.751Y-4.5858
X6.751Y-4.6449
X6.751Y-4.7039
X6.751Y-4.763
X6.751Y-4.8221
X6.751Y-4.8811
X6.751Y-4.9402
X6.751Y-4.9992
X6.751Y-5.0583
X6.751Y-5.1173
X6.7805Y-4.5858
X6.7805Y-4.6449
X6.7805Y-4.7039
X6.7805Y-4.763
X6.7805Y-4.8221
X6.7805Y-4.8811
X6.7805Y-4.9402
X6.7805Y-4.9992
X6.7805Y-5.0583
X6.7805Y-5.1173
T2
X4.039Y-3.6139
X4.039Y-3.8107
X4.3146Y-3.6139
X4.3146Y-3.8107
X5.2201Y-3.5548
X5.2201Y-3.6548
X5.3776Y-3.5548
X5.3776Y-3.6548
X5.5449Y-2.9645
X5.5449Y-3.0645
X5.5941Y-3.4367
X5.5941Y-3.6336
X5.7516Y-2.9643
X5.8894Y-3.4367
X5.8894Y-3.6336
X5.9484Y-2.9643
X6.1031Y-1.1755
X6.1031Y-1.27
X6.2016Y-1.1755
X6.2016Y-1.27
X6.3Y-1.1755
X6.3Y-1.27
T3
X3.95Y-1.095
X3.95Y-1.395
X3.95Y-1.995
X3.95Y-2.27
X4.05Y-1.095
X4.05Y-1.395
X4.05Y-1.995
X4.05Y-2.27
X4.05Y-2.5598
X4.05Y-2.6598
X4.15Y-1.095
X4.15Y-1.395
X4.15Y-1.995
X4.15Y-2.27
X4.25Y-1.095
X4.25Y-1.395
X4.25Y-1.995
X4.25Y-2.27
X4.32Y-4.14
X4.35Y-1.095
X4.35Y-1.395
X4.35Y-1.995
X4.35Y-2.27
X4.45Y-1.095
X4.45Y-1.395
X4.45Y-1.995
X4.45Y-2.27
X4.55Y-1.095
X4.55Y-1.395
X4.55Y-1.995
X4.55Y-2.27
X4.65Y-1.095
X4.65Y-1.395
X4.65Y-1.995
X4.65Y-2.27
X4.6657Y-3.0233
X4.75Y-1.095
X4.75Y-1.395
X4.75Y-1.995
X4.75Y-2.27
X4.7657Y-3.0233
X4.85Y-1.095
X4.85Y-1.395
X4.85Y-1.995
X4.85Y-2.27
X4.8657Y-3.0233
X4.95Y-1.095
X4.95Y-1.395
X4.95Y-1.995
X4.95Y-2.27
X5.0429Y-3.5548
X5.05Y-1.095
X5.05Y-1.395
X5.05Y-1.995
X5.05Y-2.27
X5.0823Y-3.0233
X5.15Y-1.095
X5.15Y-1.395
X5.15Y-1.995
X5.15Y-2.27
X5.2465Y-3.86
X5.25Y-1.095
X5.25Y-1.395
X5.25Y-1.995
X5.25Y-2.27
X5.2594Y-3.0233
X5.2594Y-4.14
X5.3465Y-3.86
X5.35Y-1.095
X5.35Y-1.395
X5.35Y-1.995
X5.35Y-2.27
X5.4465Y-3.86
X5.6654Y-1.8793
X5.6654Y-1.9793
X6.1748Y-3.4367
X6.2634Y-4.14
X6.465Y-3.435
X6.55Y-3.82
X6.55Y-3.92
T4
X5.9929Y-1.2228
X6.2748Y-2.9581
X6.2748Y-3.155
X6.4102Y-1.2228
T5
X6.2559Y-1.7986
X6.2559Y-2.586
M30
