%TF.GenerationSoftware,KiCad,Pcbnew,9.0.7*%
%TF.CreationDate,2026-01-15T20:51:24-05:00*%
%TF.ProjectId,ECG,4543472e-6b69-4636-9164-5f7063625858,rev?*%
%TF.SameCoordinates,Original*%
%TF.FileFunction,Soldermask,Bot*%
%TF.FilePolarity,Negative*%
%FSLAX46Y46*%
G04 Gerber Fmt 4.6, Leading zero omitted, Abs format (unit mm)*
G04 Created by KiCad (PCBNEW 9.0.7) date 2026-01-15 20:51:24*
%MOMM*%
%LPD*%
G01*
G04 APERTURE LIST*
G04 Aperture macros list*
%AMRoundRect*
0 Rectangle with rounded corners*
0 $1 Rounding radius*
0 $2 $3 $4 $5 $6 $7 $8 $9 X,Y pos of 4 corners*
0 Add a 4 corners polygon primitive as box body*
4,1,4,$2,$3,$4,$5,$6,$7,$8,$9,$2,$3,0*
0 Add four circle primitives for the rounded corners*
1,1,$1+$1,$2,$3*
1,1,$1+$1,$4,$5*
1,1,$1+$1,$6,$7*
1,1,$1+$1,$8,$9*
0 Add four rect primitives between the rounded corners*
20,1,$1+$1,$2,$3,$4,$5,0*
20,1,$1+$1,$4,$5,$6,$7,0*
20,1,$1+$1,$6,$7,$8,$9,0*
20,1,$1+$1,$8,$9,$2,$3,0*%
%AMFreePoly0*
4,1,23,0.500000,-0.750000,0.000000,-0.750000,0.000000,-0.745722,-0.065263,-0.745722,-0.191342,-0.711940,-0.304381,-0.646677,-0.396677,-0.554381,-0.461940,-0.441342,-0.495722,-0.315263,-0.495722,-0.250000,-0.500000,-0.250000,-0.500000,0.250000,-0.495722,0.250000,-0.495722,0.315263,-0.461940,0.441342,-0.396677,0.554381,-0.304381,0.646677,-0.191342,0.711940,-0.065263,0.745722,0.000000,0.745722,
0.000000,0.750000,0.500000,0.750000,0.500000,-0.750000,0.500000,-0.750000,$1*%
%AMFreePoly1*
4,1,23,0.000000,0.745722,0.065263,0.745722,0.191342,0.711940,0.304381,0.646677,0.396677,0.554381,0.461940,0.441342,0.495722,0.315263,0.495722,0.250000,0.500000,0.250000,0.500000,-0.250000,0.495722,-0.250000,0.495722,-0.315263,0.461940,-0.441342,0.396677,-0.554381,0.304381,-0.646677,0.191342,-0.711940,0.065263,-0.745722,0.000000,-0.745722,0.000000,-0.750000,-0.500000,-0.750000,
-0.500000,0.750000,0.000000,0.750000,0.000000,0.745722,0.000000,0.745722,$1*%
G04 Aperture macros list end*
%ADD10C,2.000000*%
%ADD11C,3.200000*%
%ADD12R,1.700000X1.700000*%
%ADD13C,1.700000*%
%ADD14C,1.600000*%
%ADD15C,2.154000*%
%ADD16C,3.000000*%
%ADD17O,3.704000X1.954000*%
%ADD18O,5.204000X2.704000*%
%ADD19RoundRect,0.255000X-0.595000X1.015000X-0.595000X-1.015000X0.595000X-1.015000X0.595000X1.015000X0*%
%ADD20RoundRect,0.102000X-0.654000X-0.654000X0.654000X-0.654000X0.654000X0.654000X-0.654000X0.654000X0*%
%ADD21C,1.512000*%
%ADD22FreePoly0,180.000000*%
%ADD23FreePoly1,180.000000*%
%ADD24FreePoly0,90.000000*%
%ADD25FreePoly1,90.000000*%
%ADD26FreePoly0,0.000000*%
%ADD27FreePoly1,0.000000*%
G04 APERTURE END LIST*
%TO.C,JP1*%
G36*
X150340001Y-81042999D02*
G01*
X150040001Y-81042999D01*
X150040001Y-82542999D01*
X150340001Y-82542999D01*
X150340001Y-81042999D01*
G37*
%TO.C,JP3*%
G36*
X138672000Y-77000000D02*
G01*
X137172000Y-77000000D01*
X137172000Y-76700000D01*
X138672000Y-76700000D01*
X138672000Y-77000000D01*
G37*
%TO.C,JP2*%
G36*
X144015000Y-36183000D02*
G01*
X144315000Y-36183000D01*
X144315000Y-34683000D01*
X144015000Y-34683000D01*
X144015000Y-36183000D01*
G37*
%TD*%
D10*
%TO.C,TP5*%
X159090001Y-105156000D03*
%TD*%
D11*
%TO.C,H3*%
X98425000Y-42545000D03*
%TD*%
D12*
%TO.C,J3*%
X100330000Y-57658000D03*
D13*
X102870000Y-57658000D03*
X105410000Y-57658000D03*
X107950000Y-57658000D03*
X110490000Y-57658000D03*
X113030000Y-57658000D03*
X115570000Y-57658000D03*
X118110000Y-57658000D03*
X120650000Y-57658000D03*
X123190000Y-57658000D03*
X125730000Y-57658000D03*
X128270000Y-57658000D03*
X130810000Y-57658000D03*
X133350000Y-57658000D03*
X135890000Y-57658000D03*
%TD*%
D14*
%TO.C,C2*%
X109590001Y-96792999D03*
X109590001Y-91792999D03*
%TD*%
D11*
%TO.C,H4*%
X168910000Y-111760000D03*
%TD*%
D12*
%TO.C,J2*%
X133260001Y-98042999D03*
D13*
X135800001Y-98042999D03*
X138340001Y-98042999D03*
%TD*%
D15*
%TO.C,J5*%
X159381000Y-80137000D03*
X159381000Y-75137000D03*
%TD*%
D14*
%TO.C,R22*%
X136590001Y-92832999D03*
X136590001Y-90292999D03*
%TD*%
%TO.C,C6*%
X142090001Y-92292999D03*
X142090001Y-87292999D03*
%TD*%
D12*
%TO.C,J8*%
X99822000Y-64262000D03*
D13*
X102362000Y-64262000D03*
X99822000Y-66802000D03*
X102362000Y-66802000D03*
X99822000Y-69342000D03*
X102362000Y-69342000D03*
X99822000Y-71882000D03*
X102362000Y-71882000D03*
X99822000Y-74422000D03*
X102362000Y-74422000D03*
%TD*%
D10*
%TO.C,TP3*%
X133590001Y-105156000D03*
%TD*%
%TO.C,TP2*%
X129090001Y-76792999D03*
%TD*%
%TO.C,TP8*%
X164211000Y-87249000D03*
%TD*%
D12*
%TO.C,J1*%
X118510001Y-76792999D03*
D13*
X121050001Y-76792999D03*
X123590001Y-76792999D03*
%TD*%
D11*
%TO.C,H5*%
X98425000Y-101600000D03*
%TD*%
D14*
%TO.C,C22*%
X102590001Y-96792999D03*
X102590001Y-91792999D03*
%TD*%
D10*
%TO.C,TP6*%
X127000000Y-89662000D03*
%TD*%
D16*
%TO.C,H1*%
X168783000Y-77978000D03*
%TD*%
D14*
%TO.C,C7*%
X151090001Y-75292999D03*
X146090001Y-75292999D03*
%TD*%
D17*
%TO.C,BT1*%
X159258000Y-68072000D03*
D18*
X159258000Y-40872000D03*
%TD*%
D19*
%TO.C,U3*%
X100330000Y-50673000D03*
D13*
X102870000Y-50673000D03*
X105410000Y-50673000D03*
X107950000Y-50673000D03*
X110490000Y-50673000D03*
X113030000Y-50673000D03*
X115570000Y-50673000D03*
X118110000Y-50673000D03*
X120650000Y-50673000D03*
X123190000Y-50673000D03*
X125730000Y-50673000D03*
X128270000Y-50673000D03*
X130810000Y-50673000D03*
X133350000Y-50673000D03*
X135890000Y-50673000D03*
X135890000Y-35433000D03*
X133350000Y-35433000D03*
X130810000Y-35433000D03*
X128270000Y-35433000D03*
X125730000Y-35433000D03*
X123190000Y-35433000D03*
X120650000Y-35433000D03*
X118110000Y-35433000D03*
X115570000Y-35433000D03*
X113030000Y-35433000D03*
X110490000Y-35433000D03*
X107950000Y-35433000D03*
X105410000Y-35433000D03*
X102870000Y-35433000D03*
X100330000Y-35433000D03*
%TD*%
D12*
%TO.C,J6*%
X143900000Y-50275000D03*
D13*
X143900000Y-47735000D03*
%TD*%
D10*
%TO.C,TP7*%
X156840001Y-87292999D03*
%TD*%
D11*
%TO.C,H2*%
X168910000Y-29210000D03*
%TD*%
D10*
%TO.C,TP1*%
X133590001Y-76792999D03*
%TD*%
D14*
%TO.C,R11*%
X132590001Y-90297000D03*
X132590001Y-92837000D03*
%TD*%
D10*
%TO.C,TP4*%
X109728000Y-105156000D03*
%TD*%
D14*
%TO.C,C21*%
X149590001Y-92292999D03*
X149590001Y-87292999D03*
%TD*%
%TO.C,R14*%
X140840001Y-77837999D03*
X140840001Y-75297999D03*
%TD*%
D12*
%TO.C,J4*%
X135890000Y-27813000D03*
D13*
X133350000Y-27813000D03*
X130810000Y-27813000D03*
X128270000Y-27813000D03*
X125730000Y-27813000D03*
X123190000Y-27813000D03*
X120650000Y-27813000D03*
X118110000Y-27813000D03*
X115570000Y-27813000D03*
X113030000Y-27813000D03*
X110490000Y-27813000D03*
X107950000Y-27813000D03*
X105410000Y-27813000D03*
X102870000Y-27813000D03*
X100330000Y-27813000D03*
%TD*%
D20*
%TO.C,S1*%
X153930000Y-32258000D03*
D21*
X156430000Y-32258000D03*
X158930000Y-32258000D03*
X153930000Y-29858000D03*
X156430000Y-29858000D03*
X158930000Y-29858000D03*
D15*
X151130000Y-31058000D03*
X161730000Y-31058000D03*
%TD*%
D22*
%TO.C,JP1*%
X150840001Y-81792999D03*
D23*
X149540001Y-81792999D03*
%TD*%
D24*
%TO.C,JP3*%
X137922000Y-77500000D03*
D25*
X137922000Y-76200000D03*
%TD*%
D26*
%TO.C,JP2*%
X143515000Y-35433000D03*
D27*
X144815000Y-35433000D03*
%TD*%
M02*
