%TF.GenerationSoftware,KiCad,Pcbnew,9.0.7*%
%TF.CreationDate,2026-01-15T20:51:24-05:00*%
%TF.ProjectId,ECG,4543472e-6b69-4636-9164-5f7063625858,rev?*%
%TF.SameCoordinates,Original*%
%TF.FileFunction,Copper,L2,Inr*%
%TF.FilePolarity,Positive*%
%FSLAX46Y46*%
G04 Gerber Fmt 4.6, Leading zero omitted, Abs format (unit mm)*
G04 Created by KiCad (PCBNEW 9.0.7) date 2026-01-15 20:51:24*
%MOMM*%
%LPD*%
G01*
G04 APERTURE LIST*
G04 Aperture macros list*
%AMRoundRect*
0 Rectangle with rounded corners*
0 $1 Rounding radius*
0 $2 $3 $4 $5 $6 $7 $8 $9 X,Y pos of 4 corners*
0 Add a 4 corners polygon primitive as box body*
4,1,4,$2,$3,$4,$5,$6,$7,$8,$9,$2,$3,0*
0 Add four circle primitives for the rounded corners*
1,1,$1+$1,$2,$3*
1,1,$1+$1,$4,$5*
1,1,$1+$1,$6,$7*
1,1,$1+$1,$8,$9*
0 Add four rect primitives between the rounded corners*
20,1,$1+$1,$2,$3,$4,$5,0*
20,1,$1+$1,$4,$5,$6,$7,0*
20,1,$1+$1,$6,$7,$8,$9,0*
20,1,$1+$1,$8,$9,$2,$3,0*%
G04 Aperture macros list end*
%TA.AperFunction,ComponentPad*%
%ADD10C,2.000000*%
%TD*%
%TA.AperFunction,ComponentPad*%
%ADD11R,1.700000X1.700000*%
%TD*%
%TA.AperFunction,ComponentPad*%
%ADD12C,1.700000*%
%TD*%
%TA.AperFunction,ComponentPad*%
%ADD13C,1.600000*%
%TD*%
%TA.AperFunction,ComponentPad*%
%ADD14C,1.950000*%
%TD*%
%TA.AperFunction,ComponentPad*%
%ADD15O,3.500000X1.750000*%
%TD*%
%TA.AperFunction,ComponentPad*%
%ADD16O,5.000000X2.500000*%
%TD*%
%TA.AperFunction,ComponentPad*%
%ADD17RoundRect,0.255000X-0.595000X1.015000X-0.595000X-1.015000X0.595000X-1.015000X0.595000X1.015000X0*%
%TD*%
%TA.AperFunction,ComponentPad*%
%ADD18R,1.308000X1.308000*%
%TD*%
%TA.AperFunction,ComponentPad*%
%ADD19C,1.308000*%
%TD*%
%TA.AperFunction,ViaPad*%
%ADD20C,0.500000*%
%TD*%
%TA.AperFunction,Conductor*%
%ADD21C,0.635000*%
%TD*%
%TA.AperFunction,Conductor*%
%ADD22C,0.254000*%
%TD*%
%TA.AperFunction,Conductor*%
%ADD23C,0.127000*%
%TD*%
G04 APERTURE END LIST*
D10*
%TO.N,/RL*%
%TO.C,TP5*%
X159090001Y-105156000D03*
%TD*%
D11*
%TO.N,/D13*%
%TO.C,J3*%
X100330000Y-57658000D03*
D12*
%TO.N,+3V3*%
X102870000Y-57658000D03*
%TO.N,/AREF*%
X105410000Y-57658000D03*
%TO.N,/A0*%
X107950000Y-57658000D03*
%TO.N,/A1*%
X110490000Y-57658000D03*
%TO.N,/A2*%
X113030000Y-57658000D03*
%TO.N,/A3*%
X115570000Y-57658000D03*
%TO.N,/HR_SIGNAL*%
X118110000Y-57658000D03*
%TO.N,/A5*%
X120650000Y-57658000D03*
%TO.N,/A6*%
X123190000Y-57658000D03*
%TO.N,/A7*%
X125730000Y-57658000D03*
%TO.N,+5V*%
X128270000Y-57658000D03*
%TO.N,/RESET*%
X130810000Y-57658000D03*
%TO.N,GND*%
X133350000Y-57658000D03*
%TO.N,/VIN*%
X135890000Y-57658000D03*
%TD*%
D13*
%TO.N,/HPDRIVE*%
%TO.C,C2*%
X109590001Y-96792999D03*
%TO.N,/HPSENSE*%
X109590001Y-91792999D03*
%TD*%
D11*
%TO.N,/RL*%
%TO.C,J2*%
X133260001Y-98042999D03*
D12*
%TO.N,Net-(J2-Pin_2)*%
X135800001Y-98042999D03*
%TO.N,+3V0*%
X138340001Y-98042999D03*
%TD*%
D14*
%TO.N,GND*%
%TO.C,J5*%
X159381000Y-80137000D03*
%TO.N,Net-(D3-A)*%
X159381000Y-75137000D03*
%TD*%
D13*
%TO.N,/IAOUT*%
%TO.C,R22*%
X136590001Y-92832999D03*
%TO.N,/OAP*%
X136590001Y-90292999D03*
%TD*%
%TO.N,/OAP*%
%TO.C,C6*%
X142090001Y-92292999D03*
%TO.N,/REF*%
X142090001Y-87292999D03*
%TD*%
D11*
%TO.N,/LEADS_ON*%
%TO.C,J8*%
X99822000Y-64262000D03*
D12*
%TO.N,Net-(D2-K)*%
X102362000Y-64262000D03*
X99822000Y-66802000D03*
%TO.N,Net-(J8-Pin_4)*%
X102362000Y-66802000D03*
%TO.N,GND*%
X99822000Y-69342000D03*
%TO.N,Net-(J8-Pin_4)*%
X102362000Y-69342000D03*
%TO.N,GND*%
X99822000Y-71882000D03*
%TO.N,/PWR_OFF_HV*%
X102362000Y-71882000D03*
%TO.N,GND*%
X99822000Y-74422000D03*
%TO.N,/OUT*%
X102362000Y-74422000D03*
%TD*%
D10*
%TO.N,/INM*%
%TO.C,TP3*%
X133590001Y-105156000D03*
%TD*%
%TO.N,/LODP*%
%TO.C,TP2*%
X129090001Y-76792999D03*
%TD*%
%TO.N,GND*%
%TO.C,TP8*%
X164211000Y-87249000D03*
%TD*%
D11*
%TO.N,+3V0*%
%TO.C,J1*%
X118510001Y-76792999D03*
D12*
%TO.N,Net-(J1-Pin_2)*%
X121050001Y-76792999D03*
%TO.N,GND*%
X123590001Y-76792999D03*
%TD*%
D13*
%TO.N,/HPDRIVE*%
%TO.C,C22*%
X102590001Y-96792999D03*
%TO.N,/HPSENSE*%
X102590001Y-91792999D03*
%TD*%
D10*
%TO.N,Net-(U1-SW)*%
%TO.C,TP6*%
X127000000Y-89662000D03*
%TD*%
D13*
%TO.N,GND*%
%TO.C,C7*%
X151090001Y-75292999D03*
%TO.N,/FILTER_OUT*%
X146090001Y-75292999D03*
%TD*%
D15*
%TO.N,GND*%
%TO.C,BT1*%
X159258000Y-68072000D03*
D16*
%TO.N,/BPLUS*%
X159258000Y-40872000D03*
%TD*%
D17*
%TO.N,/D13*%
%TO.C,U3*%
X100330000Y-50673000D03*
D12*
%TO.N,+3V3*%
X102870000Y-50673000D03*
%TO.N,/AREF*%
X105410000Y-50673000D03*
%TO.N,/A0*%
X107950000Y-50673000D03*
%TO.N,/A1*%
X110490000Y-50673000D03*
%TO.N,/A2*%
X113030000Y-50673000D03*
%TO.N,/A3*%
X115570000Y-50673000D03*
%TO.N,/HR_SIGNAL*%
X118110000Y-50673000D03*
%TO.N,/A5*%
X120650000Y-50673000D03*
%TO.N,/A6*%
X123190000Y-50673000D03*
%TO.N,/A7*%
X125730000Y-50673000D03*
%TO.N,+5V*%
X128270000Y-50673000D03*
%TO.N,/RESET*%
X130810000Y-50673000D03*
%TO.N,GND*%
X133350000Y-50673000D03*
%TO.N,/VIN*%
X135890000Y-50673000D03*
%TO.N,/TX*%
X135890000Y-35433000D03*
%TO.N,/RX*%
X133350000Y-35433000D03*
%TO.N,/RESET1*%
X130810000Y-35433000D03*
%TO.N,GND*%
X128270000Y-35433000D03*
%TO.N,/LEADS_ON_PROT*%
X125730000Y-35433000D03*
%TO.N,/PWR_HOLD*%
X123190000Y-35433000D03*
%TO.N,/D4*%
X120650000Y-35433000D03*
%TO.N,/D5*%
X118110000Y-35433000D03*
%TO.N,/D6*%
X115570000Y-35433000D03*
%TO.N,/D7*%
X113030000Y-35433000D03*
%TO.N,/D8*%
X110490000Y-35433000D03*
%TO.N,/D9*%
X107950000Y-35433000D03*
%TO.N,/D10*%
X105410000Y-35433000D03*
%TO.N,/D11*%
X102870000Y-35433000D03*
%TO.N,/D12*%
X100330000Y-35433000D03*
%TD*%
D11*
%TO.N,+9V*%
%TO.C,J6*%
X143900000Y-50275000D03*
D12*
%TO.N,/VIN*%
X143900000Y-47735000D03*
%TD*%
D10*
%TO.N,/REF*%
%TO.C,TP7*%
X156840001Y-87292999D03*
%TD*%
%TO.N,/LODN*%
%TO.C,TP1*%
X133590001Y-76792999D03*
%TD*%
D13*
%TO.N,/OAP*%
%TO.C,R11*%
X132590001Y-90297000D03*
%TO.N,/IAOUT*%
X132590001Y-92837000D03*
%TD*%
D10*
%TO.N,/INP*%
%TO.C,TP4*%
X109728000Y-105156000D03*
%TD*%
D13*
%TO.N,/OAP*%
%TO.C,C21*%
X149590001Y-92292999D03*
%TO.N,/REF*%
X149590001Y-87292999D03*
%TD*%
%TO.N,/OUT*%
%TO.C,R14*%
X140840001Y-77837999D03*
%TO.N,/FILTER_OUT*%
X140840001Y-75297999D03*
%TD*%
D11*
%TO.N,/TX*%
%TO.C,J4*%
X135890000Y-27813000D03*
D12*
%TO.N,/RX*%
X133350000Y-27813000D03*
%TO.N,/RESET1*%
X130810000Y-27813000D03*
%TO.N,GND*%
X128270000Y-27813000D03*
%TO.N,/LEADS_ON_PROT*%
X125730000Y-27813000D03*
%TO.N,/PWR_HOLD*%
X123190000Y-27813000D03*
%TO.N,/D4*%
X120650000Y-27813000D03*
%TO.N,/D5*%
X118110000Y-27813000D03*
%TO.N,/D6*%
X115570000Y-27813000D03*
%TO.N,/D7*%
X113030000Y-27813000D03*
%TO.N,/D8*%
X110490000Y-27813000D03*
%TO.N,/D9*%
X107950000Y-27813000D03*
%TO.N,/D10*%
X105410000Y-27813000D03*
%TO.N,/D11*%
X102870000Y-27813000D03*
%TO.N,/D12*%
X100330000Y-27813000D03*
%TD*%
D18*
%TO.N,+3V0*%
%TO.C,S1*%
X153930000Y-32258000D03*
D19*
%TO.N,/BPLUS*%
X156430000Y-32258000D03*
%TO.N,unconnected-(S1-Pad3)*%
X158930000Y-32258000D03*
%TO.N,+9V*%
X153930000Y-29858000D03*
%TO.N,Net-(D3-K)*%
X156430000Y-29858000D03*
%TO.N,unconnected-(S1-Pad6)*%
X158930000Y-29858000D03*
D14*
%TO.N,unconnected-(S1-SH-Pad7)*%
X151130000Y-31058000D03*
%TO.N,unconnected-(S1-SH-Pad8)*%
X161730000Y-31058000D03*
%TD*%
D20*
%TO.N,GND*%
X119290400Y-129932200D03*
X130800000Y-69800000D03*
X109220000Y-71374000D03*
X108204000Y-71374000D03*
X93763400Y-123932200D03*
X171475400Y-122480200D03*
X172225400Y-125480200D03*
X119290400Y-126932200D03*
X109220000Y-70612000D03*
X171475400Y-125480200D03*
X146087400Y-128432200D03*
X94513400Y-128432200D03*
X172225400Y-126980200D03*
X146087400Y-119432200D03*
X120040400Y-125432200D03*
X93763400Y-125432200D03*
X110236000Y-70612000D03*
X172225400Y-129980200D03*
X120040400Y-116432200D03*
X110236000Y-71374000D03*
X120040400Y-126932200D03*
X146087400Y-125432200D03*
X93763400Y-119432200D03*
X93763400Y-122432200D03*
X119290400Y-119432200D03*
X132800000Y-69800000D03*
X146837400Y-126932200D03*
X93763400Y-128432200D03*
X119290400Y-125432200D03*
X120040400Y-119432200D03*
X119290400Y-128432200D03*
X146837400Y-120932200D03*
X108204000Y-70612000D03*
X172225400Y-120980200D03*
X120040400Y-123932200D03*
X94513400Y-126932200D03*
X131800000Y-71800000D03*
X93763400Y-117932200D03*
X172225400Y-117980200D03*
X146837400Y-123932200D03*
X172225400Y-119480200D03*
X130175000Y-94742000D03*
X171475400Y-126980200D03*
X172225400Y-122480200D03*
X146837400Y-116432200D03*
X94513400Y-129932200D03*
X115011200Y-65481200D03*
X129800000Y-71800000D03*
X120040400Y-128432200D03*
X146087400Y-123932200D03*
X94513400Y-119432200D03*
X131800000Y-70800000D03*
X120040400Y-129932200D03*
X132800000Y-71800000D03*
X146087400Y-129932200D03*
X119290400Y-116432200D03*
X130800000Y-70800000D03*
X129159000Y-95758000D03*
X146837400Y-122432200D03*
X171475400Y-120980200D03*
X130800000Y-71800000D03*
X94513400Y-120932200D03*
X119290400Y-123932200D03*
X171475400Y-123980200D03*
X131800000Y-69800000D03*
X133800000Y-69800000D03*
X120040400Y-122432200D03*
X172225400Y-123980200D03*
X129159000Y-94742000D03*
X146087400Y-126932200D03*
X94513400Y-122432200D03*
X146837400Y-119432200D03*
X130175000Y-95758000D03*
X93763400Y-126932200D03*
X94513400Y-123932200D03*
X172225400Y-116480200D03*
X129800000Y-69800000D03*
X172225400Y-128480200D03*
X120040400Y-117932200D03*
X119290400Y-122432200D03*
X146087400Y-120932200D03*
X129800000Y-70800000D03*
X133800000Y-70800000D03*
X146087400Y-116432200D03*
X171475400Y-119480200D03*
X132800000Y-70800000D03*
X171475400Y-128480200D03*
X146837400Y-128432200D03*
X171475400Y-116480200D03*
X133800000Y-71800000D03*
X93763400Y-116432200D03*
X171475400Y-117980200D03*
X171475400Y-129980200D03*
X93763400Y-120932200D03*
X146837400Y-117932200D03*
X94513400Y-116432200D03*
X115722400Y-65481200D03*
X146087400Y-122432200D03*
X146837400Y-129932200D03*
X120040400Y-120932200D03*
X146837400Y-125432200D03*
X94513400Y-117932200D03*
X94513400Y-125432200D03*
X93763400Y-129932200D03*
X119290400Y-120932200D03*
X119290400Y-117932200D03*
X146087400Y-117932200D03*
%TO.N,+3V0*%
X116955000Y-86525800D03*
X116205000Y-86525800D03*
X116840000Y-107188000D03*
X141854000Y-107188000D03*
X122090001Y-80792999D03*
X116205000Y-85775800D03*
X128143000Y-107188000D03*
X102222000Y-107188000D03*
X120090001Y-80792999D03*
X116955000Y-85775800D03*
%TO.N,/PWR_OFF_HV*%
X138700000Y-64900000D03*
X131600000Y-67000000D03*
%TO.N,/VIN*%
X135850000Y-61087000D03*
X147320000Y-28448000D03*
X135850000Y-61849000D03*
X144907000Y-44450000D03*
X122301000Y-62891000D03*
X135850000Y-60325000D03*
X145034000Y-38481000D03*
X116586000Y-62891000D03*
%TO.N,+9V*%
X143100000Y-57500000D03*
X143800000Y-56800000D03*
X142400000Y-58200000D03*
%TO.N,/INP*%
X118590001Y-101792999D03*
X125090001Y-101792999D03*
%TO.N,/IAOUT*%
X125090001Y-90792999D03*
X116534500Y-88848500D03*
%TO.N,/LEADS_ON*%
X95758000Y-72390000D03*
%TO.N,Net-(JP1-B)*%
X147955000Y-81788000D03*
%TO.N,Net-(D3-A)*%
X164084000Y-36322000D03*
%TO.N,Net-(JP2-B)*%
X145161000Y-33782000D03*
%TO.N,/LEADS_ON_PROT*%
X119761000Y-69723000D03*
%TO.N,/OUT*%
X128066800Y-83159600D03*
%TO.N,Net-(D2-K)*%
X113792000Y-69596000D03*
%TD*%
D21*
%TO.N,+9V*%
X143900000Y-52100000D02*
X146200000Y-54400000D01*
X143800000Y-56800000D02*
X146200000Y-54400000D01*
X152757500Y-31030500D02*
X153930000Y-29858000D01*
X146200000Y-54400000D02*
X152757500Y-47842500D01*
X142400000Y-58200000D02*
X143800000Y-56800000D01*
X143900000Y-50275000D02*
X143900000Y-52100000D01*
X152757500Y-47842500D02*
X152757500Y-31030500D01*
D22*
%TO.N,/LEADS_ON*%
X95758000Y-72390000D02*
X95758000Y-65024000D01*
X96520000Y-64262000D02*
X99822000Y-64262000D01*
X95758000Y-65024000D02*
X96520000Y-64262000D01*
D21*
%TO.N,Net-(D3-A)*%
X166370000Y-67056000D02*
X166370000Y-67310000D01*
X166370000Y-38608000D02*
X164084000Y-36322000D01*
D23*
X166370000Y-68148000D02*
X166370000Y-67056000D01*
D21*
X159381000Y-75137000D02*
X166370000Y-68148000D01*
X166370000Y-68148000D02*
X166370000Y-67310000D01*
X166370000Y-67056000D02*
X166370000Y-38608000D01*
D22*
%TO.N,Net-(D2-K)*%
X113284000Y-69596000D02*
X107950000Y-64262000D01*
X113792000Y-69596000D02*
X113284000Y-69596000D01*
X107950000Y-64262000D02*
X102362000Y-64262000D01*
%TD*%
%TA.AperFunction,Conductor*%
%TO.N,GND*%
G36*
X125655069Y-81920817D02*
G01*
X125694665Y-81975317D01*
X125700000Y-82009000D01*
X125700000Y-90541755D01*
X125679183Y-90605824D01*
X125624683Y-90645420D01*
X125557317Y-90645420D01*
X125502817Y-90605824D01*
X125496604Y-90596256D01*
X125465137Y-90541755D01*
X125450490Y-90516386D01*
X125366614Y-90432510D01*
X125263887Y-90373200D01*
X125149313Y-90342499D01*
X125149310Y-90342499D01*
X125030692Y-90342499D01*
X125030688Y-90342499D01*
X124916114Y-90373200D01*
X124813389Y-90432509D01*
X124729511Y-90516387D01*
X124670202Y-90619112D01*
X124639501Y-90733686D01*
X124639501Y-90852311D01*
X124670202Y-90966885D01*
X124670201Y-90966885D01*
X124714864Y-91044242D01*
X124729512Y-91069612D01*
X124813388Y-91153488D01*
X124916115Y-91212798D01*
X125030692Y-91243499D01*
X125030694Y-91243499D01*
X125149308Y-91243499D01*
X125149310Y-91243499D01*
X125263887Y-91212798D01*
X125366614Y-91153488D01*
X125450490Y-91069612D01*
X125496604Y-90989741D01*
X125546667Y-90944665D01*
X125613663Y-90937624D01*
X125672003Y-90971307D01*
X125699403Y-91032849D01*
X125700000Y-91044242D01*
X125700000Y-91700000D01*
X127945148Y-93345000D01*
X131664731Y-93340474D01*
X131728820Y-93361212D01*
X131755486Y-93388913D01*
X131812862Y-93474782D01*
X131952219Y-93614139D01*
X132116087Y-93723632D01*
X132298166Y-93799051D01*
X132491460Y-93837500D01*
X132491463Y-93837500D01*
X132688538Y-93837500D01*
X132688542Y-93837500D01*
X132881836Y-93799051D01*
X133063915Y-93723632D01*
X133227783Y-93614139D01*
X133367140Y-93474782D01*
X133426019Y-93386661D01*
X133478919Y-93344959D01*
X133516507Y-93338222D01*
X135664152Y-93335609D01*
X135728242Y-93356347D01*
X135754911Y-93384051D01*
X135812858Y-93470776D01*
X135812859Y-93470777D01*
X135812862Y-93470781D01*
X135952219Y-93610138D01*
X135952222Y-93610140D01*
X135952223Y-93610141D01*
X135958211Y-93614142D01*
X136116087Y-93719631D01*
X136298166Y-93795050D01*
X136491460Y-93833499D01*
X136491463Y-93833499D01*
X136688538Y-93833499D01*
X136688542Y-93833499D01*
X136881836Y-93795050D01*
X137063915Y-93719631D01*
X137227783Y-93610138D01*
X137367140Y-93470781D01*
X137426598Y-93381795D01*
X137479500Y-93340091D01*
X137517087Y-93333355D01*
X173170371Y-93289980D01*
X173234461Y-93310718D01*
X173274124Y-93365170D01*
X173279500Y-93398979D01*
X173279500Y-132076425D01*
X173279267Y-132083554D01*
X173264315Y-132311668D01*
X173262454Y-132325804D01*
X173218553Y-132546507D01*
X173214863Y-132560279D01*
X173142536Y-132773350D01*
X173137079Y-132786523D01*
X173037551Y-132988345D01*
X173030422Y-133000692D01*
X172905412Y-133187783D01*
X172896733Y-133199095D01*
X172748362Y-133368280D01*
X172738280Y-133378362D01*
X172569095Y-133526733D01*
X172557783Y-133535412D01*
X172370692Y-133660422D01*
X172358345Y-133667551D01*
X172156523Y-133767079D01*
X172143353Y-133772534D01*
X171930279Y-133844863D01*
X171916507Y-133848553D01*
X171695804Y-133892454D01*
X171681668Y-133894315D01*
X171453555Y-133909267D01*
X171446426Y-133909500D01*
X93983574Y-133909500D01*
X93976445Y-133909267D01*
X93748331Y-133894315D01*
X93734195Y-133892454D01*
X93513492Y-133848553D01*
X93499725Y-133844864D01*
X93286641Y-133772532D01*
X93273476Y-133767079D01*
X93071654Y-133667551D01*
X93059307Y-133660422D01*
X92872216Y-133535412D01*
X92860904Y-133526733D01*
X92691719Y-133378362D01*
X92681637Y-133368280D01*
X92533266Y-133199095D01*
X92524587Y-133187783D01*
X92399577Y-133000692D01*
X92392448Y-132988345D01*
X92292920Y-132786523D01*
X92287469Y-132773366D01*
X92215131Y-132560263D01*
X92211446Y-132546507D01*
X92195672Y-132467206D01*
X92167543Y-132325795D01*
X92165685Y-132311678D01*
X92150733Y-132083554D01*
X92150500Y-132076425D01*
X92150500Y-111634037D01*
X167309500Y-111634037D01*
X167309500Y-111885962D01*
X167348910Y-112134789D01*
X167426757Y-112374374D01*
X167426759Y-112374379D01*
X167533692Y-112584247D01*
X167541132Y-112598849D01*
X167689201Y-112802648D01*
X167689207Y-112802656D01*
X167867344Y-112980793D01*
X167867347Y-112980795D01*
X167867351Y-112980798D01*
X168071150Y-113128867D01*
X168071152Y-113128868D01*
X168071155Y-113128870D01*
X168295621Y-113243241D01*
X168373305Y-113268482D01*
X168535210Y-113321089D01*
X168535213Y-113321089D01*
X168535215Y-113321090D01*
X168784038Y-113360500D01*
X169035962Y-113360500D01*
X169284785Y-113321090D01*
X169284787Y-113321089D01*
X169284789Y-113321089D01*
X169362469Y-113295848D01*
X169524379Y-113243241D01*
X169748845Y-113128870D01*
X169952656Y-112980793D01*
X170130793Y-112802656D01*
X170278870Y-112598845D01*
X170393241Y-112374379D01*
X170471090Y-112134785D01*
X170510500Y-111885962D01*
X170510500Y-111634038D01*
X170471090Y-111385215D01*
X170471089Y-111385213D01*
X170471089Y-111385210D01*
X170393242Y-111145625D01*
X170393241Y-111145621D01*
X170278870Y-110921155D01*
X170278868Y-110921152D01*
X170278867Y-110921150D01*
X170130798Y-110717351D01*
X170130795Y-110717347D01*
X170130793Y-110717344D01*
X169952656Y-110539207D01*
X169952648Y-110539201D01*
X169748849Y-110391132D01*
X169734247Y-110383692D01*
X169524379Y-110276759D01*
X169524376Y-110276758D01*
X169524374Y-110276757D01*
X169284789Y-110198910D01*
X169035962Y-110159500D01*
X168784038Y-110159500D01*
X168535210Y-110198910D01*
X168295625Y-110276757D01*
X168071150Y-110391132D01*
X167867351Y-110539201D01*
X167867347Y-110539204D01*
X167689204Y-110717347D01*
X167689201Y-110717351D01*
X167541132Y-110921150D01*
X167426757Y-111145625D01*
X167348910Y-111385210D01*
X167309500Y-111634037D01*
X92150500Y-111634037D01*
X92150500Y-107128687D01*
X101771500Y-107128687D01*
X101771500Y-107247312D01*
X101802201Y-107361886D01*
X101802200Y-107361886D01*
X101853563Y-107450847D01*
X101861511Y-107464613D01*
X101945387Y-107548489D01*
X102048114Y-107607799D01*
X102162691Y-107638500D01*
X102162693Y-107638500D01*
X102281307Y-107638500D01*
X102281309Y-107638500D01*
X102395886Y-107607799D01*
X102498613Y-107548489D01*
X102582489Y-107464613D01*
X102641799Y-107361886D01*
X102672500Y-107247309D01*
X102672500Y-107128691D01*
X102672499Y-107128687D01*
X116389500Y-107128687D01*
X116389500Y-107247312D01*
X116420201Y-107361886D01*
X116420200Y-107361886D01*
X116471563Y-107450847D01*
X116479511Y-107464613D01*
X116563387Y-107548489D01*
X116666114Y-107607799D01*
X116780691Y-107638500D01*
X116780693Y-107638500D01*
X116899307Y-107638500D01*
X116899309Y-107638500D01*
X117013886Y-107607799D01*
X117116613Y-107548489D01*
X117200489Y-107464613D01*
X117259799Y-107361886D01*
X117290500Y-107247309D01*
X117290500Y-107128691D01*
X117290499Y-107128687D01*
X127692500Y-107128687D01*
X127692500Y-107247312D01*
X127723201Y-107361886D01*
X127723200Y-107361886D01*
X127774563Y-107450847D01*
X127782511Y-107464613D01*
X127866387Y-107548489D01*
X127969114Y-107607799D01*
X128083691Y-107638500D01*
X128083693Y-107638500D01*
X128202307Y-107638500D01*
X128202309Y-107638500D01*
X128316886Y-107607799D01*
X128419613Y-107548489D01*
X128503489Y-107464613D01*
X128562799Y-107361886D01*
X128593500Y-107247309D01*
X128593500Y-107128691D01*
X128593499Y-107128687D01*
X141403500Y-107128687D01*
X141403500Y-107247312D01*
X141434201Y-107361886D01*
X141434200Y-107361886D01*
X141485563Y-107450847D01*
X141493511Y-107464613D01*
X141577387Y-107548489D01*
X141680114Y-107607799D01*
X141794691Y-107638500D01*
X141794693Y-107638500D01*
X141913307Y-107638500D01*
X141913309Y-107638500D01*
X142027886Y-107607799D01*
X142130613Y-107548489D01*
X142214489Y-107464613D01*
X142273799Y-107361886D01*
X142304500Y-107247309D01*
X142304500Y-107128691D01*
X142273799Y-107014114D01*
X142273798Y-107014113D01*
X142273799Y-107014113D01*
X142244144Y-106962750D01*
X142214489Y-106911387D01*
X142130613Y-106827511D01*
X142027886Y-106768201D01*
X141913312Y-106737500D01*
X141913309Y-106737500D01*
X141794691Y-106737500D01*
X141794687Y-106737500D01*
X141680113Y-106768201D01*
X141577388Y-106827510D01*
X141493510Y-106911388D01*
X141434201Y-107014113D01*
X141403500Y-107128687D01*
X128593499Y-107128687D01*
X128562799Y-107014114D01*
X128562798Y-107014113D01*
X128562799Y-107014113D01*
X128533144Y-106962750D01*
X128503489Y-106911387D01*
X128419613Y-106827511D01*
X128316886Y-106768201D01*
X128202312Y-106737500D01*
X128202309Y-106737500D01*
X128083691Y-106737500D01*
X128083687Y-106737500D01*
X127969113Y-106768201D01*
X127866388Y-106827510D01*
X127782510Y-106911388D01*
X127723201Y-107014113D01*
X127692500Y-107128687D01*
X117290499Y-107128687D01*
X117259799Y-107014114D01*
X117259798Y-107014113D01*
X117259799Y-107014113D01*
X117230144Y-106962750D01*
X117200489Y-106911387D01*
X117116613Y-106827511D01*
X117013886Y-106768201D01*
X116899312Y-106737500D01*
X116899309Y-106737500D01*
X116780691Y-106737500D01*
X116780687Y-106737500D01*
X116666113Y-106768201D01*
X116563388Y-106827510D01*
X116479510Y-106911388D01*
X116420201Y-107014113D01*
X116389500Y-107128687D01*
X102672499Y-107128687D01*
X102641799Y-107014114D01*
X102641798Y-107014113D01*
X102641799Y-107014113D01*
X102612144Y-106962750D01*
X102582489Y-106911387D01*
X102498613Y-106827511D01*
X102395886Y-106768201D01*
X102281312Y-106737500D01*
X102281309Y-106737500D01*
X102162691Y-106737500D01*
X102162687Y-106737500D01*
X102048113Y-106768201D01*
X101945388Y-106827510D01*
X101861510Y-106911388D01*
X101802201Y-107014113D01*
X101771500Y-107128687D01*
X92150500Y-107128687D01*
X92150500Y-105061517D01*
X108527500Y-105061517D01*
X108527500Y-105250482D01*
X108557060Y-105437121D01*
X108615451Y-105616827D01*
X108615453Y-105616832D01*
X108701240Y-105785199D01*
X108812310Y-105938073D01*
X108945927Y-106071690D01*
X109098801Y-106182760D01*
X109267168Y-106268547D01*
X109357025Y-106297743D01*
X109446878Y-106326939D01*
X109446880Y-106326939D01*
X109446882Y-106326940D01*
X109633519Y-106356500D01*
X109633520Y-106356500D01*
X109822480Y-106356500D01*
X109822481Y-106356500D01*
X110009118Y-106326940D01*
X110188832Y-106268547D01*
X110357199Y-106182760D01*
X110510073Y-106071690D01*
X110643690Y-105938073D01*
X110754760Y-105785199D01*
X110840547Y-105616832D01*
X110898940Y-105437118D01*
X110928500Y-105250481D01*
X110928500Y-105061519D01*
X110928500Y-105061517D01*
X132389501Y-105061517D01*
X132389501Y-105250482D01*
X132419061Y-105437121D01*
X132477452Y-105616827D01*
X132477454Y-105616832D01*
X132563241Y-105785199D01*
X132674311Y-105938073D01*
X132807928Y-106071690D01*
X132960802Y-106182760D01*
X133129169Y-106268547D01*
X133219026Y-106297743D01*
X133308879Y-106326939D01*
X133308881Y-106326939D01*
X133308883Y-106326940D01*
X133495520Y-106356500D01*
X133495521Y-106356500D01*
X133684481Y-106356500D01*
X133684482Y-106356500D01*
X133871119Y-106326940D01*
X134050833Y-106268547D01*
X134219200Y-106182760D01*
X134372074Y-106071690D01*
X134505691Y-105938073D01*
X134616761Y-105785199D01*
X134702548Y-105616832D01*
X134760941Y-105437118D01*
X134790501Y-105250481D01*
X134790501Y-105061519D01*
X134790501Y-105061517D01*
X157889501Y-105061517D01*
X157889501Y-105250482D01*
X157919061Y-105437121D01*
X157977452Y-105616827D01*
X157977454Y-105616832D01*
X158063241Y-105785199D01*
X158174311Y-105938073D01*
X158307928Y-106071690D01*
X158460802Y-106182760D01*
X158629169Y-106268547D01*
X158719026Y-106297743D01*
X158808879Y-106326939D01*
X158808881Y-106326939D01*
X158808883Y-106326940D01*
X158995520Y-106356500D01*
X158995521Y-106356500D01*
X159184481Y-106356500D01*
X159184482Y-106356500D01*
X159371119Y-106326940D01*
X159550833Y-106268547D01*
X159719200Y-106182760D01*
X159872074Y-106071690D01*
X160005691Y-105938073D01*
X160116761Y-105785199D01*
X160202548Y-105616832D01*
X160260941Y-105437118D01*
X160290501Y-105250481D01*
X160290501Y-105061519D01*
X160260941Y-104874882D01*
X160202548Y-104695168D01*
X160116761Y-104526801D01*
X160005691Y-104373927D01*
X159872074Y-104240310D01*
X159719200Y-104129240D01*
X159550833Y-104043453D01*
X159550830Y-104043452D01*
X159550828Y-104043451D01*
X159371122Y-103985060D01*
X159371123Y-103985060D01*
X159184483Y-103955500D01*
X159184482Y-103955500D01*
X158995520Y-103955500D01*
X158995518Y-103955500D01*
X158808879Y-103985060D01*
X158629173Y-104043451D01*
X158629169Y-104043452D01*
X158629169Y-104043453D01*
X158460802Y-104129240D01*
X158460801Y-104129241D01*
X158307927Y-104240311D01*
X158174312Y-104373926D01*
X158063242Y-104526800D01*
X157977452Y-104695172D01*
X157919061Y-104874878D01*
X157889501Y-105061517D01*
X134790501Y-105061517D01*
X134760941Y-104874882D01*
X134702548Y-104695168D01*
X134616761Y-104526801D01*
X134505691Y-104373927D01*
X134372074Y-104240310D01*
X134219200Y-104129240D01*
X134050833Y-104043453D01*
X134050830Y-104043452D01*
X134050828Y-104043451D01*
X133871122Y-103985060D01*
X133871123Y-103985060D01*
X133684483Y-103955500D01*
X133684482Y-103955500D01*
X133495520Y-103955500D01*
X133495518Y-103955500D01*
X133308879Y-103985060D01*
X133129173Y-104043451D01*
X133129169Y-104043452D01*
X133129169Y-104043453D01*
X132960802Y-104129240D01*
X132960801Y-104129241D01*
X132807927Y-104240311D01*
X132674312Y-104373926D01*
X132563242Y-104526800D01*
X132477452Y-104695172D01*
X132419061Y-104874878D01*
X132389501Y-105061517D01*
X110928500Y-105061517D01*
X110898940Y-104874882D01*
X110840547Y-104695168D01*
X110754760Y-104526801D01*
X110643690Y-104373927D01*
X110510073Y-104240310D01*
X110357199Y-104129240D01*
X110188832Y-104043453D01*
X110188829Y-104043452D01*
X110188827Y-104043451D01*
X110009121Y-103985060D01*
X110009122Y-103985060D01*
X109822482Y-103955500D01*
X109822481Y-103955500D01*
X109633519Y-103955500D01*
X109633517Y-103955500D01*
X109446878Y-103985060D01*
X109267172Y-104043451D01*
X109267168Y-104043452D01*
X109267168Y-104043453D01*
X109098801Y-104129240D01*
X109098800Y-104129241D01*
X108945926Y-104240311D01*
X108812311Y-104373926D01*
X108701241Y-104526800D01*
X108615451Y-104695172D01*
X108557060Y-104874878D01*
X108527500Y-105061517D01*
X92150500Y-105061517D01*
X92150500Y-102656952D01*
X92171317Y-102592883D01*
X92225817Y-102553287D01*
X92260041Y-102547954D01*
X97098147Y-102572358D01*
X97162106Y-102593497D01*
X97185776Y-102617288D01*
X97204207Y-102642656D01*
X97382344Y-102820793D01*
X97382347Y-102820795D01*
X97382351Y-102820798D01*
X97586150Y-102968867D01*
X97586152Y-102968868D01*
X97586155Y-102968870D01*
X97810621Y-103083241D01*
X97888305Y-103108482D01*
X98050210Y-103161089D01*
X98050213Y-103161089D01*
X98050215Y-103161090D01*
X98299038Y-103200500D01*
X98550962Y-103200500D01*
X98799785Y-103161090D01*
X98799787Y-103161089D01*
X98799789Y-103161089D01*
X98877469Y-103135848D01*
X99039379Y-103083241D01*
X99263845Y-102968870D01*
X99467656Y-102820793D01*
X99645793Y-102642656D01*
X99654528Y-102630632D01*
X99709021Y-102591036D01*
X99743250Y-102585700D01*
X112692776Y-102651020D01*
X112692776Y-102651019D01*
X112695379Y-102642652D01*
X112847517Y-102153488D01*
X112978083Y-101733686D01*
X118139501Y-101733686D01*
X118139501Y-101852311D01*
X118170202Y-101966885D01*
X118170201Y-101966885D01*
X118221564Y-102055846D01*
X118229512Y-102069612D01*
X118313388Y-102153488D01*
X118416115Y-102212798D01*
X118530692Y-102243499D01*
X118530694Y-102243499D01*
X118649308Y-102243499D01*
X118649310Y-102243499D01*
X118763887Y-102212798D01*
X118866614Y-102153488D01*
X118950490Y-102069612D01*
X119009800Y-101966885D01*
X119040501Y-101852308D01*
X119040501Y-101733690D01*
X119040500Y-101733686D01*
X124639501Y-101733686D01*
X124639501Y-101852311D01*
X124670202Y-101966885D01*
X124670201Y-101966885D01*
X124721564Y-102055846D01*
X124729512Y-102069612D01*
X124813388Y-102153488D01*
X124916115Y-102212798D01*
X125030692Y-102243499D01*
X125030694Y-102243499D01*
X125149308Y-102243499D01*
X125149310Y-102243499D01*
X125263887Y-102212798D01*
X125366614Y-102153488D01*
X125450490Y-102069612D01*
X125509800Y-101966885D01*
X125540501Y-101852308D01*
X125540501Y-101733690D01*
X125509800Y-101619113D01*
X125509799Y-101619112D01*
X125509800Y-101619112D01*
X125480145Y-101567749D01*
X125450490Y-101516386D01*
X125366614Y-101432510D01*
X125263887Y-101373200D01*
X125149313Y-101342499D01*
X125149310Y-101342499D01*
X125030692Y-101342499D01*
X125030688Y-101342499D01*
X124916114Y-101373200D01*
X124813389Y-101432509D01*
X124729511Y-101516387D01*
X124670202Y-101619112D01*
X124639501Y-101733686D01*
X119040500Y-101733686D01*
X119009800Y-101619113D01*
X119009799Y-101619112D01*
X119009800Y-101619112D01*
X118980145Y-101567749D01*
X118950490Y-101516386D01*
X118866614Y-101432510D01*
X118763887Y-101373200D01*
X118649313Y-101342499D01*
X118649310Y-101342499D01*
X118530692Y-101342499D01*
X118530688Y-101342499D01*
X118416114Y-101373200D01*
X118313389Y-101432509D01*
X118229511Y-101516387D01*
X118170202Y-101619112D01*
X118139501Y-101733686D01*
X112978083Y-101733686D01*
X112990372Y-101694175D01*
X113323133Y-100624259D01*
X113323134Y-100624256D01*
X113323135Y-100624254D01*
X113332138Y-97173251D01*
X132209501Y-97173251D01*
X132209501Y-98912747D01*
X132218807Y-98959533D01*
X132221134Y-98971231D01*
X132265446Y-99037548D01*
X132265451Y-99037553D01*
X132331768Y-99081865D01*
X132331770Y-99081866D01*
X132390253Y-99093499D01*
X132390256Y-99093499D01*
X134129745Y-99093499D01*
X134129749Y-99093499D01*
X134188232Y-99081866D01*
X134254553Y-99037551D01*
X134298868Y-98971230D01*
X134310501Y-98912747D01*
X134310501Y-97939534D01*
X134749501Y-97939534D01*
X134749501Y-98146464D01*
X134789871Y-98349418D01*
X134789872Y-98349421D01*
X134869057Y-98540593D01*
X134869060Y-98540598D01*
X134983249Y-98711494D01*
X134984024Y-98712654D01*
X135130346Y-98858976D01*
X135210815Y-98912743D01*
X135302401Y-98973939D01*
X135302406Y-98973942D01*
X135397992Y-99013534D01*
X135493581Y-99053129D01*
X135696536Y-99093499D01*
X135696539Y-99093499D01*
X135903462Y-99093499D01*
X135903466Y-99093499D01*
X136106421Y-99053129D01*
X136254287Y-98991880D01*
X136297595Y-98973942D01*
X136297596Y-98973940D01*
X136297599Y-98973940D01*
X136469656Y-98858976D01*
X136615978Y-98712654D01*
X136730942Y-98540597D01*
X136810131Y-98349419D01*
X136850501Y-98146464D01*
X136850501Y-97939534D01*
X137289501Y-97939534D01*
X137289501Y-98146464D01*
X137329871Y-98349418D01*
X137329872Y-98349421D01*
X137409057Y-98540593D01*
X137409060Y-98540598D01*
X137523249Y-98711494D01*
X137524024Y-98712654D01*
X137670346Y-98858976D01*
X137750815Y-98912743D01*
X137842401Y-98973939D01*
X137842406Y-98973942D01*
X137937992Y-99013534D01*
X138033581Y-99053129D01*
X138236536Y-99093499D01*
X138236539Y-99093499D01*
X138443462Y-99093499D01*
X138443466Y-99093499D01*
X138646421Y-99053129D01*
X138794287Y-98991880D01*
X138837595Y-98973942D01*
X138837596Y-98973940D01*
X138837599Y-98973940D01*
X139009656Y-98858976D01*
X139155978Y-98712654D01*
X139270942Y-98540597D01*
X139350131Y-98349419D01*
X139390501Y-98146464D01*
X139390501Y-97939534D01*
X139350131Y-97736579D01*
X139310536Y-97640990D01*
X139270944Y-97545404D01*
X139270941Y-97545399D01*
X139155979Y-97373346D01*
X139155978Y-97373344D01*
X139009656Y-97227022D01*
X138929186Y-97173254D01*
X138837600Y-97112058D01*
X138837595Y-97112055D01*
X138646423Y-97032870D01*
X138646425Y-97032870D01*
X138646421Y-97032869D01*
X138443466Y-96992499D01*
X138236536Y-96992499D01*
X138033581Y-97032869D01*
X138033578Y-97032870D01*
X137842406Y-97112055D01*
X137842401Y-97112058D01*
X137670348Y-97227020D01*
X137524022Y-97373346D01*
X137409060Y-97545399D01*
X137409057Y-97545404D01*
X137329872Y-97736576D01*
X137329871Y-97736579D01*
X137289501Y-97939534D01*
X136850501Y-97939534D01*
X136810131Y-97736579D01*
X136770536Y-97640990D01*
X136730944Y-97545404D01*
X136730941Y-97545399D01*
X136615979Y-97373346D01*
X136615978Y-97373344D01*
X136469656Y-97227022D01*
X136389186Y-97173254D01*
X136297600Y-97112058D01*
X136297595Y-97112055D01*
X136106423Y-97032870D01*
X136106425Y-97032870D01*
X136106421Y-97032869D01*
X135903466Y-96992499D01*
X135696536Y-96992499D01*
X135493581Y-97032869D01*
X135493578Y-97032870D01*
X135302406Y-97112055D01*
X135302401Y-97112058D01*
X135130348Y-97227020D01*
X134984022Y-97373346D01*
X134869060Y-97545399D01*
X134869057Y-97545404D01*
X134789872Y-97736576D01*
X134789871Y-97736579D01*
X134749501Y-97939534D01*
X134310501Y-97939534D01*
X134310501Y-97173251D01*
X134298868Y-97114768D01*
X134298867Y-97114766D01*
X134254555Y-97048449D01*
X134254550Y-97048444D01*
X134188233Y-97004132D01*
X134173611Y-97001223D01*
X134129749Y-96992499D01*
X132390253Y-96992499D01*
X132355163Y-96999478D01*
X132331768Y-97004132D01*
X132265451Y-97048444D01*
X132265446Y-97048449D01*
X132221134Y-97114766D01*
X132221134Y-97114768D01*
X132209501Y-97173251D01*
X113332138Y-97173251D01*
X113354009Y-88789187D01*
X116084000Y-88789187D01*
X116084000Y-88907812D01*
X116114701Y-89022386D01*
X116114700Y-89022386D01*
X116166063Y-89111347D01*
X116174011Y-89125113D01*
X116257887Y-89208989D01*
X116360614Y-89268299D01*
X116475191Y-89299000D01*
X116475193Y-89299000D01*
X116593807Y-89299000D01*
X116593809Y-89299000D01*
X116708386Y-89268299D01*
X116811113Y-89208989D01*
X116894989Y-89125113D01*
X116954299Y-89022386D01*
X116985000Y-88907809D01*
X116985000Y-88789191D01*
X116954299Y-88674614D01*
X116954298Y-88674613D01*
X116954299Y-88674613D01*
X116924644Y-88623250D01*
X116894989Y-88571887D01*
X116811113Y-88488011D01*
X116708386Y-88428701D01*
X116593812Y-88398000D01*
X116593809Y-88398000D01*
X116475191Y-88398000D01*
X116475187Y-88398000D01*
X116360613Y-88428701D01*
X116257888Y-88488010D01*
X116174010Y-88571888D01*
X116114701Y-88674613D01*
X116084000Y-88789187D01*
X113354009Y-88789187D01*
X113362025Y-85716487D01*
X115754500Y-85716487D01*
X115754500Y-85835112D01*
X115785201Y-85949686D01*
X115785200Y-85949686D01*
X115830000Y-86027279D01*
X115844511Y-86052413D01*
X115865825Y-86073727D01*
X115896407Y-86133749D01*
X115885869Y-86200285D01*
X115865826Y-86227871D01*
X115844511Y-86249187D01*
X115844510Y-86249188D01*
X115785201Y-86351913D01*
X115754500Y-86466487D01*
X115754500Y-86585112D01*
X115785201Y-86699686D01*
X115785200Y-86699686D01*
X115830000Y-86777279D01*
X115844511Y-86802413D01*
X115928387Y-86886289D01*
X116031114Y-86945599D01*
X116145691Y-86976300D01*
X116145693Y-86976300D01*
X116264307Y-86976300D01*
X116264309Y-86976300D01*
X116378886Y-86945599D01*
X116481613Y-86886289D01*
X116502927Y-86864974D01*
X116562949Y-86834393D01*
X116629485Y-86844931D01*
X116657071Y-86864973D01*
X116678387Y-86886289D01*
X116781114Y-86945599D01*
X116895691Y-86976300D01*
X116895693Y-86976300D01*
X117014307Y-86976300D01*
X117014309Y-86976300D01*
X117128886Y-86945599D01*
X117231613Y-86886289D01*
X117315489Y-86802413D01*
X117374799Y-86699686D01*
X117405500Y-86585109D01*
X117405500Y-86466491D01*
X117374799Y-86351914D01*
X117374798Y-86351913D01*
X117374799Y-86351913D01*
X117340495Y-86292499D01*
X117315489Y-86249187D01*
X117294174Y-86227872D01*
X117263593Y-86167851D01*
X117274131Y-86101315D01*
X117294173Y-86073728D01*
X117315489Y-86052413D01*
X117374799Y-85949686D01*
X117405500Y-85835109D01*
X117405500Y-85716491D01*
X117374799Y-85601914D01*
X117374798Y-85601913D01*
X117374799Y-85601913D01*
X117345144Y-85550550D01*
X117315489Y-85499187D01*
X117231613Y-85415311D01*
X117128886Y-85356001D01*
X117014312Y-85325300D01*
X117014309Y-85325300D01*
X116895691Y-85325300D01*
X116895687Y-85325300D01*
X116781113Y-85356001D01*
X116678388Y-85415310D01*
X116678387Y-85415310D01*
X116678387Y-85415311D01*
X116657072Y-85436625D01*
X116597051Y-85467207D01*
X116530515Y-85456669D01*
X116502928Y-85436626D01*
X116481613Y-85415311D01*
X116378886Y-85356001D01*
X116264312Y-85325300D01*
X116264309Y-85325300D01*
X116145691Y-85325300D01*
X116145687Y-85325300D01*
X116031113Y-85356001D01*
X115928388Y-85415310D01*
X115844510Y-85499188D01*
X115785201Y-85601913D01*
X115754500Y-85716487D01*
X113362025Y-85716487D01*
X113371697Y-82008714D01*
X113392682Y-81944702D01*
X113447285Y-81905247D01*
X113480697Y-81900000D01*
X125591000Y-81900000D01*
X125655069Y-81920817D01*
G37*
%TD.AperFunction*%
%TD*%
M02*
