%TF.GenerationSoftware,KiCad,Pcbnew,9.0.3*%
%TF.CreationDate,2025-09-08T16:46:22-04:00*%
%TF.ProjectId,ECG,4543472e-6b69-4636-9164-5f7063625858,rev?*%
%TF.SameCoordinates,Original*%
%TF.FileFunction,Legend,Bot*%
%TF.FilePolarity,Positive*%
%FSLAX46Y46*%
G04 Gerber Fmt 4.6, Leading zero omitted, Abs format (unit mm)*
G04 Created by KiCad (PCBNEW 9.0.3) date 2025-09-08 16:46:22*
%MOMM*%
%LPD*%
G01*
G04 APERTURE LIST*
%ADD10C,0.150000*%
%ADD11C,0.000000*%
%ADD12C,0.120000*%
G04 APERTURE END LIST*
D10*
X151023334Y-79447818D02*
X151023334Y-80162103D01*
X151023334Y-80162103D02*
X151070953Y-80304960D01*
X151070953Y-80304960D02*
X151166191Y-80400199D01*
X151166191Y-80400199D02*
X151309048Y-80447818D01*
X151309048Y-80447818D02*
X151404286Y-80447818D01*
X150547143Y-80447818D02*
X150547143Y-79447818D01*
X150547143Y-79447818D02*
X150166191Y-79447818D01*
X150166191Y-79447818D02*
X150070953Y-79495437D01*
X150070953Y-79495437D02*
X150023334Y-79543056D01*
X150023334Y-79543056D02*
X149975715Y-79638294D01*
X149975715Y-79638294D02*
X149975715Y-79781151D01*
X149975715Y-79781151D02*
X150023334Y-79876389D01*
X150023334Y-79876389D02*
X150070953Y-79924008D01*
X150070953Y-79924008D02*
X150166191Y-79971627D01*
X150166191Y-79971627D02*
X150547143Y-79971627D01*
X149023334Y-80447818D02*
X149594762Y-80447818D01*
X149309048Y-80447818D02*
X149309048Y-79447818D01*
X149309048Y-79447818D02*
X149404286Y-79590675D01*
X149404286Y-79590675D02*
X149499524Y-79685913D01*
X149499524Y-79685913D02*
X149594762Y-79733532D01*
X144998333Y-36687819D02*
X144998333Y-37402104D01*
X144998333Y-37402104D02*
X145045952Y-37544961D01*
X145045952Y-37544961D02*
X145141190Y-37640200D01*
X145141190Y-37640200D02*
X145284047Y-37687819D01*
X145284047Y-37687819D02*
X145379285Y-37687819D01*
X144522142Y-37687819D02*
X144522142Y-36687819D01*
X144522142Y-36687819D02*
X144141190Y-36687819D01*
X144141190Y-36687819D02*
X144045952Y-36735438D01*
X144045952Y-36735438D02*
X143998333Y-36783057D01*
X143998333Y-36783057D02*
X143950714Y-36878295D01*
X143950714Y-36878295D02*
X143950714Y-37021152D01*
X143950714Y-37021152D02*
X143998333Y-37116390D01*
X143998333Y-37116390D02*
X144045952Y-37164009D01*
X144045952Y-37164009D02*
X144141190Y-37211628D01*
X144141190Y-37211628D02*
X144522142Y-37211628D01*
X143569761Y-36783057D02*
X143522142Y-36735438D01*
X143522142Y-36735438D02*
X143426904Y-36687819D01*
X143426904Y-36687819D02*
X143188809Y-36687819D01*
X143188809Y-36687819D02*
X143093571Y-36735438D01*
X143093571Y-36735438D02*
X143045952Y-36783057D01*
X143045952Y-36783057D02*
X142998333Y-36878295D01*
X142998333Y-36878295D02*
X142998333Y-36973533D01*
X142998333Y-36973533D02*
X143045952Y-37116390D01*
X143045952Y-37116390D02*
X143617380Y-37687819D01*
X143617380Y-37687819D02*
X142998333Y-37687819D01*
D11*
%TO.C,G\u002A\u002A\u002A*%
G36*
X127173762Y-114336299D02*
G01*
X127173762Y-115108764D01*
X126401297Y-115108764D01*
X125628831Y-115108764D01*
X125628831Y-114336299D01*
X125628831Y-113563833D01*
X126401297Y-113563833D01*
X127173762Y-113563833D01*
X127173762Y-114336299D01*
G37*
G36*
X127173762Y-127725703D02*
G01*
X127173762Y-128498169D01*
X126401297Y-128498169D01*
X125628831Y-128498169D01*
X125628831Y-127725703D01*
X125628831Y-126953238D01*
X126401297Y-126953238D01*
X127173762Y-126953238D01*
X127173762Y-127725703D01*
G37*
G36*
X128203716Y-117941138D02*
G01*
X128203716Y-118198627D01*
X127946228Y-118198627D01*
X127688739Y-118198627D01*
X127688739Y-117941138D01*
X127688739Y-117683650D01*
X127946228Y-117683650D01*
X128203716Y-117683650D01*
X128203716Y-117941138D01*
G37*
G36*
X129233671Y-117941138D02*
G01*
X129233671Y-118198627D01*
X128976182Y-118198627D01*
X128718694Y-118198627D01*
X128718694Y-117941138D01*
X128718694Y-117683650D01*
X128976182Y-117683650D01*
X129233671Y-117683650D01*
X129233671Y-117941138D01*
G37*
G36*
X130263625Y-112791367D02*
G01*
X130263625Y-113048856D01*
X129491159Y-113048856D01*
X128718694Y-113048856D01*
X128718694Y-112791367D01*
X128718694Y-112533879D01*
X129491159Y-112533879D01*
X130263625Y-112533879D01*
X130263625Y-112791367D01*
G37*
G36*
X130263625Y-117426161D02*
G01*
X130263625Y-118198627D01*
X130006136Y-118198627D01*
X129748648Y-118198627D01*
X129748648Y-117426161D01*
X129748648Y-116653696D01*
X130006136Y-116653696D01*
X130263625Y-116653696D01*
X130263625Y-117426161D01*
G37*
G36*
X130263625Y-124120864D02*
G01*
X130263625Y-124378352D01*
X130006136Y-124378352D01*
X129748648Y-124378352D01*
X129748648Y-124120864D01*
X129748648Y-123863375D01*
X130006136Y-123863375D01*
X130263625Y-123863375D01*
X130263625Y-124120864D01*
G37*
G36*
X130778602Y-123090909D02*
G01*
X130778602Y-123348398D01*
X130521113Y-123348398D01*
X130263625Y-123348398D01*
X130263625Y-123090909D01*
X130263625Y-122833421D01*
X130521113Y-122833421D01*
X130778602Y-122833421D01*
X130778602Y-123090909D01*
G37*
G36*
X131808556Y-116911184D02*
G01*
X131808556Y-117168673D01*
X131551068Y-117168673D01*
X131293579Y-117168673D01*
X131293579Y-116911184D01*
X131293579Y-116653696D01*
X131551068Y-116653696D01*
X131808556Y-116653696D01*
X131808556Y-116911184D01*
G37*
G36*
X133353488Y-121031001D02*
G01*
X133353488Y-121288490D01*
X133095999Y-121288490D01*
X132838510Y-121288490D01*
X132838510Y-121031001D01*
X132838510Y-120773512D01*
X133095999Y-120773512D01*
X133353488Y-120773512D01*
X133353488Y-121031001D01*
G37*
G36*
X133353488Y-129013146D02*
G01*
X133353488Y-129528123D01*
X133095999Y-129528123D01*
X132838510Y-129528123D01*
X132838510Y-129013146D01*
X132838510Y-128498169D01*
X133095999Y-128498169D01*
X133353488Y-128498169D01*
X133353488Y-129013146D01*
G37*
G36*
X133868465Y-122575932D02*
G01*
X133868465Y-122833421D01*
X133610976Y-122833421D01*
X133353488Y-122833421D01*
X133353488Y-122575932D01*
X133353488Y-122318444D01*
X133610976Y-122318444D01*
X133868465Y-122318444D01*
X133868465Y-122575932D01*
G37*
G36*
X134898419Y-117426161D02*
G01*
X134898419Y-117683650D01*
X134640930Y-117683650D01*
X134383442Y-117683650D01*
X134383442Y-117426161D01*
X134383442Y-117168673D01*
X134640930Y-117168673D01*
X134898419Y-117168673D01*
X134898419Y-117426161D01*
G37*
G36*
X136443350Y-116911184D02*
G01*
X136443350Y-117168673D01*
X136185862Y-117168673D01*
X135928373Y-117168673D01*
X135928373Y-116911184D01*
X135928373Y-116653696D01*
X136185862Y-116653696D01*
X136443350Y-116653696D01*
X136443350Y-116911184D01*
G37*
G36*
X138503259Y-115881230D02*
G01*
X138503259Y-116138718D01*
X138245770Y-116138718D01*
X137988282Y-116138718D01*
X137988282Y-115881230D01*
X137988282Y-115623741D01*
X138245770Y-115623741D01*
X138503259Y-115623741D01*
X138503259Y-115881230D01*
G37*
G36*
X140563167Y-112791367D02*
G01*
X140563167Y-113048856D01*
X140305679Y-113048856D01*
X140048190Y-113048856D01*
X140048190Y-112791367D01*
X140048190Y-112533879D01*
X140305679Y-112533879D01*
X140563167Y-112533879D01*
X140563167Y-112791367D01*
G37*
G36*
X140563167Y-127725703D02*
G01*
X140563167Y-128498169D01*
X139790701Y-128498169D01*
X139018236Y-128498169D01*
X139018236Y-127725703D01*
X139018236Y-126953238D01*
X139790701Y-126953238D01*
X140563167Y-126953238D01*
X140563167Y-127725703D01*
G37*
G36*
X141078144Y-116911184D02*
G01*
X141078144Y-117168673D01*
X140820656Y-117168673D01*
X140563167Y-117168673D01*
X140563167Y-116911184D01*
X140563167Y-116653696D01*
X140820656Y-116653696D01*
X141078144Y-116653696D01*
X141078144Y-116911184D01*
G37*
G36*
X141593121Y-113306344D02*
G01*
X141593121Y-113563833D01*
X141335633Y-113563833D01*
X141078144Y-113563833D01*
X141078144Y-113306344D01*
X141078144Y-113048856D01*
X141335633Y-113048856D01*
X141593121Y-113048856D01*
X141593121Y-113306344D01*
G37*
G36*
X141593121Y-114336299D02*
G01*
X141593121Y-114593787D01*
X141335633Y-114593787D01*
X141078144Y-114593787D01*
X141078144Y-114336299D01*
X141078144Y-114078810D01*
X141335633Y-114078810D01*
X141593121Y-114078810D01*
X141593121Y-114336299D01*
G37*
G36*
X141593121Y-116396207D02*
G01*
X141593121Y-116653696D01*
X141335633Y-116653696D01*
X141078144Y-116653696D01*
X141078144Y-116396207D01*
X141078144Y-116138718D01*
X141335633Y-116138718D01*
X141593121Y-116138718D01*
X141593121Y-116396207D01*
G37*
G36*
X141593121Y-123863375D02*
G01*
X141593121Y-124378352D01*
X141078144Y-124378352D01*
X140563167Y-124378352D01*
X140563167Y-124120864D01*
X140563167Y-123863375D01*
X140820656Y-123863375D01*
X141078144Y-123863375D01*
X141078144Y-123605887D01*
X141078144Y-123348398D01*
X141335633Y-123348398D01*
X141593121Y-123348398D01*
X141593121Y-123863375D01*
G37*
G36*
X128461205Y-117168673D02*
G01*
X128718694Y-117168673D01*
X128718694Y-117426161D01*
X128718694Y-117683650D01*
X128461205Y-117683650D01*
X128203716Y-117683650D01*
X128203716Y-117426161D01*
X128203716Y-117168673D01*
X128461205Y-117168673D01*
G37*
G36*
X128203716Y-116911184D02*
G01*
X128203716Y-117168673D01*
X127946228Y-117168673D01*
X127688739Y-117168673D01*
X127688739Y-116911184D01*
X127688739Y-116653696D01*
X127946228Y-116653696D01*
X128203716Y-116653696D01*
X128203716Y-116911184D01*
G37*
G36*
X128203716Y-114336299D02*
G01*
X128203716Y-116138718D01*
X126401297Y-116138718D01*
X124598877Y-116138718D01*
X124598877Y-115590517D01*
X125147078Y-115590517D01*
X126401297Y-115590517D01*
X127655515Y-115590517D01*
X127655515Y-114336299D01*
X127655515Y-113082080D01*
X126401297Y-113082080D01*
X125147078Y-113082080D01*
X125147078Y-114336299D01*
X125147078Y-115590517D01*
X124598877Y-115590517D01*
X124598877Y-114336299D01*
X124598877Y-112533879D01*
X126401297Y-112533879D01*
X128203716Y-112533879D01*
X128203716Y-114336299D01*
G37*
G36*
X128203716Y-127725703D02*
G01*
X128203716Y-129528123D01*
X126401297Y-129528123D01*
X124598877Y-129528123D01*
X124598877Y-128979922D01*
X125147078Y-128979922D01*
X126401297Y-128979922D01*
X127655515Y-128979922D01*
X127655515Y-127725703D01*
X127655515Y-126471485D01*
X126401297Y-126471485D01*
X125147078Y-126471485D01*
X125147078Y-127725703D01*
X125147078Y-128979922D01*
X124598877Y-128979922D01*
X124598877Y-127725703D01*
X124598877Y-125923284D01*
X126401297Y-125923284D01*
X128203716Y-125923284D01*
X128203716Y-127725703D01*
G37*
G36*
X141593121Y-127725703D02*
G01*
X141593121Y-129528123D01*
X139790701Y-129528123D01*
X137988282Y-129528123D01*
X137988282Y-128979922D01*
X138536483Y-128979922D01*
X139790701Y-128979922D01*
X141044920Y-128979922D01*
X141044920Y-127725703D01*
X141044920Y-126471485D01*
X139790701Y-126471485D01*
X138536483Y-126471485D01*
X138536483Y-127725703D01*
X138536483Y-128979922D01*
X137988282Y-128979922D01*
X137988282Y-127725703D01*
X137988282Y-125923284D01*
X139790701Y-125923284D01*
X141593121Y-125923284D01*
X141593121Y-127725703D01*
G37*
G36*
X134898419Y-113048856D02*
G01*
X134898419Y-113563833D01*
X134640930Y-113563833D01*
X134383442Y-113563833D01*
X134383442Y-113306344D01*
X134383442Y-113048856D01*
X134125953Y-113048856D01*
X133868465Y-113048856D01*
X133868465Y-113306344D01*
X133868465Y-113563833D01*
X133610976Y-113563833D01*
X133353488Y-113563833D01*
X133353488Y-113306344D01*
X133353488Y-113048856D01*
X133095999Y-113048856D01*
X132838510Y-113048856D01*
X132838510Y-112791367D01*
X132838510Y-112533879D01*
X133868465Y-112533879D01*
X134898419Y-112533879D01*
X134898419Y-113048856D01*
G37*
G36*
X136443350Y-127983192D02*
G01*
X136443350Y-128498169D01*
X136700839Y-128498169D01*
X136958327Y-128498169D01*
X136958327Y-128240681D01*
X136958327Y-127983192D01*
X137215816Y-127983192D01*
X137473304Y-127983192D01*
X137473304Y-128498169D01*
X137473304Y-129013146D01*
X137215816Y-129013146D01*
X136958327Y-129013146D01*
X136958327Y-129270635D01*
X136958327Y-129528123D01*
X136700839Y-129528123D01*
X136443350Y-129528123D01*
X136443350Y-129270635D01*
X136443350Y-129013146D01*
X136185862Y-129013146D01*
X135928373Y-129013146D01*
X135928373Y-129270635D01*
X135928373Y-129528123D01*
X134898419Y-129528123D01*
X133868465Y-129528123D01*
X133868465Y-129270635D01*
X133868465Y-129013146D01*
X134898419Y-129013146D01*
X135928373Y-129013146D01*
X135928373Y-128240681D01*
X135928373Y-127468215D01*
X136185862Y-127468215D01*
X136443350Y-127468215D01*
X136443350Y-127983192D01*
G37*
G36*
X127173762Y-120001047D02*
G01*
X127173762Y-120258535D01*
X127431251Y-120258535D01*
X127688739Y-120258535D01*
X127688739Y-120001047D01*
X127688739Y-119743558D01*
X127946228Y-119743558D01*
X128203716Y-119743558D01*
X128203716Y-120001047D01*
X128203716Y-120258535D01*
X128461205Y-120258535D01*
X128718694Y-120258535D01*
X128718694Y-120001047D01*
X128718694Y-119743558D01*
X128976182Y-119743558D01*
X129233671Y-119743558D01*
X129233671Y-120258535D01*
X129233671Y-120773512D01*
X128718694Y-120773512D01*
X128203716Y-120773512D01*
X128203716Y-120516024D01*
X128203716Y-120258535D01*
X127946228Y-120258535D01*
X127688739Y-120258535D01*
X127688739Y-120516024D01*
X127688739Y-120773512D01*
X127946228Y-120773512D01*
X128203716Y-120773512D01*
X128203716Y-121031001D01*
X128203716Y-121288490D01*
X127946228Y-121288490D01*
X127688739Y-121288490D01*
X127688739Y-121545978D01*
X127688739Y-121803467D01*
X127431251Y-121803467D01*
X127173762Y-121803467D01*
X127173762Y-121288490D01*
X127173762Y-120773512D01*
X126916274Y-120773512D01*
X126658785Y-120773512D01*
X126658785Y-120258535D01*
X126658785Y-119743558D01*
X126916274Y-119743558D01*
X127173762Y-119743558D01*
X127173762Y-120001047D01*
G37*
G36*
X132838510Y-117683650D02*
G01*
X132838510Y-118198627D01*
X133095999Y-118198627D01*
X133353488Y-118198627D01*
X133353488Y-117941138D01*
X133353488Y-117683650D01*
X133868465Y-117683650D01*
X134383442Y-117683650D01*
X134383442Y-117941138D01*
X134383442Y-118198627D01*
X133868465Y-118198627D01*
X133353488Y-118198627D01*
X133353488Y-118713604D01*
X133353488Y-119228581D01*
X133095999Y-119228581D01*
X132838510Y-119228581D01*
X132838510Y-118971093D01*
X132838510Y-118713604D01*
X132323533Y-118713604D01*
X131808556Y-118713604D01*
X131808556Y-118971093D01*
X131808556Y-119228581D01*
X131551068Y-119228581D01*
X131293579Y-119228581D01*
X131293579Y-118713604D01*
X131293579Y-118198627D01*
X131036091Y-118198627D01*
X130778602Y-118198627D01*
X130778602Y-117941138D01*
X130778602Y-117683650D01*
X131036091Y-117683650D01*
X131293579Y-117683650D01*
X131293579Y-117941138D01*
X131293579Y-118198627D01*
X131551068Y-118198627D01*
X131808556Y-118198627D01*
X131808556Y-117941138D01*
X131808556Y-117683650D01*
X132066045Y-117683650D01*
X132323533Y-117683650D01*
X132323533Y-117426161D01*
X132323533Y-117168673D01*
X132581022Y-117168673D01*
X132838510Y-117168673D01*
X132838510Y-117683650D01*
G37*
G36*
X134640930Y-118198627D02*
G01*
X134898419Y-118198627D01*
X134898419Y-118456115D01*
X134898419Y-118713604D01*
X134640930Y-118713604D01*
X134383442Y-118713604D01*
X134383442Y-118456115D01*
X134383442Y-118198627D01*
X134640930Y-118198627D01*
G37*
G36*
X141078144Y-119228581D02*
G01*
X141593121Y-119228581D01*
X141593121Y-119486070D01*
X141593121Y-119743558D01*
X141335633Y-119743558D01*
X141078144Y-119743558D01*
X141078144Y-120258535D01*
X141078144Y-120773512D01*
X140820656Y-120773512D01*
X140563167Y-120773512D01*
X140563167Y-120516024D01*
X140563167Y-120258535D01*
X140305679Y-120258535D01*
X140048190Y-120258535D01*
X140048190Y-120001047D01*
X140048190Y-119743558D01*
X140305679Y-119743558D01*
X140563167Y-119743558D01*
X140563167Y-119486070D01*
X140563167Y-119228581D01*
X141078144Y-119228581D01*
G37*
G36*
X140820656Y-117683650D02*
G01*
X141593121Y-117683650D01*
X141593121Y-118198627D01*
X141593121Y-118713604D01*
X141335633Y-118713604D01*
X141078144Y-118713604D01*
X141078144Y-118456115D01*
X141078144Y-118198627D01*
X140563167Y-118198627D01*
X140048190Y-118198627D01*
X140048190Y-118456115D01*
X140048190Y-118713604D01*
X140305679Y-118713604D01*
X140563167Y-118713604D01*
X140563167Y-118971093D01*
X140563167Y-119228581D01*
X140048190Y-119228581D01*
X139533213Y-119228581D01*
X139533213Y-118713604D01*
X139533213Y-118198627D01*
X139790701Y-118198627D01*
X140048190Y-118198627D01*
X140048190Y-117941138D01*
X140048190Y-117683650D01*
X140820656Y-117683650D01*
G37*
G36*
X132323533Y-113048856D02*
G01*
X132323533Y-113563833D01*
X132838510Y-113563833D01*
X133353488Y-113563833D01*
X133353488Y-114078810D01*
X133353488Y-114593787D01*
X134125953Y-114593787D01*
X134898419Y-114593787D01*
X134898419Y-114851276D01*
X134898419Y-115108764D01*
X135413396Y-115108764D01*
X135928373Y-115108764D01*
X135928373Y-114851276D01*
X135928373Y-114593787D01*
X135670885Y-114593787D01*
X135413396Y-114593787D01*
X135413396Y-114336299D01*
X135413396Y-114078810D01*
X135670885Y-114078810D01*
X135928373Y-114078810D01*
X135928373Y-113563833D01*
X135928373Y-113048856D01*
X135670885Y-113048856D01*
X135413396Y-113048856D01*
X135413396Y-112791367D01*
X135413396Y-112533879D01*
X135670885Y-112533879D01*
X135928373Y-112533879D01*
X135928373Y-112791367D01*
X135928373Y-113048856D01*
X136185862Y-113048856D01*
X136443350Y-113048856D01*
X136443350Y-112791367D01*
X136443350Y-112533879D01*
X136700839Y-112533879D01*
X136958327Y-112533879D01*
X136958327Y-112791367D01*
X136958327Y-113048856D01*
X137215816Y-113048856D01*
X137473304Y-113048856D01*
X137473304Y-113306344D01*
X137473304Y-113563833D01*
X136958327Y-113563833D01*
X136443350Y-113563833D01*
X136443350Y-113821321D01*
X136443350Y-114078810D01*
X136185862Y-114078810D01*
X135928373Y-114078810D01*
X135928373Y-114336299D01*
X135928373Y-114593787D01*
X136185862Y-114593787D01*
X136443350Y-114593787D01*
X136443350Y-114336299D01*
X136443350Y-114078810D01*
X136700839Y-114078810D01*
X136958327Y-114078810D01*
X136958327Y-114336299D01*
X136958327Y-114593787D01*
X137730793Y-114593787D01*
X138503259Y-114593787D01*
X138503259Y-114336299D01*
X138503259Y-114078810D01*
X138245770Y-114078810D01*
X137988282Y-114078810D01*
X137988282Y-113306344D01*
X137988282Y-112533879D01*
X138245770Y-112533879D01*
X138503259Y-112533879D01*
X138503259Y-112791367D01*
X138503259Y-113048856D01*
X138760747Y-113048856D01*
X139018236Y-113048856D01*
X139018236Y-112791367D01*
X139018236Y-112533879D01*
X139275724Y-112533879D01*
X139533213Y-112533879D01*
X139533213Y-113048856D01*
X139533213Y-113563833D01*
X139275724Y-113563833D01*
X139018236Y-113563833D01*
X139018236Y-114078810D01*
X139018236Y-114593787D01*
X139275724Y-114593787D01*
X139533213Y-114593787D01*
X139533213Y-114851276D01*
X139533213Y-115108764D01*
X139790701Y-115108764D01*
X140048190Y-115108764D01*
X140048190Y-114851276D01*
X140048190Y-114593787D01*
X140563167Y-114593787D01*
X141078144Y-114593787D01*
X141078144Y-114851276D01*
X141078144Y-115108764D01*
X141335633Y-115108764D01*
X141593121Y-115108764D01*
X141593121Y-115366253D01*
X141593121Y-115623741D01*
X140563167Y-115623741D01*
X139533213Y-115623741D01*
X139533213Y-115881230D01*
X139533213Y-116138718D01*
X139790701Y-116138718D01*
X140048190Y-116138718D01*
X140048190Y-116911184D01*
X140048190Y-117683650D01*
X139533213Y-117683650D01*
X139018236Y-117683650D01*
X139018236Y-117941138D01*
X139018236Y-118198627D01*
X138760747Y-118198627D01*
X138503259Y-118198627D01*
X138503259Y-118456115D01*
X138503259Y-118713604D01*
X137988282Y-118713604D01*
X137473304Y-118713604D01*
X137473304Y-118456115D01*
X137473304Y-118198627D01*
X137215816Y-118198627D01*
X136958327Y-118198627D01*
X136958327Y-118456115D01*
X136958327Y-118713604D01*
X136700839Y-118713604D01*
X136443350Y-118713604D01*
X136443350Y-118198627D01*
X136443350Y-117683650D01*
X136700839Y-117683650D01*
X136958327Y-117683650D01*
X137473304Y-117683650D01*
X137730793Y-117683650D01*
X137988282Y-117683650D01*
X137988282Y-117426161D01*
X137988282Y-117168673D01*
X137730793Y-117168673D01*
X137473304Y-117168673D01*
X137473304Y-117426161D01*
X137473304Y-117683650D01*
X136958327Y-117683650D01*
X136958327Y-117426161D01*
X136958327Y-116911184D01*
X136958327Y-116653696D01*
X137473304Y-116653696D01*
X138245770Y-116653696D01*
X139018236Y-116653696D01*
X139018236Y-115881230D01*
X139018236Y-115108764D01*
X138245770Y-115108764D01*
X137473304Y-115108764D01*
X137473304Y-115881230D01*
X137473304Y-116653696D01*
X136958327Y-116653696D01*
X136958327Y-116138718D01*
X136700839Y-116138718D01*
X136443350Y-116138718D01*
X136443350Y-115881230D01*
X136443350Y-115623741D01*
X136185862Y-115623741D01*
X135928373Y-115623741D01*
X135928373Y-116138718D01*
X135928373Y-116653696D01*
X134898419Y-116653696D01*
X133868465Y-116653696D01*
X133868465Y-116396207D01*
X133868465Y-116138718D01*
X133610976Y-116138718D01*
X133353488Y-116138718D01*
X133353488Y-116396207D01*
X133353488Y-116653696D01*
X132581022Y-116653696D01*
X131808556Y-116653696D01*
X131808556Y-116396207D01*
X131808556Y-116138718D01*
X132323533Y-116138718D01*
X132838510Y-116138718D01*
X132838510Y-115881230D01*
X132838510Y-115623741D01*
X133095999Y-115623741D01*
X133353488Y-115623741D01*
X134383442Y-115623741D01*
X134640930Y-115623741D01*
X134898419Y-115623741D01*
X134898419Y-115366253D01*
X134898419Y-115108764D01*
X134640930Y-115108764D01*
X134383442Y-115108764D01*
X134383442Y-115366253D01*
X134383442Y-115623741D01*
X133353488Y-115623741D01*
X133353488Y-115366253D01*
X133353488Y-115108764D01*
X133095999Y-115108764D01*
X132838510Y-115108764D01*
X132838510Y-115366253D01*
X132838510Y-115623741D01*
X132323533Y-115623741D01*
X131808556Y-115623741D01*
X131808556Y-115881230D01*
X131808556Y-116138718D01*
X131551068Y-116138718D01*
X131293579Y-116138718D01*
X131293579Y-115881230D01*
X131293579Y-115623741D01*
X131036091Y-115623741D01*
X130778602Y-115623741D01*
X130778602Y-116138718D01*
X130778602Y-116653696D01*
X130521113Y-116653696D01*
X130263625Y-116653696D01*
X130263625Y-115881230D01*
X130263625Y-115366253D01*
X130263625Y-115108764D01*
X130006136Y-115108764D01*
X129748648Y-115108764D01*
X129748648Y-115881230D01*
X129748648Y-116653696D01*
X129491159Y-116653696D01*
X129233671Y-116653696D01*
X129233671Y-116911184D01*
X129233671Y-117168673D01*
X128976182Y-117168673D01*
X128718694Y-117168673D01*
X128718694Y-116138718D01*
X128718694Y-115108764D01*
X129233671Y-115108764D01*
X129748648Y-115108764D01*
X129748648Y-114851276D01*
X129748648Y-114593787D01*
X129233671Y-114593787D01*
X128718694Y-114593787D01*
X128718694Y-114078810D01*
X128718694Y-113563833D01*
X128976182Y-113563833D01*
X129233671Y-113563833D01*
X129233671Y-113821321D01*
X129233671Y-114078810D01*
X129748648Y-114078810D01*
X130263625Y-114078810D01*
X130263625Y-114593787D01*
X130263625Y-115108764D01*
X130521113Y-115108764D01*
X130778602Y-115108764D01*
X130778602Y-114851276D01*
X130778602Y-114593787D01*
X131036091Y-114593787D01*
X131293579Y-114593787D01*
X131293579Y-114336299D01*
X131293579Y-114078810D01*
X131551068Y-114078810D01*
X131808556Y-114078810D01*
X131808556Y-114336299D01*
X131808556Y-114593787D01*
X132323533Y-114593787D01*
X132838510Y-114593787D01*
X132838510Y-114336299D01*
X132838510Y-114078810D01*
X132323533Y-114078810D01*
X131808556Y-114078810D01*
X131808556Y-113821321D01*
X131808556Y-113563833D01*
X131551068Y-113563833D01*
X131293579Y-113563833D01*
X131293579Y-113821321D01*
X131293579Y-114078810D01*
X131036091Y-114078810D01*
X130778602Y-114078810D01*
X130778602Y-113563833D01*
X130778602Y-113048856D01*
X131036091Y-113048856D01*
X131293579Y-113048856D01*
X131293579Y-112791367D01*
X131293579Y-112533879D01*
X131808556Y-112533879D01*
X132323533Y-112533879D01*
X132323533Y-113048856D01*
G37*
G36*
X131808556Y-124378352D02*
G01*
X131808556Y-124893329D01*
X131551068Y-124893329D01*
X131293579Y-124893329D01*
X131293579Y-125923284D01*
X131293579Y-126953238D01*
X131036091Y-126953238D01*
X130778602Y-126953238D01*
X130778602Y-127725703D01*
X130778602Y-128498169D01*
X131036091Y-128498169D01*
X131293579Y-128498169D01*
X131293579Y-128240681D01*
X131293579Y-127983192D01*
X131808556Y-127983192D01*
X132323533Y-127983192D01*
X132323533Y-128755658D01*
X132323533Y-129528123D01*
X132066045Y-129528123D01*
X131808556Y-129528123D01*
X131808556Y-129013146D01*
X131808556Y-128498169D01*
X131551068Y-128498169D01*
X131293579Y-128498169D01*
X131293579Y-129013146D01*
X131293579Y-129528123D01*
X131036091Y-129528123D01*
X130778602Y-129528123D01*
X130778602Y-129270635D01*
X130778602Y-129013146D01*
X130521113Y-129013146D01*
X130263625Y-129013146D01*
X130263625Y-129270635D01*
X130263625Y-129528123D01*
X130006136Y-129528123D01*
X129748648Y-129528123D01*
X129748648Y-129270635D01*
X129748648Y-129013146D01*
X130006136Y-129013146D01*
X130263625Y-129013146D01*
X130263625Y-128240681D01*
X130263625Y-127468215D01*
X130006136Y-127468215D01*
X129748648Y-127468215D01*
X129748648Y-128240681D01*
X129748648Y-129013146D01*
X129491159Y-129013146D01*
X129233671Y-129013146D01*
X129233671Y-129270635D01*
X129233671Y-129528123D01*
X128976182Y-129528123D01*
X128718694Y-129528123D01*
X128718694Y-129013146D01*
X128718694Y-128498169D01*
X128976182Y-128498169D01*
X129233671Y-128498169D01*
X129233671Y-128240681D01*
X129233671Y-127983192D01*
X128976182Y-127983192D01*
X128718694Y-127983192D01*
X128718694Y-127725703D01*
X128718694Y-127468215D01*
X129233671Y-127468215D01*
X129748648Y-127468215D01*
X129748648Y-127210726D01*
X129748648Y-126953238D01*
X129491159Y-126953238D01*
X129233671Y-126953238D01*
X129233671Y-126695749D01*
X129233671Y-126438261D01*
X128976182Y-126438261D01*
X128718694Y-126438261D01*
X128718694Y-125923284D01*
X128718694Y-125408306D01*
X128976182Y-125408306D01*
X129233671Y-125408306D01*
X129233671Y-125923284D01*
X129233671Y-126438261D01*
X129491159Y-126438261D01*
X129748648Y-126438261D01*
X130263625Y-126438261D01*
X130521113Y-126438261D01*
X130778602Y-126438261D01*
X130778602Y-126180772D01*
X130778602Y-125923284D01*
X130521113Y-125923284D01*
X130263625Y-125923284D01*
X130263625Y-126180772D01*
X130263625Y-126438261D01*
X129748648Y-126438261D01*
X129748648Y-126180772D01*
X129748648Y-125923284D01*
X129748648Y-125408306D01*
X130006136Y-125408306D01*
X130263625Y-125408306D01*
X130263625Y-125150818D01*
X130263625Y-124893329D01*
X130521113Y-124893329D01*
X130778602Y-124893329D01*
X130778602Y-124378352D01*
X130778602Y-123863375D01*
X131293579Y-123863375D01*
X131808556Y-123863375D01*
X131808556Y-124378352D01*
G37*
G36*
X129748648Y-118456115D02*
G01*
X129748648Y-118713604D01*
X130263625Y-118713604D01*
X130778602Y-118713604D01*
X130778602Y-118971093D01*
X130778602Y-119228581D01*
X131036091Y-119228581D01*
X131293579Y-119228581D01*
X131293579Y-119486070D01*
X131293579Y-119743558D01*
X131036091Y-119743558D01*
X130778602Y-119743558D01*
X130778602Y-120258535D01*
X130778602Y-120773512D01*
X131036091Y-120773512D01*
X131293579Y-120773512D01*
X131293579Y-120258535D01*
X131293579Y-119743558D01*
X132323533Y-119743558D01*
X133353488Y-119743558D01*
X133353488Y-120001047D01*
X133353488Y-120258535D01*
X133095999Y-120258535D01*
X132838510Y-120258535D01*
X132838510Y-120516024D01*
X132838510Y-120773512D01*
X132323533Y-120773512D01*
X131808556Y-120773512D01*
X131808556Y-121031001D01*
X131808556Y-121288490D01*
X132323533Y-121288490D01*
X132838510Y-121288490D01*
X132838510Y-121545978D01*
X132838510Y-121803467D01*
X132581022Y-121803467D01*
X132323533Y-121803467D01*
X132323533Y-122575932D01*
X132323533Y-123348398D01*
X132066045Y-123348398D01*
X131808556Y-123348398D01*
X131808556Y-123090909D01*
X131808556Y-122833421D01*
X131551068Y-122833421D01*
X131293579Y-122833421D01*
X131293579Y-122575932D01*
X131293579Y-122318444D01*
X131551068Y-122318444D01*
X131808556Y-122318444D01*
X131808556Y-122060955D01*
X131808556Y-121803467D01*
X131551068Y-121803467D01*
X131293579Y-121803467D01*
X131293579Y-122060955D01*
X131293579Y-122318444D01*
X130521113Y-122318444D01*
X129748648Y-122318444D01*
X129748648Y-123090909D01*
X129748648Y-123863375D01*
X129491159Y-123863375D01*
X129233671Y-123863375D01*
X129233671Y-124120864D01*
X129233671Y-124378352D01*
X129491159Y-124378352D01*
X129748648Y-124378352D01*
X129748648Y-124635841D01*
X129748648Y-124893329D01*
X129233671Y-124893329D01*
X128718694Y-124893329D01*
X128718694Y-125150818D01*
X128718694Y-125408306D01*
X127946228Y-125408306D01*
X127173762Y-125408306D01*
X127173762Y-125150818D01*
X127173762Y-124893329D01*
X127688739Y-124893329D01*
X128203716Y-124893329D01*
X128203716Y-124635841D01*
X128203716Y-124378352D01*
X127431251Y-124378352D01*
X126658785Y-124378352D01*
X126658785Y-123863375D01*
X127173762Y-123863375D01*
X127946228Y-123863375D01*
X128718694Y-123863375D01*
X128718694Y-123605887D01*
X128718694Y-123348398D01*
X128203716Y-123348398D01*
X127688739Y-123348398D01*
X127688739Y-123090909D01*
X127688739Y-122833421D01*
X127431251Y-122833421D01*
X127173762Y-122833421D01*
X127173762Y-123348398D01*
X127173762Y-123863375D01*
X126658785Y-123863375D01*
X126658785Y-123348398D01*
X126658785Y-122575932D01*
X127688739Y-122575932D01*
X127688739Y-122833421D01*
X127946228Y-122833421D01*
X128203716Y-122833421D01*
X128718694Y-122833421D01*
X128976182Y-122833421D01*
X129233671Y-122833421D01*
X129233671Y-122575932D01*
X129233671Y-122318444D01*
X128976182Y-122318444D01*
X128718694Y-122318444D01*
X128718694Y-122575932D01*
X128718694Y-122833421D01*
X128203716Y-122833421D01*
X128203716Y-122575932D01*
X128203716Y-122318444D01*
X127946228Y-122318444D01*
X127688739Y-122318444D01*
X127688739Y-122575932D01*
X126658785Y-122575932D01*
X126658785Y-122318444D01*
X127173762Y-122318444D01*
X127688739Y-122318444D01*
X127688739Y-122060955D01*
X127688739Y-121803467D01*
X127946228Y-121803467D01*
X128203716Y-121803467D01*
X128203716Y-121545978D01*
X128203716Y-121288490D01*
X128461205Y-121288490D01*
X128718694Y-121288490D01*
X128718694Y-121545978D01*
X128718694Y-121803467D01*
X129491159Y-121803467D01*
X130263625Y-121803467D01*
X130263625Y-121545978D01*
X130263625Y-121288490D01*
X129748648Y-121288490D01*
X129233671Y-121288490D01*
X129233671Y-121031001D01*
X129233671Y-120773512D01*
X129748648Y-120773512D01*
X130263625Y-120773512D01*
X130263625Y-120001047D01*
X130263625Y-119228581D01*
X129748648Y-119228581D01*
X129233671Y-119228581D01*
X129233671Y-118713604D01*
X129233671Y-118198627D01*
X129491159Y-118198627D01*
X129748648Y-118198627D01*
X129748648Y-118456115D01*
G37*
G36*
X126401297Y-121803467D02*
G01*
X126658785Y-121803467D01*
X126658785Y-122060955D01*
X126658785Y-122318444D01*
X126401297Y-122318444D01*
X126143808Y-122318444D01*
X126143808Y-123605887D01*
X126143808Y-124893329D01*
X126401297Y-124893329D01*
X126658785Y-124893329D01*
X126658785Y-125150818D01*
X126658785Y-125408306D01*
X126143808Y-125408306D01*
X125628831Y-125408306D01*
X125628831Y-125150818D01*
X125628831Y-124893329D01*
X125371342Y-124893329D01*
X125113854Y-124893329D01*
X125113854Y-125150818D01*
X125113854Y-125408306D01*
X124856365Y-125408306D01*
X124598877Y-125408306D01*
X124598877Y-124893329D01*
X124598877Y-124378352D01*
X124856365Y-124378352D01*
X125113854Y-124378352D01*
X125113854Y-123863375D01*
X125113854Y-123348398D01*
X124856365Y-123348398D01*
X124598877Y-123348398D01*
X124598877Y-123090909D01*
X124598877Y-122833421D01*
X124856365Y-122833421D01*
X125113854Y-122833421D01*
X125113854Y-122575932D01*
X125113854Y-122318444D01*
X125628831Y-122318444D01*
X126143808Y-122318444D01*
X126143808Y-122060955D01*
X126143808Y-121803467D01*
X126401297Y-121803467D01*
G37*
G36*
X125628831Y-118456115D02*
G01*
X125628831Y-118713604D01*
X126401297Y-118713604D01*
X127173762Y-118713604D01*
X127173762Y-118456115D01*
X127173762Y-118198627D01*
X127431251Y-118198627D01*
X127688739Y-118198627D01*
X127688739Y-118456115D01*
X127688739Y-118713604D01*
X128203716Y-118713604D01*
X128718694Y-118713604D01*
X128718694Y-119228581D01*
X128718694Y-119743558D01*
X128461205Y-119743558D01*
X128203716Y-119743558D01*
X128203716Y-119486070D01*
X128203716Y-119228581D01*
X127946228Y-119228581D01*
X127688739Y-119228581D01*
X127688739Y-119486070D01*
X127688739Y-119743558D01*
X127431251Y-119743558D01*
X127173762Y-119743558D01*
X127173762Y-119486070D01*
X127173762Y-119228581D01*
X126658785Y-119228581D01*
X126143808Y-119228581D01*
X126143808Y-120001047D01*
X126143808Y-120773512D01*
X126401297Y-120773512D01*
X126658785Y-120773512D01*
X126658785Y-121031001D01*
X126658785Y-121288490D01*
X126401297Y-121288490D01*
X126143808Y-121288490D01*
X126143808Y-121545978D01*
X126143808Y-121803467D01*
X125886319Y-121803467D01*
X125628831Y-121803467D01*
X125628831Y-121545978D01*
X125628831Y-121288490D01*
X125113854Y-121288490D01*
X124598877Y-121288490D01*
X124598877Y-121031001D01*
X124598877Y-120773512D01*
X125113854Y-120773512D01*
X125628831Y-120773512D01*
X125628831Y-120516024D01*
X125628831Y-120258535D01*
X125371342Y-120258535D01*
X125113854Y-120258535D01*
X125113854Y-119743558D01*
X125113854Y-119228581D01*
X125371342Y-119228581D01*
X125628831Y-119228581D01*
X125628831Y-118971093D01*
X125628831Y-118713604D01*
X125371342Y-118713604D01*
X125113854Y-118713604D01*
X125113854Y-118971093D01*
X125113854Y-119228581D01*
X124856365Y-119228581D01*
X124598877Y-119228581D01*
X124598877Y-118971093D01*
X124598877Y-118713604D01*
X124598877Y-118198627D01*
X125113854Y-118198627D01*
X125628831Y-118198627D01*
X125628831Y-118456115D01*
G37*
G36*
X125113854Y-116911184D02*
G01*
X125113854Y-117168673D01*
X125886319Y-117168673D01*
X126658785Y-117168673D01*
X126658785Y-116911184D01*
X126658785Y-116653696D01*
X126916274Y-116653696D01*
X127173762Y-116653696D01*
X127173762Y-117426161D01*
X127173762Y-118198627D01*
X126916274Y-118198627D01*
X126658785Y-118198627D01*
X126658785Y-117941138D01*
X126658785Y-117683650D01*
X125886319Y-117683650D01*
X125113854Y-117683650D01*
X125113854Y-117426161D01*
X125113854Y-117168673D01*
X124856365Y-117168673D01*
X124598877Y-117168673D01*
X124598877Y-116911184D01*
X124598877Y-116653696D01*
X124856365Y-116653696D01*
X125113854Y-116653696D01*
X125113854Y-116911184D01*
G37*
G36*
X134640930Y-127983192D02*
G01*
X134898419Y-127983192D01*
X134898419Y-128240681D01*
X134898419Y-128498169D01*
X134640930Y-128498169D01*
X134383442Y-128498169D01*
X134383442Y-128240681D01*
X134383442Y-127983192D01*
X134640930Y-127983192D01*
G37*
G36*
X134125953Y-127468215D02*
G01*
X134383442Y-127468215D01*
X134383442Y-127725703D01*
X134383442Y-127983192D01*
X134125953Y-127983192D01*
X133868465Y-127983192D01*
X133868465Y-127725703D01*
X133868465Y-127468215D01*
X134125953Y-127468215D01*
G37*
G36*
X135928373Y-118198627D02*
G01*
X135928373Y-118713604D01*
X136185862Y-118713604D01*
X136443350Y-118713604D01*
X136443350Y-118971093D01*
X136443350Y-119228581D01*
X136700839Y-119228581D01*
X136958327Y-119228581D01*
X136958327Y-118971093D01*
X136958327Y-118713604D01*
X137215816Y-118713604D01*
X137473304Y-118713604D01*
X137473304Y-118971093D01*
X137473304Y-119228581D01*
X137988282Y-119228581D01*
X138503259Y-119228581D01*
X138503259Y-119486070D01*
X138503259Y-119743558D01*
X138760747Y-119743558D01*
X139018236Y-119743558D01*
X139018236Y-119486070D01*
X139018236Y-119228581D01*
X139275724Y-119228581D01*
X139533213Y-119228581D01*
X139533213Y-119743558D01*
X139533213Y-120258535D01*
X139790701Y-120258535D01*
X140048190Y-120258535D01*
X140048190Y-120516024D01*
X140048190Y-120773512D01*
X140305679Y-120773512D01*
X140563167Y-120773512D01*
X140563167Y-121545978D01*
X140563167Y-122318444D01*
X139790701Y-122318444D01*
X139018236Y-122318444D01*
X139018236Y-122575932D01*
X139018236Y-122833421D01*
X139533213Y-122833421D01*
X140048190Y-122833421D01*
X140048190Y-123605887D01*
X140048190Y-124378352D01*
X140305679Y-124378352D01*
X140563167Y-124378352D01*
X140563167Y-124635841D01*
X140563167Y-124893329D01*
X140305679Y-124893329D01*
X140048190Y-124893329D01*
X140048190Y-125150818D01*
X140048190Y-125408306D01*
X139790701Y-125408306D01*
X139533213Y-125408306D01*
X139533213Y-124893329D01*
X139533213Y-124378352D01*
X139275724Y-124378352D01*
X139018236Y-124378352D01*
X139018236Y-124635841D01*
X139018236Y-124893329D01*
X138760747Y-124893329D01*
X138503259Y-124893329D01*
X138503259Y-125150818D01*
X138503259Y-125408306D01*
X138245770Y-125408306D01*
X137988282Y-125408306D01*
X137988282Y-124893329D01*
X137988282Y-124378352D01*
X137730793Y-124378352D01*
X137473304Y-124378352D01*
X137473304Y-124120864D01*
X137473304Y-123863375D01*
X137988282Y-123863375D01*
X138503259Y-123863375D01*
X139018236Y-123863375D01*
X139275724Y-123863375D01*
X139533213Y-123863375D01*
X139533213Y-123605887D01*
X139533213Y-123348398D01*
X139275724Y-123348398D01*
X139018236Y-123348398D01*
X139018236Y-123605887D01*
X139018236Y-123863375D01*
X138503259Y-123863375D01*
X138503259Y-123605887D01*
X138503259Y-123090909D01*
X138503259Y-122318444D01*
X138245770Y-122318444D01*
X137988282Y-122318444D01*
X137988282Y-122060955D01*
X137988282Y-121803467D01*
X137730793Y-121803467D01*
X137473304Y-121803467D01*
X137473304Y-122060955D01*
X137473304Y-122318444D01*
X137215816Y-122318444D01*
X136958327Y-122318444D01*
X136958327Y-122060955D01*
X136958327Y-121803467D01*
X136700839Y-121803467D01*
X136443350Y-121803467D01*
X136443350Y-121545978D01*
X136443350Y-121288490D01*
X136958327Y-121288490D01*
X137215816Y-121288490D01*
X137473304Y-121288490D01*
X138503259Y-121288490D01*
X138503259Y-122318444D01*
X138760747Y-122318444D01*
X139018236Y-122318444D01*
X139018236Y-121803467D01*
X139533213Y-121803467D01*
X139790701Y-121803467D01*
X140048190Y-121803467D01*
X140048190Y-121545978D01*
X140048190Y-121288490D01*
X139790701Y-121288490D01*
X139533213Y-121288490D01*
X139533213Y-121545978D01*
X139533213Y-121803467D01*
X139018236Y-121803467D01*
X139018236Y-121545978D01*
X139018236Y-121288490D01*
X139018236Y-120258535D01*
X138760747Y-120258535D01*
X138503259Y-120258535D01*
X138503259Y-121288490D01*
X137473304Y-121288490D01*
X137473304Y-121031001D01*
X137473304Y-120773512D01*
X137215816Y-120773512D01*
X136958327Y-120773512D01*
X136958327Y-121031001D01*
X136958327Y-121288490D01*
X136443350Y-121288490D01*
X136185862Y-121288490D01*
X135928373Y-121288490D01*
X135928373Y-122060955D01*
X135928373Y-122833421D01*
X135670885Y-122833421D01*
X135413396Y-122833421D01*
X135413396Y-123605887D01*
X135413396Y-124378352D01*
X135670885Y-124378352D01*
X135928373Y-124378352D01*
X135928373Y-124635841D01*
X135928373Y-124893329D01*
X136185862Y-124893329D01*
X136443350Y-124893329D01*
X136443350Y-124378352D01*
X136443350Y-123863375D01*
X136700839Y-123863375D01*
X136958327Y-123863375D01*
X136958327Y-124378352D01*
X136958327Y-124893329D01*
X137215816Y-124893329D01*
X137473304Y-124893329D01*
X137473304Y-126180772D01*
X137473304Y-127468215D01*
X137215816Y-127468215D01*
X136958327Y-127468215D01*
X136958327Y-126438261D01*
X136958327Y-125408306D01*
X136185862Y-125408306D01*
X135413396Y-125408306D01*
X135413396Y-125923284D01*
X135413396Y-126438261D01*
X135670885Y-126438261D01*
X135928373Y-126438261D01*
X135928373Y-126180772D01*
X135928373Y-125923284D01*
X136185862Y-125923284D01*
X136443350Y-125923284D01*
X136443350Y-126438261D01*
X136443350Y-126953238D01*
X135928373Y-126953238D01*
X135413396Y-126953238D01*
X135413396Y-126695749D01*
X135413396Y-126438261D01*
X135155907Y-126438261D01*
X134898419Y-126438261D01*
X134898419Y-126953238D01*
X134898419Y-127468215D01*
X134640930Y-127468215D01*
X134383442Y-127468215D01*
X134383442Y-127210726D01*
X134383442Y-126953238D01*
X134125953Y-126953238D01*
X133868465Y-126953238D01*
X133868465Y-127210726D01*
X133868465Y-127468215D01*
X133353488Y-127468215D01*
X132838510Y-127468215D01*
X132838510Y-127725703D01*
X132838510Y-127983192D01*
X132581022Y-127983192D01*
X132323533Y-127983192D01*
X132323533Y-127725703D01*
X132323533Y-127468215D01*
X132581022Y-127468215D01*
X132838510Y-127468215D01*
X132838510Y-127210726D01*
X132838510Y-126953238D01*
X132581022Y-126953238D01*
X132323533Y-126953238D01*
X132323533Y-126695749D01*
X132323533Y-126438261D01*
X132581022Y-126438261D01*
X132838510Y-126438261D01*
X132838510Y-126180772D01*
X132838510Y-125923284D01*
X133353488Y-125923284D01*
X133353488Y-126438261D01*
X133353488Y-126953238D01*
X133610976Y-126953238D01*
X133868465Y-126953238D01*
X133868465Y-126438261D01*
X133868465Y-125923284D01*
X134125953Y-125923284D01*
X134383442Y-125923284D01*
X134383442Y-126180772D01*
X134383442Y-126438261D01*
X134640930Y-126438261D01*
X134898419Y-126438261D01*
X134898419Y-125923284D01*
X134898419Y-125408306D01*
X135155907Y-125408306D01*
X135413396Y-125408306D01*
X135413396Y-125150818D01*
X135413396Y-124893329D01*
X135155907Y-124893329D01*
X134898419Y-124893329D01*
X134898419Y-125150818D01*
X134898419Y-125408306D01*
X134383442Y-125408306D01*
X133868465Y-125408306D01*
X133868465Y-125665795D01*
X133868465Y-125923284D01*
X133610976Y-125923284D01*
X133353488Y-125923284D01*
X132838510Y-125923284D01*
X132581022Y-125923284D01*
X132323533Y-125923284D01*
X132323533Y-126180772D01*
X132323533Y-126438261D01*
X132066045Y-126438261D01*
X131808556Y-126438261D01*
X131808556Y-126180772D01*
X131808556Y-125923284D01*
X131808556Y-125408306D01*
X132066045Y-125408306D01*
X132323533Y-125408306D01*
X132323533Y-125150818D01*
X133353488Y-125150818D01*
X133353488Y-125408306D01*
X133610976Y-125408306D01*
X133868465Y-125408306D01*
X133868465Y-125150818D01*
X133868465Y-124893329D01*
X133610976Y-124893329D01*
X133353488Y-124893329D01*
X133353488Y-125150818D01*
X132323533Y-125150818D01*
X132323533Y-124893329D01*
X132581022Y-124893329D01*
X132838510Y-124893329D01*
X132838510Y-123863375D01*
X132838510Y-122833421D01*
X133095999Y-122833421D01*
X133353488Y-122833421D01*
X133353488Y-123090909D01*
X133353488Y-123348398D01*
X133610976Y-123348398D01*
X133868465Y-123348398D01*
X133868465Y-123605887D01*
X133868465Y-123863375D01*
X133610976Y-123863375D01*
X133353488Y-123863375D01*
X133353488Y-124120864D01*
X133353488Y-124378352D01*
X133610976Y-124378352D01*
X133868465Y-124378352D01*
X133868465Y-124120864D01*
X133868465Y-123863375D01*
X134125953Y-123863375D01*
X134383442Y-123863375D01*
X134383442Y-124120864D01*
X134383442Y-124378352D01*
X134640930Y-124378352D01*
X134898419Y-124378352D01*
X134898419Y-124120864D01*
X134898419Y-123863375D01*
X134640930Y-123863375D01*
X134383442Y-123863375D01*
X134383442Y-123605887D01*
X134383442Y-123348398D01*
X134640930Y-123348398D01*
X134898419Y-123348398D01*
X134898419Y-123090909D01*
X134898419Y-122833421D01*
X134640930Y-122833421D01*
X134383442Y-122833421D01*
X134383442Y-122318444D01*
X134898419Y-122318444D01*
X135155907Y-122318444D01*
X135413396Y-122318444D01*
X135413396Y-122060955D01*
X135413396Y-121803467D01*
X135155907Y-121803467D01*
X134898419Y-121803467D01*
X134898419Y-122060955D01*
X134898419Y-122318444D01*
X134383442Y-122318444D01*
X134383442Y-122060955D01*
X134383442Y-121288490D01*
X134898419Y-121288490D01*
X135155907Y-121288490D01*
X135413396Y-121288490D01*
X135413396Y-121031001D01*
X135413396Y-120773512D01*
X135155907Y-120773512D01*
X134898419Y-120773512D01*
X134898419Y-121031001D01*
X134898419Y-121288490D01*
X134383442Y-121288490D01*
X134125953Y-121288490D01*
X133868465Y-121288490D01*
X133868465Y-121031001D01*
X133868465Y-120516024D01*
X133868465Y-119743558D01*
X133610976Y-119743558D01*
X133353488Y-119743558D01*
X133353488Y-119486070D01*
X133353488Y-119228581D01*
X134125953Y-119228581D01*
X134898419Y-119228581D01*
X134898419Y-119486070D01*
X134898419Y-119743558D01*
X134640930Y-119743558D01*
X134383442Y-119743558D01*
X134383442Y-120001047D01*
X134383442Y-120258535D01*
X134640930Y-120258535D01*
X134898419Y-120258535D01*
X134898419Y-120001047D01*
X134898419Y-119743558D01*
X135155907Y-119743558D01*
X135413396Y-119743558D01*
X135413396Y-120258535D01*
X135413396Y-120773512D01*
X135670885Y-120773512D01*
X135928373Y-120773512D01*
X135928373Y-120258535D01*
X136443350Y-120258535D01*
X136700839Y-120258535D01*
X136958327Y-120258535D01*
X136958327Y-120001047D01*
X136958327Y-119743558D01*
X137473304Y-119743558D01*
X137473304Y-120001047D01*
X137473304Y-120258535D01*
X137988282Y-120258535D01*
X138503259Y-120258535D01*
X138503259Y-120001047D01*
X138503259Y-119743558D01*
X137988282Y-119743558D01*
X137473304Y-119743558D01*
X136958327Y-119743558D01*
X136700839Y-119743558D01*
X136443350Y-119743558D01*
X136443350Y-120001047D01*
X136443350Y-120258535D01*
X135928373Y-120258535D01*
X135928373Y-120001047D01*
X135928373Y-119228581D01*
X135670885Y-119228581D01*
X135413396Y-119228581D01*
X135413396Y-118456115D01*
X135413396Y-117683650D01*
X135670885Y-117683650D01*
X135928373Y-117683650D01*
X135928373Y-118198627D01*
G37*
G36*
X141078144Y-124893329D02*
G01*
X141593121Y-124893329D01*
X141593121Y-125150818D01*
X141593121Y-125408306D01*
X141078144Y-125408306D01*
X140563167Y-125408306D01*
X140563167Y-125150818D01*
X140563167Y-124893329D01*
X141078144Y-124893329D01*
G37*
G36*
X136958327Y-122833421D02*
G01*
X137988282Y-122833421D01*
X137988282Y-123090909D01*
X137988282Y-123348398D01*
X136958327Y-123348398D01*
X135928373Y-123348398D01*
X135928373Y-123090909D01*
X135928373Y-122833421D01*
X136958327Y-122833421D01*
G37*
G36*
X140820656Y-122318444D02*
G01*
X141078144Y-122318444D01*
X141078144Y-122575932D01*
X141078144Y-122833421D01*
X140820656Y-122833421D01*
X140563167Y-122833421D01*
X140563167Y-122575932D01*
X140563167Y-122318444D01*
X140820656Y-122318444D01*
G37*
D12*
%TO.C,JP1*%
X148790001Y-81492999D02*
X148790001Y-82092999D01*
X149490001Y-82792999D02*
X150890001Y-82792999D01*
X150890001Y-80792999D02*
X149490001Y-80792999D01*
X151590001Y-82092999D02*
X151590001Y-81492999D01*
X148790001Y-81492999D02*
G75*
G02*
X149490001Y-80792999I700000J0D01*
G01*
X149490001Y-82792999D02*
G75*
G02*
X148790001Y-82092999I0J700000D01*
G01*
X150890001Y-80792999D02*
G75*
G02*
X151590001Y-81492999I1J-699999D01*
G01*
X151590001Y-82092999D02*
G75*
G02*
X150890001Y-82792999I-699999J-1D01*
G01*
%TO.C,JP3*%
X136922000Y-76150000D02*
X136922000Y-77550000D01*
X137622000Y-78250000D02*
X138222000Y-78250000D01*
X138222000Y-75450000D02*
X137622000Y-75450000D01*
X138922000Y-77550000D02*
X138922000Y-76150000D01*
X136922000Y-76150000D02*
G75*
G02*
X137622000Y-75450000I700000J0D01*
G01*
X137622000Y-78250000D02*
G75*
G02*
X136922000Y-77550000I-1J699999D01*
G01*
X138222000Y-75450000D02*
G75*
G02*
X138922000Y-76150000I0J-700000D01*
G01*
X138922000Y-77550000D02*
G75*
G02*
X138222000Y-78250000I-699999J-1D01*
G01*
%TO.C,JP2*%
X142765000Y-35133000D02*
X142765000Y-35733000D01*
X143465000Y-36433000D02*
X144865000Y-36433000D01*
X144865000Y-34433000D02*
X143465000Y-34433000D01*
X145565000Y-35733000D02*
X145565000Y-35133000D01*
X142765000Y-35133000D02*
G75*
G02*
X143465000Y-34433000I699999J1D01*
G01*
X143465000Y-36433000D02*
G75*
G02*
X142765000Y-35733000I-1J699999D01*
G01*
X144865000Y-34433000D02*
G75*
G02*
X145565000Y-35133000I0J-700000D01*
G01*
X145565000Y-35733000D02*
G75*
G02*
X144865000Y-36433000I-700000J0D01*
G01*
%TD*%
M02*
