%TF.GenerationSoftware,KiCad,Pcbnew,9.0.7*%
%TF.CreationDate,2026-07-17T08:57:00-04:00*%
%TF.ProjectId,ECG,4543472e-6b69-4636-9164-5f7063625858,rev?*%
%TF.SameCoordinates,Original*%
%TF.FileFunction,Legend,Top*%
%TF.FilePolarity,Positive*%
%FSLAX46Y46*%
G04 Gerber Fmt 4.6, Leading zero omitted, Abs format (unit mm)*
G04 Created by KiCad (PCBNEW 9.0.7) date 2026-07-17 08:57:00*
%MOMM*%
%LPD*%
G01*
G04 APERTURE LIST*
%ADD10C,0.150000*%
%ADD11C,0.300000*%
%ADD12C,0.120000*%
%ADD13C,0.200000*%
%ADD14C,0.400000*%
%ADD15C,0.127000*%
%ADD16C,0.152400*%
G04 APERTURE END LIST*
D10*
X133083541Y-100215819D02*
X133702588Y-100215819D01*
X133702588Y-100215819D02*
X133369255Y-100596771D01*
X133369255Y-100596771D02*
X133512112Y-100596771D01*
X133512112Y-100596771D02*
X133607350Y-100644390D01*
X133607350Y-100644390D02*
X133654969Y-100692009D01*
X133654969Y-100692009D02*
X133702588Y-100787247D01*
X133702588Y-100787247D02*
X133702588Y-101025342D01*
X133702588Y-101025342D02*
X133654969Y-101120580D01*
X133654969Y-101120580D02*
X133607350Y-101168200D01*
X133607350Y-101168200D02*
X133512112Y-101215819D01*
X133512112Y-101215819D02*
X133226398Y-101215819D01*
X133226398Y-101215819D02*
X133131160Y-101168200D01*
X133131160Y-101168200D02*
X133083541Y-101120580D01*
X134131160Y-100834866D02*
X134893065Y-100834866D01*
X135274017Y-100215819D02*
X135512112Y-101215819D01*
X135512112Y-101215819D02*
X135702588Y-100501533D01*
X135702588Y-100501533D02*
X135893064Y-101215819D01*
X135893064Y-101215819D02*
X136131160Y-100215819D01*
X136512112Y-101215819D02*
X136512112Y-100215819D01*
X137559730Y-101215819D02*
X137226397Y-100739628D01*
X136988302Y-101215819D02*
X136988302Y-100215819D01*
X136988302Y-100215819D02*
X137369254Y-100215819D01*
X137369254Y-100215819D02*
X137464492Y-100263438D01*
X137464492Y-100263438D02*
X137512111Y-100311057D01*
X137512111Y-100311057D02*
X137559730Y-100406295D01*
X137559730Y-100406295D02*
X137559730Y-100549152D01*
X137559730Y-100549152D02*
X137512111Y-100644390D01*
X137512111Y-100644390D02*
X137464492Y-100692009D01*
X137464492Y-100692009D02*
X137369254Y-100739628D01*
X137369254Y-100739628D02*
X136988302Y-100739628D01*
X137988302Y-100692009D02*
X138321635Y-100692009D01*
X138464492Y-101215819D02*
X137988302Y-101215819D01*
X137988302Y-101215819D02*
X137988302Y-100215819D01*
X137988302Y-100215819D02*
X138464492Y-100215819D01*
X117002160Y-40728272D02*
X117478350Y-40728272D01*
X116906922Y-41013987D02*
X117240255Y-40013987D01*
X117240255Y-40013987D02*
X117573588Y-41013987D01*
X117906922Y-41013987D02*
X117906922Y-40013987D01*
X117906922Y-40013987D02*
X118145017Y-40013987D01*
X118145017Y-40013987D02*
X118287874Y-40061606D01*
X118287874Y-40061606D02*
X118383112Y-40156844D01*
X118383112Y-40156844D02*
X118430731Y-40252082D01*
X118430731Y-40252082D02*
X118478350Y-40442558D01*
X118478350Y-40442558D02*
X118478350Y-40585415D01*
X118478350Y-40585415D02*
X118430731Y-40775891D01*
X118430731Y-40775891D02*
X118383112Y-40871129D01*
X118383112Y-40871129D02*
X118287874Y-40966368D01*
X118287874Y-40966368D02*
X118145017Y-41013987D01*
X118145017Y-41013987D02*
X117906922Y-41013987D01*
X119049779Y-40442558D02*
X118954541Y-40394939D01*
X118954541Y-40394939D02*
X118906922Y-40347320D01*
X118906922Y-40347320D02*
X118859303Y-40252082D01*
X118859303Y-40252082D02*
X118859303Y-40204463D01*
X118859303Y-40204463D02*
X118906922Y-40109225D01*
X118906922Y-40109225D02*
X118954541Y-40061606D01*
X118954541Y-40061606D02*
X119049779Y-40013987D01*
X119049779Y-40013987D02*
X119240255Y-40013987D01*
X119240255Y-40013987D02*
X119335493Y-40061606D01*
X119335493Y-40061606D02*
X119383112Y-40109225D01*
X119383112Y-40109225D02*
X119430731Y-40204463D01*
X119430731Y-40204463D02*
X119430731Y-40252082D01*
X119430731Y-40252082D02*
X119383112Y-40347320D01*
X119383112Y-40347320D02*
X119335493Y-40394939D01*
X119335493Y-40394939D02*
X119240255Y-40442558D01*
X119240255Y-40442558D02*
X119049779Y-40442558D01*
X119049779Y-40442558D02*
X118954541Y-40490177D01*
X118954541Y-40490177D02*
X118906922Y-40537796D01*
X118906922Y-40537796D02*
X118859303Y-40633034D01*
X118859303Y-40633034D02*
X118859303Y-40823510D01*
X118859303Y-40823510D02*
X118906922Y-40918748D01*
X118906922Y-40918748D02*
X118954541Y-40966368D01*
X118954541Y-40966368D02*
X119049779Y-41013987D01*
X119049779Y-41013987D02*
X119240255Y-41013987D01*
X119240255Y-41013987D02*
X119335493Y-40966368D01*
X119335493Y-40966368D02*
X119383112Y-40918748D01*
X119383112Y-40918748D02*
X119430731Y-40823510D01*
X119430731Y-40823510D02*
X119430731Y-40633034D01*
X119430731Y-40633034D02*
X119383112Y-40537796D01*
X119383112Y-40537796D02*
X119335493Y-40490177D01*
X119335493Y-40490177D02*
X119240255Y-40442558D01*
X119811684Y-40109225D02*
X119859303Y-40061606D01*
X119859303Y-40061606D02*
X119954541Y-40013987D01*
X119954541Y-40013987D02*
X120192636Y-40013987D01*
X120192636Y-40013987D02*
X120287874Y-40061606D01*
X120287874Y-40061606D02*
X120335493Y-40109225D01*
X120335493Y-40109225D02*
X120383112Y-40204463D01*
X120383112Y-40204463D02*
X120383112Y-40299701D01*
X120383112Y-40299701D02*
X120335493Y-40442558D01*
X120335493Y-40442558D02*
X119764065Y-41013987D01*
X119764065Y-41013987D02*
X120383112Y-41013987D01*
X120716446Y-40013987D02*
X121335493Y-40013987D01*
X121335493Y-40013987D02*
X121002160Y-40394939D01*
X121002160Y-40394939D02*
X121145017Y-40394939D01*
X121145017Y-40394939D02*
X121240255Y-40442558D01*
X121240255Y-40442558D02*
X121287874Y-40490177D01*
X121287874Y-40490177D02*
X121335493Y-40585415D01*
X121335493Y-40585415D02*
X121335493Y-40823510D01*
X121335493Y-40823510D02*
X121287874Y-40918748D01*
X121287874Y-40918748D02*
X121240255Y-40966368D01*
X121240255Y-40966368D02*
X121145017Y-41013987D01*
X121145017Y-41013987D02*
X120859303Y-41013987D01*
X120859303Y-41013987D02*
X120764065Y-40966368D01*
X120764065Y-40966368D02*
X120716446Y-40918748D01*
X121716446Y-40109225D02*
X121764065Y-40061606D01*
X121764065Y-40061606D02*
X121859303Y-40013987D01*
X121859303Y-40013987D02*
X122097398Y-40013987D01*
X122097398Y-40013987D02*
X122192636Y-40061606D01*
X122192636Y-40061606D02*
X122240255Y-40109225D01*
X122240255Y-40109225D02*
X122287874Y-40204463D01*
X122287874Y-40204463D02*
X122287874Y-40299701D01*
X122287874Y-40299701D02*
X122240255Y-40442558D01*
X122240255Y-40442558D02*
X121668827Y-41013987D01*
X121668827Y-41013987D02*
X122287874Y-41013987D01*
X123478351Y-40490177D02*
X123811684Y-40490177D01*
X123954541Y-41013987D02*
X123478351Y-41013987D01*
X123478351Y-41013987D02*
X123478351Y-40013987D01*
X123478351Y-40013987D02*
X123954541Y-40013987D01*
X124954541Y-40918748D02*
X124906922Y-40966368D01*
X124906922Y-40966368D02*
X124764065Y-41013987D01*
X124764065Y-41013987D02*
X124668827Y-41013987D01*
X124668827Y-41013987D02*
X124525970Y-40966368D01*
X124525970Y-40966368D02*
X124430732Y-40871129D01*
X124430732Y-40871129D02*
X124383113Y-40775891D01*
X124383113Y-40775891D02*
X124335494Y-40585415D01*
X124335494Y-40585415D02*
X124335494Y-40442558D01*
X124335494Y-40442558D02*
X124383113Y-40252082D01*
X124383113Y-40252082D02*
X124430732Y-40156844D01*
X124430732Y-40156844D02*
X124525970Y-40061606D01*
X124525970Y-40061606D02*
X124668827Y-40013987D01*
X124668827Y-40013987D02*
X124764065Y-40013987D01*
X124764065Y-40013987D02*
X124906922Y-40061606D01*
X124906922Y-40061606D02*
X124954541Y-40109225D01*
X125906922Y-40061606D02*
X125811684Y-40013987D01*
X125811684Y-40013987D02*
X125668827Y-40013987D01*
X125668827Y-40013987D02*
X125525970Y-40061606D01*
X125525970Y-40061606D02*
X125430732Y-40156844D01*
X125430732Y-40156844D02*
X125383113Y-40252082D01*
X125383113Y-40252082D02*
X125335494Y-40442558D01*
X125335494Y-40442558D02*
X125335494Y-40585415D01*
X125335494Y-40585415D02*
X125383113Y-40775891D01*
X125383113Y-40775891D02*
X125430732Y-40871129D01*
X125430732Y-40871129D02*
X125525970Y-40966368D01*
X125525970Y-40966368D02*
X125668827Y-41013987D01*
X125668827Y-41013987D02*
X125764065Y-41013987D01*
X125764065Y-41013987D02*
X125906922Y-40966368D01*
X125906922Y-40966368D02*
X125954541Y-40918748D01*
X125954541Y-40918748D02*
X125954541Y-40585415D01*
X125954541Y-40585415D02*
X125764065Y-40585415D01*
X127145018Y-41013987D02*
X127145018Y-40013987D01*
X127145018Y-40013987D02*
X127383113Y-40013987D01*
X127383113Y-40013987D02*
X127525970Y-40061606D01*
X127525970Y-40061606D02*
X127621208Y-40156844D01*
X127621208Y-40156844D02*
X127668827Y-40252082D01*
X127668827Y-40252082D02*
X127716446Y-40442558D01*
X127716446Y-40442558D02*
X127716446Y-40585415D01*
X127716446Y-40585415D02*
X127668827Y-40775891D01*
X127668827Y-40775891D02*
X127621208Y-40871129D01*
X127621208Y-40871129D02*
X127525970Y-40966368D01*
X127525970Y-40966368D02*
X127383113Y-41013987D01*
X127383113Y-41013987D02*
X127145018Y-41013987D01*
X128525970Y-40966368D02*
X128430732Y-41013987D01*
X128430732Y-41013987D02*
X128240256Y-41013987D01*
X128240256Y-41013987D02*
X128145018Y-40966368D01*
X128145018Y-40966368D02*
X128097399Y-40871129D01*
X128097399Y-40871129D02*
X128097399Y-40490177D01*
X128097399Y-40490177D02*
X128145018Y-40394939D01*
X128145018Y-40394939D02*
X128240256Y-40347320D01*
X128240256Y-40347320D02*
X128430732Y-40347320D01*
X128430732Y-40347320D02*
X128525970Y-40394939D01*
X128525970Y-40394939D02*
X128573589Y-40490177D01*
X128573589Y-40490177D02*
X128573589Y-40585415D01*
X128573589Y-40585415D02*
X128097399Y-40680653D01*
X129002161Y-41013987D02*
X129002161Y-40347320D01*
X129002161Y-40442558D02*
X129049780Y-40394939D01*
X129049780Y-40394939D02*
X129145018Y-40347320D01*
X129145018Y-40347320D02*
X129287875Y-40347320D01*
X129287875Y-40347320D02*
X129383113Y-40394939D01*
X129383113Y-40394939D02*
X129430732Y-40490177D01*
X129430732Y-40490177D02*
X129430732Y-41013987D01*
X129430732Y-40490177D02*
X129478351Y-40394939D01*
X129478351Y-40394939D02*
X129573589Y-40347320D01*
X129573589Y-40347320D02*
X129716446Y-40347320D01*
X129716446Y-40347320D02*
X129811685Y-40394939D01*
X129811685Y-40394939D02*
X129859304Y-40490177D01*
X129859304Y-40490177D02*
X129859304Y-41013987D01*
X130478351Y-41013987D02*
X130383113Y-40966368D01*
X130383113Y-40966368D02*
X130335494Y-40918748D01*
X130335494Y-40918748D02*
X130287875Y-40823510D01*
X130287875Y-40823510D02*
X130287875Y-40537796D01*
X130287875Y-40537796D02*
X130335494Y-40442558D01*
X130335494Y-40442558D02*
X130383113Y-40394939D01*
X130383113Y-40394939D02*
X130478351Y-40347320D01*
X130478351Y-40347320D02*
X130621208Y-40347320D01*
X130621208Y-40347320D02*
X130716446Y-40394939D01*
X130716446Y-40394939D02*
X130764065Y-40442558D01*
X130764065Y-40442558D02*
X130811684Y-40537796D01*
X130811684Y-40537796D02*
X130811684Y-40823510D01*
X130811684Y-40823510D02*
X130764065Y-40918748D01*
X130764065Y-40918748D02*
X130716446Y-40966368D01*
X130716446Y-40966368D02*
X130621208Y-41013987D01*
X130621208Y-41013987D02*
X130478351Y-41013987D01*
X132335494Y-40490177D02*
X132478351Y-40537796D01*
X132478351Y-40537796D02*
X132525970Y-40585415D01*
X132525970Y-40585415D02*
X132573589Y-40680653D01*
X132573589Y-40680653D02*
X132573589Y-40823510D01*
X132573589Y-40823510D02*
X132525970Y-40918748D01*
X132525970Y-40918748D02*
X132478351Y-40966368D01*
X132478351Y-40966368D02*
X132383113Y-41013987D01*
X132383113Y-41013987D02*
X132002161Y-41013987D01*
X132002161Y-41013987D02*
X132002161Y-40013987D01*
X132002161Y-40013987D02*
X132335494Y-40013987D01*
X132335494Y-40013987D02*
X132430732Y-40061606D01*
X132430732Y-40061606D02*
X132478351Y-40109225D01*
X132478351Y-40109225D02*
X132525970Y-40204463D01*
X132525970Y-40204463D02*
X132525970Y-40299701D01*
X132525970Y-40299701D02*
X132478351Y-40394939D01*
X132478351Y-40394939D02*
X132430732Y-40442558D01*
X132430732Y-40442558D02*
X132335494Y-40490177D01*
X132335494Y-40490177D02*
X132002161Y-40490177D01*
X133145018Y-41013987D02*
X133049780Y-40966368D01*
X133049780Y-40966368D02*
X133002161Y-40918748D01*
X133002161Y-40918748D02*
X132954542Y-40823510D01*
X132954542Y-40823510D02*
X132954542Y-40537796D01*
X132954542Y-40537796D02*
X133002161Y-40442558D01*
X133002161Y-40442558D02*
X133049780Y-40394939D01*
X133049780Y-40394939D02*
X133145018Y-40347320D01*
X133145018Y-40347320D02*
X133287875Y-40347320D01*
X133287875Y-40347320D02*
X133383113Y-40394939D01*
X133383113Y-40394939D02*
X133430732Y-40442558D01*
X133430732Y-40442558D02*
X133478351Y-40537796D01*
X133478351Y-40537796D02*
X133478351Y-40823510D01*
X133478351Y-40823510D02*
X133430732Y-40918748D01*
X133430732Y-40918748D02*
X133383113Y-40966368D01*
X133383113Y-40966368D02*
X133287875Y-41013987D01*
X133287875Y-41013987D02*
X133145018Y-41013987D01*
X134335494Y-41013987D02*
X134335494Y-40490177D01*
X134335494Y-40490177D02*
X134287875Y-40394939D01*
X134287875Y-40394939D02*
X134192637Y-40347320D01*
X134192637Y-40347320D02*
X134002161Y-40347320D01*
X134002161Y-40347320D02*
X133906923Y-40394939D01*
X134335494Y-40966368D02*
X134240256Y-41013987D01*
X134240256Y-41013987D02*
X134002161Y-41013987D01*
X134002161Y-41013987D02*
X133906923Y-40966368D01*
X133906923Y-40966368D02*
X133859304Y-40871129D01*
X133859304Y-40871129D02*
X133859304Y-40775891D01*
X133859304Y-40775891D02*
X133906923Y-40680653D01*
X133906923Y-40680653D02*
X134002161Y-40633034D01*
X134002161Y-40633034D02*
X134240256Y-40633034D01*
X134240256Y-40633034D02*
X134335494Y-40585415D01*
X134811685Y-41013987D02*
X134811685Y-40347320D01*
X134811685Y-40537796D02*
X134859304Y-40442558D01*
X134859304Y-40442558D02*
X134906923Y-40394939D01*
X134906923Y-40394939D02*
X135002161Y-40347320D01*
X135002161Y-40347320D02*
X135097399Y-40347320D01*
X135859304Y-41013987D02*
X135859304Y-40013987D01*
X135859304Y-40966368D02*
X135764066Y-41013987D01*
X135764066Y-41013987D02*
X135573590Y-41013987D01*
X135573590Y-41013987D02*
X135478352Y-40966368D01*
X135478352Y-40966368D02*
X135430733Y-40918748D01*
X135430733Y-40918748D02*
X135383114Y-40823510D01*
X135383114Y-40823510D02*
X135383114Y-40537796D01*
X135383114Y-40537796D02*
X135430733Y-40442558D01*
X135430733Y-40442558D02*
X135478352Y-40394939D01*
X135478352Y-40394939D02*
X135573590Y-40347320D01*
X135573590Y-40347320D02*
X135764066Y-40347320D01*
X135764066Y-40347320D02*
X135859304Y-40394939D01*
X117621207Y-42623931D02*
X117287874Y-42147740D01*
X117049779Y-42623931D02*
X117049779Y-41623931D01*
X117049779Y-41623931D02*
X117430731Y-41623931D01*
X117430731Y-41623931D02*
X117525969Y-41671550D01*
X117525969Y-41671550D02*
X117573588Y-41719169D01*
X117573588Y-41719169D02*
X117621207Y-41814407D01*
X117621207Y-41814407D02*
X117621207Y-41957264D01*
X117621207Y-41957264D02*
X117573588Y-42052502D01*
X117573588Y-42052502D02*
X117525969Y-42100121D01*
X117525969Y-42100121D02*
X117430731Y-42147740D01*
X117430731Y-42147740D02*
X117049779Y-42147740D01*
X118430731Y-42576312D02*
X118335493Y-42623931D01*
X118335493Y-42623931D02*
X118145017Y-42623931D01*
X118145017Y-42623931D02*
X118049779Y-42576312D01*
X118049779Y-42576312D02*
X118002160Y-42481073D01*
X118002160Y-42481073D02*
X118002160Y-42100121D01*
X118002160Y-42100121D02*
X118049779Y-42004883D01*
X118049779Y-42004883D02*
X118145017Y-41957264D01*
X118145017Y-41957264D02*
X118335493Y-41957264D01*
X118335493Y-41957264D02*
X118430731Y-42004883D01*
X118430731Y-42004883D02*
X118478350Y-42100121D01*
X118478350Y-42100121D02*
X118478350Y-42195359D01*
X118478350Y-42195359D02*
X118002160Y-42290597D01*
X118811684Y-41957264D02*
X119049779Y-42623931D01*
X119049779Y-42623931D02*
X119287874Y-41957264D01*
X120954541Y-42623931D02*
X120383113Y-42623931D01*
X120668827Y-42623931D02*
X120668827Y-41623931D01*
X120668827Y-41623931D02*
X120573589Y-41766788D01*
X120573589Y-41766788D02*
X120478351Y-41862026D01*
X120478351Y-41862026D02*
X120383113Y-41909645D01*
X121383113Y-42528692D02*
X121430732Y-42576312D01*
X121430732Y-42576312D02*
X121383113Y-42623931D01*
X121383113Y-42623931D02*
X121335494Y-42576312D01*
X121335494Y-42576312D02*
X121383113Y-42528692D01*
X121383113Y-42528692D02*
X121383113Y-42623931D01*
X122383112Y-42623931D02*
X121811684Y-42623931D01*
X122097398Y-42623931D02*
X122097398Y-41623931D01*
X122097398Y-41623931D02*
X122002160Y-41766788D01*
X122002160Y-41766788D02*
X121906922Y-41862026D01*
X121906922Y-41862026D02*
X121811684Y-41909645D01*
X117240255Y-43233875D02*
X117430731Y-43233875D01*
X117430731Y-43233875D02*
X117525969Y-43281494D01*
X117525969Y-43281494D02*
X117621207Y-43376732D01*
X117621207Y-43376732D02*
X117668826Y-43567208D01*
X117668826Y-43567208D02*
X117668826Y-43900541D01*
X117668826Y-43900541D02*
X117621207Y-44091017D01*
X117621207Y-44091017D02*
X117525969Y-44186256D01*
X117525969Y-44186256D02*
X117430731Y-44233875D01*
X117430731Y-44233875D02*
X117240255Y-44233875D01*
X117240255Y-44233875D02*
X117145017Y-44186256D01*
X117145017Y-44186256D02*
X117049779Y-44091017D01*
X117049779Y-44091017D02*
X117002160Y-43900541D01*
X117002160Y-43900541D02*
X117002160Y-43567208D01*
X117002160Y-43567208D02*
X117049779Y-43376732D01*
X117049779Y-43376732D02*
X117145017Y-43281494D01*
X117145017Y-43281494D02*
X117240255Y-43233875D01*
X118525969Y-44233875D02*
X118525969Y-43233875D01*
X118525969Y-44186256D02*
X118430731Y-44233875D01*
X118430731Y-44233875D02*
X118240255Y-44233875D01*
X118240255Y-44233875D02*
X118145017Y-44186256D01*
X118145017Y-44186256D02*
X118097398Y-44138636D01*
X118097398Y-44138636D02*
X118049779Y-44043398D01*
X118049779Y-44043398D02*
X118049779Y-43757684D01*
X118049779Y-43757684D02*
X118097398Y-43662446D01*
X118097398Y-43662446D02*
X118145017Y-43614827D01*
X118145017Y-43614827D02*
X118240255Y-43567208D01*
X118240255Y-43567208D02*
X118430731Y-43567208D01*
X118430731Y-43567208D02*
X118525969Y-43614827D01*
X119430731Y-44233875D02*
X119430731Y-43710065D01*
X119430731Y-43710065D02*
X119383112Y-43614827D01*
X119383112Y-43614827D02*
X119287874Y-43567208D01*
X119287874Y-43567208D02*
X119097398Y-43567208D01*
X119097398Y-43567208D02*
X119002160Y-43614827D01*
X119430731Y-44186256D02*
X119335493Y-44233875D01*
X119335493Y-44233875D02*
X119097398Y-44233875D01*
X119097398Y-44233875D02*
X119002160Y-44186256D01*
X119002160Y-44186256D02*
X118954541Y-44091017D01*
X118954541Y-44091017D02*
X118954541Y-43995779D01*
X118954541Y-43995779D02*
X119002160Y-43900541D01*
X119002160Y-43900541D02*
X119097398Y-43852922D01*
X119097398Y-43852922D02*
X119335493Y-43852922D01*
X119335493Y-43852922D02*
X119430731Y-43805303D01*
X119906922Y-44233875D02*
X119906922Y-43567208D01*
X119906922Y-43662446D02*
X119954541Y-43614827D01*
X119954541Y-43614827D02*
X120049779Y-43567208D01*
X120049779Y-43567208D02*
X120192636Y-43567208D01*
X120192636Y-43567208D02*
X120287874Y-43614827D01*
X120287874Y-43614827D02*
X120335493Y-43710065D01*
X120335493Y-43710065D02*
X120335493Y-44233875D01*
X120335493Y-43710065D02*
X120383112Y-43614827D01*
X120383112Y-43614827D02*
X120478350Y-43567208D01*
X120478350Y-43567208D02*
X120621207Y-43567208D01*
X120621207Y-43567208D02*
X120716446Y-43614827D01*
X120716446Y-43614827D02*
X120764065Y-43710065D01*
X120764065Y-43710065D02*
X120764065Y-44233875D01*
X121621207Y-44186256D02*
X121525969Y-44233875D01*
X121525969Y-44233875D02*
X121335493Y-44233875D01*
X121335493Y-44233875D02*
X121240255Y-44186256D01*
X121240255Y-44186256D02*
X121192636Y-44091017D01*
X121192636Y-44091017D02*
X121192636Y-43710065D01*
X121192636Y-43710065D02*
X121240255Y-43614827D01*
X121240255Y-43614827D02*
X121335493Y-43567208D01*
X121335493Y-43567208D02*
X121525969Y-43567208D01*
X121525969Y-43567208D02*
X121621207Y-43614827D01*
X121621207Y-43614827D02*
X121668826Y-43710065D01*
X121668826Y-43710065D02*
X121668826Y-43805303D01*
X121668826Y-43805303D02*
X121192636Y-43900541D01*
X122811683Y-43186256D02*
X121954541Y-44471970D01*
X123002160Y-43233875D02*
X123573588Y-43233875D01*
X123287874Y-44233875D02*
X123287874Y-43233875D01*
X123906922Y-44233875D02*
X123906922Y-43567208D01*
X123906922Y-43757684D02*
X123954541Y-43662446D01*
X123954541Y-43662446D02*
X124002160Y-43614827D01*
X124002160Y-43614827D02*
X124097398Y-43567208D01*
X124097398Y-43567208D02*
X124192636Y-43567208D01*
X124954541Y-43567208D02*
X124954541Y-44233875D01*
X124525970Y-43567208D02*
X124525970Y-44091017D01*
X124525970Y-44091017D02*
X124573589Y-44186256D01*
X124573589Y-44186256D02*
X124668827Y-44233875D01*
X124668827Y-44233875D02*
X124811684Y-44233875D01*
X124811684Y-44233875D02*
X124906922Y-44186256D01*
X124906922Y-44186256D02*
X124954541Y-44138636D01*
X125811684Y-44186256D02*
X125716446Y-44233875D01*
X125716446Y-44233875D02*
X125525970Y-44233875D01*
X125525970Y-44233875D02*
X125430732Y-44186256D01*
X125430732Y-44186256D02*
X125383113Y-44091017D01*
X125383113Y-44091017D02*
X125383113Y-43710065D01*
X125383113Y-43710065D02*
X125430732Y-43614827D01*
X125430732Y-43614827D02*
X125525970Y-43567208D01*
X125525970Y-43567208D02*
X125716446Y-43567208D01*
X125716446Y-43567208D02*
X125811684Y-43614827D01*
X125811684Y-43614827D02*
X125859303Y-43710065D01*
X125859303Y-43710065D02*
X125859303Y-43805303D01*
X125859303Y-43805303D02*
X125383113Y-43900541D01*
X126192637Y-44233875D02*
X126716446Y-43567208D01*
X126192637Y-43567208D02*
X126716446Y-44233875D01*
X127811684Y-43186256D02*
X126954542Y-44471970D01*
X128478351Y-43710065D02*
X128621208Y-43757684D01*
X128621208Y-43757684D02*
X128668827Y-43805303D01*
X128668827Y-43805303D02*
X128716446Y-43900541D01*
X128716446Y-43900541D02*
X128716446Y-44043398D01*
X128716446Y-44043398D02*
X128668827Y-44138636D01*
X128668827Y-44138636D02*
X128621208Y-44186256D01*
X128621208Y-44186256D02*
X128525970Y-44233875D01*
X128525970Y-44233875D02*
X128145018Y-44233875D01*
X128145018Y-44233875D02*
X128145018Y-43233875D01*
X128145018Y-43233875D02*
X128478351Y-43233875D01*
X128478351Y-43233875D02*
X128573589Y-43281494D01*
X128573589Y-43281494D02*
X128621208Y-43329113D01*
X128621208Y-43329113D02*
X128668827Y-43424351D01*
X128668827Y-43424351D02*
X128668827Y-43519589D01*
X128668827Y-43519589D02*
X128621208Y-43614827D01*
X128621208Y-43614827D02*
X128573589Y-43662446D01*
X128573589Y-43662446D02*
X128478351Y-43710065D01*
X128478351Y-43710065D02*
X128145018Y-43710065D01*
X129573589Y-44233875D02*
X129573589Y-43710065D01*
X129573589Y-43710065D02*
X129525970Y-43614827D01*
X129525970Y-43614827D02*
X129430732Y-43567208D01*
X129430732Y-43567208D02*
X129240256Y-43567208D01*
X129240256Y-43567208D02*
X129145018Y-43614827D01*
X129573589Y-44186256D02*
X129478351Y-44233875D01*
X129478351Y-44233875D02*
X129240256Y-44233875D01*
X129240256Y-44233875D02*
X129145018Y-44186256D01*
X129145018Y-44186256D02*
X129097399Y-44091017D01*
X129097399Y-44091017D02*
X129097399Y-43995779D01*
X129097399Y-43995779D02*
X129145018Y-43900541D01*
X129145018Y-43900541D02*
X129240256Y-43852922D01*
X129240256Y-43852922D02*
X129478351Y-43852922D01*
X129478351Y-43852922D02*
X129573589Y-43805303D01*
X130049780Y-44233875D02*
X130049780Y-43567208D01*
X130049780Y-43757684D02*
X130097399Y-43662446D01*
X130097399Y-43662446D02*
X130145018Y-43614827D01*
X130145018Y-43614827D02*
X130240256Y-43567208D01*
X130240256Y-43567208D02*
X130335494Y-43567208D01*
X130668828Y-44233875D02*
X130668828Y-43567208D01*
X130668828Y-43757684D02*
X130716447Y-43662446D01*
X130716447Y-43662446D02*
X130764066Y-43614827D01*
X130764066Y-43614827D02*
X130859304Y-43567208D01*
X130859304Y-43567208D02*
X130954542Y-43567208D01*
X131192638Y-43567208D02*
X131430733Y-44233875D01*
X131668828Y-43567208D02*
X131430733Y-44233875D01*
X131430733Y-44233875D02*
X131335495Y-44471970D01*
X131335495Y-44471970D02*
X131287876Y-44519589D01*
X131287876Y-44519589D02*
X131192638Y-44567208D01*
X117621207Y-45748580D02*
X117573588Y-45796200D01*
X117573588Y-45796200D02*
X117430731Y-45843819D01*
X117430731Y-45843819D02*
X117335493Y-45843819D01*
X117335493Y-45843819D02*
X117192636Y-45796200D01*
X117192636Y-45796200D02*
X117097398Y-45700961D01*
X117097398Y-45700961D02*
X117049779Y-45605723D01*
X117049779Y-45605723D02*
X117002160Y-45415247D01*
X117002160Y-45415247D02*
X117002160Y-45272390D01*
X117002160Y-45272390D02*
X117049779Y-45081914D01*
X117049779Y-45081914D02*
X117097398Y-44986676D01*
X117097398Y-44986676D02*
X117192636Y-44891438D01*
X117192636Y-44891438D02*
X117335493Y-44843819D01*
X117335493Y-44843819D02*
X117430731Y-44843819D01*
X117430731Y-44843819D02*
X117573588Y-44891438D01*
X117573588Y-44891438D02*
X117621207Y-44939057D01*
X118192636Y-45843819D02*
X118097398Y-45796200D01*
X118097398Y-45796200D02*
X118049779Y-45748580D01*
X118049779Y-45748580D02*
X118002160Y-45653342D01*
X118002160Y-45653342D02*
X118002160Y-45367628D01*
X118002160Y-45367628D02*
X118049779Y-45272390D01*
X118049779Y-45272390D02*
X118097398Y-45224771D01*
X118097398Y-45224771D02*
X118192636Y-45177152D01*
X118192636Y-45177152D02*
X118335493Y-45177152D01*
X118335493Y-45177152D02*
X118430731Y-45224771D01*
X118430731Y-45224771D02*
X118478350Y-45272390D01*
X118478350Y-45272390D02*
X118525969Y-45367628D01*
X118525969Y-45367628D02*
X118525969Y-45653342D01*
X118525969Y-45653342D02*
X118478350Y-45748580D01*
X118478350Y-45748580D02*
X118430731Y-45796200D01*
X118430731Y-45796200D02*
X118335493Y-45843819D01*
X118335493Y-45843819D02*
X118192636Y-45843819D01*
X118954541Y-45177152D02*
X118954541Y-46177152D01*
X118954541Y-45224771D02*
X119049779Y-45177152D01*
X119049779Y-45177152D02*
X119240255Y-45177152D01*
X119240255Y-45177152D02*
X119335493Y-45224771D01*
X119335493Y-45224771D02*
X119383112Y-45272390D01*
X119383112Y-45272390D02*
X119430731Y-45367628D01*
X119430731Y-45367628D02*
X119430731Y-45653342D01*
X119430731Y-45653342D02*
X119383112Y-45748580D01*
X119383112Y-45748580D02*
X119335493Y-45796200D01*
X119335493Y-45796200D02*
X119240255Y-45843819D01*
X119240255Y-45843819D02*
X119049779Y-45843819D01*
X119049779Y-45843819D02*
X118954541Y-45796200D01*
X119764065Y-45177152D02*
X120002160Y-45843819D01*
X120240255Y-45177152D02*
X120002160Y-45843819D01*
X120002160Y-45843819D02*
X119906922Y-46081914D01*
X119906922Y-46081914D02*
X119859303Y-46129533D01*
X119859303Y-46129533D02*
X119764065Y-46177152D01*
X120621208Y-45843819D02*
X120621208Y-45177152D01*
X120621208Y-45367628D02*
X120668827Y-45272390D01*
X120668827Y-45272390D02*
X120716446Y-45224771D01*
X120716446Y-45224771D02*
X120811684Y-45177152D01*
X120811684Y-45177152D02*
X120906922Y-45177152D01*
X121240256Y-45843819D02*
X121240256Y-45177152D01*
X121240256Y-44843819D02*
X121192637Y-44891438D01*
X121192637Y-44891438D02*
X121240256Y-44939057D01*
X121240256Y-44939057D02*
X121287875Y-44891438D01*
X121287875Y-44891438D02*
X121240256Y-44843819D01*
X121240256Y-44843819D02*
X121240256Y-44939057D01*
X122145017Y-45177152D02*
X122145017Y-45986676D01*
X122145017Y-45986676D02*
X122097398Y-46081914D01*
X122097398Y-46081914D02*
X122049779Y-46129533D01*
X122049779Y-46129533D02*
X121954541Y-46177152D01*
X121954541Y-46177152D02*
X121811684Y-46177152D01*
X121811684Y-46177152D02*
X121716446Y-46129533D01*
X122145017Y-45796200D02*
X122049779Y-45843819D01*
X122049779Y-45843819D02*
X121859303Y-45843819D01*
X121859303Y-45843819D02*
X121764065Y-45796200D01*
X121764065Y-45796200D02*
X121716446Y-45748580D01*
X121716446Y-45748580D02*
X121668827Y-45653342D01*
X121668827Y-45653342D02*
X121668827Y-45367628D01*
X121668827Y-45367628D02*
X121716446Y-45272390D01*
X121716446Y-45272390D02*
X121764065Y-45224771D01*
X121764065Y-45224771D02*
X121859303Y-45177152D01*
X121859303Y-45177152D02*
X122049779Y-45177152D01*
X122049779Y-45177152D02*
X122145017Y-45224771D01*
X122621208Y-45843819D02*
X122621208Y-44843819D01*
X123049779Y-45843819D02*
X123049779Y-45320009D01*
X123049779Y-45320009D02*
X123002160Y-45224771D01*
X123002160Y-45224771D02*
X122906922Y-45177152D01*
X122906922Y-45177152D02*
X122764065Y-45177152D01*
X122764065Y-45177152D02*
X122668827Y-45224771D01*
X122668827Y-45224771D02*
X122621208Y-45272390D01*
X123383113Y-45177152D02*
X123764065Y-45177152D01*
X123525970Y-44843819D02*
X123525970Y-45700961D01*
X123525970Y-45700961D02*
X123573589Y-45796200D01*
X123573589Y-45796200D02*
X123668827Y-45843819D01*
X123668827Y-45843819D02*
X123764065Y-45843819D01*
X124811685Y-44939057D02*
X124859304Y-44891438D01*
X124859304Y-44891438D02*
X124954542Y-44843819D01*
X124954542Y-44843819D02*
X125192637Y-44843819D01*
X125192637Y-44843819D02*
X125287875Y-44891438D01*
X125287875Y-44891438D02*
X125335494Y-44939057D01*
X125335494Y-44939057D02*
X125383113Y-45034295D01*
X125383113Y-45034295D02*
X125383113Y-45129533D01*
X125383113Y-45129533D02*
X125335494Y-45272390D01*
X125335494Y-45272390D02*
X124764066Y-45843819D01*
X124764066Y-45843819D02*
X125383113Y-45843819D01*
X126002161Y-44843819D02*
X126097399Y-44843819D01*
X126097399Y-44843819D02*
X126192637Y-44891438D01*
X126192637Y-44891438D02*
X126240256Y-44939057D01*
X126240256Y-44939057D02*
X126287875Y-45034295D01*
X126287875Y-45034295D02*
X126335494Y-45224771D01*
X126335494Y-45224771D02*
X126335494Y-45462866D01*
X126335494Y-45462866D02*
X126287875Y-45653342D01*
X126287875Y-45653342D02*
X126240256Y-45748580D01*
X126240256Y-45748580D02*
X126192637Y-45796200D01*
X126192637Y-45796200D02*
X126097399Y-45843819D01*
X126097399Y-45843819D02*
X126002161Y-45843819D01*
X126002161Y-45843819D02*
X125906923Y-45796200D01*
X125906923Y-45796200D02*
X125859304Y-45748580D01*
X125859304Y-45748580D02*
X125811685Y-45653342D01*
X125811685Y-45653342D02*
X125764066Y-45462866D01*
X125764066Y-45462866D02*
X125764066Y-45224771D01*
X125764066Y-45224771D02*
X125811685Y-45034295D01*
X125811685Y-45034295D02*
X125859304Y-44939057D01*
X125859304Y-44939057D02*
X125906923Y-44891438D01*
X125906923Y-44891438D02*
X126002161Y-44843819D01*
X126716447Y-44939057D02*
X126764066Y-44891438D01*
X126764066Y-44891438D02*
X126859304Y-44843819D01*
X126859304Y-44843819D02*
X127097399Y-44843819D01*
X127097399Y-44843819D02*
X127192637Y-44891438D01*
X127192637Y-44891438D02*
X127240256Y-44939057D01*
X127240256Y-44939057D02*
X127287875Y-45034295D01*
X127287875Y-45034295D02*
X127287875Y-45129533D01*
X127287875Y-45129533D02*
X127240256Y-45272390D01*
X127240256Y-45272390D02*
X126668828Y-45843819D01*
X126668828Y-45843819D02*
X127287875Y-45843819D01*
X128145018Y-44843819D02*
X127954542Y-44843819D01*
X127954542Y-44843819D02*
X127859304Y-44891438D01*
X127859304Y-44891438D02*
X127811685Y-44939057D01*
X127811685Y-44939057D02*
X127716447Y-45081914D01*
X127716447Y-45081914D02*
X127668828Y-45272390D01*
X127668828Y-45272390D02*
X127668828Y-45653342D01*
X127668828Y-45653342D02*
X127716447Y-45748580D01*
X127716447Y-45748580D02*
X127764066Y-45796200D01*
X127764066Y-45796200D02*
X127859304Y-45843819D01*
X127859304Y-45843819D02*
X128049780Y-45843819D01*
X128049780Y-45843819D02*
X128145018Y-45796200D01*
X128145018Y-45796200D02*
X128192637Y-45748580D01*
X128192637Y-45748580D02*
X128240256Y-45653342D01*
X128240256Y-45653342D02*
X128240256Y-45415247D01*
X128240256Y-45415247D02*
X128192637Y-45320009D01*
X128192637Y-45320009D02*
X128145018Y-45272390D01*
X128145018Y-45272390D02*
X128049780Y-45224771D01*
X128049780Y-45224771D02*
X127859304Y-45224771D01*
X127859304Y-45224771D02*
X127764066Y-45272390D01*
X127764066Y-45272390D02*
X127716447Y-45320009D01*
X127716447Y-45320009D02*
X127668828Y-45415247D01*
X143959820Y-77350029D02*
X143959820Y-77826219D01*
X143959820Y-77826219D02*
X142959820Y-77826219D01*
X143959820Y-77016695D02*
X142959820Y-77016695D01*
X142959820Y-77016695D02*
X142959820Y-76635743D01*
X142959820Y-76635743D02*
X143007439Y-76540505D01*
X143007439Y-76540505D02*
X143055058Y-76492886D01*
X143055058Y-76492886D02*
X143150296Y-76445267D01*
X143150296Y-76445267D02*
X143293153Y-76445267D01*
X143293153Y-76445267D02*
X143388391Y-76492886D01*
X143388391Y-76492886D02*
X143436010Y-76540505D01*
X143436010Y-76540505D02*
X143483629Y-76635743D01*
X143483629Y-76635743D02*
X143483629Y-77016695D01*
X143436010Y-75683362D02*
X143436010Y-76016695D01*
X143959820Y-76016695D02*
X142959820Y-76016695D01*
X142959820Y-76016695D02*
X142959820Y-75540505D01*
X143055058Y-75207171D02*
X143007439Y-75159552D01*
X143007439Y-75159552D02*
X142959820Y-75064314D01*
X142959820Y-75064314D02*
X142959820Y-74826219D01*
X142959820Y-74826219D02*
X143007439Y-74730981D01*
X143007439Y-74730981D02*
X143055058Y-74683362D01*
X143055058Y-74683362D02*
X143150296Y-74635743D01*
X143150296Y-74635743D02*
X143245534Y-74635743D01*
X143245534Y-74635743D02*
X143388391Y-74683362D01*
X143388391Y-74683362D02*
X143959820Y-75254790D01*
X143959820Y-75254790D02*
X143959820Y-74635743D01*
D11*
X157899415Y-132581638D02*
X157232748Y-131629257D01*
X156756558Y-132581638D02*
X156756558Y-130581638D01*
X156756558Y-130581638D02*
X157518463Y-130581638D01*
X157518463Y-130581638D02*
X157708939Y-130676876D01*
X157708939Y-130676876D02*
X157804177Y-130772114D01*
X157804177Y-130772114D02*
X157899415Y-130962590D01*
X157899415Y-130962590D02*
X157899415Y-131248304D01*
X157899415Y-131248304D02*
X157804177Y-131438780D01*
X157804177Y-131438780D02*
X157708939Y-131534019D01*
X157708939Y-131534019D02*
X157518463Y-131629257D01*
X157518463Y-131629257D02*
X156756558Y-131629257D01*
X159708939Y-132581638D02*
X158756558Y-132581638D01*
X158756558Y-132581638D02*
X158756558Y-130581638D01*
X160375606Y-132581638D02*
X160375606Y-130581638D01*
X160375606Y-130581638D02*
X160851796Y-130581638D01*
X160851796Y-130581638D02*
X161137511Y-130676876D01*
X161137511Y-130676876D02*
X161327987Y-130867352D01*
X161327987Y-130867352D02*
X161423225Y-131057828D01*
X161423225Y-131057828D02*
X161518463Y-131438780D01*
X161518463Y-131438780D02*
X161518463Y-131724495D01*
X161518463Y-131724495D02*
X161423225Y-132105447D01*
X161423225Y-132105447D02*
X161327987Y-132295923D01*
X161327987Y-132295923D02*
X161137511Y-132486400D01*
X161137511Y-132486400D02*
X160851796Y-132581638D01*
X160851796Y-132581638D02*
X160375606Y-132581638D01*
D10*
X120021542Y-74053819D02*
X120640589Y-74053819D01*
X120640589Y-74053819D02*
X120307256Y-74434771D01*
X120307256Y-74434771D02*
X120450113Y-74434771D01*
X120450113Y-74434771D02*
X120545351Y-74482390D01*
X120545351Y-74482390D02*
X120592970Y-74530009D01*
X120592970Y-74530009D02*
X120640589Y-74625247D01*
X120640589Y-74625247D02*
X120640589Y-74863342D01*
X120640589Y-74863342D02*
X120592970Y-74958580D01*
X120592970Y-74958580D02*
X120545351Y-75006200D01*
X120545351Y-75006200D02*
X120450113Y-75053819D01*
X120450113Y-75053819D02*
X120164399Y-75053819D01*
X120164399Y-75053819D02*
X120069161Y-75006200D01*
X120069161Y-75006200D02*
X120021542Y-74958580D01*
X121069161Y-74672866D02*
X121831066Y-74672866D01*
X122212018Y-74053819D02*
X122450113Y-75053819D01*
X122450113Y-75053819D02*
X122640589Y-74339533D01*
X122640589Y-74339533D02*
X122831065Y-75053819D01*
X122831065Y-75053819D02*
X123069161Y-74053819D01*
X123450113Y-75053819D02*
X123450113Y-74053819D01*
X124497731Y-75053819D02*
X124164398Y-74577628D01*
X123926303Y-75053819D02*
X123926303Y-74053819D01*
X123926303Y-74053819D02*
X124307255Y-74053819D01*
X124307255Y-74053819D02*
X124402493Y-74101438D01*
X124402493Y-74101438D02*
X124450112Y-74149057D01*
X124450112Y-74149057D02*
X124497731Y-74244295D01*
X124497731Y-74244295D02*
X124497731Y-74387152D01*
X124497731Y-74387152D02*
X124450112Y-74482390D01*
X124450112Y-74482390D02*
X124402493Y-74530009D01*
X124402493Y-74530009D02*
X124307255Y-74577628D01*
X124307255Y-74577628D02*
X123926303Y-74577628D01*
X124926303Y-74530009D02*
X125259636Y-74530009D01*
X125402493Y-75053819D02*
X124926303Y-75053819D01*
X124926303Y-75053819D02*
X124926303Y-74053819D01*
X124926303Y-74053819D02*
X125402493Y-74053819D01*
X137889160Y-71574160D02*
X138365350Y-71574160D01*
X137793922Y-71859875D02*
X138127255Y-70859875D01*
X138127255Y-70859875D02*
X138460588Y-71859875D01*
X138793922Y-71859875D02*
X138793922Y-70859875D01*
X138793922Y-70859875D02*
X139365350Y-71859875D01*
X139365350Y-71859875D02*
X139365350Y-70859875D01*
X139793922Y-71574160D02*
X140270112Y-71574160D01*
X139698684Y-71859875D02*
X140032017Y-70859875D01*
X140032017Y-70859875D02*
X140365350Y-71859875D01*
X141174874Y-71859875D02*
X140698684Y-71859875D01*
X140698684Y-71859875D02*
X140698684Y-70859875D01*
X141698684Y-70859875D02*
X141889160Y-70859875D01*
X141889160Y-70859875D02*
X141984398Y-70907494D01*
X141984398Y-70907494D02*
X142079636Y-71002732D01*
X142079636Y-71002732D02*
X142127255Y-71193208D01*
X142127255Y-71193208D02*
X142127255Y-71526541D01*
X142127255Y-71526541D02*
X142079636Y-71717017D01*
X142079636Y-71717017D02*
X141984398Y-71812256D01*
X141984398Y-71812256D02*
X141889160Y-71859875D01*
X141889160Y-71859875D02*
X141698684Y-71859875D01*
X141698684Y-71859875D02*
X141603446Y-71812256D01*
X141603446Y-71812256D02*
X141508208Y-71717017D01*
X141508208Y-71717017D02*
X141460589Y-71526541D01*
X141460589Y-71526541D02*
X141460589Y-71193208D01*
X141460589Y-71193208D02*
X141508208Y-71002732D01*
X141508208Y-71002732D02*
X141603446Y-70907494D01*
X141603446Y-70907494D02*
X141698684Y-70859875D01*
X143079636Y-70907494D02*
X142984398Y-70859875D01*
X142984398Y-70859875D02*
X142841541Y-70859875D01*
X142841541Y-70859875D02*
X142698684Y-70907494D01*
X142698684Y-70907494D02*
X142603446Y-71002732D01*
X142603446Y-71002732D02*
X142555827Y-71097970D01*
X142555827Y-71097970D02*
X142508208Y-71288446D01*
X142508208Y-71288446D02*
X142508208Y-71431303D01*
X142508208Y-71431303D02*
X142555827Y-71621779D01*
X142555827Y-71621779D02*
X142603446Y-71717017D01*
X142603446Y-71717017D02*
X142698684Y-71812256D01*
X142698684Y-71812256D02*
X142841541Y-71859875D01*
X142841541Y-71859875D02*
X142936779Y-71859875D01*
X142936779Y-71859875D02*
X143079636Y-71812256D01*
X143079636Y-71812256D02*
X143127255Y-71764636D01*
X143127255Y-71764636D02*
X143127255Y-71431303D01*
X143127255Y-71431303D02*
X142936779Y-71431303D01*
X138127255Y-72469819D02*
X138317731Y-72469819D01*
X138317731Y-72469819D02*
X138412969Y-72517438D01*
X138412969Y-72517438D02*
X138508207Y-72612676D01*
X138508207Y-72612676D02*
X138555826Y-72803152D01*
X138555826Y-72803152D02*
X138555826Y-73136485D01*
X138555826Y-73136485D02*
X138508207Y-73326961D01*
X138508207Y-73326961D02*
X138412969Y-73422200D01*
X138412969Y-73422200D02*
X138317731Y-73469819D01*
X138317731Y-73469819D02*
X138127255Y-73469819D01*
X138127255Y-73469819D02*
X138032017Y-73422200D01*
X138032017Y-73422200D02*
X137936779Y-73326961D01*
X137936779Y-73326961D02*
X137889160Y-73136485D01*
X137889160Y-73136485D02*
X137889160Y-72803152D01*
X137889160Y-72803152D02*
X137936779Y-72612676D01*
X137936779Y-72612676D02*
X138032017Y-72517438D01*
X138032017Y-72517438D02*
X138127255Y-72469819D01*
X138984398Y-72469819D02*
X138984398Y-73279342D01*
X138984398Y-73279342D02*
X139032017Y-73374580D01*
X139032017Y-73374580D02*
X139079636Y-73422200D01*
X139079636Y-73422200D02*
X139174874Y-73469819D01*
X139174874Y-73469819D02*
X139365350Y-73469819D01*
X139365350Y-73469819D02*
X139460588Y-73422200D01*
X139460588Y-73422200D02*
X139508207Y-73374580D01*
X139508207Y-73374580D02*
X139555826Y-73279342D01*
X139555826Y-73279342D02*
X139555826Y-72469819D01*
X139889160Y-72469819D02*
X140460588Y-72469819D01*
X140174874Y-73469819D02*
X140174874Y-72469819D01*
X140793922Y-73469819D02*
X140793922Y-72469819D01*
X140793922Y-72469819D02*
X141174874Y-72469819D01*
X141174874Y-72469819D02*
X141270112Y-72517438D01*
X141270112Y-72517438D02*
X141317731Y-72565057D01*
X141317731Y-72565057D02*
X141365350Y-72660295D01*
X141365350Y-72660295D02*
X141365350Y-72803152D01*
X141365350Y-72803152D02*
X141317731Y-72898390D01*
X141317731Y-72898390D02*
X141270112Y-72946009D01*
X141270112Y-72946009D02*
X141174874Y-72993628D01*
X141174874Y-72993628D02*
X140793922Y-72993628D01*
X141793922Y-72469819D02*
X141793922Y-73279342D01*
X141793922Y-73279342D02*
X141841541Y-73374580D01*
X141841541Y-73374580D02*
X141889160Y-73422200D01*
X141889160Y-73422200D02*
X141984398Y-73469819D01*
X141984398Y-73469819D02*
X142174874Y-73469819D01*
X142174874Y-73469819D02*
X142270112Y-73422200D01*
X142270112Y-73422200D02*
X142317731Y-73374580D01*
X142317731Y-73374580D02*
X142365350Y-73279342D01*
X142365350Y-73279342D02*
X142365350Y-72469819D01*
X142698684Y-72469819D02*
X143270112Y-72469819D01*
X142984398Y-73469819D02*
X142984398Y-72469819D01*
X163658779Y-74926866D02*
X164420684Y-74926866D01*
X164039731Y-75307819D02*
X164039731Y-74545914D01*
X164944493Y-75307819D02*
X165134969Y-75307819D01*
X165134969Y-75307819D02*
X165230207Y-75260200D01*
X165230207Y-75260200D02*
X165277826Y-75212580D01*
X165277826Y-75212580D02*
X165373064Y-75069723D01*
X165373064Y-75069723D02*
X165420683Y-74879247D01*
X165420683Y-74879247D02*
X165420683Y-74498295D01*
X165420683Y-74498295D02*
X165373064Y-74403057D01*
X165373064Y-74403057D02*
X165325445Y-74355438D01*
X165325445Y-74355438D02*
X165230207Y-74307819D01*
X165230207Y-74307819D02*
X165039731Y-74307819D01*
X165039731Y-74307819D02*
X164944493Y-74355438D01*
X164944493Y-74355438D02*
X164896874Y-74403057D01*
X164896874Y-74403057D02*
X164849255Y-74498295D01*
X164849255Y-74498295D02*
X164849255Y-74736390D01*
X164849255Y-74736390D02*
X164896874Y-74831628D01*
X164896874Y-74831628D02*
X164944493Y-74879247D01*
X164944493Y-74879247D02*
X165039731Y-74926866D01*
X165039731Y-74926866D02*
X165230207Y-74926866D01*
X165230207Y-74926866D02*
X165325445Y-74879247D01*
X165325445Y-74879247D02*
X165373064Y-74831628D01*
X165373064Y-74831628D02*
X165420683Y-74736390D01*
X165706398Y-74307819D02*
X166039731Y-75307819D01*
X166039731Y-75307819D02*
X166373064Y-74307819D01*
D11*
X104622939Y-132708638D02*
X103670558Y-132708638D01*
X103670558Y-132708638D02*
X103670558Y-130708638D01*
X105289606Y-131661019D02*
X105956273Y-131661019D01*
X106241987Y-132708638D02*
X105289606Y-132708638D01*
X105289606Y-132708638D02*
X105289606Y-130708638D01*
X105289606Y-130708638D02*
X106241987Y-130708638D01*
X107765797Y-131661019D02*
X107099130Y-131661019D01*
X107099130Y-132708638D02*
X107099130Y-130708638D01*
X107099130Y-130708638D02*
X108051511Y-130708638D01*
X108527702Y-130708638D02*
X109670559Y-130708638D01*
X109099130Y-132708638D02*
X109099130Y-130708638D01*
D10*
X115764107Y-78568657D02*
X115811726Y-78521038D01*
X115811726Y-78521038D02*
X115906964Y-78473419D01*
X115906964Y-78473419D02*
X116145059Y-78473419D01*
X116145059Y-78473419D02*
X116240297Y-78521038D01*
X116240297Y-78521038D02*
X116287916Y-78568657D01*
X116287916Y-78568657D02*
X116335535Y-78663895D01*
X116335535Y-78663895D02*
X116335535Y-78759133D01*
X116335535Y-78759133D02*
X116287916Y-78901990D01*
X116287916Y-78901990D02*
X115716488Y-79473419D01*
X115716488Y-79473419D02*
X116335535Y-79473419D01*
X116764107Y-79092466D02*
X117526012Y-79092466D01*
X117906964Y-78473419D02*
X118145059Y-79473419D01*
X118145059Y-79473419D02*
X118335535Y-78759133D01*
X118335535Y-78759133D02*
X118526011Y-79473419D01*
X118526011Y-79473419D02*
X118764107Y-78473419D01*
X119145059Y-79473419D02*
X119145059Y-78473419D01*
X120192677Y-79473419D02*
X119859344Y-78997228D01*
X119621249Y-79473419D02*
X119621249Y-78473419D01*
X119621249Y-78473419D02*
X120002201Y-78473419D01*
X120002201Y-78473419D02*
X120097439Y-78521038D01*
X120097439Y-78521038D02*
X120145058Y-78568657D01*
X120145058Y-78568657D02*
X120192677Y-78663895D01*
X120192677Y-78663895D02*
X120192677Y-78806752D01*
X120192677Y-78806752D02*
X120145058Y-78901990D01*
X120145058Y-78901990D02*
X120097439Y-78949609D01*
X120097439Y-78949609D02*
X120002201Y-78997228D01*
X120002201Y-78997228D02*
X119621249Y-78997228D01*
X120621249Y-78949609D02*
X120954582Y-78949609D01*
X121097439Y-79473419D02*
X120621249Y-79473419D01*
X120621249Y-79473419D02*
X120621249Y-78473419D01*
X120621249Y-78473419D02*
X121097439Y-78473419D01*
X133312969Y-79869819D02*
X132836779Y-79869819D01*
X132836779Y-79869819D02*
X132836779Y-78869819D01*
X133836779Y-78869819D02*
X134027255Y-78869819D01*
X134027255Y-78869819D02*
X134122493Y-78917438D01*
X134122493Y-78917438D02*
X134217731Y-79012676D01*
X134217731Y-79012676D02*
X134265350Y-79203152D01*
X134265350Y-79203152D02*
X134265350Y-79536485D01*
X134265350Y-79536485D02*
X134217731Y-79726961D01*
X134217731Y-79726961D02*
X134122493Y-79822200D01*
X134122493Y-79822200D02*
X134027255Y-79869819D01*
X134027255Y-79869819D02*
X133836779Y-79869819D01*
X133836779Y-79869819D02*
X133741541Y-79822200D01*
X133741541Y-79822200D02*
X133646303Y-79726961D01*
X133646303Y-79726961D02*
X133598684Y-79536485D01*
X133598684Y-79536485D02*
X133598684Y-79203152D01*
X133598684Y-79203152D02*
X133646303Y-79012676D01*
X133646303Y-79012676D02*
X133741541Y-78917438D01*
X133741541Y-78917438D02*
X133836779Y-78869819D01*
X134693922Y-79869819D02*
X134693922Y-78869819D01*
X134693922Y-78869819D02*
X134932017Y-78869819D01*
X134932017Y-78869819D02*
X135074874Y-78917438D01*
X135074874Y-78917438D02*
X135170112Y-79012676D01*
X135170112Y-79012676D02*
X135217731Y-79107914D01*
X135217731Y-79107914D02*
X135265350Y-79298390D01*
X135265350Y-79298390D02*
X135265350Y-79441247D01*
X135265350Y-79441247D02*
X135217731Y-79631723D01*
X135217731Y-79631723D02*
X135170112Y-79726961D01*
X135170112Y-79726961D02*
X135074874Y-79822200D01*
X135074874Y-79822200D02*
X134932017Y-79869819D01*
X134932017Y-79869819D02*
X134693922Y-79869819D01*
X135693922Y-79488866D02*
X136455827Y-79488866D01*
X126019160Y-92278200D02*
X126162017Y-92325819D01*
X126162017Y-92325819D02*
X126400112Y-92325819D01*
X126400112Y-92325819D02*
X126495350Y-92278200D01*
X126495350Y-92278200D02*
X126542969Y-92230580D01*
X126542969Y-92230580D02*
X126590588Y-92135342D01*
X126590588Y-92135342D02*
X126590588Y-92040104D01*
X126590588Y-92040104D02*
X126542969Y-91944866D01*
X126542969Y-91944866D02*
X126495350Y-91897247D01*
X126495350Y-91897247D02*
X126400112Y-91849628D01*
X126400112Y-91849628D02*
X126209636Y-91802009D01*
X126209636Y-91802009D02*
X126114398Y-91754390D01*
X126114398Y-91754390D02*
X126066779Y-91706771D01*
X126066779Y-91706771D02*
X126019160Y-91611533D01*
X126019160Y-91611533D02*
X126019160Y-91516295D01*
X126019160Y-91516295D02*
X126066779Y-91421057D01*
X126066779Y-91421057D02*
X126114398Y-91373438D01*
X126114398Y-91373438D02*
X126209636Y-91325819D01*
X126209636Y-91325819D02*
X126447731Y-91325819D01*
X126447731Y-91325819D02*
X126590588Y-91373438D01*
X126923922Y-91325819D02*
X127162017Y-92325819D01*
X127162017Y-92325819D02*
X127352493Y-91611533D01*
X127352493Y-91611533D02*
X127542969Y-92325819D01*
X127542969Y-92325819D02*
X127781065Y-91325819D01*
X164944588Y-79689438D02*
X164849350Y-79641819D01*
X164849350Y-79641819D02*
X164706493Y-79641819D01*
X164706493Y-79641819D02*
X164563636Y-79689438D01*
X164563636Y-79689438D02*
X164468398Y-79784676D01*
X164468398Y-79784676D02*
X164420779Y-79879914D01*
X164420779Y-79879914D02*
X164373160Y-80070390D01*
X164373160Y-80070390D02*
X164373160Y-80213247D01*
X164373160Y-80213247D02*
X164420779Y-80403723D01*
X164420779Y-80403723D02*
X164468398Y-80498961D01*
X164468398Y-80498961D02*
X164563636Y-80594200D01*
X164563636Y-80594200D02*
X164706493Y-80641819D01*
X164706493Y-80641819D02*
X164801731Y-80641819D01*
X164801731Y-80641819D02*
X164944588Y-80594200D01*
X164944588Y-80594200D02*
X164992207Y-80546580D01*
X164992207Y-80546580D02*
X164992207Y-80213247D01*
X164992207Y-80213247D02*
X164801731Y-80213247D01*
X165420779Y-80641819D02*
X165420779Y-79641819D01*
X165420779Y-79641819D02*
X165992207Y-80641819D01*
X165992207Y-80641819D02*
X165992207Y-79641819D01*
X166468398Y-80641819D02*
X166468398Y-79641819D01*
X166468398Y-79641819D02*
X166706493Y-79641819D01*
X166706493Y-79641819D02*
X166849350Y-79689438D01*
X166849350Y-79689438D02*
X166944588Y-79784676D01*
X166944588Y-79784676D02*
X166992207Y-79879914D01*
X166992207Y-79879914D02*
X167039826Y-80070390D01*
X167039826Y-80070390D02*
X167039826Y-80213247D01*
X167039826Y-80213247D02*
X166992207Y-80403723D01*
X166992207Y-80403723D02*
X166944588Y-80498961D01*
X166944588Y-80498961D02*
X166849350Y-80594200D01*
X166849350Y-80594200D02*
X166706493Y-80641819D01*
X166706493Y-80641819D02*
X166468398Y-80641819D01*
D11*
X129705415Y-132708638D02*
X129038748Y-131756257D01*
X128562558Y-132708638D02*
X128562558Y-130708638D01*
X128562558Y-130708638D02*
X129324463Y-130708638D01*
X129324463Y-130708638D02*
X129514939Y-130803876D01*
X129514939Y-130803876D02*
X129610177Y-130899114D01*
X129610177Y-130899114D02*
X129705415Y-131089590D01*
X129705415Y-131089590D02*
X129705415Y-131375304D01*
X129705415Y-131375304D02*
X129610177Y-131565780D01*
X129610177Y-131565780D02*
X129514939Y-131661019D01*
X129514939Y-131661019D02*
X129324463Y-131756257D01*
X129324463Y-131756257D02*
X128562558Y-131756257D01*
X130562558Y-132708638D02*
X130562558Y-130708638D01*
X132562558Y-130803876D02*
X132372082Y-130708638D01*
X132372082Y-130708638D02*
X132086368Y-130708638D01*
X132086368Y-130708638D02*
X131800653Y-130803876D01*
X131800653Y-130803876D02*
X131610177Y-130994352D01*
X131610177Y-130994352D02*
X131514939Y-131184828D01*
X131514939Y-131184828D02*
X131419701Y-131565780D01*
X131419701Y-131565780D02*
X131419701Y-131851495D01*
X131419701Y-131851495D02*
X131514939Y-132232447D01*
X131514939Y-132232447D02*
X131610177Y-132422923D01*
X131610177Y-132422923D02*
X131800653Y-132613400D01*
X131800653Y-132613400D02*
X132086368Y-132708638D01*
X132086368Y-132708638D02*
X132276844Y-132708638D01*
X132276844Y-132708638D02*
X132562558Y-132613400D01*
X132562558Y-132613400D02*
X132657796Y-132518161D01*
X132657796Y-132518161D02*
X132657796Y-131851495D01*
X132657796Y-131851495D02*
X132276844Y-131851495D01*
X133514939Y-132708638D02*
X133514939Y-130708638D01*
X133514939Y-131661019D02*
X134657796Y-131661019D01*
X134657796Y-132708638D02*
X134657796Y-130708638D01*
X135324463Y-130708638D02*
X136467320Y-130708638D01*
X135895891Y-132708638D02*
X135895891Y-130708638D01*
D10*
X144322969Y-96135819D02*
X143846779Y-96135819D01*
X143846779Y-96135819D02*
X143846779Y-95135819D01*
X144656303Y-96135819D02*
X144656303Y-95135819D01*
X144656303Y-95135819D02*
X145037255Y-95135819D01*
X145037255Y-95135819D02*
X145132493Y-95183438D01*
X145132493Y-95183438D02*
X145180112Y-95231057D01*
X145180112Y-95231057D02*
X145227731Y-95326295D01*
X145227731Y-95326295D02*
X145227731Y-95469152D01*
X145227731Y-95469152D02*
X145180112Y-95564390D01*
X145180112Y-95564390D02*
X145132493Y-95612009D01*
X145132493Y-95612009D02*
X145037255Y-95659628D01*
X145037255Y-95659628D02*
X144656303Y-95659628D01*
X145989636Y-95612009D02*
X145656303Y-95612009D01*
X145656303Y-96135819D02*
X145656303Y-95135819D01*
X145656303Y-95135819D02*
X146132493Y-95135819D01*
X147037255Y-96135819D02*
X146465827Y-96135819D01*
X146751541Y-96135819D02*
X146751541Y-95135819D01*
X146751541Y-95135819D02*
X146656303Y-95278676D01*
X146656303Y-95278676D02*
X146561065Y-95373914D01*
X146561065Y-95373914D02*
X146465827Y-95421533D01*
X128012969Y-79869819D02*
X127536779Y-79869819D01*
X127536779Y-79869819D02*
X127536779Y-78869819D01*
X128536779Y-78869819D02*
X128727255Y-78869819D01*
X128727255Y-78869819D02*
X128822493Y-78917438D01*
X128822493Y-78917438D02*
X128917731Y-79012676D01*
X128917731Y-79012676D02*
X128965350Y-79203152D01*
X128965350Y-79203152D02*
X128965350Y-79536485D01*
X128965350Y-79536485D02*
X128917731Y-79726961D01*
X128917731Y-79726961D02*
X128822493Y-79822200D01*
X128822493Y-79822200D02*
X128727255Y-79869819D01*
X128727255Y-79869819D02*
X128536779Y-79869819D01*
X128536779Y-79869819D02*
X128441541Y-79822200D01*
X128441541Y-79822200D02*
X128346303Y-79726961D01*
X128346303Y-79726961D02*
X128298684Y-79536485D01*
X128298684Y-79536485D02*
X128298684Y-79203152D01*
X128298684Y-79203152D02*
X128346303Y-79012676D01*
X128346303Y-79012676D02*
X128441541Y-78917438D01*
X128441541Y-78917438D02*
X128536779Y-78869819D01*
X129393922Y-79869819D02*
X129393922Y-78869819D01*
X129393922Y-78869819D02*
X129632017Y-78869819D01*
X129632017Y-78869819D02*
X129774874Y-78917438D01*
X129774874Y-78917438D02*
X129870112Y-79012676D01*
X129870112Y-79012676D02*
X129917731Y-79107914D01*
X129917731Y-79107914D02*
X129965350Y-79298390D01*
X129965350Y-79298390D02*
X129965350Y-79441247D01*
X129965350Y-79441247D02*
X129917731Y-79631723D01*
X129917731Y-79631723D02*
X129870112Y-79726961D01*
X129870112Y-79726961D02*
X129774874Y-79822200D01*
X129774874Y-79822200D02*
X129632017Y-79869819D01*
X129632017Y-79869819D02*
X129393922Y-79869819D01*
X130393922Y-79488866D02*
X131155827Y-79488866D01*
X130774874Y-79869819D02*
X130774874Y-79107914D01*
D11*
X102514638Y-45046441D02*
X104133685Y-45046441D01*
X104133685Y-45046441D02*
X104324161Y-44951203D01*
X104324161Y-44951203D02*
X104419400Y-44855965D01*
X104419400Y-44855965D02*
X104514638Y-44665489D01*
X104514638Y-44665489D02*
X104514638Y-44284536D01*
X104514638Y-44284536D02*
X104419400Y-44094060D01*
X104419400Y-44094060D02*
X104324161Y-43998822D01*
X104324161Y-43998822D02*
X104133685Y-43903584D01*
X104133685Y-43903584D02*
X102514638Y-43903584D01*
X104419400Y-43046441D02*
X104514638Y-42760727D01*
X104514638Y-42760727D02*
X104514638Y-42284536D01*
X104514638Y-42284536D02*
X104419400Y-42094060D01*
X104419400Y-42094060D02*
X104324161Y-41998822D01*
X104324161Y-41998822D02*
X104133685Y-41903584D01*
X104133685Y-41903584D02*
X103943209Y-41903584D01*
X103943209Y-41903584D02*
X103752733Y-41998822D01*
X103752733Y-41998822D02*
X103657495Y-42094060D01*
X103657495Y-42094060D02*
X103562257Y-42284536D01*
X103562257Y-42284536D02*
X103467019Y-42665489D01*
X103467019Y-42665489D02*
X103371780Y-42855965D01*
X103371780Y-42855965D02*
X103276542Y-42951203D01*
X103276542Y-42951203D02*
X103086066Y-43046441D01*
X103086066Y-43046441D02*
X102895590Y-43046441D01*
X102895590Y-43046441D02*
X102705114Y-42951203D01*
X102705114Y-42951203D02*
X102609876Y-42855965D01*
X102609876Y-42855965D02*
X102514638Y-42665489D01*
X102514638Y-42665489D02*
X102514638Y-42189298D01*
X102514638Y-42189298D02*
X102609876Y-41903584D01*
X103467019Y-40379774D02*
X103562257Y-40094060D01*
X103562257Y-40094060D02*
X103657495Y-39998822D01*
X103657495Y-39998822D02*
X103847971Y-39903584D01*
X103847971Y-39903584D02*
X104133685Y-39903584D01*
X104133685Y-39903584D02*
X104324161Y-39998822D01*
X104324161Y-39998822D02*
X104419400Y-40094060D01*
X104419400Y-40094060D02*
X104514638Y-40284536D01*
X104514638Y-40284536D02*
X104514638Y-41046441D01*
X104514638Y-41046441D02*
X102514638Y-41046441D01*
X102514638Y-41046441D02*
X102514638Y-40379774D01*
X102514638Y-40379774D02*
X102609876Y-40189298D01*
X102609876Y-40189298D02*
X102705114Y-40094060D01*
X102705114Y-40094060D02*
X102895590Y-39998822D01*
X102895590Y-39998822D02*
X103086066Y-39998822D01*
X103086066Y-39998822D02*
X103276542Y-40094060D01*
X103276542Y-40094060D02*
X103371780Y-40189298D01*
X103371780Y-40189298D02*
X103467019Y-40379774D01*
X103467019Y-40379774D02*
X103467019Y-41046441D01*
D10*
X104936779Y-99759875D02*
X104936779Y-98759875D01*
X104936779Y-99236065D02*
X105508207Y-99236065D01*
X105508207Y-99759875D02*
X105508207Y-98759875D01*
X105984398Y-99759875D02*
X105984398Y-98759875D01*
X105984398Y-98759875D02*
X106365350Y-98759875D01*
X106365350Y-98759875D02*
X106460588Y-98807494D01*
X106460588Y-98807494D02*
X106508207Y-98855113D01*
X106508207Y-98855113D02*
X106555826Y-98950351D01*
X106555826Y-98950351D02*
X106555826Y-99093208D01*
X106555826Y-99093208D02*
X106508207Y-99188446D01*
X106508207Y-99188446D02*
X106460588Y-99236065D01*
X106460588Y-99236065D02*
X106365350Y-99283684D01*
X106365350Y-99283684D02*
X105984398Y-99283684D01*
X107317731Y-99236065D02*
X106984398Y-99236065D01*
X106984398Y-99759875D02*
X106984398Y-98759875D01*
X106984398Y-98759875D02*
X107460588Y-98759875D01*
X104841541Y-101369819D02*
X105365350Y-100703152D01*
X104841541Y-100703152D02*
X105365350Y-101369819D01*
X106270112Y-101369819D02*
X105698684Y-101369819D01*
X105984398Y-101369819D02*
X105984398Y-100369819D01*
X105984398Y-100369819D02*
X105889160Y-100512676D01*
X105889160Y-100512676D02*
X105793922Y-100607914D01*
X105793922Y-100607914D02*
X105698684Y-100655533D01*
X106889160Y-100369819D02*
X106984398Y-100369819D01*
X106984398Y-100369819D02*
X107079636Y-100417438D01*
X107079636Y-100417438D02*
X107127255Y-100465057D01*
X107127255Y-100465057D02*
X107174874Y-100560295D01*
X107174874Y-100560295D02*
X107222493Y-100750771D01*
X107222493Y-100750771D02*
X107222493Y-100988866D01*
X107222493Y-100988866D02*
X107174874Y-101179342D01*
X107174874Y-101179342D02*
X107127255Y-101274580D01*
X107127255Y-101274580D02*
X107079636Y-101322200D01*
X107079636Y-101322200D02*
X106984398Y-101369819D01*
X106984398Y-101369819D02*
X106889160Y-101369819D01*
X106889160Y-101369819D02*
X106793922Y-101322200D01*
X106793922Y-101322200D02*
X106746303Y-101274580D01*
X106746303Y-101274580D02*
X106698684Y-101179342D01*
X106698684Y-101179342D02*
X106651065Y-100988866D01*
X106651065Y-100988866D02*
X106651065Y-100750771D01*
X106651065Y-100750771D02*
X106698684Y-100560295D01*
X106698684Y-100560295D02*
X106746303Y-100465057D01*
X106746303Y-100465057D02*
X106793922Y-100417438D01*
X106793922Y-100417438D02*
X106889160Y-100369819D01*
X107841541Y-100369819D02*
X107936779Y-100369819D01*
X107936779Y-100369819D02*
X108032017Y-100417438D01*
X108032017Y-100417438D02*
X108079636Y-100465057D01*
X108079636Y-100465057D02*
X108127255Y-100560295D01*
X108127255Y-100560295D02*
X108174874Y-100750771D01*
X108174874Y-100750771D02*
X108174874Y-100988866D01*
X108174874Y-100988866D02*
X108127255Y-101179342D01*
X108127255Y-101179342D02*
X108079636Y-101274580D01*
X108079636Y-101274580D02*
X108032017Y-101322200D01*
X108032017Y-101322200D02*
X107936779Y-101369819D01*
X107936779Y-101369819D02*
X107841541Y-101369819D01*
X107841541Y-101369819D02*
X107746303Y-101322200D01*
X107746303Y-101322200D02*
X107698684Y-101274580D01*
X107698684Y-101274580D02*
X107651065Y-101179342D01*
X107651065Y-101179342D02*
X107603446Y-100988866D01*
X107603446Y-100988866D02*
X107603446Y-100750771D01*
X107603446Y-100750771D02*
X107651065Y-100560295D01*
X107651065Y-100560295D02*
X107698684Y-100465057D01*
X107698684Y-100465057D02*
X107746303Y-100417438D01*
X107746303Y-100417438D02*
X107841541Y-100369819D01*
X110715588Y-79031875D02*
X110144160Y-79031875D01*
X110429874Y-79031875D02*
X110429874Y-78031875D01*
X110429874Y-78031875D02*
X110334636Y-78174732D01*
X110334636Y-78174732D02*
X110239398Y-78269970D01*
X110239398Y-78269970D02*
X110144160Y-78317589D01*
X111144160Y-78936636D02*
X111191779Y-78984256D01*
X111191779Y-78984256D02*
X111144160Y-79031875D01*
X111144160Y-79031875D02*
X111096541Y-78984256D01*
X111096541Y-78984256D02*
X111144160Y-78936636D01*
X111144160Y-78936636D02*
X111144160Y-79031875D01*
X112144159Y-79031875D02*
X111572731Y-79031875D01*
X111858445Y-79031875D02*
X111858445Y-78031875D01*
X111858445Y-78031875D02*
X111763207Y-78174732D01*
X111763207Y-78174732D02*
X111667969Y-78269970D01*
X111667969Y-78269970D02*
X111572731Y-78317589D01*
X112477493Y-78365208D02*
X112715588Y-79031875D01*
X112715588Y-79031875D02*
X112953683Y-78365208D01*
X110048922Y-79641819D02*
X110382255Y-80641819D01*
X110382255Y-80641819D02*
X110715588Y-79641819D01*
X111048922Y-80641819D02*
X111048922Y-79975152D01*
X111048922Y-80165628D02*
X111096541Y-80070390D01*
X111096541Y-80070390D02*
X111144160Y-80022771D01*
X111144160Y-80022771D02*
X111239398Y-79975152D01*
X111239398Y-79975152D02*
X111334636Y-79975152D01*
X112048922Y-80594200D02*
X111953684Y-80641819D01*
X111953684Y-80641819D02*
X111763208Y-80641819D01*
X111763208Y-80641819D02*
X111667970Y-80594200D01*
X111667970Y-80594200D02*
X111620351Y-80498961D01*
X111620351Y-80498961D02*
X111620351Y-80118009D01*
X111620351Y-80118009D02*
X111667970Y-80022771D01*
X111667970Y-80022771D02*
X111763208Y-79975152D01*
X111763208Y-79975152D02*
X111953684Y-79975152D01*
X111953684Y-79975152D02*
X112048922Y-80022771D01*
X112048922Y-80022771D02*
X112096541Y-80118009D01*
X112096541Y-80118009D02*
X112096541Y-80213247D01*
X112096541Y-80213247D02*
X111620351Y-80308485D01*
X112382256Y-79975152D02*
X112763208Y-79975152D01*
X112525113Y-80641819D02*
X112525113Y-79784676D01*
X112525113Y-79784676D02*
X112572732Y-79689438D01*
X112572732Y-79689438D02*
X112667970Y-79641819D01*
X112667970Y-79641819D02*
X112763208Y-79641819D01*
X131099160Y-94850057D02*
X131146779Y-94802438D01*
X131146779Y-94802438D02*
X131242017Y-94754819D01*
X131242017Y-94754819D02*
X131480112Y-94754819D01*
X131480112Y-94754819D02*
X131575350Y-94802438D01*
X131575350Y-94802438D02*
X131622969Y-94850057D01*
X131622969Y-94850057D02*
X131670588Y-94945295D01*
X131670588Y-94945295D02*
X131670588Y-95040533D01*
X131670588Y-95040533D02*
X131622969Y-95183390D01*
X131622969Y-95183390D02*
X131051541Y-95754819D01*
X131051541Y-95754819D02*
X131670588Y-95754819D01*
X132099160Y-95373866D02*
X132861065Y-95373866D01*
X133242017Y-94754819D02*
X133480112Y-95754819D01*
X133480112Y-95754819D02*
X133670588Y-95040533D01*
X133670588Y-95040533D02*
X133861064Y-95754819D01*
X133861064Y-95754819D02*
X134099160Y-94754819D01*
X134480112Y-95754819D02*
X134480112Y-94754819D01*
X135527730Y-95754819D02*
X135194397Y-95278628D01*
X134956302Y-95754819D02*
X134956302Y-94754819D01*
X134956302Y-94754819D02*
X135337254Y-94754819D01*
X135337254Y-94754819D02*
X135432492Y-94802438D01*
X135432492Y-94802438D02*
X135480111Y-94850057D01*
X135480111Y-94850057D02*
X135527730Y-94945295D01*
X135527730Y-94945295D02*
X135527730Y-95088152D01*
X135527730Y-95088152D02*
X135480111Y-95183390D01*
X135480111Y-95183390D02*
X135432492Y-95231009D01*
X135432492Y-95231009D02*
X135337254Y-95278628D01*
X135337254Y-95278628D02*
X134956302Y-95278628D01*
X135956302Y-95231009D02*
X136289635Y-95231009D01*
X136432492Y-95754819D02*
X135956302Y-95754819D01*
X135956302Y-95754819D02*
X135956302Y-94754819D01*
X135956302Y-94754819D02*
X136432492Y-94754819D01*
X132224820Y-102959665D02*
X131748629Y-103292998D01*
X132224820Y-103531093D02*
X131224820Y-103531093D01*
X131224820Y-103531093D02*
X131224820Y-103150141D01*
X131224820Y-103150141D02*
X131272439Y-103054903D01*
X131272439Y-103054903D02*
X131320058Y-103007284D01*
X131320058Y-103007284D02*
X131415296Y-102959665D01*
X131415296Y-102959665D02*
X131558153Y-102959665D01*
X131558153Y-102959665D02*
X131653391Y-103007284D01*
X131653391Y-103007284D02*
X131701010Y-103054903D01*
X131701010Y-103054903D02*
X131748629Y-103150141D01*
X131748629Y-103150141D02*
X131748629Y-103531093D01*
X131653391Y-102388236D02*
X131605772Y-102483474D01*
X131605772Y-102483474D02*
X131558153Y-102531093D01*
X131558153Y-102531093D02*
X131462915Y-102578712D01*
X131462915Y-102578712D02*
X131415296Y-102578712D01*
X131415296Y-102578712D02*
X131320058Y-102531093D01*
X131320058Y-102531093D02*
X131272439Y-102483474D01*
X131272439Y-102483474D02*
X131224820Y-102388236D01*
X131224820Y-102388236D02*
X131224820Y-102197760D01*
X131224820Y-102197760D02*
X131272439Y-102102522D01*
X131272439Y-102102522D02*
X131320058Y-102054903D01*
X131320058Y-102054903D02*
X131415296Y-102007284D01*
X131415296Y-102007284D02*
X131462915Y-102007284D01*
X131462915Y-102007284D02*
X131558153Y-102054903D01*
X131558153Y-102054903D02*
X131605772Y-102102522D01*
X131605772Y-102102522D02*
X131653391Y-102197760D01*
X131653391Y-102197760D02*
X131653391Y-102388236D01*
X131653391Y-102388236D02*
X131701010Y-102483474D01*
X131701010Y-102483474D02*
X131748629Y-102531093D01*
X131748629Y-102531093D02*
X131843867Y-102578712D01*
X131843867Y-102578712D02*
X132034343Y-102578712D01*
X132034343Y-102578712D02*
X132129581Y-102531093D01*
X132129581Y-102531093D02*
X132177201Y-102483474D01*
X132177201Y-102483474D02*
X132224820Y-102388236D01*
X132224820Y-102388236D02*
X132224820Y-102197760D01*
X132224820Y-102197760D02*
X132177201Y-102102522D01*
X132177201Y-102102522D02*
X132129581Y-102054903D01*
X132129581Y-102054903D02*
X132034343Y-102007284D01*
X132034343Y-102007284D02*
X131843867Y-102007284D01*
X131843867Y-102007284D02*
X131748629Y-102054903D01*
X131748629Y-102054903D02*
X131701010Y-102102522D01*
X131701010Y-102102522D02*
X131653391Y-102197760D01*
X108023334Y-85152579D02*
X107975715Y-85200199D01*
X107975715Y-85200199D02*
X107832858Y-85247818D01*
X107832858Y-85247818D02*
X107737620Y-85247818D01*
X107737620Y-85247818D02*
X107594763Y-85200199D01*
X107594763Y-85200199D02*
X107499525Y-85104960D01*
X107499525Y-85104960D02*
X107451906Y-85009722D01*
X107451906Y-85009722D02*
X107404287Y-84819246D01*
X107404287Y-84819246D02*
X107404287Y-84676389D01*
X107404287Y-84676389D02*
X107451906Y-84485913D01*
X107451906Y-84485913D02*
X107499525Y-84390675D01*
X107499525Y-84390675D02*
X107594763Y-84295437D01*
X107594763Y-84295437D02*
X107737620Y-84247818D01*
X107737620Y-84247818D02*
X107832858Y-84247818D01*
X107832858Y-84247818D02*
X107975715Y-84295437D01*
X107975715Y-84295437D02*
X108023334Y-84343056D01*
X108880477Y-84581151D02*
X108880477Y-85247818D01*
X108642382Y-84200199D02*
X108404287Y-84914484D01*
X108404287Y-84914484D02*
X109023334Y-84914484D01*
X97404819Y-29289333D02*
X98119104Y-29289333D01*
X98119104Y-29289333D02*
X98261961Y-29336952D01*
X98261961Y-29336952D02*
X98357200Y-29432190D01*
X98357200Y-29432190D02*
X98404819Y-29575047D01*
X98404819Y-29575047D02*
X98404819Y-29670285D01*
X97738152Y-28384571D02*
X98404819Y-28384571D01*
X97357200Y-28622666D02*
X98071485Y-28860761D01*
X98071485Y-28860761D02*
X98071485Y-28241714D01*
X115044820Y-88709665D02*
X114568629Y-89042998D01*
X115044820Y-89281093D02*
X114044820Y-89281093D01*
X114044820Y-89281093D02*
X114044820Y-88900141D01*
X114044820Y-88900141D02*
X114092439Y-88804903D01*
X114092439Y-88804903D02*
X114140058Y-88757284D01*
X114140058Y-88757284D02*
X114235296Y-88709665D01*
X114235296Y-88709665D02*
X114378153Y-88709665D01*
X114378153Y-88709665D02*
X114473391Y-88757284D01*
X114473391Y-88757284D02*
X114521010Y-88804903D01*
X114521010Y-88804903D02*
X114568629Y-88900141D01*
X114568629Y-88900141D02*
X114568629Y-89281093D01*
X114044820Y-88376331D02*
X114044820Y-87709665D01*
X114044820Y-87709665D02*
X115044820Y-88138236D01*
X117323580Y-64409857D02*
X117371200Y-64457476D01*
X117371200Y-64457476D02*
X117418819Y-64600333D01*
X117418819Y-64600333D02*
X117418819Y-64695571D01*
X117418819Y-64695571D02*
X117371200Y-64838428D01*
X117371200Y-64838428D02*
X117275961Y-64933666D01*
X117275961Y-64933666D02*
X117180723Y-64981285D01*
X117180723Y-64981285D02*
X116990247Y-65028904D01*
X116990247Y-65028904D02*
X116847390Y-65028904D01*
X116847390Y-65028904D02*
X116656914Y-64981285D01*
X116656914Y-64981285D02*
X116561676Y-64933666D01*
X116561676Y-64933666D02*
X116466438Y-64838428D01*
X116466438Y-64838428D02*
X116418819Y-64695571D01*
X116418819Y-64695571D02*
X116418819Y-64600333D01*
X116418819Y-64600333D02*
X116466438Y-64457476D01*
X116466438Y-64457476D02*
X116514057Y-64409857D01*
X117418819Y-63457476D02*
X117418819Y-64028904D01*
X117418819Y-63743190D02*
X116418819Y-63743190D01*
X116418819Y-63743190D02*
X116561676Y-63838428D01*
X116561676Y-63838428D02*
X116656914Y-63933666D01*
X116656914Y-63933666D02*
X116704533Y-64028904D01*
X116418819Y-63124142D02*
X116418819Y-62505095D01*
X116418819Y-62505095D02*
X116799771Y-62838428D01*
X116799771Y-62838428D02*
X116799771Y-62695571D01*
X116799771Y-62695571D02*
X116847390Y-62600333D01*
X116847390Y-62600333D02*
X116895009Y-62552714D01*
X116895009Y-62552714D02*
X116990247Y-62505095D01*
X116990247Y-62505095D02*
X117228342Y-62505095D01*
X117228342Y-62505095D02*
X117323580Y-62552714D01*
X117323580Y-62552714D02*
X117371200Y-62600333D01*
X117371200Y-62600333D02*
X117418819Y-62695571D01*
X117418819Y-62695571D02*
X117418819Y-62981285D01*
X117418819Y-62981285D02*
X117371200Y-63076523D01*
X117371200Y-63076523D02*
X117323580Y-63124142D01*
X97455619Y-57534133D02*
X98169904Y-57534133D01*
X98169904Y-57534133D02*
X98312761Y-57581752D01*
X98312761Y-57581752D02*
X98408000Y-57676990D01*
X98408000Y-57676990D02*
X98455619Y-57819847D01*
X98455619Y-57819847D02*
X98455619Y-57915085D01*
X97455619Y-57153180D02*
X97455619Y-56534133D01*
X97455619Y-56534133D02*
X97836571Y-56867466D01*
X97836571Y-56867466D02*
X97836571Y-56724609D01*
X97836571Y-56724609D02*
X97884190Y-56629371D01*
X97884190Y-56629371D02*
X97931809Y-56581752D01*
X97931809Y-56581752D02*
X98027047Y-56534133D01*
X98027047Y-56534133D02*
X98265142Y-56534133D01*
X98265142Y-56534133D02*
X98360380Y-56581752D01*
X98360380Y-56581752D02*
X98408000Y-56629371D01*
X98408000Y-56629371D02*
X98455619Y-56724609D01*
X98455619Y-56724609D02*
X98455619Y-57010323D01*
X98455619Y-57010323D02*
X98408000Y-57105561D01*
X98408000Y-57105561D02*
X98360380Y-57153180D01*
X109561333Y-90021580D02*
X109513714Y-90069200D01*
X109513714Y-90069200D02*
X109370857Y-90116819D01*
X109370857Y-90116819D02*
X109275619Y-90116819D01*
X109275619Y-90116819D02*
X109132762Y-90069200D01*
X109132762Y-90069200D02*
X109037524Y-89973961D01*
X109037524Y-89973961D02*
X108989905Y-89878723D01*
X108989905Y-89878723D02*
X108942286Y-89688247D01*
X108942286Y-89688247D02*
X108942286Y-89545390D01*
X108942286Y-89545390D02*
X108989905Y-89354914D01*
X108989905Y-89354914D02*
X109037524Y-89259676D01*
X109037524Y-89259676D02*
X109132762Y-89164438D01*
X109132762Y-89164438D02*
X109275619Y-89116819D01*
X109275619Y-89116819D02*
X109370857Y-89116819D01*
X109370857Y-89116819D02*
X109513714Y-89164438D01*
X109513714Y-89164438D02*
X109561333Y-89212057D01*
X109942286Y-89212057D02*
X109989905Y-89164438D01*
X109989905Y-89164438D02*
X110085143Y-89116819D01*
X110085143Y-89116819D02*
X110323238Y-89116819D01*
X110323238Y-89116819D02*
X110418476Y-89164438D01*
X110418476Y-89164438D02*
X110466095Y-89212057D01*
X110466095Y-89212057D02*
X110513714Y-89307295D01*
X110513714Y-89307295D02*
X110513714Y-89402533D01*
X110513714Y-89402533D02*
X110466095Y-89545390D01*
X110466095Y-89545390D02*
X109894667Y-90116819D01*
X109894667Y-90116819D02*
X110513714Y-90116819D01*
X114387333Y-106117580D02*
X114339714Y-106165200D01*
X114339714Y-106165200D02*
X114196857Y-106212819D01*
X114196857Y-106212819D02*
X114101619Y-106212819D01*
X114101619Y-106212819D02*
X113958762Y-106165200D01*
X113958762Y-106165200D02*
X113863524Y-106069961D01*
X113863524Y-106069961D02*
X113815905Y-105974723D01*
X113815905Y-105974723D02*
X113768286Y-105784247D01*
X113768286Y-105784247D02*
X113768286Y-105641390D01*
X113768286Y-105641390D02*
X113815905Y-105450914D01*
X113815905Y-105450914D02*
X113863524Y-105355676D01*
X113863524Y-105355676D02*
X113958762Y-105260438D01*
X113958762Y-105260438D02*
X114101619Y-105212819D01*
X114101619Y-105212819D02*
X114196857Y-105212819D01*
X114196857Y-105212819D02*
X114339714Y-105260438D01*
X114339714Y-105260438D02*
X114387333Y-105308057D01*
X114863524Y-106212819D02*
X115054000Y-106212819D01*
X115054000Y-106212819D02*
X115149238Y-106165200D01*
X115149238Y-106165200D02*
X115196857Y-106117580D01*
X115196857Y-106117580D02*
X115292095Y-105974723D01*
X115292095Y-105974723D02*
X115339714Y-105784247D01*
X115339714Y-105784247D02*
X115339714Y-105403295D01*
X115339714Y-105403295D02*
X115292095Y-105308057D01*
X115292095Y-105308057D02*
X115244476Y-105260438D01*
X115244476Y-105260438D02*
X115149238Y-105212819D01*
X115149238Y-105212819D02*
X114958762Y-105212819D01*
X114958762Y-105212819D02*
X114863524Y-105260438D01*
X114863524Y-105260438D02*
X114815905Y-105308057D01*
X114815905Y-105308057D02*
X114768286Y-105403295D01*
X114768286Y-105403295D02*
X114768286Y-105641390D01*
X114768286Y-105641390D02*
X114815905Y-105736628D01*
X114815905Y-105736628D02*
X114863524Y-105784247D01*
X114863524Y-105784247D02*
X114958762Y-105831866D01*
X114958762Y-105831866D02*
X115149238Y-105831866D01*
X115149238Y-105831866D02*
X115244476Y-105784247D01*
X115244476Y-105784247D02*
X115292095Y-105736628D01*
X115292095Y-105736628D02*
X115339714Y-105641390D01*
X110909819Y-73980115D02*
X110433628Y-74313448D01*
X110909819Y-74551543D02*
X109909819Y-74551543D01*
X109909819Y-74551543D02*
X109909819Y-74170591D01*
X109909819Y-74170591D02*
X109957438Y-74075353D01*
X109957438Y-74075353D02*
X110005057Y-74027734D01*
X110005057Y-74027734D02*
X110100295Y-73980115D01*
X110100295Y-73980115D02*
X110243152Y-73980115D01*
X110243152Y-73980115D02*
X110338390Y-74027734D01*
X110338390Y-74027734D02*
X110386009Y-74075353D01*
X110386009Y-74075353D02*
X110433628Y-74170591D01*
X110433628Y-74170591D02*
X110433628Y-74551543D01*
X110909819Y-73027734D02*
X110909819Y-73599162D01*
X110909819Y-73313448D02*
X109909819Y-73313448D01*
X109909819Y-73313448D02*
X110052676Y-73408686D01*
X110052676Y-73408686D02*
X110147914Y-73503924D01*
X110147914Y-73503924D02*
X110195533Y-73599162D01*
X109909819Y-72122972D02*
X109909819Y-72599162D01*
X109909819Y-72599162D02*
X110386009Y-72646781D01*
X110386009Y-72646781D02*
X110338390Y-72599162D01*
X110338390Y-72599162D02*
X110290771Y-72503924D01*
X110290771Y-72503924D02*
X110290771Y-72265829D01*
X110290771Y-72265829D02*
X110338390Y-72170591D01*
X110338390Y-72170591D02*
X110386009Y-72122972D01*
X110386009Y-72122972D02*
X110481247Y-72075353D01*
X110481247Y-72075353D02*
X110719342Y-72075353D01*
X110719342Y-72075353D02*
X110814580Y-72122972D01*
X110814580Y-72122972D02*
X110862200Y-72170591D01*
X110862200Y-72170591D02*
X110909819Y-72265829D01*
X110909819Y-72265829D02*
X110909819Y-72503924D01*
X110909819Y-72503924D02*
X110862200Y-72599162D01*
X110862200Y-72599162D02*
X110814580Y-72646781D01*
X130334820Y-98376332D02*
X131049105Y-98376332D01*
X131049105Y-98376332D02*
X131191962Y-98423951D01*
X131191962Y-98423951D02*
X131287201Y-98519189D01*
X131287201Y-98519189D02*
X131334820Y-98662046D01*
X131334820Y-98662046D02*
X131334820Y-98757284D01*
X130430058Y-97947760D02*
X130382439Y-97900141D01*
X130382439Y-97900141D02*
X130334820Y-97804903D01*
X130334820Y-97804903D02*
X130334820Y-97566808D01*
X130334820Y-97566808D02*
X130382439Y-97471570D01*
X130382439Y-97471570D02*
X130430058Y-97423951D01*
X130430058Y-97423951D02*
X130525296Y-97376332D01*
X130525296Y-97376332D02*
X130620534Y-97376332D01*
X130620534Y-97376332D02*
X130763391Y-97423951D01*
X130763391Y-97423951D02*
X131334820Y-97995379D01*
X131334820Y-97995379D02*
X131334820Y-97376332D01*
X97014819Y-35766333D02*
X97729104Y-35766333D01*
X97729104Y-35766333D02*
X97871961Y-35813952D01*
X97871961Y-35813952D02*
X97967200Y-35909190D01*
X97967200Y-35909190D02*
X98014819Y-36052047D01*
X98014819Y-36052047D02*
X98014819Y-36147285D01*
X98014819Y-35242523D02*
X98014819Y-35052047D01*
X98014819Y-35052047D02*
X97967200Y-34956809D01*
X97967200Y-34956809D02*
X97919580Y-34909190D01*
X97919580Y-34909190D02*
X97776723Y-34813952D01*
X97776723Y-34813952D02*
X97586247Y-34766333D01*
X97586247Y-34766333D02*
X97205295Y-34766333D01*
X97205295Y-34766333D02*
X97110057Y-34813952D01*
X97110057Y-34813952D02*
X97062438Y-34861571D01*
X97062438Y-34861571D02*
X97014819Y-34956809D01*
X97014819Y-34956809D02*
X97014819Y-35147285D01*
X97014819Y-35147285D02*
X97062438Y-35242523D01*
X97062438Y-35242523D02*
X97110057Y-35290142D01*
X97110057Y-35290142D02*
X97205295Y-35337761D01*
X97205295Y-35337761D02*
X97443390Y-35337761D01*
X97443390Y-35337761D02*
X97538628Y-35290142D01*
X97538628Y-35290142D02*
X97586247Y-35242523D01*
X97586247Y-35242523D02*
X97633866Y-35147285D01*
X97633866Y-35147285D02*
X97633866Y-34956809D01*
X97633866Y-34956809D02*
X97586247Y-34861571D01*
X97586247Y-34861571D02*
X97538628Y-34813952D01*
X97538628Y-34813952D02*
X97443390Y-34766333D01*
X159043666Y-83608819D02*
X159043666Y-84323104D01*
X159043666Y-84323104D02*
X158996047Y-84465961D01*
X158996047Y-84465961D02*
X158900809Y-84561200D01*
X158900809Y-84561200D02*
X158757952Y-84608819D01*
X158757952Y-84608819D02*
X158662714Y-84608819D01*
X159996047Y-83608819D02*
X159519857Y-83608819D01*
X159519857Y-83608819D02*
X159472238Y-84085009D01*
X159472238Y-84085009D02*
X159519857Y-84037390D01*
X159519857Y-84037390D02*
X159615095Y-83989771D01*
X159615095Y-83989771D02*
X159853190Y-83989771D01*
X159853190Y-83989771D02*
X159948428Y-84037390D01*
X159948428Y-84037390D02*
X159996047Y-84085009D01*
X159996047Y-84085009D02*
X160043666Y-84180247D01*
X160043666Y-84180247D02*
X160043666Y-84418342D01*
X160043666Y-84418342D02*
X159996047Y-84513580D01*
X159996047Y-84513580D02*
X159948428Y-84561200D01*
X159948428Y-84561200D02*
X159853190Y-84608819D01*
X159853190Y-84608819D02*
X159615095Y-84608819D01*
X159615095Y-84608819D02*
X159519857Y-84561200D01*
X159519857Y-84561200D02*
X159472238Y-84513580D01*
X107447143Y-82497818D02*
X107113810Y-82021627D01*
X106875715Y-82497818D02*
X106875715Y-81497818D01*
X106875715Y-81497818D02*
X107256667Y-81497818D01*
X107256667Y-81497818D02*
X107351905Y-81545437D01*
X107351905Y-81545437D02*
X107399524Y-81593056D01*
X107399524Y-81593056D02*
X107447143Y-81688294D01*
X107447143Y-81688294D02*
X107447143Y-81831151D01*
X107447143Y-81831151D02*
X107399524Y-81926389D01*
X107399524Y-81926389D02*
X107351905Y-81974008D01*
X107351905Y-81974008D02*
X107256667Y-82021627D01*
X107256667Y-82021627D02*
X106875715Y-82021627D01*
X108399524Y-82497818D02*
X107828096Y-82497818D01*
X108113810Y-82497818D02*
X108113810Y-81497818D01*
X108113810Y-81497818D02*
X108018572Y-81640675D01*
X108018572Y-81640675D02*
X107923334Y-81735913D01*
X107923334Y-81735913D02*
X107828096Y-81783532D01*
X108732858Y-81497818D02*
X109399524Y-81497818D01*
X109399524Y-81497818D02*
X108970953Y-82497818D01*
X122114820Y-98784665D02*
X121638629Y-99117998D01*
X122114820Y-99356093D02*
X121114820Y-99356093D01*
X121114820Y-99356093D02*
X121114820Y-98975141D01*
X121114820Y-98975141D02*
X121162439Y-98879903D01*
X121162439Y-98879903D02*
X121210058Y-98832284D01*
X121210058Y-98832284D02*
X121305296Y-98784665D01*
X121305296Y-98784665D02*
X121448153Y-98784665D01*
X121448153Y-98784665D02*
X121543391Y-98832284D01*
X121543391Y-98832284D02*
X121591010Y-98879903D01*
X121591010Y-98879903D02*
X121638629Y-98975141D01*
X121638629Y-98975141D02*
X121638629Y-99356093D01*
X121448153Y-97927522D02*
X122114820Y-97927522D01*
X121067201Y-98165617D02*
X121781486Y-98403712D01*
X121781486Y-98403712D02*
X121781486Y-97784665D01*
X141819333Y-85449580D02*
X141771714Y-85497200D01*
X141771714Y-85497200D02*
X141628857Y-85544819D01*
X141628857Y-85544819D02*
X141533619Y-85544819D01*
X141533619Y-85544819D02*
X141390762Y-85497200D01*
X141390762Y-85497200D02*
X141295524Y-85401961D01*
X141295524Y-85401961D02*
X141247905Y-85306723D01*
X141247905Y-85306723D02*
X141200286Y-85116247D01*
X141200286Y-85116247D02*
X141200286Y-84973390D01*
X141200286Y-84973390D02*
X141247905Y-84782914D01*
X141247905Y-84782914D02*
X141295524Y-84687676D01*
X141295524Y-84687676D02*
X141390762Y-84592438D01*
X141390762Y-84592438D02*
X141533619Y-84544819D01*
X141533619Y-84544819D02*
X141628857Y-84544819D01*
X141628857Y-84544819D02*
X141771714Y-84592438D01*
X141771714Y-84592438D02*
X141819333Y-84640057D01*
X142676476Y-84544819D02*
X142486000Y-84544819D01*
X142486000Y-84544819D02*
X142390762Y-84592438D01*
X142390762Y-84592438D02*
X142343143Y-84640057D01*
X142343143Y-84640057D02*
X142247905Y-84782914D01*
X142247905Y-84782914D02*
X142200286Y-84973390D01*
X142200286Y-84973390D02*
X142200286Y-85354342D01*
X142200286Y-85354342D02*
X142247905Y-85449580D01*
X142247905Y-85449580D02*
X142295524Y-85497200D01*
X142295524Y-85497200D02*
X142390762Y-85544819D01*
X142390762Y-85544819D02*
X142581238Y-85544819D01*
X142581238Y-85544819D02*
X142676476Y-85497200D01*
X142676476Y-85497200D02*
X142724095Y-85449580D01*
X142724095Y-85449580D02*
X142771714Y-85354342D01*
X142771714Y-85354342D02*
X142771714Y-85116247D01*
X142771714Y-85116247D02*
X142724095Y-85021009D01*
X142724095Y-85021009D02*
X142676476Y-84973390D01*
X142676476Y-84973390D02*
X142581238Y-84925771D01*
X142581238Y-84925771D02*
X142390762Y-84925771D01*
X142390762Y-84925771D02*
X142295524Y-84973390D01*
X142295524Y-84973390D02*
X142247905Y-85021009D01*
X142247905Y-85021009D02*
X142200286Y-85116247D01*
X148473819Y-64445204D02*
X149283342Y-64445204D01*
X149283342Y-64445204D02*
X149378580Y-64397585D01*
X149378580Y-64397585D02*
X149426200Y-64349966D01*
X149426200Y-64349966D02*
X149473819Y-64254728D01*
X149473819Y-64254728D02*
X149473819Y-64064252D01*
X149473819Y-64064252D02*
X149426200Y-63969014D01*
X149426200Y-63969014D02*
X149378580Y-63921395D01*
X149378580Y-63921395D02*
X149283342Y-63873776D01*
X149283342Y-63873776D02*
X148473819Y-63873776D01*
X148569057Y-63445204D02*
X148521438Y-63397585D01*
X148521438Y-63397585D02*
X148473819Y-63302347D01*
X148473819Y-63302347D02*
X148473819Y-63064252D01*
X148473819Y-63064252D02*
X148521438Y-62969014D01*
X148521438Y-62969014D02*
X148569057Y-62921395D01*
X148569057Y-62921395D02*
X148664295Y-62873776D01*
X148664295Y-62873776D02*
X148759533Y-62873776D01*
X148759533Y-62873776D02*
X148902390Y-62921395D01*
X148902390Y-62921395D02*
X149473819Y-63492823D01*
X149473819Y-63492823D02*
X149473819Y-62873776D01*
X100758666Y-61336819D02*
X100758666Y-62051104D01*
X100758666Y-62051104D02*
X100711047Y-62193961D01*
X100711047Y-62193961D02*
X100615809Y-62289200D01*
X100615809Y-62289200D02*
X100472952Y-62336819D01*
X100472952Y-62336819D02*
X100377714Y-62336819D01*
X101377714Y-61765390D02*
X101282476Y-61717771D01*
X101282476Y-61717771D02*
X101234857Y-61670152D01*
X101234857Y-61670152D02*
X101187238Y-61574914D01*
X101187238Y-61574914D02*
X101187238Y-61527295D01*
X101187238Y-61527295D02*
X101234857Y-61432057D01*
X101234857Y-61432057D02*
X101282476Y-61384438D01*
X101282476Y-61384438D02*
X101377714Y-61336819D01*
X101377714Y-61336819D02*
X101568190Y-61336819D01*
X101568190Y-61336819D02*
X101663428Y-61384438D01*
X101663428Y-61384438D02*
X101711047Y-61432057D01*
X101711047Y-61432057D02*
X101758666Y-61527295D01*
X101758666Y-61527295D02*
X101758666Y-61574914D01*
X101758666Y-61574914D02*
X101711047Y-61670152D01*
X101711047Y-61670152D02*
X101663428Y-61717771D01*
X101663428Y-61717771D02*
X101568190Y-61765390D01*
X101568190Y-61765390D02*
X101377714Y-61765390D01*
X101377714Y-61765390D02*
X101282476Y-61813009D01*
X101282476Y-61813009D02*
X101234857Y-61860628D01*
X101234857Y-61860628D02*
X101187238Y-61955866D01*
X101187238Y-61955866D02*
X101187238Y-62146342D01*
X101187238Y-62146342D02*
X101234857Y-62241580D01*
X101234857Y-62241580D02*
X101282476Y-62289200D01*
X101282476Y-62289200D02*
X101377714Y-62336819D01*
X101377714Y-62336819D02*
X101568190Y-62336819D01*
X101568190Y-62336819D02*
X101663428Y-62289200D01*
X101663428Y-62289200D02*
X101711047Y-62241580D01*
X101711047Y-62241580D02*
X101758666Y-62146342D01*
X101758666Y-62146342D02*
X101758666Y-61955866D01*
X101758666Y-61955866D02*
X101711047Y-61860628D01*
X101711047Y-61860628D02*
X101663428Y-61813009D01*
X101663428Y-61813009D02*
X101568190Y-61765390D01*
X106974819Y-63697857D02*
X106498628Y-64031190D01*
X106974819Y-64269285D02*
X105974819Y-64269285D01*
X105974819Y-64269285D02*
X105974819Y-63888333D01*
X105974819Y-63888333D02*
X106022438Y-63793095D01*
X106022438Y-63793095D02*
X106070057Y-63745476D01*
X106070057Y-63745476D02*
X106165295Y-63697857D01*
X106165295Y-63697857D02*
X106308152Y-63697857D01*
X106308152Y-63697857D02*
X106403390Y-63745476D01*
X106403390Y-63745476D02*
X106451009Y-63793095D01*
X106451009Y-63793095D02*
X106498628Y-63888333D01*
X106498628Y-63888333D02*
X106498628Y-64269285D01*
X106974819Y-62745476D02*
X106974819Y-63316904D01*
X106974819Y-63031190D02*
X105974819Y-63031190D01*
X105974819Y-63031190D02*
X106117676Y-63126428D01*
X106117676Y-63126428D02*
X106212914Y-63221666D01*
X106212914Y-63221666D02*
X106260533Y-63316904D01*
X106974819Y-62269285D02*
X106974819Y-62078809D01*
X106974819Y-62078809D02*
X106927200Y-61983571D01*
X106927200Y-61983571D02*
X106879580Y-61935952D01*
X106879580Y-61935952D02*
X106736723Y-61840714D01*
X106736723Y-61840714D02*
X106546247Y-61793095D01*
X106546247Y-61793095D02*
X106165295Y-61793095D01*
X106165295Y-61793095D02*
X106070057Y-61840714D01*
X106070057Y-61840714D02*
X106022438Y-61888333D01*
X106022438Y-61888333D02*
X105974819Y-61983571D01*
X105974819Y-61983571D02*
X105974819Y-62174047D01*
X105974819Y-62174047D02*
X106022438Y-62269285D01*
X106022438Y-62269285D02*
X106070057Y-62316904D01*
X106070057Y-62316904D02*
X106165295Y-62364523D01*
X106165295Y-62364523D02*
X106403390Y-62364523D01*
X106403390Y-62364523D02*
X106498628Y-62316904D01*
X106498628Y-62316904D02*
X106546247Y-62269285D01*
X106546247Y-62269285D02*
X106593866Y-62174047D01*
X106593866Y-62174047D02*
X106593866Y-61983571D01*
X106593866Y-61983571D02*
X106546247Y-61888333D01*
X106546247Y-61888333D02*
X106498628Y-61840714D01*
X106498628Y-61840714D02*
X106403390Y-61793095D01*
X135996142Y-87227580D02*
X135948523Y-87275200D01*
X135948523Y-87275200D02*
X135805666Y-87322819D01*
X135805666Y-87322819D02*
X135710428Y-87322819D01*
X135710428Y-87322819D02*
X135567571Y-87275200D01*
X135567571Y-87275200D02*
X135472333Y-87179961D01*
X135472333Y-87179961D02*
X135424714Y-87084723D01*
X135424714Y-87084723D02*
X135377095Y-86894247D01*
X135377095Y-86894247D02*
X135377095Y-86751390D01*
X135377095Y-86751390D02*
X135424714Y-86560914D01*
X135424714Y-86560914D02*
X135472333Y-86465676D01*
X135472333Y-86465676D02*
X135567571Y-86370438D01*
X135567571Y-86370438D02*
X135710428Y-86322819D01*
X135710428Y-86322819D02*
X135805666Y-86322819D01*
X135805666Y-86322819D02*
X135948523Y-86370438D01*
X135948523Y-86370438D02*
X135996142Y-86418057D01*
X136948523Y-87322819D02*
X136377095Y-87322819D01*
X136662809Y-87322819D02*
X136662809Y-86322819D01*
X136662809Y-86322819D02*
X136567571Y-86465676D01*
X136567571Y-86465676D02*
X136472333Y-86560914D01*
X136472333Y-86560914D02*
X136377095Y-86608533D01*
X137805666Y-86322819D02*
X137615190Y-86322819D01*
X137615190Y-86322819D02*
X137519952Y-86370438D01*
X137519952Y-86370438D02*
X137472333Y-86418057D01*
X137472333Y-86418057D02*
X137377095Y-86560914D01*
X137377095Y-86560914D02*
X137329476Y-86751390D01*
X137329476Y-86751390D02*
X137329476Y-87132342D01*
X137329476Y-87132342D02*
X137377095Y-87227580D01*
X137377095Y-87227580D02*
X137424714Y-87275200D01*
X137424714Y-87275200D02*
X137519952Y-87322819D01*
X137519952Y-87322819D02*
X137710428Y-87322819D01*
X137710428Y-87322819D02*
X137805666Y-87275200D01*
X137805666Y-87275200D02*
X137853285Y-87227580D01*
X137853285Y-87227580D02*
X137900904Y-87132342D01*
X137900904Y-87132342D02*
X137900904Y-86894247D01*
X137900904Y-86894247D02*
X137853285Y-86799009D01*
X137853285Y-86799009D02*
X137805666Y-86751390D01*
X137805666Y-86751390D02*
X137710428Y-86703771D01*
X137710428Y-86703771D02*
X137519952Y-86703771D01*
X137519952Y-86703771D02*
X137424714Y-86751390D01*
X137424714Y-86751390D02*
X137377095Y-86799009D01*
X137377095Y-86799009D02*
X137329476Y-86894247D01*
X141104761Y-63090057D02*
X141009523Y-63042438D01*
X141009523Y-63042438D02*
X140914285Y-62947200D01*
X140914285Y-62947200D02*
X140771428Y-62804342D01*
X140771428Y-62804342D02*
X140676190Y-62756723D01*
X140676190Y-62756723D02*
X140580952Y-62756723D01*
X140628571Y-62994819D02*
X140533333Y-62947200D01*
X140533333Y-62947200D02*
X140438095Y-62851961D01*
X140438095Y-62851961D02*
X140390476Y-62661485D01*
X140390476Y-62661485D02*
X140390476Y-62328152D01*
X140390476Y-62328152D02*
X140438095Y-62137676D01*
X140438095Y-62137676D02*
X140533333Y-62042438D01*
X140533333Y-62042438D02*
X140628571Y-61994819D01*
X140628571Y-61994819D02*
X140819047Y-61994819D01*
X140819047Y-61994819D02*
X140914285Y-62042438D01*
X140914285Y-62042438D02*
X141009523Y-62137676D01*
X141009523Y-62137676D02*
X141057142Y-62328152D01*
X141057142Y-62328152D02*
X141057142Y-62661485D01*
X141057142Y-62661485D02*
X141009523Y-62851961D01*
X141009523Y-62851961D02*
X140914285Y-62947200D01*
X140914285Y-62947200D02*
X140819047Y-62994819D01*
X140819047Y-62994819D02*
X140628571Y-62994819D01*
X142009523Y-62994819D02*
X141438095Y-62994819D01*
X141723809Y-62994819D02*
X141723809Y-61994819D01*
X141723809Y-61994819D02*
X141628571Y-62137676D01*
X141628571Y-62137676D02*
X141533333Y-62232914D01*
X141533333Y-62232914D02*
X141438095Y-62280533D01*
X145026142Y-57941380D02*
X144978523Y-57989000D01*
X144978523Y-57989000D02*
X144835666Y-58036619D01*
X144835666Y-58036619D02*
X144740428Y-58036619D01*
X144740428Y-58036619D02*
X144597571Y-57989000D01*
X144597571Y-57989000D02*
X144502333Y-57893761D01*
X144502333Y-57893761D02*
X144454714Y-57798523D01*
X144454714Y-57798523D02*
X144407095Y-57608047D01*
X144407095Y-57608047D02*
X144407095Y-57465190D01*
X144407095Y-57465190D02*
X144454714Y-57274714D01*
X144454714Y-57274714D02*
X144502333Y-57179476D01*
X144502333Y-57179476D02*
X144597571Y-57084238D01*
X144597571Y-57084238D02*
X144740428Y-57036619D01*
X144740428Y-57036619D02*
X144835666Y-57036619D01*
X144835666Y-57036619D02*
X144978523Y-57084238D01*
X144978523Y-57084238D02*
X145026142Y-57131857D01*
X145978523Y-58036619D02*
X145407095Y-58036619D01*
X145692809Y-58036619D02*
X145692809Y-57036619D01*
X145692809Y-57036619D02*
X145597571Y-57179476D01*
X145597571Y-57179476D02*
X145502333Y-57274714D01*
X145502333Y-57274714D02*
X145407095Y-57322333D01*
X146311857Y-57036619D02*
X146978523Y-57036619D01*
X146978523Y-57036619D02*
X146549952Y-58036619D01*
X143851333Y-39061580D02*
X143803714Y-39109200D01*
X143803714Y-39109200D02*
X143660857Y-39156819D01*
X143660857Y-39156819D02*
X143565619Y-39156819D01*
X143565619Y-39156819D02*
X143422762Y-39109200D01*
X143422762Y-39109200D02*
X143327524Y-39013961D01*
X143327524Y-39013961D02*
X143279905Y-38918723D01*
X143279905Y-38918723D02*
X143232286Y-38728247D01*
X143232286Y-38728247D02*
X143232286Y-38585390D01*
X143232286Y-38585390D02*
X143279905Y-38394914D01*
X143279905Y-38394914D02*
X143327524Y-38299676D01*
X143327524Y-38299676D02*
X143422762Y-38204438D01*
X143422762Y-38204438D02*
X143565619Y-38156819D01*
X143565619Y-38156819D02*
X143660857Y-38156819D01*
X143660857Y-38156819D02*
X143803714Y-38204438D01*
X143803714Y-38204438D02*
X143851333Y-38252057D01*
X144803714Y-39156819D02*
X144232286Y-39156819D01*
X144518000Y-39156819D02*
X144518000Y-38156819D01*
X144518000Y-38156819D02*
X144422762Y-38299676D01*
X144422762Y-38299676D02*
X144327524Y-38394914D01*
X144327524Y-38394914D02*
X144232286Y-38442533D01*
X145848334Y-80817818D02*
X145515001Y-80341627D01*
X145276906Y-80817818D02*
X145276906Y-79817818D01*
X145276906Y-79817818D02*
X145657858Y-79817818D01*
X145657858Y-79817818D02*
X145753096Y-79865437D01*
X145753096Y-79865437D02*
X145800715Y-79913056D01*
X145800715Y-79913056D02*
X145848334Y-80008294D01*
X145848334Y-80008294D02*
X145848334Y-80151151D01*
X145848334Y-80151151D02*
X145800715Y-80246389D01*
X145800715Y-80246389D02*
X145753096Y-80294008D01*
X145753096Y-80294008D02*
X145657858Y-80341627D01*
X145657858Y-80341627D02*
X145276906Y-80341627D01*
X146800715Y-80817818D02*
X146229287Y-80817818D01*
X146515001Y-80817818D02*
X146515001Y-79817818D01*
X146515001Y-79817818D02*
X146419763Y-79960675D01*
X146419763Y-79960675D02*
X146324525Y-80055913D01*
X146324525Y-80055913D02*
X146229287Y-80103532D01*
X123041580Y-64409857D02*
X123089200Y-64457476D01*
X123089200Y-64457476D02*
X123136819Y-64600333D01*
X123136819Y-64600333D02*
X123136819Y-64695571D01*
X123136819Y-64695571D02*
X123089200Y-64838428D01*
X123089200Y-64838428D02*
X122993961Y-64933666D01*
X122993961Y-64933666D02*
X122898723Y-64981285D01*
X122898723Y-64981285D02*
X122708247Y-65028904D01*
X122708247Y-65028904D02*
X122565390Y-65028904D01*
X122565390Y-65028904D02*
X122374914Y-64981285D01*
X122374914Y-64981285D02*
X122279676Y-64933666D01*
X122279676Y-64933666D02*
X122184438Y-64838428D01*
X122184438Y-64838428D02*
X122136819Y-64695571D01*
X122136819Y-64695571D02*
X122136819Y-64600333D01*
X122136819Y-64600333D02*
X122184438Y-64457476D01*
X122184438Y-64457476D02*
X122232057Y-64409857D01*
X123136819Y-63457476D02*
X123136819Y-64028904D01*
X123136819Y-63743190D02*
X122136819Y-63743190D01*
X122136819Y-63743190D02*
X122279676Y-63838428D01*
X122279676Y-63838428D02*
X122374914Y-63933666D01*
X122374914Y-63933666D02*
X122422533Y-64028904D01*
X122470152Y-62600333D02*
X123136819Y-62600333D01*
X122089200Y-62838428D02*
X122803485Y-63076523D01*
X122803485Y-63076523D02*
X122803485Y-62457476D01*
X160012142Y-87449819D02*
X159678809Y-86973628D01*
X159440714Y-87449819D02*
X159440714Y-86449819D01*
X159440714Y-86449819D02*
X159821666Y-86449819D01*
X159821666Y-86449819D02*
X159916904Y-86497438D01*
X159916904Y-86497438D02*
X159964523Y-86545057D01*
X159964523Y-86545057D02*
X160012142Y-86640295D01*
X160012142Y-86640295D02*
X160012142Y-86783152D01*
X160012142Y-86783152D02*
X159964523Y-86878390D01*
X159964523Y-86878390D02*
X159916904Y-86926009D01*
X159916904Y-86926009D02*
X159821666Y-86973628D01*
X159821666Y-86973628D02*
X159440714Y-86973628D01*
X160393095Y-86545057D02*
X160440714Y-86497438D01*
X160440714Y-86497438D02*
X160535952Y-86449819D01*
X160535952Y-86449819D02*
X160774047Y-86449819D01*
X160774047Y-86449819D02*
X160869285Y-86497438D01*
X160869285Y-86497438D02*
X160916904Y-86545057D01*
X160916904Y-86545057D02*
X160964523Y-86640295D01*
X160964523Y-86640295D02*
X160964523Y-86735533D01*
X160964523Y-86735533D02*
X160916904Y-86878390D01*
X160916904Y-86878390D02*
X160345476Y-87449819D01*
X160345476Y-87449819D02*
X160964523Y-87449819D01*
X161916904Y-87449819D02*
X161345476Y-87449819D01*
X161631190Y-87449819D02*
X161631190Y-86449819D01*
X161631190Y-86449819D02*
X161535952Y-86592676D01*
X161535952Y-86592676D02*
X161440714Y-86687914D01*
X161440714Y-86687914D02*
X161345476Y-86735533D01*
X127114820Y-85435856D02*
X126638629Y-85769189D01*
X127114820Y-86007284D02*
X126114820Y-86007284D01*
X126114820Y-86007284D02*
X126114820Y-85626332D01*
X126114820Y-85626332D02*
X126162439Y-85531094D01*
X126162439Y-85531094D02*
X126210058Y-85483475D01*
X126210058Y-85483475D02*
X126305296Y-85435856D01*
X126305296Y-85435856D02*
X126448153Y-85435856D01*
X126448153Y-85435856D02*
X126543391Y-85483475D01*
X126543391Y-85483475D02*
X126591010Y-85531094D01*
X126591010Y-85531094D02*
X126638629Y-85626332D01*
X126638629Y-85626332D02*
X126638629Y-86007284D01*
X127114820Y-84483475D02*
X127114820Y-85054903D01*
X127114820Y-84769189D02*
X126114820Y-84769189D01*
X126114820Y-84769189D02*
X126257677Y-84864427D01*
X126257677Y-84864427D02*
X126352915Y-84959665D01*
X126352915Y-84959665D02*
X126400534Y-85054903D01*
X126114820Y-84150141D02*
X126114820Y-83531094D01*
X126114820Y-83531094D02*
X126495772Y-83864427D01*
X126495772Y-83864427D02*
X126495772Y-83721570D01*
X126495772Y-83721570D02*
X126543391Y-83626332D01*
X126543391Y-83626332D02*
X126591010Y-83578713D01*
X126591010Y-83578713D02*
X126686248Y-83531094D01*
X126686248Y-83531094D02*
X126924343Y-83531094D01*
X126924343Y-83531094D02*
X127019581Y-83578713D01*
X127019581Y-83578713D02*
X127067201Y-83626332D01*
X127067201Y-83626332D02*
X127114820Y-83721570D01*
X127114820Y-83721570D02*
X127114820Y-84007284D01*
X127114820Y-84007284D02*
X127067201Y-84102522D01*
X127067201Y-84102522D02*
X127019581Y-84150141D01*
X143375142Y-42236580D02*
X143327523Y-42284200D01*
X143327523Y-42284200D02*
X143184666Y-42331819D01*
X143184666Y-42331819D02*
X143089428Y-42331819D01*
X143089428Y-42331819D02*
X142946571Y-42284200D01*
X142946571Y-42284200D02*
X142851333Y-42188961D01*
X142851333Y-42188961D02*
X142803714Y-42093723D01*
X142803714Y-42093723D02*
X142756095Y-41903247D01*
X142756095Y-41903247D02*
X142756095Y-41760390D01*
X142756095Y-41760390D02*
X142803714Y-41569914D01*
X142803714Y-41569914D02*
X142851333Y-41474676D01*
X142851333Y-41474676D02*
X142946571Y-41379438D01*
X142946571Y-41379438D02*
X143089428Y-41331819D01*
X143089428Y-41331819D02*
X143184666Y-41331819D01*
X143184666Y-41331819D02*
X143327523Y-41379438D01*
X143327523Y-41379438D02*
X143375142Y-41427057D01*
X144327523Y-42331819D02*
X143756095Y-42331819D01*
X144041809Y-42331819D02*
X144041809Y-41331819D01*
X144041809Y-41331819D02*
X143946571Y-41474676D01*
X143946571Y-41474676D02*
X143851333Y-41569914D01*
X143851333Y-41569914D02*
X143756095Y-41617533D01*
X144708476Y-41427057D02*
X144756095Y-41379438D01*
X144756095Y-41379438D02*
X144851333Y-41331819D01*
X144851333Y-41331819D02*
X145089428Y-41331819D01*
X145089428Y-41331819D02*
X145184666Y-41379438D01*
X145184666Y-41379438D02*
X145232285Y-41427057D01*
X145232285Y-41427057D02*
X145279904Y-41522295D01*
X145279904Y-41522295D02*
X145279904Y-41617533D01*
X145279904Y-41617533D02*
X145232285Y-41760390D01*
X145232285Y-41760390D02*
X144660857Y-42331819D01*
X144660857Y-42331819D02*
X145279904Y-42331819D01*
X119904761Y-67250057D02*
X119809523Y-67202438D01*
X119809523Y-67202438D02*
X119714285Y-67107200D01*
X119714285Y-67107200D02*
X119571428Y-66964342D01*
X119571428Y-66964342D02*
X119476190Y-66916723D01*
X119476190Y-66916723D02*
X119380952Y-66916723D01*
X119428571Y-67154819D02*
X119333333Y-67107200D01*
X119333333Y-67107200D02*
X119238095Y-67011961D01*
X119238095Y-67011961D02*
X119190476Y-66821485D01*
X119190476Y-66821485D02*
X119190476Y-66488152D01*
X119190476Y-66488152D02*
X119238095Y-66297676D01*
X119238095Y-66297676D02*
X119333333Y-66202438D01*
X119333333Y-66202438D02*
X119428571Y-66154819D01*
X119428571Y-66154819D02*
X119619047Y-66154819D01*
X119619047Y-66154819D02*
X119714285Y-66202438D01*
X119714285Y-66202438D02*
X119809523Y-66297676D01*
X119809523Y-66297676D02*
X119857142Y-66488152D01*
X119857142Y-66488152D02*
X119857142Y-66821485D01*
X119857142Y-66821485D02*
X119809523Y-67011961D01*
X119809523Y-67011961D02*
X119714285Y-67107200D01*
X119714285Y-67107200D02*
X119619047Y-67154819D01*
X119619047Y-67154819D02*
X119428571Y-67154819D01*
X120761904Y-66154819D02*
X120285714Y-66154819D01*
X120285714Y-66154819D02*
X120238095Y-66631009D01*
X120238095Y-66631009D02*
X120285714Y-66583390D01*
X120285714Y-66583390D02*
X120380952Y-66535771D01*
X120380952Y-66535771D02*
X120619047Y-66535771D01*
X120619047Y-66535771D02*
X120714285Y-66583390D01*
X120714285Y-66583390D02*
X120761904Y-66631009D01*
X120761904Y-66631009D02*
X120809523Y-66726247D01*
X120809523Y-66726247D02*
X120809523Y-66964342D01*
X120809523Y-66964342D02*
X120761904Y-67059580D01*
X120761904Y-67059580D02*
X120714285Y-67107200D01*
X120714285Y-67107200D02*
X120619047Y-67154819D01*
X120619047Y-67154819D02*
X120380952Y-67154819D01*
X120380952Y-67154819D02*
X120285714Y-67107200D01*
X120285714Y-67107200D02*
X120238095Y-67059580D01*
X125364820Y-99185856D02*
X124888629Y-99519189D01*
X125364820Y-99757284D02*
X124364820Y-99757284D01*
X124364820Y-99757284D02*
X124364820Y-99376332D01*
X124364820Y-99376332D02*
X124412439Y-99281094D01*
X124412439Y-99281094D02*
X124460058Y-99233475D01*
X124460058Y-99233475D02*
X124555296Y-99185856D01*
X124555296Y-99185856D02*
X124698153Y-99185856D01*
X124698153Y-99185856D02*
X124793391Y-99233475D01*
X124793391Y-99233475D02*
X124841010Y-99281094D01*
X124841010Y-99281094D02*
X124888629Y-99376332D01*
X124888629Y-99376332D02*
X124888629Y-99757284D01*
X125364820Y-98233475D02*
X125364820Y-98804903D01*
X125364820Y-98519189D02*
X124364820Y-98519189D01*
X124364820Y-98519189D02*
X124507677Y-98614427D01*
X124507677Y-98614427D02*
X124602915Y-98709665D01*
X124602915Y-98709665D02*
X124650534Y-98804903D01*
X124364820Y-97614427D02*
X124364820Y-97519189D01*
X124364820Y-97519189D02*
X124412439Y-97423951D01*
X124412439Y-97423951D02*
X124460058Y-97376332D01*
X124460058Y-97376332D02*
X124555296Y-97328713D01*
X124555296Y-97328713D02*
X124745772Y-97281094D01*
X124745772Y-97281094D02*
X124983867Y-97281094D01*
X124983867Y-97281094D02*
X125174343Y-97328713D01*
X125174343Y-97328713D02*
X125269581Y-97376332D01*
X125269581Y-97376332D02*
X125317201Y-97423951D01*
X125317201Y-97423951D02*
X125364820Y-97519189D01*
X125364820Y-97519189D02*
X125364820Y-97614427D01*
X125364820Y-97614427D02*
X125317201Y-97709665D01*
X125317201Y-97709665D02*
X125269581Y-97757284D01*
X125269581Y-97757284D02*
X125174343Y-97804903D01*
X125174343Y-97804903D02*
X124983867Y-97852522D01*
X124983867Y-97852522D02*
X124745772Y-97852522D01*
X124745772Y-97852522D02*
X124555296Y-97804903D01*
X124555296Y-97804903D02*
X124460058Y-97757284D01*
X124460058Y-97757284D02*
X124412439Y-97709665D01*
X124412439Y-97709665D02*
X124364820Y-97614427D01*
X115584820Y-77126332D02*
X116299105Y-77126332D01*
X116299105Y-77126332D02*
X116441962Y-77173951D01*
X116441962Y-77173951D02*
X116537201Y-77269189D01*
X116537201Y-77269189D02*
X116584820Y-77412046D01*
X116584820Y-77412046D02*
X116584820Y-77507284D01*
X116584820Y-76126332D02*
X116584820Y-76697760D01*
X116584820Y-76412046D02*
X115584820Y-76412046D01*
X115584820Y-76412046D02*
X115727677Y-76507284D01*
X115727677Y-76507284D02*
X115822915Y-76602522D01*
X115822915Y-76602522D02*
X115870534Y-76697760D01*
X110242261Y-66400057D02*
X110147023Y-66352438D01*
X110147023Y-66352438D02*
X110051785Y-66257200D01*
X110051785Y-66257200D02*
X109908928Y-66114342D01*
X109908928Y-66114342D02*
X109813690Y-66066723D01*
X109813690Y-66066723D02*
X109718452Y-66066723D01*
X109766071Y-66304819D02*
X109670833Y-66257200D01*
X109670833Y-66257200D02*
X109575595Y-66161961D01*
X109575595Y-66161961D02*
X109527976Y-65971485D01*
X109527976Y-65971485D02*
X109527976Y-65638152D01*
X109527976Y-65638152D02*
X109575595Y-65447676D01*
X109575595Y-65447676D02*
X109670833Y-65352438D01*
X109670833Y-65352438D02*
X109766071Y-65304819D01*
X109766071Y-65304819D02*
X109956547Y-65304819D01*
X109956547Y-65304819D02*
X110051785Y-65352438D01*
X110051785Y-65352438D02*
X110147023Y-65447676D01*
X110147023Y-65447676D02*
X110194642Y-65638152D01*
X110194642Y-65638152D02*
X110194642Y-65971485D01*
X110194642Y-65971485D02*
X110147023Y-66161961D01*
X110147023Y-66161961D02*
X110051785Y-66257200D01*
X110051785Y-66257200D02*
X109956547Y-66304819D01*
X109956547Y-66304819D02*
X109766071Y-66304819D01*
X110527976Y-65304819D02*
X111147023Y-65304819D01*
X111147023Y-65304819D02*
X110813690Y-65685771D01*
X110813690Y-65685771D02*
X110956547Y-65685771D01*
X110956547Y-65685771D02*
X111051785Y-65733390D01*
X111051785Y-65733390D02*
X111099404Y-65781009D01*
X111099404Y-65781009D02*
X111147023Y-65876247D01*
X111147023Y-65876247D02*
X111147023Y-66114342D01*
X111147023Y-66114342D02*
X111099404Y-66209580D01*
X111099404Y-66209580D02*
X111051785Y-66257200D01*
X111051785Y-66257200D02*
X110956547Y-66304819D01*
X110956547Y-66304819D02*
X110670833Y-66304819D01*
X110670833Y-66304819D02*
X110575595Y-66257200D01*
X110575595Y-66257200D02*
X110527976Y-66209580D01*
X122769333Y-107801580D02*
X122721714Y-107849200D01*
X122721714Y-107849200D02*
X122578857Y-107896819D01*
X122578857Y-107896819D02*
X122483619Y-107896819D01*
X122483619Y-107896819D02*
X122340762Y-107849200D01*
X122340762Y-107849200D02*
X122245524Y-107753961D01*
X122245524Y-107753961D02*
X122197905Y-107658723D01*
X122197905Y-107658723D02*
X122150286Y-107468247D01*
X122150286Y-107468247D02*
X122150286Y-107325390D01*
X122150286Y-107325390D02*
X122197905Y-107134914D01*
X122197905Y-107134914D02*
X122245524Y-107039676D01*
X122245524Y-107039676D02*
X122340762Y-106944438D01*
X122340762Y-106944438D02*
X122483619Y-106896819D01*
X122483619Y-106896819D02*
X122578857Y-106896819D01*
X122578857Y-106896819D02*
X122721714Y-106944438D01*
X122721714Y-106944438D02*
X122769333Y-106992057D01*
X123340762Y-107325390D02*
X123245524Y-107277771D01*
X123245524Y-107277771D02*
X123197905Y-107230152D01*
X123197905Y-107230152D02*
X123150286Y-107134914D01*
X123150286Y-107134914D02*
X123150286Y-107087295D01*
X123150286Y-107087295D02*
X123197905Y-106992057D01*
X123197905Y-106992057D02*
X123245524Y-106944438D01*
X123245524Y-106944438D02*
X123340762Y-106896819D01*
X123340762Y-106896819D02*
X123531238Y-106896819D01*
X123531238Y-106896819D02*
X123626476Y-106944438D01*
X123626476Y-106944438D02*
X123674095Y-106992057D01*
X123674095Y-106992057D02*
X123721714Y-107087295D01*
X123721714Y-107087295D02*
X123721714Y-107134914D01*
X123721714Y-107134914D02*
X123674095Y-107230152D01*
X123674095Y-107230152D02*
X123626476Y-107277771D01*
X123626476Y-107277771D02*
X123531238Y-107325390D01*
X123531238Y-107325390D02*
X123340762Y-107325390D01*
X123340762Y-107325390D02*
X123245524Y-107373009D01*
X123245524Y-107373009D02*
X123197905Y-107420628D01*
X123197905Y-107420628D02*
X123150286Y-107515866D01*
X123150286Y-107515866D02*
X123150286Y-107706342D01*
X123150286Y-107706342D02*
X123197905Y-107801580D01*
X123197905Y-107801580D02*
X123245524Y-107849200D01*
X123245524Y-107849200D02*
X123340762Y-107896819D01*
X123340762Y-107896819D02*
X123531238Y-107896819D01*
X123531238Y-107896819D02*
X123626476Y-107849200D01*
X123626476Y-107849200D02*
X123674095Y-107801580D01*
X123674095Y-107801580D02*
X123721714Y-107706342D01*
X123721714Y-107706342D02*
X123721714Y-107515866D01*
X123721714Y-107515866D02*
X123674095Y-107420628D01*
X123674095Y-107420628D02*
X123626476Y-107373009D01*
X123626476Y-107373009D02*
X123531238Y-107325390D01*
X121435905Y-72590819D02*
X121435905Y-71590819D01*
X121435905Y-71590819D02*
X121674000Y-71590819D01*
X121674000Y-71590819D02*
X121816857Y-71638438D01*
X121816857Y-71638438D02*
X121912095Y-71733676D01*
X121912095Y-71733676D02*
X121959714Y-71828914D01*
X121959714Y-71828914D02*
X122007333Y-72019390D01*
X122007333Y-72019390D02*
X122007333Y-72162247D01*
X122007333Y-72162247D02*
X121959714Y-72352723D01*
X121959714Y-72352723D02*
X121912095Y-72447961D01*
X121912095Y-72447961D02*
X121816857Y-72543200D01*
X121816857Y-72543200D02*
X121674000Y-72590819D01*
X121674000Y-72590819D02*
X121435905Y-72590819D01*
X122388286Y-71686057D02*
X122435905Y-71638438D01*
X122435905Y-71638438D02*
X122531143Y-71590819D01*
X122531143Y-71590819D02*
X122769238Y-71590819D01*
X122769238Y-71590819D02*
X122864476Y-71638438D01*
X122864476Y-71638438D02*
X122912095Y-71686057D01*
X122912095Y-71686057D02*
X122959714Y-71781295D01*
X122959714Y-71781295D02*
X122959714Y-71876533D01*
X122959714Y-71876533D02*
X122912095Y-72019390D01*
X122912095Y-72019390D02*
X122340667Y-72590819D01*
X122340667Y-72590819D02*
X122959714Y-72590819D01*
X165498542Y-87322819D02*
X165165209Y-86846628D01*
X164927114Y-87322819D02*
X164927114Y-86322819D01*
X164927114Y-86322819D02*
X165308066Y-86322819D01*
X165308066Y-86322819D02*
X165403304Y-86370438D01*
X165403304Y-86370438D02*
X165450923Y-86418057D01*
X165450923Y-86418057D02*
X165498542Y-86513295D01*
X165498542Y-86513295D02*
X165498542Y-86656152D01*
X165498542Y-86656152D02*
X165450923Y-86751390D01*
X165450923Y-86751390D02*
X165403304Y-86799009D01*
X165403304Y-86799009D02*
X165308066Y-86846628D01*
X165308066Y-86846628D02*
X164927114Y-86846628D01*
X165879495Y-86418057D02*
X165927114Y-86370438D01*
X165927114Y-86370438D02*
X166022352Y-86322819D01*
X166022352Y-86322819D02*
X166260447Y-86322819D01*
X166260447Y-86322819D02*
X166355685Y-86370438D01*
X166355685Y-86370438D02*
X166403304Y-86418057D01*
X166403304Y-86418057D02*
X166450923Y-86513295D01*
X166450923Y-86513295D02*
X166450923Y-86608533D01*
X166450923Y-86608533D02*
X166403304Y-86751390D01*
X166403304Y-86751390D02*
X165831876Y-87322819D01*
X165831876Y-87322819D02*
X166450923Y-87322819D01*
X166784257Y-86322819D02*
X167403304Y-86322819D01*
X167403304Y-86322819D02*
X167069971Y-86703771D01*
X167069971Y-86703771D02*
X167212828Y-86703771D01*
X167212828Y-86703771D02*
X167308066Y-86751390D01*
X167308066Y-86751390D02*
X167355685Y-86799009D01*
X167355685Y-86799009D02*
X167403304Y-86894247D01*
X167403304Y-86894247D02*
X167403304Y-87132342D01*
X167403304Y-87132342D02*
X167355685Y-87227580D01*
X167355685Y-87227580D02*
X167308066Y-87275200D01*
X167308066Y-87275200D02*
X167212828Y-87322819D01*
X167212828Y-87322819D02*
X166927114Y-87322819D01*
X166927114Y-87322819D02*
X166831876Y-87275200D01*
X166831876Y-87275200D02*
X166784257Y-87227580D01*
X125423334Y-93722579D02*
X125375715Y-93770199D01*
X125375715Y-93770199D02*
X125232858Y-93817818D01*
X125232858Y-93817818D02*
X125137620Y-93817818D01*
X125137620Y-93817818D02*
X124994763Y-93770199D01*
X124994763Y-93770199D02*
X124899525Y-93674960D01*
X124899525Y-93674960D02*
X124851906Y-93579722D01*
X124851906Y-93579722D02*
X124804287Y-93389246D01*
X124804287Y-93389246D02*
X124804287Y-93246389D01*
X124804287Y-93246389D02*
X124851906Y-93055913D01*
X124851906Y-93055913D02*
X124899525Y-92960675D01*
X124899525Y-92960675D02*
X124994763Y-92865437D01*
X124994763Y-92865437D02*
X125137620Y-92817818D01*
X125137620Y-92817818D02*
X125232858Y-92817818D01*
X125232858Y-92817818D02*
X125375715Y-92865437D01*
X125375715Y-92865437D02*
X125423334Y-92913056D01*
X126328096Y-92817818D02*
X125851906Y-92817818D01*
X125851906Y-92817818D02*
X125804287Y-93294008D01*
X125804287Y-93294008D02*
X125851906Y-93246389D01*
X125851906Y-93246389D02*
X125947144Y-93198770D01*
X125947144Y-93198770D02*
X126185239Y-93198770D01*
X126185239Y-93198770D02*
X126280477Y-93246389D01*
X126280477Y-93246389D02*
X126328096Y-93294008D01*
X126328096Y-93294008D02*
X126375715Y-93389246D01*
X126375715Y-93389246D02*
X126375715Y-93627341D01*
X126375715Y-93627341D02*
X126328096Y-93722579D01*
X126328096Y-93722579D02*
X126280477Y-93770199D01*
X126280477Y-93770199D02*
X126185239Y-93817818D01*
X126185239Y-93817818D02*
X125947144Y-93817818D01*
X125947144Y-93817818D02*
X125851906Y-93770199D01*
X125851906Y-93770199D02*
X125804287Y-93722579D01*
X116474820Y-91134665D02*
X115998629Y-91467998D01*
X116474820Y-91706093D02*
X115474820Y-91706093D01*
X115474820Y-91706093D02*
X115474820Y-91325141D01*
X115474820Y-91325141D02*
X115522439Y-91229903D01*
X115522439Y-91229903D02*
X115570058Y-91182284D01*
X115570058Y-91182284D02*
X115665296Y-91134665D01*
X115665296Y-91134665D02*
X115808153Y-91134665D01*
X115808153Y-91134665D02*
X115903391Y-91182284D01*
X115903391Y-91182284D02*
X115951010Y-91229903D01*
X115951010Y-91229903D02*
X115998629Y-91325141D01*
X115998629Y-91325141D02*
X115998629Y-91706093D01*
X115474820Y-90229903D02*
X115474820Y-90706093D01*
X115474820Y-90706093D02*
X115951010Y-90753712D01*
X115951010Y-90753712D02*
X115903391Y-90706093D01*
X115903391Y-90706093D02*
X115855772Y-90610855D01*
X115855772Y-90610855D02*
X115855772Y-90372760D01*
X115855772Y-90372760D02*
X115903391Y-90277522D01*
X115903391Y-90277522D02*
X115951010Y-90229903D01*
X115951010Y-90229903D02*
X116046248Y-90182284D01*
X116046248Y-90182284D02*
X116284343Y-90182284D01*
X116284343Y-90182284D02*
X116379581Y-90229903D01*
X116379581Y-90229903D02*
X116427201Y-90277522D01*
X116427201Y-90277522D02*
X116474820Y-90372760D01*
X116474820Y-90372760D02*
X116474820Y-90610855D01*
X116474820Y-90610855D02*
X116427201Y-90706093D01*
X116427201Y-90706093D02*
X116379581Y-90753712D01*
X128581161Y-66894857D02*
X128485923Y-66847238D01*
X128485923Y-66847238D02*
X128390685Y-66752000D01*
X128390685Y-66752000D02*
X128247828Y-66609142D01*
X128247828Y-66609142D02*
X128152590Y-66561523D01*
X128152590Y-66561523D02*
X128057352Y-66561523D01*
X128104971Y-66799619D02*
X128009733Y-66752000D01*
X128009733Y-66752000D02*
X127914495Y-66656761D01*
X127914495Y-66656761D02*
X127866876Y-66466285D01*
X127866876Y-66466285D02*
X127866876Y-66132952D01*
X127866876Y-66132952D02*
X127914495Y-65942476D01*
X127914495Y-65942476D02*
X128009733Y-65847238D01*
X128009733Y-65847238D02*
X128104971Y-65799619D01*
X128104971Y-65799619D02*
X128295447Y-65799619D01*
X128295447Y-65799619D02*
X128390685Y-65847238D01*
X128390685Y-65847238D02*
X128485923Y-65942476D01*
X128485923Y-65942476D02*
X128533542Y-66132952D01*
X128533542Y-66132952D02*
X128533542Y-66466285D01*
X128533542Y-66466285D02*
X128485923Y-66656761D01*
X128485923Y-66656761D02*
X128390685Y-66752000D01*
X128390685Y-66752000D02*
X128295447Y-66799619D01*
X128295447Y-66799619D02*
X128104971Y-66799619D01*
X129390685Y-65799619D02*
X129200209Y-65799619D01*
X129200209Y-65799619D02*
X129104971Y-65847238D01*
X129104971Y-65847238D02*
X129057352Y-65894857D01*
X129057352Y-65894857D02*
X128962114Y-66037714D01*
X128962114Y-66037714D02*
X128914495Y-66228190D01*
X128914495Y-66228190D02*
X128914495Y-66609142D01*
X128914495Y-66609142D02*
X128962114Y-66704380D01*
X128962114Y-66704380D02*
X129009733Y-66752000D01*
X129009733Y-66752000D02*
X129104971Y-66799619D01*
X129104971Y-66799619D02*
X129295447Y-66799619D01*
X129295447Y-66799619D02*
X129390685Y-66752000D01*
X129390685Y-66752000D02*
X129438304Y-66704380D01*
X129438304Y-66704380D02*
X129485923Y-66609142D01*
X129485923Y-66609142D02*
X129485923Y-66371047D01*
X129485923Y-66371047D02*
X129438304Y-66275809D01*
X129438304Y-66275809D02*
X129390685Y-66228190D01*
X129390685Y-66228190D02*
X129295447Y-66180571D01*
X129295447Y-66180571D02*
X129104971Y-66180571D01*
X129104971Y-66180571D02*
X129009733Y-66228190D01*
X129009733Y-66228190D02*
X128962114Y-66275809D01*
X128962114Y-66275809D02*
X128914495Y-66371047D01*
X99547142Y-106117580D02*
X99499523Y-106165200D01*
X99499523Y-106165200D02*
X99356666Y-106212819D01*
X99356666Y-106212819D02*
X99261428Y-106212819D01*
X99261428Y-106212819D02*
X99118571Y-106165200D01*
X99118571Y-106165200D02*
X99023333Y-106069961D01*
X99023333Y-106069961D02*
X98975714Y-105974723D01*
X98975714Y-105974723D02*
X98928095Y-105784247D01*
X98928095Y-105784247D02*
X98928095Y-105641390D01*
X98928095Y-105641390D02*
X98975714Y-105450914D01*
X98975714Y-105450914D02*
X99023333Y-105355676D01*
X99023333Y-105355676D02*
X99118571Y-105260438D01*
X99118571Y-105260438D02*
X99261428Y-105212819D01*
X99261428Y-105212819D02*
X99356666Y-105212819D01*
X99356666Y-105212819D02*
X99499523Y-105260438D01*
X99499523Y-105260438D02*
X99547142Y-105308057D01*
X100499523Y-106212819D02*
X99928095Y-106212819D01*
X100213809Y-106212819D02*
X100213809Y-105212819D01*
X100213809Y-105212819D02*
X100118571Y-105355676D01*
X100118571Y-105355676D02*
X100023333Y-105450914D01*
X100023333Y-105450914D02*
X99928095Y-105498533D01*
X101451904Y-106212819D02*
X100880476Y-106212819D01*
X101166190Y-106212819D02*
X101166190Y-105212819D01*
X101166190Y-105212819D02*
X101070952Y-105355676D01*
X101070952Y-105355676D02*
X100975714Y-105450914D01*
X100975714Y-105450914D02*
X100880476Y-105498533D01*
X125998334Y-105427818D02*
X125665001Y-104951627D01*
X125426906Y-105427818D02*
X125426906Y-104427818D01*
X125426906Y-104427818D02*
X125807858Y-104427818D01*
X125807858Y-104427818D02*
X125903096Y-104475437D01*
X125903096Y-104475437D02*
X125950715Y-104523056D01*
X125950715Y-104523056D02*
X125998334Y-104618294D01*
X125998334Y-104618294D02*
X125998334Y-104761151D01*
X125998334Y-104761151D02*
X125950715Y-104856389D01*
X125950715Y-104856389D02*
X125903096Y-104904008D01*
X125903096Y-104904008D02*
X125807858Y-104951627D01*
X125807858Y-104951627D02*
X125426906Y-104951627D01*
X126474525Y-105427818D02*
X126665001Y-105427818D01*
X126665001Y-105427818D02*
X126760239Y-105380199D01*
X126760239Y-105380199D02*
X126807858Y-105332579D01*
X126807858Y-105332579D02*
X126903096Y-105189722D01*
X126903096Y-105189722D02*
X126950715Y-104999246D01*
X126950715Y-104999246D02*
X126950715Y-104618294D01*
X126950715Y-104618294D02*
X126903096Y-104523056D01*
X126903096Y-104523056D02*
X126855477Y-104475437D01*
X126855477Y-104475437D02*
X126760239Y-104427818D01*
X126760239Y-104427818D02*
X126569763Y-104427818D01*
X126569763Y-104427818D02*
X126474525Y-104475437D01*
X126474525Y-104475437D02*
X126426906Y-104523056D01*
X126426906Y-104523056D02*
X126379287Y-104618294D01*
X126379287Y-104618294D02*
X126379287Y-104856389D01*
X126379287Y-104856389D02*
X126426906Y-104951627D01*
X126426906Y-104951627D02*
X126474525Y-104999246D01*
X126474525Y-104999246D02*
X126569763Y-105046865D01*
X126569763Y-105046865D02*
X126760239Y-105046865D01*
X126760239Y-105046865D02*
X126855477Y-104999246D01*
X126855477Y-104999246D02*
X126903096Y-104951627D01*
X126903096Y-104951627D02*
X126950715Y-104856389D01*
X140866905Y-83799819D02*
X140866905Y-82799819D01*
X140866905Y-82799819D02*
X141105000Y-82799819D01*
X141105000Y-82799819D02*
X141247857Y-82847438D01*
X141247857Y-82847438D02*
X141343095Y-82942676D01*
X141343095Y-82942676D02*
X141390714Y-83037914D01*
X141390714Y-83037914D02*
X141438333Y-83228390D01*
X141438333Y-83228390D02*
X141438333Y-83371247D01*
X141438333Y-83371247D02*
X141390714Y-83561723D01*
X141390714Y-83561723D02*
X141343095Y-83656961D01*
X141343095Y-83656961D02*
X141247857Y-83752200D01*
X141247857Y-83752200D02*
X141105000Y-83799819D01*
X141105000Y-83799819D02*
X140866905Y-83799819D01*
X142390714Y-83799819D02*
X141819286Y-83799819D01*
X142105000Y-83799819D02*
X142105000Y-82799819D01*
X142105000Y-82799819D02*
X142009762Y-82942676D01*
X142009762Y-82942676D02*
X141914524Y-83037914D01*
X141914524Y-83037914D02*
X141819286Y-83085533D01*
X148423334Y-79652579D02*
X148375715Y-79700199D01*
X148375715Y-79700199D02*
X148232858Y-79747818D01*
X148232858Y-79747818D02*
X148137620Y-79747818D01*
X148137620Y-79747818D02*
X147994763Y-79700199D01*
X147994763Y-79700199D02*
X147899525Y-79604960D01*
X147899525Y-79604960D02*
X147851906Y-79509722D01*
X147851906Y-79509722D02*
X147804287Y-79319246D01*
X147804287Y-79319246D02*
X147804287Y-79176389D01*
X147804287Y-79176389D02*
X147851906Y-78985913D01*
X147851906Y-78985913D02*
X147899525Y-78890675D01*
X147899525Y-78890675D02*
X147994763Y-78795437D01*
X147994763Y-78795437D02*
X148137620Y-78747818D01*
X148137620Y-78747818D02*
X148232858Y-78747818D01*
X148232858Y-78747818D02*
X148375715Y-78795437D01*
X148375715Y-78795437D02*
X148423334Y-78843056D01*
X148756668Y-78747818D02*
X149423334Y-78747818D01*
X149423334Y-78747818D02*
X148994763Y-79747818D01*
X171324741Y-53932672D02*
X171372363Y-53789807D01*
X171372363Y-53789807D02*
X171419984Y-53742185D01*
X171419984Y-53742185D02*
X171515228Y-53694563D01*
X171515228Y-53694563D02*
X171658093Y-53694563D01*
X171658093Y-53694563D02*
X171753336Y-53742185D01*
X171753336Y-53742185D02*
X171800958Y-53789807D01*
X171800958Y-53789807D02*
X171848579Y-53885050D01*
X171848579Y-53885050D02*
X171848579Y-54266023D01*
X171848579Y-54266023D02*
X170848524Y-54266023D01*
X170848524Y-54266023D02*
X170848524Y-53932672D01*
X170848524Y-53932672D02*
X170896146Y-53837428D01*
X170896146Y-53837428D02*
X170943768Y-53789807D01*
X170943768Y-53789807D02*
X171039011Y-53742185D01*
X171039011Y-53742185D02*
X171134254Y-53742185D01*
X171134254Y-53742185D02*
X171229498Y-53789807D01*
X171229498Y-53789807D02*
X171277119Y-53837428D01*
X171277119Y-53837428D02*
X171324741Y-53932672D01*
X171324741Y-53932672D02*
X171324741Y-54266023D01*
X170848524Y-53408833D02*
X170848524Y-52837373D01*
X171848579Y-53123103D02*
X170848524Y-53123103D01*
X171848579Y-51980183D02*
X171848579Y-52551643D01*
X171848579Y-52265913D02*
X170848524Y-52265913D01*
X170848524Y-52265913D02*
X170991389Y-52361156D01*
X170991389Y-52361156D02*
X171086633Y-52456400D01*
X171086633Y-52456400D02*
X171134254Y-52551643D01*
X164444631Y-41626788D02*
X164444631Y-40559210D01*
X164978420Y-41092999D02*
X163910842Y-41092999D01*
X143559405Y-27472819D02*
X143559405Y-26472819D01*
X143559405Y-26472819D02*
X143797500Y-26472819D01*
X143797500Y-26472819D02*
X143940357Y-26520438D01*
X143940357Y-26520438D02*
X144035595Y-26615676D01*
X144035595Y-26615676D02*
X144083214Y-26710914D01*
X144083214Y-26710914D02*
X144130833Y-26901390D01*
X144130833Y-26901390D02*
X144130833Y-27044247D01*
X144130833Y-27044247D02*
X144083214Y-27234723D01*
X144083214Y-27234723D02*
X144035595Y-27329961D01*
X144035595Y-27329961D02*
X143940357Y-27425200D01*
X143940357Y-27425200D02*
X143797500Y-27472819D01*
X143797500Y-27472819D02*
X143559405Y-27472819D01*
X144987976Y-26806152D02*
X144987976Y-27472819D01*
X144749881Y-26425200D02*
X144511786Y-27139485D01*
X144511786Y-27139485D02*
X145130833Y-27139485D01*
X136394761Y-67287557D02*
X136299523Y-67239938D01*
X136299523Y-67239938D02*
X136204285Y-67144700D01*
X136204285Y-67144700D02*
X136061428Y-67001842D01*
X136061428Y-67001842D02*
X135966190Y-66954223D01*
X135966190Y-66954223D02*
X135870952Y-66954223D01*
X135918571Y-67192319D02*
X135823333Y-67144700D01*
X135823333Y-67144700D02*
X135728095Y-67049461D01*
X135728095Y-67049461D02*
X135680476Y-66858985D01*
X135680476Y-66858985D02*
X135680476Y-66525652D01*
X135680476Y-66525652D02*
X135728095Y-66335176D01*
X135728095Y-66335176D02*
X135823333Y-66239938D01*
X135823333Y-66239938D02*
X135918571Y-66192319D01*
X135918571Y-66192319D02*
X136109047Y-66192319D01*
X136109047Y-66192319D02*
X136204285Y-66239938D01*
X136204285Y-66239938D02*
X136299523Y-66335176D01*
X136299523Y-66335176D02*
X136347142Y-66525652D01*
X136347142Y-66525652D02*
X136347142Y-66858985D01*
X136347142Y-66858985D02*
X136299523Y-67049461D01*
X136299523Y-67049461D02*
X136204285Y-67144700D01*
X136204285Y-67144700D02*
X136109047Y-67192319D01*
X136109047Y-67192319D02*
X135918571Y-67192319D01*
X137204285Y-66525652D02*
X137204285Y-67192319D01*
X136966190Y-66144700D02*
X136728095Y-66858985D01*
X136728095Y-66858985D02*
X137347142Y-66858985D01*
X116343580Y-95143857D02*
X116391200Y-95191476D01*
X116391200Y-95191476D02*
X116438819Y-95334333D01*
X116438819Y-95334333D02*
X116438819Y-95429571D01*
X116438819Y-95429571D02*
X116391200Y-95572428D01*
X116391200Y-95572428D02*
X116295961Y-95667666D01*
X116295961Y-95667666D02*
X116200723Y-95715285D01*
X116200723Y-95715285D02*
X116010247Y-95762904D01*
X116010247Y-95762904D02*
X115867390Y-95762904D01*
X115867390Y-95762904D02*
X115676914Y-95715285D01*
X115676914Y-95715285D02*
X115581676Y-95667666D01*
X115581676Y-95667666D02*
X115486438Y-95572428D01*
X115486438Y-95572428D02*
X115438819Y-95429571D01*
X115438819Y-95429571D02*
X115438819Y-95334333D01*
X115438819Y-95334333D02*
X115486438Y-95191476D01*
X115486438Y-95191476D02*
X115534057Y-95143857D01*
X116438819Y-94191476D02*
X116438819Y-94762904D01*
X116438819Y-94477190D02*
X115438819Y-94477190D01*
X115438819Y-94477190D02*
X115581676Y-94572428D01*
X115581676Y-94572428D02*
X115676914Y-94667666D01*
X115676914Y-94667666D02*
X115724533Y-94762904D01*
X115438819Y-93286714D02*
X115438819Y-93762904D01*
X115438819Y-93762904D02*
X115915009Y-93810523D01*
X115915009Y-93810523D02*
X115867390Y-93762904D01*
X115867390Y-93762904D02*
X115819771Y-93667666D01*
X115819771Y-93667666D02*
X115819771Y-93429571D01*
X115819771Y-93429571D02*
X115867390Y-93334333D01*
X115867390Y-93334333D02*
X115915009Y-93286714D01*
X115915009Y-93286714D02*
X116010247Y-93239095D01*
X116010247Y-93239095D02*
X116248342Y-93239095D01*
X116248342Y-93239095D02*
X116343580Y-93286714D01*
X116343580Y-93286714D02*
X116391200Y-93334333D01*
X116391200Y-93334333D02*
X116438819Y-93429571D01*
X116438819Y-93429571D02*
X116438819Y-93667666D01*
X116438819Y-93667666D02*
X116391200Y-93762904D01*
X116391200Y-93762904D02*
X116343580Y-93810523D01*
X107998334Y-87747818D02*
X107665001Y-87271627D01*
X107426906Y-87747818D02*
X107426906Y-86747818D01*
X107426906Y-86747818D02*
X107807858Y-86747818D01*
X107807858Y-86747818D02*
X107903096Y-86795437D01*
X107903096Y-86795437D02*
X107950715Y-86843056D01*
X107950715Y-86843056D02*
X107998334Y-86938294D01*
X107998334Y-86938294D02*
X107998334Y-87081151D01*
X107998334Y-87081151D02*
X107950715Y-87176389D01*
X107950715Y-87176389D02*
X107903096Y-87224008D01*
X107903096Y-87224008D02*
X107807858Y-87271627D01*
X107807858Y-87271627D02*
X107426906Y-87271627D01*
X108855477Y-86747818D02*
X108665001Y-86747818D01*
X108665001Y-86747818D02*
X108569763Y-86795437D01*
X108569763Y-86795437D02*
X108522144Y-86843056D01*
X108522144Y-86843056D02*
X108426906Y-86985913D01*
X108426906Y-86985913D02*
X108379287Y-87176389D01*
X108379287Y-87176389D02*
X108379287Y-87557341D01*
X108379287Y-87557341D02*
X108426906Y-87652579D01*
X108426906Y-87652579D02*
X108474525Y-87700199D01*
X108474525Y-87700199D02*
X108569763Y-87747818D01*
X108569763Y-87747818D02*
X108760239Y-87747818D01*
X108760239Y-87747818D02*
X108855477Y-87700199D01*
X108855477Y-87700199D02*
X108903096Y-87652579D01*
X108903096Y-87652579D02*
X108950715Y-87557341D01*
X108950715Y-87557341D02*
X108950715Y-87319246D01*
X108950715Y-87319246D02*
X108903096Y-87224008D01*
X108903096Y-87224008D02*
X108855477Y-87176389D01*
X108855477Y-87176389D02*
X108760239Y-87128770D01*
X108760239Y-87128770D02*
X108569763Y-87128770D01*
X108569763Y-87128770D02*
X108474525Y-87176389D01*
X108474525Y-87176389D02*
X108426906Y-87224008D01*
X108426906Y-87224008D02*
X108379287Y-87319246D01*
X150272419Y-69472133D02*
X150986704Y-69472133D01*
X150986704Y-69472133D02*
X151129561Y-69519752D01*
X151129561Y-69519752D02*
X151224800Y-69614990D01*
X151224800Y-69614990D02*
X151272419Y-69757847D01*
X151272419Y-69757847D02*
X151272419Y-69853085D01*
X150272419Y-69091180D02*
X150272419Y-68424514D01*
X150272419Y-68424514D02*
X151272419Y-68853085D01*
X155471905Y-36776819D02*
X155471905Y-35776819D01*
X155471905Y-35776819D02*
X155710000Y-35776819D01*
X155710000Y-35776819D02*
X155852857Y-35824438D01*
X155852857Y-35824438D02*
X155948095Y-35919676D01*
X155948095Y-35919676D02*
X155995714Y-36014914D01*
X155995714Y-36014914D02*
X156043333Y-36205390D01*
X156043333Y-36205390D02*
X156043333Y-36348247D01*
X156043333Y-36348247D02*
X155995714Y-36538723D01*
X155995714Y-36538723D02*
X155948095Y-36633961D01*
X155948095Y-36633961D02*
X155852857Y-36729200D01*
X155852857Y-36729200D02*
X155710000Y-36776819D01*
X155710000Y-36776819D02*
X155471905Y-36776819D01*
X156376667Y-35776819D02*
X156995714Y-35776819D01*
X156995714Y-35776819D02*
X156662381Y-36157771D01*
X156662381Y-36157771D02*
X156805238Y-36157771D01*
X156805238Y-36157771D02*
X156900476Y-36205390D01*
X156900476Y-36205390D02*
X156948095Y-36253009D01*
X156948095Y-36253009D02*
X156995714Y-36348247D01*
X156995714Y-36348247D02*
X156995714Y-36586342D01*
X156995714Y-36586342D02*
X156948095Y-36681580D01*
X156948095Y-36681580D02*
X156900476Y-36729200D01*
X156900476Y-36729200D02*
X156805238Y-36776819D01*
X156805238Y-36776819D02*
X156519524Y-36776819D01*
X156519524Y-36776819D02*
X156424286Y-36729200D01*
X156424286Y-36729200D02*
X156376667Y-36681580D01*
X143297333Y-52579866D02*
X143297333Y-53579866D01*
X143297333Y-53579866D02*
X143230666Y-53779866D01*
X143230666Y-53779866D02*
X143097333Y-53913200D01*
X143097333Y-53913200D02*
X142897333Y-53979866D01*
X142897333Y-53979866D02*
X142764000Y-53979866D01*
X144564000Y-52579866D02*
X144297333Y-52579866D01*
X144297333Y-52579866D02*
X144164000Y-52646533D01*
X144164000Y-52646533D02*
X144097333Y-52713200D01*
X144097333Y-52713200D02*
X143964000Y-52913200D01*
X143964000Y-52913200D02*
X143897333Y-53179866D01*
X143897333Y-53179866D02*
X143897333Y-53713200D01*
X143897333Y-53713200D02*
X143964000Y-53846533D01*
X143964000Y-53846533D02*
X144030667Y-53913200D01*
X144030667Y-53913200D02*
X144164000Y-53979866D01*
X144164000Y-53979866D02*
X144430667Y-53979866D01*
X144430667Y-53979866D02*
X144564000Y-53913200D01*
X144564000Y-53913200D02*
X144630667Y-53846533D01*
X144630667Y-53846533D02*
X144697333Y-53713200D01*
X144697333Y-53713200D02*
X144697333Y-53379866D01*
X144697333Y-53379866D02*
X144630667Y-53246533D01*
X144630667Y-53246533D02*
X144564000Y-53179866D01*
X144564000Y-53179866D02*
X144430667Y-53113200D01*
X144430667Y-53113200D02*
X144164000Y-53113200D01*
X144164000Y-53113200D02*
X144030667Y-53179866D01*
X144030667Y-53179866D02*
X143964000Y-53246533D01*
X143964000Y-53246533D02*
X143897333Y-53379866D01*
X118614820Y-98784665D02*
X118138629Y-99117998D01*
X118614820Y-99356093D02*
X117614820Y-99356093D01*
X117614820Y-99356093D02*
X117614820Y-98975141D01*
X117614820Y-98975141D02*
X117662439Y-98879903D01*
X117662439Y-98879903D02*
X117710058Y-98832284D01*
X117710058Y-98832284D02*
X117805296Y-98784665D01*
X117805296Y-98784665D02*
X117948153Y-98784665D01*
X117948153Y-98784665D02*
X118043391Y-98832284D01*
X118043391Y-98832284D02*
X118091010Y-98879903D01*
X118091010Y-98879903D02*
X118138629Y-98975141D01*
X118138629Y-98975141D02*
X118138629Y-99356093D01*
X117614820Y-98451331D02*
X117614820Y-97832284D01*
X117614820Y-97832284D02*
X117995772Y-98165617D01*
X117995772Y-98165617D02*
X117995772Y-98022760D01*
X117995772Y-98022760D02*
X118043391Y-97927522D01*
X118043391Y-97927522D02*
X118091010Y-97879903D01*
X118091010Y-97879903D02*
X118186248Y-97832284D01*
X118186248Y-97832284D02*
X118424343Y-97832284D01*
X118424343Y-97832284D02*
X118519581Y-97879903D01*
X118519581Y-97879903D02*
X118567201Y-97927522D01*
X118567201Y-97927522D02*
X118614820Y-98022760D01*
X118614820Y-98022760D02*
X118614820Y-98308474D01*
X118614820Y-98308474D02*
X118567201Y-98403712D01*
X118567201Y-98403712D02*
X118519581Y-98451331D01*
X143692142Y-31282819D02*
X143358809Y-30806628D01*
X143120714Y-31282819D02*
X143120714Y-30282819D01*
X143120714Y-30282819D02*
X143501666Y-30282819D01*
X143501666Y-30282819D02*
X143596904Y-30330438D01*
X143596904Y-30330438D02*
X143644523Y-30378057D01*
X143644523Y-30378057D02*
X143692142Y-30473295D01*
X143692142Y-30473295D02*
X143692142Y-30616152D01*
X143692142Y-30616152D02*
X143644523Y-30711390D01*
X143644523Y-30711390D02*
X143596904Y-30759009D01*
X143596904Y-30759009D02*
X143501666Y-30806628D01*
X143501666Y-30806628D02*
X143120714Y-30806628D01*
X144644523Y-31282819D02*
X144073095Y-31282819D01*
X144358809Y-31282819D02*
X144358809Y-30282819D01*
X144358809Y-30282819D02*
X144263571Y-30425676D01*
X144263571Y-30425676D02*
X144168333Y-30520914D01*
X144168333Y-30520914D02*
X144073095Y-30568533D01*
X145215952Y-30711390D02*
X145120714Y-30663771D01*
X145120714Y-30663771D02*
X145073095Y-30616152D01*
X145073095Y-30616152D02*
X145025476Y-30520914D01*
X145025476Y-30520914D02*
X145025476Y-30473295D01*
X145025476Y-30473295D02*
X145073095Y-30378057D01*
X145073095Y-30378057D02*
X145120714Y-30330438D01*
X145120714Y-30330438D02*
X145215952Y-30282819D01*
X145215952Y-30282819D02*
X145406428Y-30282819D01*
X145406428Y-30282819D02*
X145501666Y-30330438D01*
X145501666Y-30330438D02*
X145549285Y-30378057D01*
X145549285Y-30378057D02*
X145596904Y-30473295D01*
X145596904Y-30473295D02*
X145596904Y-30520914D01*
X145596904Y-30520914D02*
X145549285Y-30616152D01*
X145549285Y-30616152D02*
X145501666Y-30663771D01*
X145501666Y-30663771D02*
X145406428Y-30711390D01*
X145406428Y-30711390D02*
X145215952Y-30711390D01*
X145215952Y-30711390D02*
X145120714Y-30759009D01*
X145120714Y-30759009D02*
X145073095Y-30806628D01*
X145073095Y-30806628D02*
X145025476Y-30901866D01*
X145025476Y-30901866D02*
X145025476Y-31092342D01*
X145025476Y-31092342D02*
X145073095Y-31187580D01*
X145073095Y-31187580D02*
X145120714Y-31235200D01*
X145120714Y-31235200D02*
X145215952Y-31282819D01*
X145215952Y-31282819D02*
X145406428Y-31282819D01*
X145406428Y-31282819D02*
X145501666Y-31235200D01*
X145501666Y-31235200D02*
X145549285Y-31187580D01*
X145549285Y-31187580D02*
X145596904Y-31092342D01*
X145596904Y-31092342D02*
X145596904Y-30901866D01*
X145596904Y-30901866D02*
X145549285Y-30806628D01*
X145549285Y-30806628D02*
X145501666Y-30759009D01*
X145501666Y-30759009D02*
X145406428Y-30711390D01*
X119209580Y-83116666D02*
X119257200Y-83164285D01*
X119257200Y-83164285D02*
X119304819Y-83307142D01*
X119304819Y-83307142D02*
X119304819Y-83402380D01*
X119304819Y-83402380D02*
X119257200Y-83545237D01*
X119257200Y-83545237D02*
X119161961Y-83640475D01*
X119161961Y-83640475D02*
X119066723Y-83688094D01*
X119066723Y-83688094D02*
X118876247Y-83735713D01*
X118876247Y-83735713D02*
X118733390Y-83735713D01*
X118733390Y-83735713D02*
X118542914Y-83688094D01*
X118542914Y-83688094D02*
X118447676Y-83640475D01*
X118447676Y-83640475D02*
X118352438Y-83545237D01*
X118352438Y-83545237D02*
X118304819Y-83402380D01*
X118304819Y-83402380D02*
X118304819Y-83307142D01*
X118304819Y-83307142D02*
X118352438Y-83164285D01*
X118352438Y-83164285D02*
X118400057Y-83116666D01*
X118304819Y-82783332D02*
X118304819Y-82164285D01*
X118304819Y-82164285D02*
X118685771Y-82497618D01*
X118685771Y-82497618D02*
X118685771Y-82354761D01*
X118685771Y-82354761D02*
X118733390Y-82259523D01*
X118733390Y-82259523D02*
X118781009Y-82211904D01*
X118781009Y-82211904D02*
X118876247Y-82164285D01*
X118876247Y-82164285D02*
X119114342Y-82164285D01*
X119114342Y-82164285D02*
X119209580Y-82211904D01*
X119209580Y-82211904D02*
X119257200Y-82259523D01*
X119257200Y-82259523D02*
X119304819Y-82354761D01*
X119304819Y-82354761D02*
X119304819Y-82640475D01*
X119304819Y-82640475D02*
X119257200Y-82735713D01*
X119257200Y-82735713D02*
X119209580Y-82783332D01*
X130421142Y-88338819D02*
X130087809Y-87862628D01*
X129849714Y-88338819D02*
X129849714Y-87338819D01*
X129849714Y-87338819D02*
X130230666Y-87338819D01*
X130230666Y-87338819D02*
X130325904Y-87386438D01*
X130325904Y-87386438D02*
X130373523Y-87434057D01*
X130373523Y-87434057D02*
X130421142Y-87529295D01*
X130421142Y-87529295D02*
X130421142Y-87672152D01*
X130421142Y-87672152D02*
X130373523Y-87767390D01*
X130373523Y-87767390D02*
X130325904Y-87815009D01*
X130325904Y-87815009D02*
X130230666Y-87862628D01*
X130230666Y-87862628D02*
X129849714Y-87862628D01*
X131373523Y-88338819D02*
X130802095Y-88338819D01*
X131087809Y-88338819D02*
X131087809Y-87338819D01*
X131087809Y-87338819D02*
X130992571Y-87481676D01*
X130992571Y-87481676D02*
X130897333Y-87576914D01*
X130897333Y-87576914D02*
X130802095Y-87624533D01*
X132325904Y-88338819D02*
X131754476Y-88338819D01*
X132040190Y-88338819D02*
X132040190Y-87338819D01*
X132040190Y-87338819D02*
X131944952Y-87481676D01*
X131944952Y-87481676D02*
X131849714Y-87576914D01*
X131849714Y-87576914D02*
X131754476Y-87624533D01*
X97014819Y-51482523D02*
X97729104Y-51482523D01*
X97729104Y-51482523D02*
X97871961Y-51530142D01*
X97871961Y-51530142D02*
X97967200Y-51625380D01*
X97967200Y-51625380D02*
X98014819Y-51768237D01*
X98014819Y-51768237D02*
X98014819Y-51863475D01*
X98014819Y-50482523D02*
X98014819Y-51053951D01*
X98014819Y-50768237D02*
X97014819Y-50768237D01*
X97014819Y-50768237D02*
X97157676Y-50863475D01*
X97157676Y-50863475D02*
X97252914Y-50958713D01*
X97252914Y-50958713D02*
X97300533Y-51053951D01*
X97014819Y-49863475D02*
X97014819Y-49768237D01*
X97014819Y-49768237D02*
X97062438Y-49672999D01*
X97062438Y-49672999D02*
X97110057Y-49625380D01*
X97110057Y-49625380D02*
X97205295Y-49577761D01*
X97205295Y-49577761D02*
X97395771Y-49530142D01*
X97395771Y-49530142D02*
X97633866Y-49530142D01*
X97633866Y-49530142D02*
X97824342Y-49577761D01*
X97824342Y-49577761D02*
X97919580Y-49625380D01*
X97919580Y-49625380D02*
X97967200Y-49672999D01*
X97967200Y-49672999D02*
X98014819Y-49768237D01*
X98014819Y-49768237D02*
X98014819Y-49863475D01*
X98014819Y-49863475D02*
X97967200Y-49958713D01*
X97967200Y-49958713D02*
X97919580Y-50006332D01*
X97919580Y-50006332D02*
X97824342Y-50053951D01*
X97824342Y-50053951D02*
X97633866Y-50101570D01*
X97633866Y-50101570D02*
X97395771Y-50101570D01*
X97395771Y-50101570D02*
X97205295Y-50053951D01*
X97205295Y-50053951D02*
X97110057Y-50006332D01*
X97110057Y-50006332D02*
X97062438Y-49958713D01*
X97062438Y-49958713D02*
X97014819Y-49863475D01*
X114404761Y-67250057D02*
X114309523Y-67202438D01*
X114309523Y-67202438D02*
X114214285Y-67107200D01*
X114214285Y-67107200D02*
X114071428Y-66964342D01*
X114071428Y-66964342D02*
X113976190Y-66916723D01*
X113976190Y-66916723D02*
X113880952Y-66916723D01*
X113928571Y-67154819D02*
X113833333Y-67107200D01*
X113833333Y-67107200D02*
X113738095Y-67011961D01*
X113738095Y-67011961D02*
X113690476Y-66821485D01*
X113690476Y-66821485D02*
X113690476Y-66488152D01*
X113690476Y-66488152D02*
X113738095Y-66297676D01*
X113738095Y-66297676D02*
X113833333Y-66202438D01*
X113833333Y-66202438D02*
X113928571Y-66154819D01*
X113928571Y-66154819D02*
X114119047Y-66154819D01*
X114119047Y-66154819D02*
X114214285Y-66202438D01*
X114214285Y-66202438D02*
X114309523Y-66297676D01*
X114309523Y-66297676D02*
X114357142Y-66488152D01*
X114357142Y-66488152D02*
X114357142Y-66821485D01*
X114357142Y-66821485D02*
X114309523Y-67011961D01*
X114309523Y-67011961D02*
X114214285Y-67107200D01*
X114214285Y-67107200D02*
X114119047Y-67154819D01*
X114119047Y-67154819D02*
X113928571Y-67154819D01*
X114738095Y-66250057D02*
X114785714Y-66202438D01*
X114785714Y-66202438D02*
X114880952Y-66154819D01*
X114880952Y-66154819D02*
X115119047Y-66154819D01*
X115119047Y-66154819D02*
X115214285Y-66202438D01*
X115214285Y-66202438D02*
X115261904Y-66250057D01*
X115261904Y-66250057D02*
X115309523Y-66345295D01*
X115309523Y-66345295D02*
X115309523Y-66440533D01*
X115309523Y-66440533D02*
X115261904Y-66583390D01*
X115261904Y-66583390D02*
X114690476Y-67154819D01*
X114690476Y-67154819D02*
X115309523Y-67154819D01*
X140557142Y-66784819D02*
X140223809Y-66308628D01*
X139985714Y-66784819D02*
X139985714Y-65784819D01*
X139985714Y-65784819D02*
X140366666Y-65784819D01*
X140366666Y-65784819D02*
X140461904Y-65832438D01*
X140461904Y-65832438D02*
X140509523Y-65880057D01*
X140509523Y-65880057D02*
X140557142Y-65975295D01*
X140557142Y-65975295D02*
X140557142Y-66118152D01*
X140557142Y-66118152D02*
X140509523Y-66213390D01*
X140509523Y-66213390D02*
X140461904Y-66261009D01*
X140461904Y-66261009D02*
X140366666Y-66308628D01*
X140366666Y-66308628D02*
X139985714Y-66308628D01*
X141509523Y-66784819D02*
X140938095Y-66784819D01*
X141223809Y-66784819D02*
X141223809Y-65784819D01*
X141223809Y-65784819D02*
X141128571Y-65927676D01*
X141128571Y-65927676D02*
X141033333Y-66022914D01*
X141033333Y-66022914D02*
X140938095Y-66070533D01*
X142366666Y-65784819D02*
X142176190Y-65784819D01*
X142176190Y-65784819D02*
X142080952Y-65832438D01*
X142080952Y-65832438D02*
X142033333Y-65880057D01*
X142033333Y-65880057D02*
X141938095Y-66022914D01*
X141938095Y-66022914D02*
X141890476Y-66213390D01*
X141890476Y-66213390D02*
X141890476Y-66594342D01*
X141890476Y-66594342D02*
X141938095Y-66689580D01*
X141938095Y-66689580D02*
X141985714Y-66737200D01*
X141985714Y-66737200D02*
X142080952Y-66784819D01*
X142080952Y-66784819D02*
X142271428Y-66784819D01*
X142271428Y-66784819D02*
X142366666Y-66737200D01*
X142366666Y-66737200D02*
X142414285Y-66689580D01*
X142414285Y-66689580D02*
X142461904Y-66594342D01*
X142461904Y-66594342D02*
X142461904Y-66356247D01*
X142461904Y-66356247D02*
X142414285Y-66261009D01*
X142414285Y-66261009D02*
X142366666Y-66213390D01*
X142366666Y-66213390D02*
X142271428Y-66165771D01*
X142271428Y-66165771D02*
X142080952Y-66165771D01*
X142080952Y-66165771D02*
X141985714Y-66213390D01*
X141985714Y-66213390D02*
X141938095Y-66261009D01*
X141938095Y-66261009D02*
X141890476Y-66356247D01*
X157044019Y-94078323D02*
X157758304Y-94078323D01*
X157758304Y-94078323D02*
X157901161Y-94125942D01*
X157901161Y-94125942D02*
X157996400Y-94221180D01*
X157996400Y-94221180D02*
X158044019Y-94364037D01*
X158044019Y-94364037D02*
X158044019Y-94459275D01*
X158044019Y-93078323D02*
X158044019Y-93649751D01*
X158044019Y-93364037D02*
X157044019Y-93364037D01*
X157044019Y-93364037D02*
X157186876Y-93459275D01*
X157186876Y-93459275D02*
X157282114Y-93554513D01*
X157282114Y-93554513D02*
X157329733Y-93649751D01*
X157044019Y-92744989D02*
X157044019Y-92078323D01*
X157044019Y-92078323D02*
X158044019Y-92506894D01*
X134312819Y-83954857D02*
X133836628Y-84288190D01*
X134312819Y-84526285D02*
X133312819Y-84526285D01*
X133312819Y-84526285D02*
X133312819Y-84145333D01*
X133312819Y-84145333D02*
X133360438Y-84050095D01*
X133360438Y-84050095D02*
X133408057Y-84002476D01*
X133408057Y-84002476D02*
X133503295Y-83954857D01*
X133503295Y-83954857D02*
X133646152Y-83954857D01*
X133646152Y-83954857D02*
X133741390Y-84002476D01*
X133741390Y-84002476D02*
X133789009Y-84050095D01*
X133789009Y-84050095D02*
X133836628Y-84145333D01*
X133836628Y-84145333D02*
X133836628Y-84526285D01*
X134312819Y-83002476D02*
X134312819Y-83573904D01*
X134312819Y-83288190D02*
X133312819Y-83288190D01*
X133312819Y-83288190D02*
X133455676Y-83383428D01*
X133455676Y-83383428D02*
X133550914Y-83478666D01*
X133550914Y-83478666D02*
X133598533Y-83573904D01*
X133408057Y-82621523D02*
X133360438Y-82573904D01*
X133360438Y-82573904D02*
X133312819Y-82478666D01*
X133312819Y-82478666D02*
X133312819Y-82240571D01*
X133312819Y-82240571D02*
X133360438Y-82145333D01*
X133360438Y-82145333D02*
X133408057Y-82097714D01*
X133408057Y-82097714D02*
X133503295Y-82050095D01*
X133503295Y-82050095D02*
X133598533Y-82050095D01*
X133598533Y-82050095D02*
X133741390Y-82097714D01*
X133741390Y-82097714D02*
X134312819Y-82669142D01*
X134312819Y-82669142D02*
X134312819Y-82050095D01*
X138924820Y-77210856D02*
X138448629Y-77544189D01*
X138924820Y-77782284D02*
X137924820Y-77782284D01*
X137924820Y-77782284D02*
X137924820Y-77401332D01*
X137924820Y-77401332D02*
X137972439Y-77306094D01*
X137972439Y-77306094D02*
X138020058Y-77258475D01*
X138020058Y-77258475D02*
X138115296Y-77210856D01*
X138115296Y-77210856D02*
X138258153Y-77210856D01*
X138258153Y-77210856D02*
X138353391Y-77258475D01*
X138353391Y-77258475D02*
X138401010Y-77306094D01*
X138401010Y-77306094D02*
X138448629Y-77401332D01*
X138448629Y-77401332D02*
X138448629Y-77782284D01*
X138924820Y-76258475D02*
X138924820Y-76829903D01*
X138924820Y-76544189D02*
X137924820Y-76544189D01*
X137924820Y-76544189D02*
X138067677Y-76639427D01*
X138067677Y-76639427D02*
X138162915Y-76734665D01*
X138162915Y-76734665D02*
X138210534Y-76829903D01*
X138258153Y-75401332D02*
X138924820Y-75401332D01*
X137877201Y-75639427D02*
X138591486Y-75877522D01*
X138591486Y-75877522D02*
X138591486Y-75258475D01*
X117983095Y-90259819D02*
X117983095Y-91069342D01*
X117983095Y-91069342D02*
X118030714Y-91164580D01*
X118030714Y-91164580D02*
X118078333Y-91212200D01*
X118078333Y-91212200D02*
X118173571Y-91259819D01*
X118173571Y-91259819D02*
X118364047Y-91259819D01*
X118364047Y-91259819D02*
X118459285Y-91212200D01*
X118459285Y-91212200D02*
X118506904Y-91164580D01*
X118506904Y-91164580D02*
X118554523Y-91069342D01*
X118554523Y-91069342D02*
X118554523Y-90259819D01*
X119554523Y-91259819D02*
X118983095Y-91259819D01*
X119268809Y-91259819D02*
X119268809Y-90259819D01*
X119268809Y-90259819D02*
X119173571Y-90402676D01*
X119173571Y-90402676D02*
X119078333Y-90497914D01*
X119078333Y-90497914D02*
X118983095Y-90545533D01*
X120040400Y-90285219D02*
X120040400Y-90523314D01*
X119802305Y-90428076D02*
X120040400Y-90523314D01*
X120040400Y-90523314D02*
X120278495Y-90428076D01*
X119897543Y-90713790D02*
X120040400Y-90523314D01*
X120040400Y-90523314D02*
X120183257Y-90713790D01*
X138557142Y-106117580D02*
X138509523Y-106165200D01*
X138509523Y-106165200D02*
X138366666Y-106212819D01*
X138366666Y-106212819D02*
X138271428Y-106212819D01*
X138271428Y-106212819D02*
X138128571Y-106165200D01*
X138128571Y-106165200D02*
X138033333Y-106069961D01*
X138033333Y-106069961D02*
X137985714Y-105974723D01*
X137985714Y-105974723D02*
X137938095Y-105784247D01*
X137938095Y-105784247D02*
X137938095Y-105641390D01*
X137938095Y-105641390D02*
X137985714Y-105450914D01*
X137985714Y-105450914D02*
X138033333Y-105355676D01*
X138033333Y-105355676D02*
X138128571Y-105260438D01*
X138128571Y-105260438D02*
X138271428Y-105212819D01*
X138271428Y-105212819D02*
X138366666Y-105212819D01*
X138366666Y-105212819D02*
X138509523Y-105260438D01*
X138509523Y-105260438D02*
X138557142Y-105308057D01*
X139509523Y-106212819D02*
X138938095Y-106212819D01*
X139223809Y-106212819D02*
X139223809Y-105212819D01*
X139223809Y-105212819D02*
X139128571Y-105355676D01*
X139128571Y-105355676D02*
X139033333Y-105450914D01*
X139033333Y-105450914D02*
X138938095Y-105498533D01*
X140128571Y-105212819D02*
X140223809Y-105212819D01*
X140223809Y-105212819D02*
X140319047Y-105260438D01*
X140319047Y-105260438D02*
X140366666Y-105308057D01*
X140366666Y-105308057D02*
X140414285Y-105403295D01*
X140414285Y-105403295D02*
X140461904Y-105593771D01*
X140461904Y-105593771D02*
X140461904Y-105831866D01*
X140461904Y-105831866D02*
X140414285Y-106022342D01*
X140414285Y-106022342D02*
X140366666Y-106117580D01*
X140366666Y-106117580D02*
X140319047Y-106165200D01*
X140319047Y-106165200D02*
X140223809Y-106212819D01*
X140223809Y-106212819D02*
X140128571Y-106212819D01*
X140128571Y-106212819D02*
X140033333Y-106165200D01*
X140033333Y-106165200D02*
X139985714Y-106117580D01*
X139985714Y-106117580D02*
X139938095Y-106022342D01*
X139938095Y-106022342D02*
X139890476Y-105831866D01*
X139890476Y-105831866D02*
X139890476Y-105593771D01*
X139890476Y-105593771D02*
X139938095Y-105403295D01*
X139938095Y-105403295D02*
X139985714Y-105308057D01*
X139985714Y-105308057D02*
X140033333Y-105260438D01*
X140033333Y-105260438D02*
X140128571Y-105212819D01*
X153343095Y-27330200D02*
X153485952Y-27377819D01*
X153485952Y-27377819D02*
X153724047Y-27377819D01*
X153724047Y-27377819D02*
X153819285Y-27330200D01*
X153819285Y-27330200D02*
X153866904Y-27282580D01*
X153866904Y-27282580D02*
X153914523Y-27187342D01*
X153914523Y-27187342D02*
X153914523Y-27092104D01*
X153914523Y-27092104D02*
X153866904Y-26996866D01*
X153866904Y-26996866D02*
X153819285Y-26949247D01*
X153819285Y-26949247D02*
X153724047Y-26901628D01*
X153724047Y-26901628D02*
X153533571Y-26854009D01*
X153533571Y-26854009D02*
X153438333Y-26806390D01*
X153438333Y-26806390D02*
X153390714Y-26758771D01*
X153390714Y-26758771D02*
X153343095Y-26663533D01*
X153343095Y-26663533D02*
X153343095Y-26568295D01*
X153343095Y-26568295D02*
X153390714Y-26473057D01*
X153390714Y-26473057D02*
X153438333Y-26425438D01*
X153438333Y-26425438D02*
X153533571Y-26377819D01*
X153533571Y-26377819D02*
X153771666Y-26377819D01*
X153771666Y-26377819D02*
X153914523Y-26425438D01*
X154866904Y-27377819D02*
X154295476Y-27377819D01*
X154581190Y-27377819D02*
X154581190Y-26377819D01*
X154581190Y-26377819D02*
X154485952Y-26520676D01*
X154485952Y-26520676D02*
X154390714Y-26615914D01*
X154390714Y-26615914D02*
X154295476Y-26663533D01*
D12*
%TO.C,R8*%
X129817501Y-102555741D02*
X129817501Y-103030257D01*
X130862501Y-102555741D02*
X130862501Y-103030257D01*
%TO.C,R20*%
X129525500Y-90631742D02*
X129525500Y-91106258D01*
X130570500Y-90631742D02*
X130570500Y-91106258D01*
%TO.C,TP5*%
X160490001Y-105156000D02*
G75*
G02*
X157690001Y-105156000I-1400000J0D01*
G01*
X157690001Y-105156000D02*
G75*
G02*
X160490001Y-105156000I1400000J0D01*
G01*
%TO.C,C4*%
X111505581Y-84282999D02*
X111224421Y-84282999D01*
X111505581Y-85302999D02*
X111224421Y-85302999D01*
%TO.C,J4*%
X98950000Y-26306000D02*
X137270000Y-26306000D01*
X98950000Y-28956000D02*
X98950000Y-26306000D01*
X98950000Y-31606000D02*
X98950000Y-30226000D01*
X100330000Y-31606000D02*
X98950000Y-31606000D01*
X101600000Y-28956000D02*
X98950000Y-28956000D01*
X101600000Y-31606000D02*
X101600000Y-28956000D01*
X101600000Y-31606000D02*
X137270000Y-31606000D01*
X137270000Y-31606000D02*
X137270000Y-26306000D01*
%TO.C,R7*%
X114067501Y-86055741D02*
X114067501Y-86530257D01*
X115112501Y-86055741D02*
X115112501Y-86530257D01*
%TO.C,C13*%
X117884000Y-63907580D02*
X117884000Y-63626420D01*
X118904000Y-63907580D02*
X118904000Y-63626420D01*
%TO.C,J3*%
X99000800Y-54550800D02*
X137320800Y-54550800D01*
X99000800Y-57200800D02*
X99000800Y-54550800D01*
X99000800Y-59850800D02*
X99000800Y-58470800D01*
X100380800Y-59850800D02*
X99000800Y-59850800D01*
X101650800Y-57200800D02*
X99000800Y-57200800D01*
X101650800Y-59850800D02*
X101650800Y-57200800D01*
X101650800Y-59850800D02*
X137320800Y-59850800D01*
X137320800Y-59850800D02*
X137320800Y-54550800D01*
%TO.C,C2*%
X106720001Y-90572999D02*
X112460001Y-90572999D01*
X106720001Y-98012999D02*
X106720001Y-90572999D01*
X112460001Y-90572999D02*
X112460001Y-98012999D01*
X112460001Y-98012999D02*
X106720001Y-98012999D01*
%TO.C,C9*%
X114413420Y-106678000D02*
X114694580Y-106678000D01*
X114413420Y-107698000D02*
X114694580Y-107698000D01*
%TO.C,R15*%
X111677500Y-73337258D02*
X111677500Y-72862742D01*
X112722500Y-73337258D02*
X112722500Y-72862742D01*
%TO.C,J2*%
X131880001Y-99422999D02*
X131880001Y-98042999D01*
X133260001Y-99422999D02*
X131880001Y-99422999D01*
X134530001Y-96662999D02*
X139720001Y-96662999D01*
X134530001Y-99422999D02*
X134530001Y-96662999D01*
X134530001Y-99422999D02*
X139720001Y-99422999D01*
X139720001Y-99422999D02*
X139720001Y-96662999D01*
%TO.C,J9*%
X99000000Y-34103000D02*
X100330000Y-34103000D01*
X99000000Y-35433000D02*
X99000000Y-34103000D01*
X101600000Y-34103000D02*
X137220000Y-34103000D01*
X101600000Y-36763000D02*
X101600000Y-34103000D01*
X101600000Y-36763000D02*
X137220000Y-36763000D01*
X137220000Y-36763000D02*
X137220000Y-34103000D01*
D13*
%TO.C,J5*%
X155781000Y-72537000D02*
X163481000Y-72537000D01*
X155781000Y-82737000D02*
X155781000Y-72537000D01*
X163481000Y-72537000D02*
X163481000Y-82737000D01*
X163481000Y-82737000D02*
X155781000Y-82737000D01*
D14*
X158081000Y-81037000D02*
G75*
G02*
X157881000Y-81037000I-100000J0D01*
G01*
X157881000Y-81037000D02*
G75*
G02*
X158081000Y-81037000I100000J0D01*
G01*
D12*
%TO.C,R17*%
X111577259Y-81520499D02*
X111102743Y-81520499D01*
X111577259Y-82565499D02*
X111102743Y-82565499D01*
%TO.C,R4*%
X122567501Y-98855257D02*
X122567501Y-98380741D01*
X123612501Y-98855257D02*
X123612501Y-98380741D01*
%TO.C,C6*%
X139220001Y-86072999D02*
X144960001Y-86072999D01*
X139220001Y-93512999D02*
X139220001Y-86072999D01*
X144960001Y-86072999D02*
X144960001Y-93512999D01*
X144960001Y-93512999D02*
X139220001Y-93512999D01*
%TO.C,U2*%
X145059000Y-62773300D02*
X145109000Y-62773300D01*
X145059000Y-64593300D02*
X145059000Y-62773300D01*
X145109000Y-64593300D02*
X145059000Y-64593300D01*
X147009000Y-64593300D02*
X146229000Y-64593300D01*
X148129000Y-62773300D02*
X148179000Y-62773300D01*
X148179000Y-62773300D02*
X148179000Y-64593300D01*
X148179000Y-64593300D02*
X148129000Y-64593300D01*
X148459000Y-62473300D02*
X148129000Y-62233300D01*
X148459000Y-61993300D01*
X148459000Y-62473300D01*
G36*
X148459000Y-62473300D02*
G01*
X148129000Y-62233300D01*
X148459000Y-61993300D01*
X148459000Y-62473300D01*
G37*
%TO.C,J8*%
X98442000Y-62882000D02*
X99822000Y-62882000D01*
X98442000Y-64262000D02*
X98442000Y-62882000D01*
X98442000Y-65532000D02*
X98442000Y-75802000D01*
X98442000Y-65532000D02*
X101092000Y-65532000D01*
X98442000Y-75802000D02*
X103742000Y-75802000D01*
X101092000Y-62882000D02*
X103742000Y-62882000D01*
X101092000Y-65532000D02*
X101092000Y-62882000D01*
X103742000Y-62882000D02*
X103742000Y-75802000D01*
%TO.C,R19*%
X107427500Y-63292258D02*
X107427500Y-62817742D01*
X108472500Y-63292258D02*
X108472500Y-62817742D01*
%TO.C,TP3*%
X134990001Y-105156000D02*
G75*
G02*
X132190001Y-105156000I-1400000J0D01*
G01*
X132190001Y-105156000D02*
G75*
G02*
X134990001Y-105156000I1400000J0D01*
G01*
%TO.C,C16*%
X136779580Y-87882000D02*
X136498420Y-87882000D01*
X136779580Y-88902000D02*
X136498420Y-88902000D01*
%TO.C,Q1*%
X139640000Y-59240000D02*
X140640000Y-59240000D01*
X139640000Y-60760000D02*
X139640000Y-59240000D01*
X139690000Y-60760000D02*
X139640000Y-60760000D01*
X141590000Y-60760000D02*
X140810000Y-60760000D01*
X141760000Y-59240000D02*
X142760000Y-59240000D01*
X142760000Y-59240000D02*
X142760000Y-60760000D01*
X142760000Y-60760000D02*
X142710000Y-60760000D01*
X141150000Y-61540000D02*
X140820000Y-61300000D01*
X141150000Y-61060000D01*
X141150000Y-61540000D01*
G36*
X141150000Y-61540000D02*
G01*
X140820000Y-61300000D01*
X141150000Y-61060000D01*
X141150000Y-61540000D01*
G37*
%TO.C,C17*%
X145746380Y-58672000D02*
X145465220Y-58672000D01*
X145746380Y-59692000D02*
X145465220Y-59692000D01*
%TO.C,C1*%
X143877420Y-39622000D02*
X144158580Y-39622000D01*
X143877420Y-40642000D02*
X144158580Y-40642000D01*
%TO.C,R1*%
X145777743Y-81270499D02*
X146252259Y-81270499D01*
X145777743Y-82315499D02*
X146252259Y-82315499D01*
%TO.C,C14*%
X120394000Y-63907580D02*
X120394000Y-63626420D01*
X121414000Y-63907580D02*
X121414000Y-63626420D01*
%TO.C,R21*%
X160532542Y-87869500D02*
X161007058Y-87869500D01*
X160532542Y-88914500D02*
X161007058Y-88914500D01*
%TO.C,TP2*%
X130490001Y-76792999D02*
G75*
G02*
X127690001Y-76792999I-1400000J0D01*
G01*
X127690001Y-76792999D02*
G75*
G02*
X130490001Y-76792999I1400000J0D01*
G01*
%TO.C,R13*%
X127567501Y-85030257D02*
X127567501Y-84555741D01*
X128612501Y-85030257D02*
X128612501Y-84555741D01*
%TO.C,C12*%
X143877420Y-42797000D02*
X144158580Y-42797000D01*
X143877420Y-43817000D02*
X144158580Y-43817000D01*
%TO.C,Q5*%
X121302500Y-66590000D02*
X122822500Y-66590000D01*
X121302500Y-67590000D02*
X121302500Y-66590000D01*
X121302500Y-69710000D02*
X121302500Y-68710000D01*
X122822500Y-66590000D02*
X122822500Y-66640000D01*
X122822500Y-67760000D02*
X122822500Y-68540000D01*
X122822500Y-69660000D02*
X122822500Y-69710000D01*
X122822500Y-69710000D02*
X121302500Y-69710000D01*
X123362500Y-68530000D02*
X123122500Y-68200000D01*
X123602500Y-68200000D01*
X123362500Y-68530000D01*
G36*
X123362500Y-68530000D02*
G01*
X123122500Y-68200000D01*
X123602500Y-68200000D01*
X123362500Y-68530000D01*
G37*
%TO.C,R10*%
X125817501Y-98780257D02*
X125817501Y-98305741D01*
X126862501Y-98780257D02*
X126862501Y-98305741D01*
%TO.C,J1*%
X117130001Y-78172999D02*
X117130001Y-76792999D01*
X118510001Y-78172999D02*
X117130001Y-78172999D01*
X119780001Y-75412999D02*
X124970001Y-75412999D01*
X119780001Y-78172999D02*
X119780001Y-75412999D01*
X119780001Y-78172999D02*
X124970001Y-78172999D01*
X124970001Y-78172999D02*
X124970001Y-75412999D01*
%TO.C,Q3*%
X109577500Y-66690000D02*
X111097500Y-66690000D01*
X109577500Y-66740000D02*
X109577500Y-66690000D01*
X109577500Y-68640000D02*
X109577500Y-67860000D01*
X109577500Y-69810000D02*
X109577500Y-69760000D01*
X111097500Y-66690000D02*
X111097500Y-67690000D01*
X111097500Y-68810000D02*
X111097500Y-69810000D01*
X111097500Y-69810000D02*
X109577500Y-69810000D01*
X109277500Y-68200000D02*
X108797500Y-68200000D01*
X109037500Y-67870000D01*
X109277500Y-68200000D01*
G36*
X109277500Y-68200000D02*
G01*
X108797500Y-68200000D01*
X109037500Y-67870000D01*
X109277500Y-68200000D01*
G37*
%TO.C,C8*%
X125589420Y-106678000D02*
X125870580Y-106678000D01*
X125589420Y-107698000D02*
X125870580Y-107698000D01*
%TO.C,D2*%
X115877000Y-71136000D02*
X115877000Y-73136000D01*
X115877000Y-71136000D02*
X119887000Y-71136000D01*
X115877000Y-73136000D02*
X119887000Y-73136000D01*
%TO.C,R23*%
X166467058Y-87869500D02*
X165992542Y-87869500D01*
X166467058Y-88914500D02*
X165992542Y-88914500D01*
%TO.C,TP6*%
X128400000Y-89662000D02*
G75*
G02*
X125600000Y-89662000I-1400000J0D01*
G01*
X125600000Y-89662000D02*
G75*
G02*
X128400000Y-89662000I1400000J0D01*
G01*
%TO.C,C5*%
X125449421Y-94282999D02*
X125730581Y-94282999D01*
X125449421Y-95302999D02*
X125730581Y-95302999D01*
%TO.C,R5*%
X114067501Y-90730741D02*
X114067501Y-91205257D01*
X115112501Y-90730741D02*
X115112501Y-91205257D01*
%TO.C,Q6*%
X128960400Y-63732900D02*
X129010400Y-63732900D01*
X128960400Y-65252900D02*
X128960400Y-63732900D01*
X129960400Y-65252900D02*
X128960400Y-65252900D01*
X130130400Y-63732900D02*
X130910400Y-63732900D01*
X132030400Y-63732900D02*
X132080400Y-63732900D01*
X132080400Y-63732900D02*
X132080400Y-65252900D01*
X132080400Y-65252900D02*
X131080400Y-65252900D01*
X130900400Y-63192900D02*
X130570400Y-63432900D01*
X130570400Y-62952900D01*
X130900400Y-63192900D01*
G36*
X130900400Y-63192900D02*
G01*
X130570400Y-63432900D01*
X130570400Y-62952900D01*
X130900400Y-63192900D01*
G37*
%TO.C,C11*%
X100049420Y-106678000D02*
X100330580Y-106678000D01*
X100049420Y-107698000D02*
X100330580Y-107698000D01*
%TO.C,R9*%
X126402259Y-103020499D02*
X125927743Y-103020499D01*
X126402259Y-104065499D02*
X125927743Y-104065499D01*
%TO.C,D1*%
X140805000Y-82650000D02*
X143090000Y-82650000D01*
X143090000Y-81180000D02*
X140805000Y-81180000D01*
X143090000Y-82650000D02*
X143090000Y-81180000D01*
%TO.C,C7*%
X144870001Y-72422999D02*
X152310001Y-72422999D01*
X144870001Y-78162999D02*
X144870001Y-72422999D01*
X152310001Y-72422999D02*
X152310001Y-78162999D01*
X152310001Y-78162999D02*
X144870001Y-78162999D01*
D15*
%TO.C,BT1*%
X148564600Y-48964670D02*
X148564600Y-54482472D01*
X156083000Y-39992000D02*
X156083000Y-42194000D01*
X156083000Y-64693700D02*
X156083000Y-68952000D01*
X156083000Y-68952000D02*
X156771000Y-68952000D01*
X156452000Y-39992000D02*
X156083000Y-39992000D01*
X161745000Y-68952000D02*
X162433000Y-68952000D01*
X162433000Y-39992000D02*
X162064000Y-39992000D01*
X162433000Y-42194000D02*
X162433000Y-39992000D01*
X162433000Y-68952000D02*
X162433000Y-64693700D01*
X169951400Y-54482472D02*
X169951400Y-48964670D01*
X148564600Y-48964670D02*
G75*
G02*
X156083000Y-42194000I11510743J-5222262D01*
G01*
X156083000Y-64693700D02*
G75*
G02*
X148564599Y-54482472I3175028J10211201D01*
G01*
X162433000Y-42194000D02*
G75*
G02*
X169951400Y-48964670I-3992348J-11992938D01*
G01*
X169951400Y-54482472D02*
G75*
G02*
X162433000Y-64693700I-10693430J-27D01*
G01*
D12*
%TO.C,D4*%
X142812500Y-27713000D02*
X142812500Y-29183000D01*
X142812500Y-29183000D02*
X145097500Y-29183000D01*
X145097500Y-27713000D02*
X142812500Y-27713000D01*
%TO.C,Q4*%
X133340000Y-63740000D02*
X133390000Y-63740000D01*
X133340000Y-65260000D02*
X133340000Y-63740000D01*
X134340000Y-65260000D02*
X133340000Y-65260000D01*
X134510000Y-63740000D02*
X135290000Y-63740000D01*
X136410000Y-63740000D02*
X136460000Y-63740000D01*
X136460000Y-63740000D02*
X136460000Y-65260000D01*
X136460000Y-65260000D02*
X135460000Y-65260000D01*
X135280000Y-63200000D02*
X134950000Y-63440000D01*
X134950000Y-62960000D01*
X135280000Y-63200000D01*
G36*
X135280000Y-63200000D02*
G01*
X134950000Y-63440000D01*
X134950000Y-62960000D01*
X135280000Y-63200000D01*
G37*
%TO.C,C15*%
X114044000Y-94360420D02*
X114044000Y-94641580D01*
X115064000Y-94360420D02*
X115064000Y-94641580D01*
%TO.C,R6*%
X111577259Y-86770499D02*
X111102743Y-86770499D01*
X111577259Y-87815499D02*
X111102743Y-87815499D01*
%TO.C,J7*%
X141977600Y-67758800D02*
X141977600Y-70518800D01*
X147167600Y-67758800D02*
X141977600Y-67758800D01*
X147167600Y-67758800D02*
X147167600Y-70518800D01*
X147167600Y-70518800D02*
X141977600Y-70518800D01*
X148437600Y-67758800D02*
X149817600Y-67758800D01*
X149817600Y-67758800D02*
X149817600Y-69138800D01*
%TO.C,D3*%
X157838800Y-35322000D02*
X157838800Y-37322000D01*
X157838800Y-35322000D02*
X161848800Y-35322000D01*
X157838800Y-37322000D02*
X161848800Y-37322000D01*
%TO.C,J6*%
X142520000Y-49005000D02*
X142520000Y-46355000D01*
X145280000Y-46355000D02*
X142520000Y-46355000D01*
X145280000Y-49005000D02*
X142520000Y-49005000D01*
X145280000Y-49005000D02*
X145280000Y-46355000D01*
X145280000Y-50275000D02*
X145280000Y-51655000D01*
X145280000Y-51655000D02*
X143900000Y-51655000D01*
%TO.C,TP7*%
X149583600Y-87172800D02*
G75*
G02*
X146783600Y-87172800I-1400000J0D01*
G01*
X146783600Y-87172800D02*
G75*
G02*
X149583600Y-87172800I1400000J0D01*
G01*
%TO.C,R3*%
X119067501Y-98855257D02*
X119067501Y-98380741D01*
X120112501Y-98855257D02*
X120112501Y-98380741D01*
%TO.C,R18*%
X144097742Y-31735500D02*
X144572258Y-31735500D01*
X144097742Y-32780500D02*
X144572258Y-32780500D01*
%TO.C,C3*%
X116590000Y-83559420D02*
X116590000Y-83840580D01*
X117610000Y-83559420D02*
X117610000Y-83840580D01*
%TO.C,TP1*%
X134990001Y-76792999D02*
G75*
G02*
X132190001Y-76792999I-1400000J0D01*
G01*
X132190001Y-76792999D02*
G75*
G02*
X134990001Y-76792999I1400000J0D01*
G01*
%TO.C,R11*%
X132590001Y-91667000D02*
X132590001Y-91737000D01*
X133960001Y-90297000D02*
G75*
G02*
X131220001Y-90297000I-1370000J0D01*
G01*
X131220001Y-90297000D02*
G75*
G02*
X133960001Y-90297000I1370000J0D01*
G01*
%TO.C,TP4*%
X111128000Y-105156000D02*
G75*
G02*
X108328000Y-105156000I-1400000J0D01*
G01*
X108328000Y-105156000D02*
G75*
G02*
X111128000Y-105156000I1400000J0D01*
G01*
%TO.C,R2*%
X129652500Y-85010258D02*
X129652500Y-84535742D01*
X130697500Y-85010258D02*
X130697500Y-84535742D01*
%TO.C,J10*%
X99000000Y-49343000D02*
X100330000Y-49343000D01*
X99000000Y-50673000D02*
X99000000Y-49343000D01*
X101600000Y-49343000D02*
X137220000Y-49343000D01*
X101600000Y-52003000D02*
X101600000Y-49343000D01*
X101600000Y-52003000D02*
X137220000Y-52003000D01*
X137220000Y-52003000D02*
X137220000Y-49343000D01*
%TO.C,Q2*%
X115740000Y-66640000D02*
X117260000Y-66640000D01*
X115740000Y-67640000D02*
X115740000Y-66640000D01*
X115740000Y-69760000D02*
X115740000Y-68760000D01*
X117260000Y-66640000D02*
X117260000Y-66690000D01*
X117260000Y-67810000D02*
X117260000Y-68590000D01*
X117260000Y-69710000D02*
X117260000Y-69760000D01*
X117260000Y-69760000D02*
X115740000Y-69760000D01*
X117800000Y-68580000D02*
X117560000Y-68250000D01*
X118040000Y-68250000D01*
X117800000Y-68580000D01*
G36*
X117800000Y-68580000D02*
G01*
X117560000Y-68250000D01*
X118040000Y-68250000D01*
X117800000Y-68580000D01*
G37*
%TO.C,R16*%
X141437258Y-64377500D02*
X140962742Y-64377500D01*
X141437258Y-65422500D02*
X140962742Y-65422500D01*
%TO.C,J17*%
X158589200Y-90618800D02*
X168969200Y-90618800D01*
X158589200Y-93268800D02*
X158589200Y-90618800D01*
X158589200Y-95918800D02*
X158589200Y-94538800D01*
X159969200Y-95918800D02*
X158589200Y-95918800D01*
X161239200Y-93268800D02*
X158589200Y-93268800D01*
X161239200Y-95918800D02*
X161239200Y-93268800D01*
X161239200Y-95918800D02*
X168969200Y-95918800D01*
X168969200Y-95918800D02*
X168969200Y-90618800D01*
%TO.C,R12*%
X133462500Y-86680257D02*
X133462500Y-86205741D01*
X134507500Y-86680257D02*
X134507500Y-86205741D01*
%TO.C,R14*%
X140840001Y-76467999D02*
X140840001Y-76397999D01*
X142210001Y-77837999D02*
G75*
G02*
X139470001Y-77837999I-1370000J0D01*
G01*
X139470001Y-77837999D02*
G75*
G02*
X142210001Y-77837999I1370000J0D01*
G01*
D16*
%TO.C,U1*%
X119460602Y-85116000D02*
X119460602Y-85822959D01*
X119460602Y-88763041D02*
X119460602Y-89470000D01*
X119460602Y-89470000D02*
X120167561Y-89470000D01*
X120167561Y-85116000D02*
X119460602Y-85116000D01*
X123107643Y-89470000D02*
X123814602Y-89470000D01*
X123814602Y-85116000D02*
X123107643Y-85116000D01*
X123814602Y-85822959D02*
X123814602Y-85116000D01*
X123814602Y-89470000D02*
X123814602Y-88763041D01*
D12*
%TO.C,C10*%
X139059420Y-106678000D02*
X139340580Y-106678000D01*
X139059420Y-107698000D02*
X139340580Y-107698000D01*
D15*
%TO.C,S1*%
X150880000Y-27958000D02*
X161980000Y-27958000D01*
X150880000Y-29758000D02*
X150880000Y-27958000D01*
X150880000Y-34158000D02*
X150880000Y-32358000D01*
X161980000Y-27958000D02*
X161980000Y-29758000D01*
X161980000Y-34158000D02*
X150880000Y-34158000D01*
X161980000Y-34158000D02*
X161980000Y-32358000D01*
D13*
X154030000Y-34758000D02*
G75*
G02*
X153830000Y-34758000I-100000J0D01*
G01*
X153830000Y-34758000D02*
G75*
G02*
X154030000Y-34758000I100000J0D01*
G01*
%TD*%
M02*
