M48
; DRILL file {KiCad 9.0.7} date 2026-07-15T10:41:25-0400
; FORMAT={-:-/ absolute / inch / decimal}
; #@! TF.CreationDate,2026-07-15T10:41:25-04:00
; #@! TF.GenerationSoftware,Kicad,Pcbnew,9.0.7
; #@! TF.FileFunction,Plated,1,4,PTH
FMAT,2
INCH
; #@! TA.AperFunction,Plated,PTH,ViaDrill
T1C0.0138
; #@! TA.AperFunction,Plated,PTH,ComponentDrill
T2C0.0315
; #@! TA.AperFunction,Plated,PTH,ComponentDrill
T3C0.0394
; #@! TA.AperFunction,Plated,PTH,ComponentDrill
T4C0.0512
%
G90
G05
T1
X3.6915Y-4.5839
X3.6915Y-4.643
X3.6915Y-4.7021
X3.6915Y-4.7611
X3.6915Y-4.8202
X3.6915Y-4.8792
X3.6915Y-4.9383
X3.6915Y-4.9973
X3.6915Y-5.0564
X3.6915Y-5.1154
X3.721Y-4.5839
X3.721Y-4.643
X3.721Y-4.7021
X3.721Y-4.7611
X3.721Y-4.8202
X3.721Y-4.8792
X3.721Y-4.9383
X3.721Y-4.9973
X3.721Y-5.0564
X3.721Y-5.1154
X3.77Y-2.85
X4.0245Y-4.22
X4.26Y-2.78
X4.26Y-2.81
X4.3Y-2.78
X4.3Y-2.81
X4.34Y-2.78
X4.34Y-2.81
X4.48Y-2.74
X4.528Y-2.578
X4.556Y-2.578
X4.575Y-3.377
X4.575Y-3.4065
X4.588Y-3.498
X4.59Y-2.476
X4.6Y-4.22
X4.6045Y-3.377
X4.6045Y-3.4065
X4.6689Y-4.0076
X4.6965Y-4.5839
X4.6965Y-4.643
X4.6965Y-4.7021
X4.6965Y-4.7611
X4.6965Y-4.8202
X4.6965Y-4.8792
X4.6965Y-4.9383
X4.6965Y-4.9973
X4.6965Y-5.0564
X4.6965Y-5.1154
X4.715Y-2.745
X4.726Y-4.5839
X4.726Y-4.643
X4.726Y-4.7021
X4.726Y-4.7611
X4.726Y-4.8202
X4.726Y-4.8792
X4.726Y-4.9383
X4.726Y-4.9973
X4.726Y-5.0564
X4.726Y-5.1154
X4.728Y-3.1808
X4.8067Y-3.1808
X4.815Y-2.476
X4.9248Y-3.5745
X4.9248Y-4.0076
X5.042Y-3.274
X5.045Y-4.22
X5.085Y-3.73
X5.085Y-3.77
X5.1102Y-2.748
X5.1102Y-2.7874
X5.1102Y-2.8268
X5.125Y-3.73
X5.125Y-3.77
X5.1496Y-2.748
X5.1496Y-2.7874
X5.1496Y-2.8268
X5.1811Y-2.6378
X5.189Y-2.748
X5.189Y-2.7874
X5.189Y-2.8268
X5.2283Y-2.748
X5.2283Y-2.7874
X5.2283Y-2.8268
X5.2677Y-2.748
X5.2677Y-2.7874
X5.2677Y-2.8268
X5.3484Y-2.375
X5.3484Y-2.405
X5.3484Y-2.435
X5.5266Y-2.48
X5.5848Y-4.22
X5.6063Y-2.2913
X5.6339Y-2.2638
X5.6614Y-2.2362
X5.705Y-1.75
X5.71Y-1.515
X5.715Y-1.33
X5.718Y-2.416
X5.732Y-2.602
X5.7515Y-4.5839
X5.7515Y-4.643
X5.7515Y-4.7021
X5.7515Y-4.7611
X5.7515Y-4.8202
X5.7515Y-4.8792
X5.7515Y-4.9383
X5.7515Y-4.9973
X5.7515Y-5.0564
X5.7515Y-5.1154
X5.781Y-4.5839
X5.781Y-4.643
X5.781Y-4.7021
X5.781Y-4.7611
X5.781Y-4.8202
X5.781Y-4.8792
X5.781Y-4.9383
X5.781Y-4.9973
X5.781Y-5.0564
X5.781Y-5.1154
X5.8Y-1.12
X5.809Y-2.607
X5.825Y-3.22
X5.864Y-2.33
X6.46Y-1.43
X6.751Y-4.5858
X6.751Y-4.6449
X6.751Y-4.7039
X6.751Y-4.763
X6.751Y-4.8221
X6.751Y-4.8811
X6.751Y-4.9402
X6.751Y-4.9992
X6.751Y-5.0583
X6.751Y-5.1173
X6.7805Y-4.5858
X6.7805Y-4.6449
X6.7805Y-4.7039
X6.7805Y-4.763
X6.7805Y-4.8221
X6.7805Y-4.8811
X6.7805Y-4.9402
X6.7805Y-4.9992
X6.7805Y-5.0583
X6.7805Y-5.1173
T2
X4.3146Y-3.6139
X4.3146Y-3.8107
X5.2201Y-3.555
X5.2201Y-3.655
X5.5449Y-2.9645
X5.5449Y-3.0645
X5.5941Y-3.4367
X5.5941Y-3.6336
X5.7516Y-2.9643
X5.9484Y-2.9643
X6.0602Y-1.1755
X6.0602Y-1.27
X6.1587Y-1.1755
X6.1587Y-1.27
X6.2571Y-1.1755
X6.2571Y-1.27
T3
X3.93Y-2.53
X3.93Y-2.63
X3.93Y-2.73
X3.93Y-2.83
X3.93Y-2.93
X3.95Y-1.09
X3.95Y-1.19
X3.95Y-1.395
X3.95Y-1.995
X3.952Y-2.202
X3.952Y-2.302
X4.03Y-2.53
X4.03Y-2.63
X4.03Y-2.73
X4.03Y-2.83
X4.03Y-2.93
X4.05Y-1.09
X4.05Y-1.19
X4.05Y-1.395
X4.05Y-1.995
X4.052Y-2.202
X4.052Y-2.302
X4.15Y-1.09
X4.15Y-1.19
X4.15Y-1.395
X4.15Y-1.995
X4.152Y-2.202
X4.152Y-2.302
X4.25Y-1.09
X4.25Y-1.19
X4.25Y-1.395
X4.25Y-1.995
X4.252Y-2.202
X4.252Y-2.302
X4.32Y-4.14
X4.35Y-1.09
X4.35Y-1.19
X4.35Y-1.395
X4.35Y-1.995
X4.352Y-2.202
X4.352Y-2.302
X4.45Y-1.09
X4.45Y-1.19
X4.45Y-1.395
X4.45Y-1.995
X4.452Y-2.202
X4.452Y-2.302
X4.55Y-1.09
X4.55Y-1.19
X4.55Y-1.395
X4.55Y-1.995
X4.552Y-2.202
X4.552Y-2.302
X4.65Y-1.09
X4.65Y-1.19
X4.65Y-1.395
X4.65Y-1.995
X4.652Y-2.202
X4.652Y-2.302
X4.6657Y-3.0233
X4.75Y-1.09
X4.75Y-1.19
X4.75Y-1.395
X4.75Y-1.995
X4.752Y-2.202
X4.752Y-2.302
X4.7657Y-3.0233
X4.85Y-1.09
X4.85Y-1.19
X4.85Y-1.395
X4.85Y-1.995
X4.852Y-2.202
X4.852Y-2.302
X4.8657Y-3.0233
X4.95Y-1.09
X4.95Y-1.19
X4.95Y-1.395
X4.95Y-1.995
X4.952Y-2.202
X4.952Y-2.302
X5.0Y-3.53
X5.05Y-1.09
X5.05Y-1.19
X5.05Y-1.395
X5.05Y-1.995
X5.052Y-2.202
X5.052Y-2.302
X5.0823Y-3.0233
X5.15Y-1.09
X5.15Y-1.19
X5.15Y-1.395
X5.15Y-1.995
X5.152Y-2.202
X5.152Y-2.302
X5.2465Y-3.86
X5.25Y-1.09
X5.25Y-1.19
X5.25Y-1.395
X5.25Y-1.995
X5.252Y-2.202
X5.252Y-2.302
X5.2594Y-3.0233
X5.2594Y-4.14
X5.3465Y-3.86
X5.35Y-1.09
X5.35Y-1.19
X5.35Y-1.395
X5.35Y-1.995
X5.352Y-2.202
X5.352Y-2.302
X5.4465Y-3.86
X5.644Y-2.722
X5.6654Y-1.8793
X5.6654Y-1.9793
X5.744Y-2.722
X5.834Y-3.432
X5.844Y-2.722
X6.2634Y-4.14
X6.298Y-3.622
X6.298Y-3.722
X6.398Y-3.622
X6.398Y-3.722
X6.465Y-3.435
X6.498Y-3.622
X6.498Y-3.722
X6.598Y-3.622
X6.598Y-3.722
T4
X5.95Y-1.2228
X6.2748Y-2.9581
X6.2748Y-3.155
X6.3673Y-1.2228
T2
G00X6.335Y-1.6091
M15
G01X6.205Y-1.6091
M16
G05
G00X6.2995Y-2.68
M15
G01X6.2405Y-2.68
M16
G05
M30
